<svg width="143" height="140" viewBox="0 0 143 140" fill="none" xmlns="http://www.w3.org/2000/svg">
<path d="M32.0804 128.784C23.9432 101.099 25.4531 73.0158 32.9386 52.2834C41.5844 28.3248 59.0508 25.7422 69.3255 29.3102C80.4903 33.1881 86.6727 44.8296 88.0077 77.8393C89.3427 110.857 99.9672 114.727 98.0838 122.959C96.2005 131.184 80.1248 128.045 73.6007 122.228C73.6007 122.228 76.676 141.276 63.469 139.933C52.1929 138.789 48.0687 128.824 48.0687 128.824C48.0687 128.824 38.3025 150.001 32.0725 128.792L32.0804 128.784Z" fill="#DBC5FF"/>
<path opacity="0.25" d="M51.0249 45.0545C50.9454 49.7827 47.7112 53.5175 45.3828 57.3477C40.8772 64.7379 39.9951 73.1771 41.0282 81.6401C42.2122 91.303 46.9404 100.775 46.8609 110.526C46.8132 116.191 44.612 122.318 38.5648 123.876C36.3954 124.432 34.5518 124.082 33.0976 123.16C27.1298 97.1675 28.0436 72.5573 35.3782 53.3188C38.1754 45.9842 43.1022 39.5873 47.1629 35.8843C49.7773 37.7994 51.0725 42.1064 51.0249 45.0545Z" fill="#F6F1FF"/>
<path d="M91.7263 122.268C93.9354 119.273 92.2428 115.546 90.7886 112.621C84.5665 100.082 83.5811 87.5185 83.0726 73.7155C82.6911 63.4168 83.0249 50.7581 76.334 42.2156C73.1236 38.1232 68.6895 35.1751 63.9931 33.0295C59.3682 30.9237 55.252 30.4469 50.6907 30.3913C57.3737 27.2763 64.2315 27.5305 69.3331 29.2947C80.4979 33.1725 86.6803 44.8141 88.0153 77.8238C89.3503 110.841 99.9747 114.711 98.0914 122.944C96.7485 128.808 88.198 128.896 81.0383 126.353C84.932 126.083 89.4377 125.352 91.7263 122.26L91.7263 122.268Z" fill="#D0B4FF"/>
<path d="M65.5355 135.055C70.2001 132.973 71.7497 129.199 73.8793 125.083C74.1415 130.343 73.4422 140.936 63.4774 139.927C59.6631 139.537 56.6672 138.139 54.3707 136.462C58.1612 136.748 61.9199 136.676 65.5355 135.063L65.5355 135.055Z" fill="#D0B4FF"/>
<path d="M35.4809 132.662C38.5165 134.474 42.9824 134.649 45.9385 132.623C42.8235 137.367 36.9669 143.327 32.5884 130.302C33.4466 131.216 34.4002 132.019 35.473 132.662L35.4809 132.662Z" fill="#D0B4FF"/>
<path d="M72.2816 55.0251C70.5493 49.542 64.216 48.6282 61.2281 50.885C55.8006 54.9853 53.8299 67.5408 60.6083 71.5061C67.3866 75.4714 76.1516 67.2547 72.2816 55.0251Z" fill="#F8F8F8"/>
<path d="M49.1961 55.0406C47.6227 50.0661 41.8853 49.2397 39.1756 51.2898C34.2567 55.0088 32.4688 66.3881 38.6114 69.98C44.754 73.5718 52.7005 66.1339 49.1961 55.0406Z" fill="#F8F8F8"/>
<path opacity="0.5" d="M71.5177 62.0101C71.3746 57.1707 67.7192 50.6149 62.3554 50.2494C65.5896 48.8985 70.7389 50.162 72.2805 55.0252C74.8075 63.0114 71.9388 69.2891 67.7669 71.5777C70.1826 69.0825 71.6289 65.7291 71.5256 62.0101L71.5177 62.0101Z" fill="url(#paint0_linear_59803_8683)"/>
<path opacity="0.5" d="M41.2025 50.4005C44.1029 49.7728 47.949 51.0998 49.1966 55.0413C51.5647 62.5189 48.7119 68.3357 44.7228 70.227C49.594 64.14 48.7914 53.7857 41.2025 50.4005Z" fill="url(#paint1_linear_59803_8683)"/>
<path d="M61.7363 57.8617C60.0357 58.1796 58.4623 60.4285 58.9709 63.7421C59.4795 67.0558 62.9044 67.4055 64.0964 64.6242C65.6062 61.096 64.4063 57.3611 61.7363 57.8617Z" fill="#484349"/>
<path d="M39.1361 57.6562C37.5945 57.9423 36.1641 59.9845 36.633 62.9883C37.1018 65.992 40.2009 66.3099 41.2737 63.7829C42.6405 60.5884 41.5518 57.2032 39.1361 57.6562Z" fill="#484349"/>
<path d="M55.2632 85.1051C54.1579 81.7893 49.7369 79.9472 47.5263 84.3682" stroke="#B07FFF" stroke-width="2.16" stroke-linecap="round" stroke-linejoin="round"/>
<path d="M74.0775 75.9497C75.2536 77.0542 74.308 78.6117 72.1545 79.6686C69.9533 80.7493 66.0675 82.2274 61.6174 81.4248C54.7676 80.1931 56.7622 76.3867 66.8303 75.1789C68.658 74.9564 72.5041 74.4716 74.0775 75.9497Z" fill="#D0B4FF"/>
<path d="M46.0345 77.7978C46.4 79.1964 45.0491 80.2771 43.0466 80.4837C40.9964 80.6983 37.5636 80.6903 34.7108 78.4335C30.3164 74.9609 33.3917 72.2115 41.1633 74.6033C42.5698 75.0404 45.5498 75.9304 46.0424 77.7978L46.0345 77.7978Z" fill="#D0B4FF"/>
<path d="M135.701 16.4797L131.945 18.3153C131.471 18.5467 131.259 19.1061 131.459 19.5937L133.135 23.6756C133.293 24.0583 133.198 24.4982 132.897 24.7823L129.757 27.7507" stroke="#44358C" stroke-width="2" stroke-linecap="round"/>
<path d="M139.095 25.7469C137.09 35.3515 114.918 49.9244 112.346 49.0729C109.773 48.2214 99.4447 33.4838 97.5107 23.9033C95.2315 12.6124 102.713 5.95525 109.115 7.37228C116.071 8.91203 117.938 22.3297 118.362 23.9031C118.786 25.4765 121.066 18.5983 124.589 16.0761C130.501 11.8435 141.601 13.7411 139.095 25.7469Z" stroke="#44358C" stroke-width="2"/>
<path d="M140 36C138 38.1667 133 43.3 129 46.5C125 49.7 122.667 51.1667 122 51.5" stroke="#44358C" stroke-width="2" stroke-linecap="round"/>
<defs>
<linearGradient id="paint0_linear_59803_8683" x1="73.2261" y1="60.6592" x2="62.3554" y2="60.6592" gradientUnits="userSpaceOnUse">
<stop stop-color="#C1C1C1"/>
<stop offset="0.06" stop-color="#C6C6C6"/>
<stop offset="0.43" stop-color="#E1E1E1"/>
<stop offset="0.75" stop-color="#F2F2F2"/>
<stop offset="1" stop-color="#F8F8F8"/>
</linearGradient>
<linearGradient id="paint1_linear_59803_8683" x1="50.0549" y1="60.2383" x2="41.2025" y2="60.2383" gradientUnits="userSpaceOnUse">
<stop stop-color="#C1C1C1"/>
<stop offset="0.06" stop-color="#C6C6C6"/>
<stop offset="0.43" stop-color="#E1E1E1"/>
<stop offset="0.75" stop-color="#F2F2F2"/>
<stop offset="1" stop-color="#F8F8F8"/>
</linearGradient>
</defs>
</svg>
