<svg width="138" height="137" viewBox="0 0 138 137" fill="none" xmlns="http://www.w3.org/2000/svg">
<path d="M32.0803 125.784C23.9431 98.0986 25.4529 70.0158 32.9385 49.2834C41.5843 25.3248 59.0506 22.7422 69.3254 26.3102C80.4902 30.1881 86.6726 41.8296 88.0076 74.8393C89.3426 107.857 99.967 111.727 98.0837 119.959C96.2004 128.184 80.1247 125.045 73.6006 119.228C73.6006 119.228 76.6759 138.276 63.4689 136.933C52.1928 135.789 48.0686 125.824 48.0686 125.824C48.0686 125.824 38.3024 147.001 32.0723 125.792L32.0803 125.784Z" fill="#DBC5FF"/>
<path opacity="0.25" d="M51.0248 42.0545C50.9453 46.7827 47.7111 50.5175 45.3828 54.3477C40.8771 61.7379 39.9951 70.1771 41.0281 78.6401C42.2121 88.303 46.9403 97.7752 46.8608 107.526C46.8131 113.191 44.612 119.318 38.5647 120.876C36.3953 121.432 34.5517 121.082 33.0975 120.16C27.1297 94.1675 28.0436 69.5573 35.3782 50.3188C38.1753 42.9842 43.1022 36.5873 47.1628 32.8843C49.7772 34.7994 51.0725 39.1064 51.0248 42.0545Z" fill="#F6F1FF"/>
<path d="M91.7263 119.268C93.9354 116.273 92.2428 112.546 90.7886 109.621C84.5665 97.0819 83.5811 84.5185 83.0726 70.7155C82.6911 60.4168 83.0249 47.7581 76.334 39.2156C73.1236 35.1232 68.6895 32.1751 63.9931 30.0295C59.3682 27.9237 55.252 27.4469 50.6907 27.3913C57.3737 24.2763 64.2315 24.5305 69.3331 26.2947C80.4979 30.1725 86.6803 41.8141 88.0153 74.8238C89.3503 107.841 99.9747 111.711 98.0914 119.944C96.7485 125.808 88.198 125.896 81.0383 123.353C84.932 123.083 89.4377 122.352 91.7263 119.26L91.7263 119.268Z" fill="#D0B4FF"/>
<path d="M65.5355 132.055C70.2001 129.973 71.7497 126.199 73.8793 122.083C74.1415 127.343 73.4422 137.936 63.4774 136.927C59.6631 136.537 56.6672 135.139 54.3707 133.462C58.1612 133.748 61.9199 133.676 65.5355 132.063L65.5355 132.055Z" fill="#D0B4FF"/>
<path d="M35.4809 129.662C38.5165 131.474 42.9824 131.649 45.9385 129.623C42.8235 134.367 36.9669 140.327 32.5884 127.302C33.4466 128.216 34.4002 129.019 35.473 129.662L35.4809 129.662Z" fill="#D0B4FF"/>
<path d="M72.2817 52.0251C70.5494 46.542 64.216 45.6282 61.2281 47.885C55.8007 51.9853 53.83 64.5408 60.6083 68.5061C67.3867 72.4714 76.1516 64.2547 72.2817 52.0251Z" fill="#F8F8F8"/>
<path d="M49.196 52.0406C47.6226 47.0661 41.8852 46.2397 39.1755 48.2898C34.2566 52.0088 32.4686 63.3881 38.6113 66.98C44.7539 70.5718 52.7004 63.1339 49.196 52.0406Z" fill="#F8F8F8"/>
<path opacity="0.5" d="M71.5178 59.0101C71.3747 54.1707 67.7194 47.6149 62.3555 47.2494C65.5897 45.8985 70.739 47.162 72.2806 52.0252C74.8076 60.0114 71.9389 66.2891 67.767 68.5777C70.1828 66.0825 71.629 62.7291 71.5257 59.0101L71.5178 59.0101Z" fill="url(#paint0_linear_59803_8681)"/>
<path opacity="0.5" d="M41.2024 47.4005C44.1029 46.7728 47.949 48.0998 49.1966 52.0413C51.5646 59.5189 48.7118 65.3357 44.7227 67.227C49.5939 61.14 48.7913 50.7857 41.2024 47.4005Z" fill="url(#paint1_linear_59803_8681)"/>
<path d="M61.7363 54.8617C60.0357 55.1796 58.4623 57.4285 58.9709 60.7421C59.4795 64.0558 62.9044 64.4055 64.0964 61.6242C65.6062 58.096 64.4063 54.3611 61.7363 54.8617Z" fill="#484349"/>
<path d="M39.1362 54.6562C37.5946 54.9423 36.1642 56.9845 36.633 59.9883C37.1019 62.992 40.201 63.3099 41.2738 60.7829C42.6406 57.5884 41.5519 54.2032 39.1362 54.6562Z" fill="#484349"/>
<path d="M55.2631 82.1051C54.1579 78.7893 49.7368 76.9472 47.5263 81.3682" stroke="#B07FFF" stroke-width="2.16" stroke-linecap="round" stroke-linejoin="round"/>
<path d="M74.0775 72.9497C75.2535 74.0542 74.3079 75.6117 72.1544 76.6686C69.9532 77.7493 66.0674 79.2274 61.6174 78.4248C54.7675 77.1931 56.7621 73.3867 66.8303 72.1789C68.658 71.9564 72.5041 71.4716 74.0775 72.9497Z" fill="#D0B4FF"/>
<path d="M46.0345 74.7978C46.4 76.1964 45.0491 77.2771 43.0466 77.4837C40.9964 77.6983 37.5636 77.6903 34.7108 75.4335C30.3164 71.9609 33.3917 69.2115 41.1633 71.6033C42.5698 72.0404 45.5498 72.9304 46.0424 74.7978L46.0345 74.7978Z" fill="#D0B4FF"/>
<path d="M129.137 26.6175C126.137 28.2516 122.332 28.1816 119.613 27C116.893 25.8184 114.667 21.8353 115.091 17.5295C115.637 11.9834 121.43 5.587 124.505 2.31827C126.364 4.6961 131.584 11.2897 132.849 16.3493C133.882 20.4834 132.137 24.9834 129.137 26.6175Z" stroke="#44358C" stroke-width="2"/>
<path d="M111.982 44.3153C109.75 45.5311 106.919 45.479 104.896 44.5999C102.872 43.7208 101.216 40.7574 101.532 37.5539C101.938 33.4277 106.248 28.6688 108.535 26.2369C109.919 28.0059 113.802 32.9115 114.743 36.6759C115.512 39.7516 114.214 43.0996 111.982 44.3153Z" stroke="#44358C" stroke-width="2"/>
<defs>
<linearGradient id="paint0_linear_59803_8681" x1="73.2263" y1="57.6592" x2="62.3555" y2="57.6592" gradientUnits="userSpaceOnUse">
<stop stop-color="#C1C1C1"/>
<stop offset="0.06" stop-color="#C6C6C6"/>
<stop offset="0.43" stop-color="#E1E1E1"/>
<stop offset="0.75" stop-color="#F2F2F2"/>
<stop offset="1" stop-color="#F8F8F8"/>
</linearGradient>
<linearGradient id="paint1_linear_59803_8681" x1="50.0548" y1="57.2383" x2="41.2024" y2="57.2383" gradientUnits="userSpaceOnUse">
<stop stop-color="#C1C1C1"/>
<stop offset="0.06" stop-color="#C6C6C6"/>
<stop offset="0.43" stop-color="#E1E1E1"/>
<stop offset="0.75" stop-color="#F2F2F2"/>
<stop offset="1" stop-color="#F8F8F8"/>
</linearGradient>
</defs>
</svg>
