<svg width="113" height="117" viewBox="0 0 113 117" fill="none" xmlns="http://www.w3.org/2000/svg">
<path fill-rule="evenodd" clip-rule="evenodd" d="M57 107.375C82.6122 107.375 103.375 86.6122 103.375 61C103.375 35.3878 82.6122 14.625 57 14.625C31.3878 14.625 10.625 35.3878 10.625 61C10.625 86.6122 31.3878 107.375 57 107.375ZM57 110C84.062 110 106 88.062 106 61C106 33.938 84.062 12 57 12C29.938 12 8 33.938 8 61C8 88.062 29.938 110 57 110Z" fill="#44358C"/>
<path fill-rule="evenodd" clip-rule="evenodd" d="M57 96.375C76.5371 96.375 92.375 80.5371 92.375 61C92.375 41.4629 76.5371 25.625 57 25.625C37.4629 25.625 21.625 41.4629 21.625 61C21.625 80.5371 37.4629 96.375 57 96.375ZM57 99C77.9868 99 95 81.9868 95 61C95 40.0132 77.9868 23 57 23C36.0132 23 19 40.0132 19 61C19 81.9868 36.0132 99 57 99Z" fill="#44358C"/>
<path fill-rule="evenodd" clip-rule="evenodd" d="M69.7696 34.5434C70.0217 33.8638 70.777 33.5172 71.4566 33.7693C76.837 35.7653 80.5519 38.3104 83.1781 41.7898C85.787 45.2463 87.2281 49.504 88.2866 54.7398C88.4302 55.4503 87.9707 56.1427 87.2602 56.2863C86.5497 56.43 85.8573 55.9705 85.7136 55.26C84.6852 50.1732 83.3436 46.3663 81.083 43.3712C78.8396 40.399 75.598 38.1054 70.5436 36.2304C69.864 35.9783 69.5174 35.223 69.7696 34.5434Z" fill="#44358C"/>
<path fill-rule="evenodd" clip-rule="evenodd" d="M47.7738 77.892C47.7493 77.9056 47.715 77.9352 47.6889 77.9869C46.8913 79.5622 46.4952 80.9454 46.5821 81.874C46.6215 82.2955 46.7526 82.5489 46.9249 82.7182C47.1047 82.895 47.4603 83.1078 48.1787 83.1976C49.6824 83.3855 50.8692 82.7343 51.5483 81.8742C52.2925 80.9316 52.2132 80.1171 51.966 79.7874C51.6651 79.3863 51.074 78.9608 50.2519 78.5943C49.4534 78.2384 48.5636 77.9947 47.8153 77.8821C47.8062 77.8807 47.7948 77.8804 47.7738 77.892ZM45.3469 76.8011C45.8569 75.7939 46.9632 75.0994 48.2058 75.2863C49.1721 75.4317 50.2917 75.7381 51.3206 76.1967C52.3259 76.6448 53.3802 77.2981 54.066 78.2124C55.3187 79.8828 54.7395 82.0683 53.6086 83.5007C52.4127 85.0156 50.3495 86.1144 47.8531 85.8023C46.7403 85.6632 45.7869 85.2803 45.085 84.5905C44.3755 83.8933 44.0518 83.0093 43.9685 82.1185C43.8099 80.4226 44.4961 78.4817 45.3469 76.8011Z" fill="#44358C"/>
<path fill-rule="evenodd" clip-rule="evenodd" d="M60.934 83.0925C60.9118 83.0915 60.8692 83.0976 60.82 83.1283C59.3162 84.0675 58.2201 85.076 57.7835 85.9523C57.5826 86.3558 57.5574 86.6569 57.6138 86.897C57.6711 87.1416 57.8558 87.5048 58.4158 87.9475C59.6044 88.8875 60.9569 88.9454 61.9834 88.5617C63.1083 88.1411 63.4625 87.4034 63.4219 86.9934C63.3701 86.4708 63.0881 85.7705 62.5962 85.0109C62.1166 84.2699 61.5086 83.5825 60.9501 83.0958C60.9494 83.0952 60.949 83.0949 60.9487 83.0947C60.9478 83.0943 60.9433 83.0929 60.934 83.0925ZM59.4294 80.9019C60.3838 80.3058 61.708 80.2744 62.6746 81.1168C63.4191 81.7655 64.1879 82.6392 64.7998 83.5843C65.3995 84.5107 65.9238 85.6215 66.0341 86.7344C66.24 88.8122 64.6121 90.3813 62.9027 91.0204C61.0949 91.6963 58.7609 91.567 56.7876 90.0066C55.8995 89.3043 55.286 88.468 55.0581 87.4966C54.8292 86.5207 55.0317 85.5894 55.434 84.7818C56.204 83.2361 57.8175 81.9087 59.4294 80.9019Z" fill="#44358C"/>
<path fill-rule="evenodd" clip-rule="evenodd" d="M5.32058 70.2C6.03865 70.1009 6.70106 70.6027 6.80011 71.3208C7.43485 75.9227 10.4677 84.8057 16.5402 92.6999C21.4866 99.1302 26.3419 103.454 30.0869 105.326C30.7352 105.65 30.998 106.439 30.6738 107.087C30.3497 107.735 29.5613 107.998 28.9129 107.674C24.6579 105.547 19.5132 100.87 14.4596 94.3004C8.11554 86.0531 4.89831 76.7442 4.19972 71.6795C4.10068 70.9614 4.6025 70.299 5.32058 70.2Z" fill="#44358C"/>
<path fill-rule="evenodd" clip-rule="evenodd" d="M33.8604 108.349C34.22 107.72 35.0218 107.501 35.6512 107.861C36.2098 108.18 37.1563 108.69 38.1533 109.166C39.1734 109.653 40.1554 110.061 40.8183 110.227C42.3888 110.62 44.4323 111.048 45.2574 111.213C45.9682 111.355 46.4292 112.047 46.287 112.758C46.1448 113.468 45.4534 113.929 44.7426 113.787C43.901 113.619 41.8111 113.181 40.1817 112.774C39.2445 112.539 38.0599 112.031 37.0217 111.535C35.9604 111.027 34.9568 110.487 34.3488 110.14C33.7194 109.78 33.5008 108.978 33.8604 108.349Z" fill="#44358C"/>
<path fill-rule="evenodd" clip-rule="evenodd" d="M85.272 18.0921C75.6159 11.655 63.6726 9.99174 58.5819 10.3099C57.8585 10.3551 57.2353 9.8053 57.1901 9.08183C57.1449 8.35837 57.6947 7.73524 58.4182 7.69002C63.9942 7.34152 76.5259 9.10683 86.7281 15.9079C94.3862 21.0131 99.1724 27.1423 99.5921 27.7717C99.9942 28.3748 99.8313 29.1897 99.2281 29.5918C98.625 29.994 97.8101 29.831 97.408 29.2279L97.4084 29.2284C97.4083 29.2284 97.4032 29.2209 97.3909 29.2038C97.3777 29.1855 97.3596 29.1607 97.3361 29.1293C97.2891 29.0665 97.2247 28.9823 97.1428 28.878C96.9791 28.6697 96.7503 28.3871 96.459 28.0429C95.8767 27.3547 95.0493 26.4255 94.0006 25.3564C91.9009 23.216 88.9284 20.5296 85.272 18.0921Z" fill="#44358C"/>
<path fill-rule="evenodd" clip-rule="evenodd" d="M101.202 33.4579C101.778 33.0173 102.602 33.1266 103.042 33.7022C103.514 34.3182 104.399 35.7791 105.234 37.426C106.068 39.0723 106.933 41.0611 107.284 42.7294C107.434 43.4387 106.98 44.1349 106.271 44.2844C105.561 44.4338 104.865 43.98 104.716 43.2707C104.437 41.9486 103.701 40.2083 102.892 38.6127C102.084 37.0177 101.284 35.7239 100.958 35.2979C100.517 34.7224 100.627 33.8986 101.202 33.4579Z" fill="#44358C"/>
<path fill-rule="evenodd" clip-rule="evenodd" d="M107.542 4.9527C108.01 5.50692 107.939 6.33495 107.385 6.80216L98.6741 14.1455C98.1198 14.6127 97.2918 14.5422 96.8246 13.9879C96.3574 13.4337 96.4279 12.6057 96.9821 12.1385L105.693 4.79516C106.247 4.32795 107.075 4.39848 107.542 4.9527Z" fill="#44358C"/>
<path fill-rule="evenodd" clip-rule="evenodd" d="M1.12587 1.02097C1.66658 0.538193 2.49628 0.585157 2.97906 1.12587L15.4791 15.1259C15.9618 15.6666 15.9149 16.4963 15.3742 16.9791C14.8334 17.4618 14.0037 17.4149 13.521 16.8742L1.02097 2.87416C0.538193 2.33345 0.585157 1.50375 1.12587 1.02097Z" fill="#44358C"/>
</svg>
