<svg width="112" height="112" viewBox="0 0 112 112" fill="none" xmlns="http://www.w3.org/2000/svg">
<path fill-rule="evenodd" clip-rule="evenodd" d="M29.9329 71.8264C30.5813 72.1505 30.8441 72.9389 30.5199 73.5873L20.0199 94.5873C19.6957 95.2356 18.9073 95.4984 18.259 95.1742C17.6106 94.8501 17.3479 94.0617 17.672 93.4133L28.172 72.4133C28.4962 71.765 29.2846 71.5022 29.9329 71.8264Z" fill="#44358C"/>
<path fill-rule="evenodd" clip-rule="evenodd" d="M45.9329 72.8264C46.5813 73.1505 46.8441 73.9389 46.5199 74.5873L36.0199 95.5873C35.6957 96.2356 34.9073 96.4984 34.259 96.1742C33.6106 95.85 33.3479 95.0617 33.672 94.4133L44.172 73.4133C44.4962 72.765 45.2846 72.5022 45.9329 72.8264Z" fill="#44358C"/>
<path fill-rule="evenodd" clip-rule="evenodd" d="M67.4122 76.8163C68.0662 77.129 68.3427 77.9127 68.03 78.5666L57.03 101.567C56.7172 102.221 55.9336 102.497 55.2797 102.184C54.6257 101.872 54.3491 101.088 54.6619 100.434L65.6619 77.434C65.9746 76.7801 66.7583 76.5035 67.4122 76.8163Z" fill="#44358C"/>
<path fill-rule="evenodd" clip-rule="evenodd" d="M54.9712 10.5365C50.7964 6.18549 44.8374 2.70709 36.7395 5.25208C32.732 6.51158 30.1244 8.52588 28.404 10.8248C26.6716 13.1398 25.7816 15.8209 25.3453 18.4848C24.9081 21.1534 24.9344 23.7475 24.9953 25.8693C25.0017 26.089 25.0084 26.3061 25.0151 26.5189C25.0398 27.3101 25.0627 28.0438 25.0532 28.6463C25.0471 29.0325 25.0276 29.4108 24.9777 29.7491C24.9317 30.0602 24.8423 30.4761 24.6119 30.8434C24.2798 31.3728 23.6879 31.8132 23.1878 32.1548C22.6706 32.5081 22.0234 32.9011 21.3318 33.321C21.2852 33.3492 21.2385 33.3776 21.1916 33.4061C19.6749 34.3273 17.8477 35.4484 16.07 36.8845C12.5213 39.7511 9.31252 43.7524 9.3125 49.646C9.31248 55.8088 12.1883 59.3153 15.6592 61.3314C19.2178 63.3984 23.4538 63.9124 25.959 63.8342L25.9795 63.8335H70.5C72.8359 63.8335 75.0451 63.854 77.1382 63.8735C80.0211 63.9003 82.6837 63.925 85.1539 63.8912C89.4045 63.8332 92.9081 63.6007 95.6972 62.9392C98.4722 62.2812 100.408 61.2292 101.674 59.6293C102.942 58.0271 103.688 55.687 103.688 52.146C103.688 45.3819 100.358 41.8615 96.9084 39.8593C95.1523 38.8401 93.353 38.2124 91.9056 37.7832C91.4385 37.6447 91.0441 37.5366 90.6835 37.4379C90.4619 37.3772 90.2532 37.32 90.0482 37.2614C89.8025 37.1912 89.5585 37.1175 89.3517 37.0397L89.3481 37.0384C89.2067 36.9852 88.8442 36.849 88.5675 36.5697C88.2023 36.2009 88.1222 35.7405 88.0949 35.5549C88.0591 35.3112 88.0561 35.0525 88.062 34.821C88.0728 34.3952 88.1219 33.8542 88.1737 33.2836C88.1784 33.2324 88.183 33.1809 88.1877 33.1293C88.305 31.8315 88.4428 30.195 88.3517 28.4158C88.1696 24.862 87.0882 20.9242 83.2446 18.2194C78.6583 14.9917 74.1301 15.6027 70.5003 17.0663C68.6755 17.8021 67.1092 18.7444 65.9167 19.506C65.7156 19.6344 65.5172 19.763 65.3274 19.8859C64.9791 20.1115 64.66 20.3183 64.4064 20.4712C64.2091 20.5901 63.9887 20.7156 63.7781 20.8053C63.6736 20.8498 63.5238 20.9065 63.3496 20.9394C63.1976 20.9681 62.8634 21.0116 62.4934 20.8568C62.1527 20.7143 61.943 20.4586 61.8934 20.3982C61.8914 20.3958 61.8897 20.3936 61.8882 20.3919C61.801 20.2867 61.7215 20.1715 61.6555 20.0707C61.5213 19.8657 61.3631 19.5969 61.1935 19.3038C61.1229 19.1817 61.0481 19.0517 60.9692 18.9143C60.657 18.3713 60.2784 17.7126 59.82 16.9639C58.6734 15.0912 57.065 12.7187 54.9712 10.5365ZM63.4548 17.9705C63.392 17.8619 63.3244 17.7442 63.252 17.6183C62.9393 17.0742 62.5382 16.3764 62.0587 15.5933C60.8627 13.6397 59.1417 11.0916 56.8653 8.71911C52.2996 3.9606 45.3546 -0.207054 35.9525 2.74784C31.4564 4.16088 28.3746 6.48283 26.3023 9.25204C24.242 12.0052 23.2358 15.1242 22.7548 18.0604C22.2746 20.9919 22.3098 23.7979 22.3714 25.9446C22.3784 26.1882 22.3857 26.4208 22.3926 26.6428C22.4168 27.4215 22.437 28.0701 22.4285 28.6049C22.4232 28.9446 22.4064 29.1924 22.3808 29.3658C22.3735 29.4153 22.3664 29.4515 22.3609 29.4763C22.3382 29.5 22.3013 29.5359 22.2453 29.5844C22.1205 29.6924 21.9445 29.8251 21.7071 29.9872C21.2505 30.2992 20.6608 30.6573 19.9391 31.0956C19.9027 31.1177 19.8659 31.14 19.8289 31.1625C18.3132 32.0831 16.3494 33.2842 14.4205 34.8425C10.5557 37.9644 6.68753 42.64 6.6875 49.646C6.68747 56.8374 10.145 61.1642 14.3408 63.6013C18.4387 65.9815 23.1894 66.5435 26.0201 66.4585H70.5C72.7744 66.4585 74.9666 66.4787 77.0594 66.498C79.9785 66.5249 82.7042 66.55 85.1898 66.516C89.4705 66.4575 93.2169 66.2252 96.3029 65.4934C99.4029 64.7583 101.967 63.4886 103.732 61.2584C105.495 59.0306 106.313 56.0321 106.313 52.146C106.313 44.2643 102.315 39.9617 98.2261 37.5889C96.213 36.4206 94.1902 35.7227 92.652 35.2665C92.1735 35.1246 91.7032 34.9955 91.3159 34.8892C91.1053 34.8314 90.9192 34.7803 90.7697 34.7375C90.743 34.7299 90.7174 34.7225 90.6927 34.7154C90.7084 34.4003 90.7449 33.9963 90.7916 33.4804L90.802 33.3655C90.9199 32.0615 91.0748 30.2628 90.9732 28.2814C90.7699 24.3139 89.5243 19.4287 84.7554 16.0726C79.1877 12.1544 73.6389 12.9704 69.5187 14.6318C67.4685 15.4584 65.7416 16.5031 64.5038 17.2937C64.2569 17.4513 64.0385 17.593 63.8428 17.7198C63.7024 17.8108 63.5738 17.8943 63.4548 17.9705ZM90.2021 34.5516C90.2025 34.5515 90.2102 34.5548 90.2234 34.5619C90.2082 34.5553 90.2016 34.5518 90.2021 34.5516ZM90.6908 35.1634C90.6969 35.1906 90.6955 35.1969 90.692 35.1733C90.6916 35.1707 90.6912 35.1675 90.6908 35.1634Z" fill="#44358C"/>
<path fill-rule="evenodd" clip-rule="evenodd" d="M16.3334 43.2817C17.0064 43.5509 17.3338 44.3148 17.0646 44.9878C16.0612 47.4963 14.797 51.7618 17.8215 55.1223C19.2795 56.7424 21.605 57.4509 24.4327 57.6926C26.3502 57.8565 28.2828 57.7985 30.1498 57.7425C31.0676 57.7149 31.9695 57.6879 32.846 57.6879C33.5708 57.6879 34.1585 58.2755 34.1585 59.0004C34.1585 59.7252 33.5708 60.3129 32.846 60.3129C32.1224 60.3129 31.3065 60.3368 30.4362 60.3624C28.4913 60.4195 26.2748 60.4846 24.2092 60.3081C21.1869 60.0498 18.0123 59.2583 15.8704 56.8784C11.6949 52.2389 13.6307 46.5044 14.6273 44.0129C14.8965 43.3399 15.6604 43.0125 16.3334 43.2817Z" fill="#44358C"/>
<path fill-rule="evenodd" clip-rule="evenodd" d="M50.3736 86.7985C51.0373 87.0899 51.3391 87.8642 51.0477 88.5279L42.0477 109.028C41.7563 109.692 40.9821 109.994 40.3183 109.702C39.6546 109.411 39.3528 108.636 39.6442 107.973L48.6442 87.4727C48.9355 86.809 49.7098 86.5072 50.3736 86.7985Z" fill="#44358C"/>
<path fill-rule="evenodd" clip-rule="evenodd" d="M86.3736 72.7985C87.0373 73.0899 87.3391 73.8642 87.0477 74.5279L78.0477 95.0279C77.7563 95.6917 76.9821 95.9935 76.3183 95.7021C75.6546 95.4107 75.3528 94.6364 75.6442 93.9727L84.6442 73.4727C84.9356 72.809 85.7098 72.5072 86.3736 72.7985Z" fill="#44358C"/>
<path fill-rule="evenodd" clip-rule="evenodd" d="M73.536 23.9182C73.5812 23.1947 74.2043 22.6449 74.9278 22.6901C76.4559 22.7856 78.7135 23.3465 80.625 24.7562C82.5929 26.2076 84.1584 28.5425 84.1584 32C84.1584 35.2312 83.3478 37.6639 82.6098 39.3411C82.4193 39.774 82.2167 40.1905 82.0454 40.536C82.3718 40.5931 82.7479 40.6592 83.1026 40.7255C84.5541 40.9966 86.5047 41.4178 88.5348 42.1381C92.5394 43.5591 97.1962 46.2738 98.6152 51.666C98.7997 52.367 98.381 53.0849 97.68 53.2693C96.9789 53.4538 96.2611 53.0351 96.0766 52.3341C94.9956 48.2263 91.4024 45.941 87.657 44.612C85.8121 43.9573 84.0128 43.5659 82.6205 43.3059C82.1818 43.2239 81.8433 43.1652 81.5353 43.1119C81.3097 43.0728 81.1005 43.0365 80.8801 42.996C80.6596 42.9554 80.444 42.913 80.2662 42.8675C80.1786 42.845 80.0692 42.8141 79.9593 42.7718L79.9561 42.7706C79.8867 42.7438 79.6376 42.6479 79.4179 42.4281C78.8316 41.8419 78.9823 41.1005 79.0339 40.8864C79.1031 40.6001 79.2336 40.3101 79.3395 40.0866C79.4311 39.8932 79.5246 39.7065 79.6226 39.5109C79.7981 39.1609 79.9879 38.7821 80.2071 38.284C80.8441 36.8362 81.5334 34.7689 81.5334 32C81.5334 29.4576 80.4323 27.8758 79.0669 26.8688C77.645 25.8202 75.9026 25.3811 74.7641 25.31C74.0406 25.2648 73.4908 24.6416 73.536 23.9182Z" fill="#44358C"/>
</svg>
