<svg width="112" height="112" viewBox="0 0 112 112" fill="none" xmlns="http://www.w3.org/2000/svg">
<path fill-rule="evenodd" clip-rule="evenodd" d="M53.8215 0.821927C54.3341 0.309361 55.1651 0.309357 55.6777 0.821918L64.0304 9.17458C64.543 9.68714 64.543 10.5182 64.0305 11.0307C63.5179 11.5433 62.6869 11.5433 62.1743 11.0307L56.029 4.88549C55.7686 17.4099 54.0213 30.1447 52.4864 41.3312C52.2908 42.7566 52.0987 44.1568 51.9135 45.5283C51.0304 52.0696 50.3079 57.9362 50.104 62.8036C49.8977 67.7258 50.2382 71.3901 51.305 73.6665C52.9318 77.1377 55.464 79.2342 58.0758 80.3501C58.9437 79.1308 59.8977 78.0882 60.8961 77.2914C61.9761 76.4295 63.1755 75.8022 64.4286 75.6191C65.7217 75.4302 67.0004 75.7284 68.1142 76.5944C69.0602 77.3299 69.7586 78.1943 69.9857 79.1908C70.2288 80.2573 69.8763 81.2208 69.229 81.9477C68.0411 83.2817 65.8052 83.9427 63.4914 84.0105C62.1536 84.0497 60.6819 83.895 59.1837 83.4974C58.7193 84.318 58.289 85.2125 57.9093 86.1655C55.4845 92.2515 55.355 100.046 60.6501 105.32C61.1637 105.832 61.1653 106.663 60.6538 107.176C60.1422 107.69 59.3112 107.691 58.7976 107.18C52.4628 100.87 52.839 91.7994 55.4707 85.194C55.8302 84.2917 56.236 83.4228 56.6799 82.6013C53.667 81.2253 50.7894 78.7519 48.9281 74.7805C47.5679 71.8781 47.2739 67.6438 47.4813 62.6937C47.691 57.6889 48.4302 51.7094 49.3121 45.1771C49.4978 43.8014 49.69 42.4003 49.8852 40.977C51.4175 29.8047 53.137 17.2673 53.402 4.95376L47.3251 11.0308C46.8125 11.5434 45.9815 11.5434 45.4689 11.0308C44.9563 10.5183 44.9563 9.68723 45.4689 9.17467L53.8215 0.821927ZM60.7469 81.166C61.6755 81.3438 62.5777 81.4112 63.4146 81.3866C65.462 81.3266 66.7973 80.7313 67.2685 80.202C67.4508 79.9974 67.4499 79.8775 67.4263 79.7741C67.3868 79.6008 67.2003 79.2088 66.503 78.6667C65.9734 78.255 65.4191 78.1273 64.8081 78.2166C64.1571 78.3116 63.3813 78.6665 62.5336 79.3431C61.9324 79.8229 61.329 80.4377 60.7469 81.166Z" fill="#44358C"/>
<path fill-rule="evenodd" clip-rule="evenodd" d="M0.454801 27.4626C0.337364 26.7473 0.822026 26.0722 1.53732 25.9548L13.1938 24.0411C13.9091 23.9236 14.5841 24.4083 14.7016 25.1236C14.819 25.8389 14.3343 26.5139 13.619 26.6314L4.93073 28.0578C13.2251 35.0157 16.4033 43.5371 18.2345 51.3452C18.7327 53.4692 19.1327 55.5473 19.5065 57.5183C19.5342 57.6639 19.5616 57.8088 19.589 57.9531C19.9335 59.7719 20.2584 61.4873 20.6268 63.0953C21.4282 66.5937 22.3934 69.371 24.0051 71.3281C26.4419 74.2874 29.4149 75.6905 32.2219 76.1238C32.7602 74.7273 33.4259 73.4807 34.1955 72.4612C35.028 71.3584 36.0344 70.4532 37.203 69.9651C38.4088 69.4614 39.7214 69.4332 41.0152 69.9959C42.1141 70.4738 43.005 71.138 43.4722 72.047C43.9722 73.02 43.8696 74.0408 43.4228 74.9055C42.6028 76.4925 40.6008 77.6873 38.3761 78.3268C37.0898 78.6965 35.6256 78.9116 34.0756 78.898C33.8293 79.8082 33.6342 80.7814 33.5027 81.7989C32.663 88.2961 34.4706 95.879 40.9083 99.6753C41.5326 100.044 41.7403 100.848 41.3721 101.473C41.0039 102.097 40.1993 102.305 39.5749 101.936C31.8732 97.3948 29.988 88.5141 30.8994 81.4624C31.0239 80.4992 31.2016 79.5568 31.4278 78.6509C28.1678 78.065 24.7667 76.3825 21.9787 72.9967C19.9547 70.5388 18.8843 67.2445 18.0681 63.6815C17.688 62.0224 17.354 60.2589 17.0119 58.4526C16.9838 58.3045 16.9557 58.1561 16.9275 58.0074C16.5537 56.0361 16.1628 54.0078 15.6789 51.9446C13.9403 44.5318 11.0223 36.7598 3.59138 30.3645L4.95887 38.6938C5.0763 39.4091 4.59164 40.0841 3.87634 40.2016C3.16105 40.319 2.48598 39.8343 2.36855 39.119L0.454801 27.4626ZM35.0118 76.2518C35.9555 76.1937 36.8463 76.0352 37.6509 75.8039C39.6195 75.2381 40.7654 74.3301 41.0907 73.7006C41.2165 73.4571 41.1859 73.3412 41.1374 73.2469C41.0561 73.0887 40.7782 72.7553 39.9683 72.4031C39.3532 72.1355 38.7845 72.1493 38.2147 72.3873C37.6076 72.6409 36.9441 73.177 36.2906 74.0428C35.8272 74.6566 35.3952 75.4019 35.0118 76.2518Z" fill="#44358C"/>
<path fill-rule="evenodd" clip-rule="evenodd" d="M104.115 23.0916C104.839 23.1334 105.392 23.754 105.35 24.4777L104.668 36.2705C104.626 36.9941 104.006 37.5469 103.282 37.505C102.558 37.4632 102.005 36.8426 102.047 36.119L102.542 27.5586C98.3593 31.5077 93.0611 37.0482 88.5826 42.8797C85.8934 46.3813 83.524 49.9567 81.8672 53.3315C80.1992 56.729 79.315 59.8002 79.4424 62.3318C79.635 66.1605 81.1857 69.0592 83.1813 71.0803C84.4459 70.2799 85.7235 69.6758 86.9492 69.316C88.275 68.9267 89.6226 68.7998 90.8518 69.1044C92.1202 69.4188 93.191 70.1785 93.8944 71.4015C94.4919 72.4403 94.8112 73.5047 94.6445 74.513C94.466 75.5922 93.7752 76.3507 92.901 76.7787C91.2967 77.5642 88.977 77.3301 86.8095 76.5175C85.5563 76.0476 84.2525 75.3476 83.016 74.4128C82.2757 74.9967 81.539 75.6619 80.8269 76.4004C76.2799 81.1167 73.2112 88.2827 76.1173 95.1682C76.3992 95.836 76.0863 96.6059 75.4185 96.8878C74.7506 97.1696 73.9808 96.8567 73.6989 96.1889C70.2222 87.9515 74.0021 79.6973 78.9372 74.5785C79.6113 73.8793 80.3157 73.2286 81.0374 72.636C78.769 70.2224 77.0411 66.8442 76.8207 62.4638C76.6606 59.2833 77.7618 55.7372 79.5108 52.1746C81.2711 48.5893 83.7504 44.862 86.5007 41.2808C91.1231 35.2619 96.579 29.5678 100.864 25.533L92.171 25.0304C91.4473 24.9885 90.8946 24.3679 90.9364 23.6443C90.9783 22.9206 91.5988 22.3679 92.3225 22.4097L104.115 23.0916ZM85.3451 72.8461C86.1374 73.362 86.9471 73.7657 87.731 74.0596C89.649 74.7786 91.1103 74.7327 91.7467 74.4211C91.9929 74.3006 92.0374 74.1893 92.0547 74.0847C92.0837 73.9093 92.0593 73.4759 91.6189 72.7103C91.2845 72.1288 90.8197 71.8009 90.2203 71.6523C89.5818 71.4941 88.7294 71.5291 87.6886 71.8346C86.9506 72.0513 86.1595 72.3922 85.3451 72.8461Z" fill="#44358C"/>
<path fill-rule="evenodd" clip-rule="evenodd" d="M83.6782 39.322C84.1907 39.8345 84.1907 40.6656 83.6781 41.1781C81.7993 43.0568 79.4156 46.3535 77.4239 50.337C76.4864 52.2119 75.7699 54.4699 75.3508 56.6255C74.9276 58.8018 74.831 60.7528 75.0446 62.0342C75.1637 62.7492 74.6807 63.4255 73.9657 63.5446C73.2507 63.6638 72.5744 63.1808 72.4553 62.4658C72.1688 60.7472 72.3222 58.4482 72.7741 56.1245C73.2299 53.7801 74.0135 51.2881 75.076 49.163C77.1634 44.9881 79.7006 41.4432 81.822 39.3219C82.3346 38.8093 83.1656 38.8094 83.6782 39.322Z" fill="#44358C"/>
<path fill-rule="evenodd" clip-rule="evenodd" d="M27.975 91.9664C28.6838 91.8145 29.3815 92.266 29.5334 92.9748C29.7313 93.8986 30.4953 95.4821 31.6079 97.2335C32.6973 98.9482 34.0142 100.658 35.1781 101.822C36.8599 103.504 38.4202 104.382 39.8145 105.167C40.3993 105.496 40.9549 105.809 41.4781 106.158C42.0812 106.56 42.2442 107.375 41.8421 107.978C41.44 108.581 40.6251 108.744 40.022 108.342C39.7147 108.137 39.3058 107.906 38.8244 107.635C37.3794 106.82 35.2818 105.638 33.3219 103.678C31.9858 102.342 30.5528 100.468 29.3922 98.6411C28.2548 96.8508 27.2687 94.9343 26.9667 93.5248C26.8148 92.816 27.2662 92.1183 27.975 91.9664Z" fill="#44358C"/>
<path fill-rule="evenodd" clip-rule="evenodd" d="M48.8832 13.4444C49.6044 13.518 50.1293 14.1622 50.0557 14.8833C49.6392 18.9656 49.0144 25.1636 48.4938 30.4903C48.2334 33.1539 47.9994 35.5975 47.8305 37.449C47.746 38.3752 47.6782 39.15 47.6315 39.7288C47.6081 40.0185 47.5904 40.2554 47.5786 40.4357C47.5727 40.526 47.5685 40.5989 47.5658 40.6554C47.5645 40.6835 47.5636 40.7058 47.5631 40.7229L47.5626 40.7428L47.5625 40.7482C47.5625 40.7495 47.5625 40.7501 47.5625 40.7501C47.5625 41.475 46.9749 42.0626 46.25 42.0626C45.5251 42.0626 44.9375 41.475 44.9375 40.7501C44.9375 40.3726 45.0512 39.0216 45.2164 37.2106C45.386 35.3506 45.6207 32.9004 45.8812 30.2349C46.4023 24.9033 47.0275 18.7013 47.4443 14.6169C47.5179 13.8957 48.1621 13.3708 48.8832 13.4444Z" fill="#44358C"/>
</svg>
