<svg width="113" height="112" viewBox="0 0 113 112" fill="none" xmlns="http://www.w3.org/2000/svg">
<path fill-rule="evenodd" clip-rule="evenodd" d="M26.9413 39.5688C26.0384 39.3871 23.0809 39.0893 19.2591 39.5837C15.3796 40.0857 12.5989 40.8351 11.7557 41.1215C11.0693 41.3546 10.3239 40.9872 10.0908 40.3008C9.85772 39.6144 10.2252 38.8691 10.9115 38.636C11.9488 38.2837 14.9037 37.5004 18.9222 36.9804C22.9984 36.4531 26.2465 36.7513 27.4592 36.9954C28.1699 37.1384 28.63 37.8304 28.487 38.5411C28.344 39.2517 27.6519 39.7118 26.9413 39.5688Z" fill="#44358C"/>
<path fill-rule="evenodd" clip-rule="evenodd" d="M16.1506 45.3661C10.9498 46.4148 5.65838 47.8487 2.38286 48.8473C1.68949 49.0587 0.956041 48.668 0.744653 47.9746C0.533264 47.2812 0.923985 46.5478 1.61735 46.3364C4.95664 45.3183 10.3316 43.8616 15.6318 42.7929C18.2817 42.2585 20.9319 41.8172 23.3102 41.5783C25.6643 41.3417 27.8473 41.2926 29.5195 41.5947C32.7399 42.1765 34.6477 43.5199 35.4931 45.2857C36.3135 46.999 35.9614 48.7615 35.425 49.8518C35.105 50.5022 34.3183 50.7701 33.6679 50.4501C33.0175 50.13 32.7496 49.3434 33.0696 48.693C33.36 48.1027 33.5041 47.2099 33.1255 46.4193C32.772 45.681 31.7858 44.6716 29.0529 44.1779C27.7484 43.9422 25.8592 43.9603 23.5726 44.1901C21.3101 44.4175 18.7512 44.8417 16.1506 45.3661Z" fill="#44358C"/>
<path fill-rule="evenodd" clip-rule="evenodd" d="M25.4866 50.6701C25.0964 50.3816 23.1177 49.4494 19.7062 49.6822C18.0647 49.7942 15.203 50.5458 12.1719 51.5027C9.1877 52.4448 6.18713 53.5372 4.34166 54.2533C3.66589 54.5156 2.90547 54.1804 2.64322 53.5046C2.38096 52.8288 2.71618 52.0684 3.39195 51.8062C5.27982 51.0735 8.33425 49.9615 11.3817 48.9995C14.3822 48.0522 17.5289 47.1997 19.5275 47.0633C23.3959 46.7993 26.0373 47.8128 27.047 48.5592C27.6299 48.9901 27.7531 49.8119 27.3223 50.3948C26.8914 50.9777 26.0695 51.101 25.4866 50.6701Z" fill="#44358C"/>
<path fill-rule="evenodd" clip-rule="evenodd" d="M79.0714 31.4374C76.8421 28.9922 74.1002 27.0537 71.1911 27.341C67.8478 27.6712 65.6331 28.7153 64.0942 30.598C62.5078 32.5388 61.4827 35.5563 60.9711 40.1732C60.8913 40.8936 60.2425 41.413 59.5221 41.3331C58.8016 41.2533 58.2823 40.6045 58.3621 39.8841C58.8932 35.0908 59.996 31.464 62.0617 28.9368C64.1749 26.3514 67.1365 25.1037 70.9331 24.7287C75.1638 24.3109 78.679 27.1109 81.0111 29.6688C82.2106 30.9844 83.1792 32.3255 83.8659 33.3501C84.0791 33.6683 84.266 33.9573 84.4241 34.2056C84.5616 34.1294 84.7155 34.0441 84.8897 33.9488C85.8274 33.4354 87.1551 32.7416 88.6982 32.1836C91.7497 31.0801 95.934 30.4112 99.6696 33.0759C103.438 35.7641 103.828 39.5681 103.4 42.564C103.187 44.0513 102.77 45.3915 102.449 46.3664C102.399 46.5155 102.354 46.6518 102.312 46.7771C102.273 46.8942 102.237 47.0017 102.204 47.1011C102.308 47.1381 102.423 47.1785 102.552 47.2227C102.663 47.2607 102.781 47.3006 102.904 47.3426C103.636 47.5909 104.585 47.913 105.572 48.3356C107.844 49.3082 110.676 50.956 111.929 53.9826C113.221 57.1034 113.051 61.0222 110.601 63.9202C108.128 66.8463 103.629 68.3927 96.961 67.4189C96.2438 67.3142 95.7472 66.6478 95.852 65.9305C95.9567 65.2132 96.6231 64.7167 97.3403 64.8215C103.496 65.7204 106.922 64.2066 108.596 62.2256C110.295 60.2165 110.495 57.3813 109.504 54.9869C108.661 52.9507 106.659 51.6564 104.539 50.7488C103.653 50.3695 102.809 50.0828 102.076 49.8336C101.947 49.7899 101.822 49.7473 101.7 49.7056C101.312 49.5724 100.924 49.4348 100.615 49.2945C100.461 49.2246 100.279 49.1326 100.109 49.0133C99.9689 48.9146 99.6672 48.6827 99.5034 48.2766C99.3385 47.8678 99.4001 47.4729 99.4196 47.3477L99.4198 47.3463C99.4495 47.1557 99.5014 46.959 99.5519 46.7859C99.6256 46.5332 99.7303 46.2197 99.8397 45.8925C99.8783 45.7772 99.9174 45.6601 99.9559 45.5434C100.267 44.6004 100.623 43.4407 100.801 42.1925C101.155 39.7174 100.802 37.1083 98.1452 35.2129C95.455 33.2939 92.3307 33.6614 89.5908 34.6522C88.2382 35.1413 87.0496 35.7589 86.1502 36.2513C86.0089 36.3287 85.8685 36.4064 85.7334 36.4813C85.4609 36.6323 85.2099 36.7713 85.0163 36.871C84.8744 36.944 84.6955 37.0319 84.5213 37.0926C84.4403 37.1208 84.2847 37.1706 84.0951 37.186C83.9552 37.1973 83.4395 37.2217 83.011 36.7985C82.9109 36.6996 82.8369 36.5943 82.8148 36.563L82.8125 36.5597C82.7768 36.509 82.7402 36.4536 82.7066 36.4017C82.6472 36.3099 82.5728 36.1913 82.4911 36.0612L82.4589 36.0099C82.2654 35.7016 82.0068 35.2912 81.6853 34.8115C81.0408 33.8498 80.1526 32.6233 79.0714 31.4374ZM102.013 47.7506C102.014 47.7477 102.015 47.7441 102.015 47.7396C102.013 47.7736 102.009 47.7805 102.013 47.7506ZM84.9579 35.0472C84.9573 35.0463 84.9567 35.0454 84.9559 35.0442C84.9657 35.0573 84.967 35.06 84.9579 35.0472Z" fill="#44358C"/>
<path fill-rule="evenodd" clip-rule="evenodd" d="M49.6909 41.3908C54.464 40.0201 59.921 40.5154 63.3743 43.3857C66.4501 45.9422 67.8157 48.6376 68.5423 50.7388C68.8028 51.4921 68.9896 52.2012 69.1296 52.7329C69.1591 52.8451 69.1866 52.9494 69.2122 53.0445C69.334 52.9795 69.4704 52.9055 69.6243 52.8221L69.6343 52.8166C70.4643 52.3665 71.6305 51.7373 73.012 51.2665C75.8323 50.3052 79.5828 50.0008 83.5262 52.8752C85.49 54.3066 86.6309 55.9735 87.1946 57.7041C87.752 59.4155 87.7168 61.1009 87.477 62.5483C87.2455 63.9453 86.8134 65.173 86.4969 66.0345C86.6167 66.0388 86.7412 66.0429 86.8717 66.0471C87.1224 66.0553 87.3954 66.0641 87.6998 66.0769C88.9915 66.1311 90.6888 66.2484 92.0447 66.7616C93.6967 67.3868 95.6277 68.7218 96.9099 70.8213C98.2171 72.9617 98.7962 75.812 97.8324 79.3086C96.926 82.597 95.2132 84.6721 92.8974 86.0304C90.6667 87.3388 87.9392 87.9385 85.1224 88.4716C83.5903 88.7615 80.3004 88.9859 76.2079 89.1304C72.0746 89.2764 67.0189 89.3436 61.8878 89.2988C56.7582 89.2539 51.5392 89.097 47.0828 88.793C42.671 88.4921 38.8756 88.04 36.6753 87.3642C33.2353 86.3075 30.6243 84.64 29.0435 82.2395C27.4542 79.8261 27.0341 76.8669 27.591 73.4949C27.8637 71.8438 28.6997 69.1337 31.484 66.2509C32.9601 64.7227 34.9458 63.7442 36.4988 63.0457C36.7967 62.9118 37.0713 62.7913 37.326 62.6795C37.7765 62.4819 38.165 62.3115 38.5105 62.1417C38.7708 62.0137 38.9557 61.91 39.081 61.8255C39.0827 61.8244 39.0843 61.8232 39.086 61.8221C39.0855 61.715 39.0749 61.5611 39.0478 61.343C39.0136 61.0683 38.961 60.7487 38.8957 60.3584L38.8846 60.292C38.8233 59.9262 38.7539 59.5117 38.6894 59.0643C38.4134 57.1509 38.2159 54.5738 38.9765 51.5792C40.3506 46.1685 44.8786 42.7728 49.6909 41.3908ZM39.0784 61.9567C39.0784 61.9566 39.0787 61.9544 39.0796 61.9502C39.079 61.9547 39.0785 61.9568 39.0784 61.9567ZM69.4341 53.7256C69.434 53.7259 69.4315 53.7219 69.4269 53.713C69.4319 53.7208 69.4342 53.7254 69.4341 53.7256ZM50.4154 43.9139C46.2025 45.1237 42.5979 47.984 41.5207 52.2253C40.8791 54.7515 41.0358 56.9447 41.2875 58.6896C41.3476 59.1065 41.4125 59.4942 41.4745 59.864L41.4847 59.9251C41.5482 60.3047 41.6106 60.6798 41.6527 61.0191C41.6942 61.3528 41.7244 61.7116 41.7048 62.0532C41.6858 62.3845 41.6141 62.8295 41.3437 63.2388C41.1156 63.5842 40.8021 63.8311 40.5483 64.0021C40.2796 64.1832 39.9735 64.3475 39.6684 64.4975C39.2744 64.6911 38.7947 64.9018 38.3049 65.1169C38.0611 65.2239 37.8149 65.3321 37.5755 65.4397C36.0383 66.1311 34.4679 66.94 33.3721 68.0746C31.0127 70.5174 30.3805 72.7139 30.1809 73.9227L29.0003 73.7277L30.1809 73.9227C29.6987 76.8419 30.1073 79.082 31.2358 80.7958C32.3728 82.5224 34.3687 83.9096 37.4461 84.8549C39.3191 85.4302 42.8291 85.8718 47.2614 86.1741C51.6491 86.4734 56.8127 86.6293 61.9108 86.6739C67.0074 86.7184 72.0243 86.6515 76.1153 86.507C80.247 86.3611 83.3327 86.1386 84.6343 85.8923C87.4848 85.3529 89.7823 84.8143 91.5694 83.7661C93.2715 82.7677 94.5694 81.268 95.3018 78.611C96.0809 75.7842 95.5833 73.6854 94.6697 72.1894C93.7311 70.6525 92.2972 69.6639 91.1155 69.2166C90.2045 68.8718 88.9051 68.7548 87.5898 68.6996C87.3461 68.6894 87.0908 68.6809 86.8408 68.6726C86.4754 68.6605 86.1215 68.6487 85.832 68.6325C85.5765 68.6181 85.3192 68.5981 85.0884 68.5646C84.8899 68.5359 84.5759 68.4803 84.287 68.3345C83.544 67.9596 83.5013 67.2109 83.5024 67.0047C83.5037 66.7435 83.5652 66.4994 83.6075 66.348C83.6863 66.0666 83.8188 65.7085 83.9478 65.3599C83.9663 65.3099 83.9847 65.2601 84.0029 65.2108C84.316 64.3614 84.6918 63.2987 84.8873 62.1192C85.082 60.9441 85.0871 59.7095 84.6987 58.5171C84.3165 57.3439 83.5257 56.1231 81.98 54.9964C78.9046 52.7547 76.1023 52.9865 73.8589 53.7511C72.7085 54.1432 71.7151 54.6744 70.8857 55.1242C70.8601 55.1381 70.8344 55.152 70.8087 55.1659C70.4398 55.3661 70.0623 55.571 69.7431 55.7126C69.5705 55.7892 69.3613 55.872 69.1405 55.9236C68.943 55.9697 68.573 56.0315 68.1664 55.8948C67.5395 55.6838 67.2277 55.1812 67.0825 54.8937C66.9269 54.5859 66.8174 54.2286 66.7306 53.9203C66.6748 53.7221 66.6218 53.5208 66.567 53.3127C66.4324 52.8012 66.2868 52.2481 66.0615 51.5967C65.4558 49.8453 64.3279 47.5916 61.6964 45.4044C59.1282 43.2699 54.6675 42.6928 50.4154 43.9139Z" fill="#44358C"/>
<path fill-rule="evenodd" clip-rule="evenodd" d="M91.2451 80.5848C91.4744 81.2725 91.1027 82.0158 90.4151 82.245C89.2816 82.6228 87.14 83.0245 84.3121 83.3862C81.449 83.7524 77.7911 84.0883 73.569 84.3105C66.4661 84.6844 60.4988 84.5023 56.6578 84.385C55.3427 84.3449 54.2768 84.3124 53.5 84.3124C52.7751 84.3124 52.1875 83.7247 52.1875 82.9999C52.1875 82.275 52.7751 81.6874 53.5 81.6874C54.365 81.6874 55.4993 81.722 56.8737 81.7639C60.7232 81.8814 66.4561 82.0563 73.431 81.6892C77.5973 81.4699 81.1894 81.1392 83.9791 80.7824C86.8042 80.4211 88.7184 80.0436 89.585 79.7547C90.2726 79.5255 91.0159 79.8971 91.2451 80.5848Z" fill="#44358C"/>
<path fill-rule="evenodd" clip-rule="evenodd" d="M94.255 37.0848C94.4842 36.3971 95.2275 36.0255 95.9152 36.2547C98.3021 37.0504 99.6623 39.8205 98.7814 43.7846C98.4008 45.4972 97.7264 47.0635 97.2268 48.2238C97.1587 48.382 97.0938 48.5326 97.0334 48.675C96.8715 49.0567 96.7537 49.3512 96.6749 49.5779C97.0824 49.7372 97.6273 49.9325 98.3048 50.1754C98.3746 50.2004 98.4457 50.2259 98.5183 50.2519C99.6701 50.6651 101.078 51.1765 102.517 51.7935C104.237 52.5305 105.758 53.2115 106.839 54.004C107.982 54.8425 108.813 55.9421 108.813 57.4999C108.813 58.601 108.46 59.4516 108.079 60.1233C107.918 60.4062 107.743 60.6722 107.599 60.8912C107.579 60.9204 107.561 60.9488 107.543 60.9762C107.378 61.2277 107.261 61.4135 107.174 61.5868C106.85 62.2352 106.062 62.498 105.413 62.1738C104.765 61.8496 104.502 61.0612 104.826 60.4129C104.99 60.0863 105.185 59.7845 105.348 59.536C105.368 59.5056 105.388 59.4759 105.407 59.4467C105.556 59.2205 105.681 59.0296 105.796 58.8265C106.04 58.3982 106.188 57.9988 106.188 57.4999C106.188 57.0576 106.018 56.6573 105.286 56.1208C104.492 55.5383 103.263 54.9692 101.483 54.2062C100.123 53.6232 98.7802 53.1347 97.632 52.7228C97.5277 52.6854 97.4239 52.6482 97.321 52.6114C96.3434 52.2616 95.4477 51.941 94.9132 51.6738C94.4199 51.4272 94.1139 50.9996 93.9938 50.5254C93.8907 50.1183 93.9355 49.7282 93.9903 49.4489C94.0993 48.8931 94.3645 48.2448 94.6169 47.6498C94.6831 47.4937 94.7514 47.3346 94.821 47.1725C95.3253 45.9977 95.8959 44.6686 96.2189 43.2151C96.938 39.9793 95.6982 38.9494 95.0851 38.745C94.3974 38.5158 94.0258 37.7725 94.255 37.0848ZM96.5565 50.0198C96.5564 50.0199 96.5565 50.0182 96.5568 50.0147L96.5565 50.0198Z" fill="#44358C"/>
</svg>
