<svg width="112" height="112" viewBox="0 0 112 112" fill="none" xmlns="http://www.w3.org/2000/svg">
<path d="M32.0802 100.784C23.943 73.0986 25.4528 45.0158 32.9384 24.2834C41.5842 0.324811 59.0505 -2.25779 69.3253 1.31017C80.4901 5.18806 86.6725 16.8296 88.0075 49.8393C89.3425 82.8569 99.9669 86.7268 98.0836 94.9594C96.2003 103.184 80.1246 100.045 73.6005 94.2283C73.6005 94.2283 76.6758 113.276 63.4687 111.933C52.1927 110.789 48.0685 100.824 48.0685 100.824C48.0685 100.824 38.3023 122.001 32.0722 100.792L32.0802 100.784Z" fill="#DBC5FF"/>
<path opacity="0.25" d="M51.0246 17.0545C50.9451 21.7827 47.7109 25.5175 45.3826 29.3477C40.877 36.7379 39.9949 45.1771 41.0279 53.6401C42.212 63.303 46.9401 72.7752 46.8606 82.5255C46.813 88.1914 44.6118 94.3181 38.5645 95.8756C36.3951 96.4318 34.5516 96.0822 33.0974 95.1604C27.1295 69.1675 28.0434 44.5573 35.378 25.3188C38.1752 17.9842 43.102 11.5873 47.1626 7.88428C49.777 9.79938 51.0723 14.1064 51.0246 17.0545Z" fill="#F6F1FF"/>
<path d="M91.7263 94.2684C93.9354 91.2726 92.2428 87.5457 90.7886 84.6214C84.5665 72.0819 83.5811 59.5185 83.0726 45.7155C82.6911 35.4168 83.0249 22.7581 76.334 14.2156C73.1236 10.1232 68.6895 7.17506 63.9931 5.02951C59.3682 2.92369 55.252 2.4469 50.6907 2.39128C57.3737 -0.723741 64.2315 -0.469453 69.3331 1.29466C80.4979 5.17255 86.6803 16.8141 88.0153 49.8238C89.3503 82.8414 99.9747 86.7113 98.0914 94.9439C96.7485 100.808 88.198 100.896 81.0383 98.3529C84.932 98.0827 89.4377 97.3517 91.7263 94.2605L91.7263 94.2684Z" fill="#D0B4FF"/>
<path d="M65.5355 107.055C70.2001 104.973 71.7497 101.199 73.8793 97.0825C74.1415 102.343 73.4422 112.936 63.4774 111.927C59.6631 111.537 56.6672 110.139 54.3707 108.462C58.1612 108.748 61.9199 108.676 65.5355 107.063L65.5355 107.055Z" fill="#D0B4FF"/>
<path d="M35.4809 104.662C38.5165 106.474 42.9824 106.649 45.9385 104.623C42.8235 109.367 36.9669 115.327 32.5884 102.302C33.4466 103.216 34.4002 104.019 35.473 104.662L35.4809 104.662Z" fill="#D0B4FF"/>
<path d="M72.2819 27.0251C70.5495 21.542 64.2162 20.6282 61.2283 22.885C55.8009 26.9853 53.8302 39.5408 60.6085 43.5061C67.3868 47.4714 76.1518 39.2547 72.2819 27.0251Z" fill="#F8F8F8"/>
<path d="M49.1961 27.0406C47.6227 22.0661 41.8853 21.2397 39.1756 23.2898C34.2567 27.0088 32.4688 38.3881 38.6114 41.98C44.754 45.5718 52.7005 38.1339 49.1961 27.0406Z" fill="#F8F8F8"/>
<path opacity="0.5" d="M71.5179 34.0101C71.3749 29.1707 67.7195 22.6149 62.3556 22.2494C65.5898 20.8985 70.7391 22.162 72.2808 27.0252C74.8077 35.0114 71.9391 41.2891 67.7672 43.5777C70.1829 41.0825 71.6291 37.7291 71.5258 34.0101L71.5179 34.0101Z" fill="url(#paint0_linear_58452_8493)"/>
<path opacity="0.5" d="M41.2025 22.4005C44.1029 21.7728 47.949 23.0998 49.1966 27.0413C51.5647 34.5189 48.7119 40.3357 44.7228 42.227C49.594 36.14 48.7914 25.7857 41.2025 22.4005Z" fill="url(#paint1_linear_58452_8493)"/>
<path d="M61.7365 29.8617C60.036 30.1796 58.4626 32.4285 58.9712 35.7421C59.4797 39.0558 62.9047 39.4055 64.0966 36.6242C65.6065 33.096 64.4065 29.3611 61.7365 29.8617Z" fill="#484349"/>
<path d="M39.1364 29.6562C37.5947 29.9423 36.1644 31.9845 36.6332 34.9883C37.1021 37.992 40.2012 38.3099 41.274 35.7829C42.6408 32.5884 41.5521 29.2032 39.1364 29.6562Z" fill="#484349"/>
<path d="M55.2632 57.1051C53 57.105 50.5 56.3683 47.5263 56.3682" stroke="#B07FFF" stroke-width="2.16" stroke-linecap="round" stroke-linejoin="round"/>
<path d="M74.0775 47.9497C75.2536 49.0542 74.308 50.6117 72.1545 51.6686C69.9533 52.7493 66.0675 54.2274 61.6174 53.4248C54.7676 52.1931 56.7622 48.3867 66.8303 47.1789C68.658 46.9564 72.5041 46.4716 74.0775 47.9497Z" fill="#D0B4FF"/>
<path d="M46.0345 49.7978C46.4 51.1964 45.0491 52.2771 43.0466 52.4837C40.9964 52.6983 37.5636 52.6903 34.7108 50.4335C30.3164 46.9609 33.3917 44.2115 41.1633 46.6033C42.5698 47.0404 45.5498 47.9304 46.0424 49.7978L46.0345 49.7978Z" fill="#D0B4FF"/>
<defs>
<linearGradient id="paint0_linear_58452_8493" x1="73.2264" y1="32.6592" x2="62.3556" y2="32.6592" gradientUnits="userSpaceOnUse">
<stop stop-color="#C1C1C1"/>
<stop offset="0.06" stop-color="#C6C6C6"/>
<stop offset="0.43" stop-color="#E1E1E1"/>
<stop offset="0.75" stop-color="#F2F2F2"/>
<stop offset="1" stop-color="#F8F8F8"/>
</linearGradient>
<linearGradient id="paint1_linear_58452_8493" x1="50.0549" y1="32.2383" x2="41.2025" y2="32.2383" gradientUnits="userSpaceOnUse">
<stop stop-color="#C1C1C1"/>
<stop offset="0.06" stop-color="#C6C6C6"/>
<stop offset="0.43" stop-color="#E1E1E1"/>
<stop offset="0.75" stop-color="#F2F2F2"/>
<stop offset="1" stop-color="#F8F8F8"/>
</linearGradient>
</defs>
</svg>
