<svg width="162" height="136" viewBox="0 0 162 136" fill="none" xmlns="http://www.w3.org/2000/svg">
<path d="M32.0802 124.784C23.943 97.0986 25.4528 69.0158 32.9384 48.2834C41.5842 24.3248 59.0505 21.7422 69.3253 25.3102C80.4901 29.1881 86.6725 40.8296 88.0075 73.8393C89.3425 106.857 99.9669 110.727 98.0836 118.959C96.2003 127.184 80.1246 124.045 73.6005 118.228C73.6005 118.228 76.6758 137.276 63.4687 135.933C52.1927 134.789 48.0685 124.824 48.0685 124.824C48.0685 124.824 38.3023 146.001 32.0722 124.792L32.0802 124.784Z" fill="#DBC5FF"/>
<path opacity="0.25" d="M51.0246 41.0545C50.9451 45.7827 47.7109 49.5175 45.3826 53.3477C40.877 60.7379 39.9949 69.1771 41.0279 77.6401C42.212 87.303 46.9401 96.7752 46.8606 106.526C46.813 112.191 44.6118 118.318 38.5645 119.876C36.3951 120.432 34.5516 120.082 33.0974 119.16C27.1295 93.1675 28.0434 68.5573 35.378 49.3188C38.1752 41.9842 43.102 35.5873 47.1626 31.8843C49.777 33.7994 51.0723 38.1064 51.0246 41.0545Z" fill="#F6F1FF"/>
<path d="M91.7263 118.268C93.9354 115.273 92.2428 111.546 90.7886 108.621C84.5665 96.0819 83.5811 83.5185 83.0726 69.7155C82.6911 59.4168 83.0249 46.7581 76.334 38.2156C73.1236 34.1232 68.6895 31.1751 63.9931 29.0295C59.3682 26.9237 55.252 26.4469 50.6907 26.3913C57.3737 23.2763 64.2315 23.5305 69.3331 25.2947C80.4979 29.1725 86.6803 40.8141 88.0153 73.8238C89.3503 106.841 99.9747 110.711 98.0914 118.944C96.7485 124.808 88.198 124.896 81.0383 122.353C84.932 122.083 89.4377 121.352 91.7263 118.26L91.7263 118.268Z" fill="#D0B4FF"/>
<path d="M65.5355 131.055C70.2001 128.973 71.7497 125.199 73.8793 121.083C74.1415 126.343 73.4422 136.936 63.4774 135.927C59.6631 135.537 56.6672 134.139 54.3707 132.462C58.1612 132.748 61.9199 132.676 65.5355 131.063L65.5355 131.055Z" fill="#D0B4FF"/>
<path d="M35.4809 128.662C38.5165 130.474 42.9824 130.649 45.9385 128.623C42.8235 133.367 36.9669 139.327 32.5884 126.302C33.4466 127.216 34.4002 128.019 35.473 128.662L35.4809 128.662Z" fill="#D0B4FF"/>
<path d="M72.2819 51.0251C70.5495 45.542 64.2162 44.6282 61.2283 46.885C55.8009 50.9853 53.8302 63.5408 60.6085 67.5061C67.3868 71.4714 76.1518 63.2547 72.2819 51.0251Z" fill="#F8F8F8"/>
<path d="M49.1961 51.0406C47.6227 46.0661 41.8853 45.2397 39.1756 47.2898C34.2567 51.0088 32.4688 62.3881 38.6114 65.98C44.754 69.5718 52.7005 62.1339 49.1961 51.0406Z" fill="#F8F8F8"/>
<path opacity="0.5" d="M71.5179 58.0101C71.3749 53.1707 67.7195 46.6149 62.3556 46.2494C65.5898 44.8985 70.7391 46.162 72.2808 51.0252C74.8077 59.0114 71.9391 65.2891 67.7672 67.5777C70.1829 65.0825 71.6291 61.7291 71.5258 58.0101L71.5179 58.0101Z" fill="url(#paint0_linear_59803_8684)"/>
<path opacity="0.5" d="M41.2025 46.4005C44.1029 45.7728 47.949 47.0998 49.1966 51.0413C51.5647 58.5189 48.7119 64.3357 44.7228 66.227C49.594 60.14 48.7914 49.7857 41.2025 46.4005Z" fill="url(#paint1_linear_59803_8684)"/>
<path d="M61.7365 53.8617C60.036 54.1796 58.4626 56.4285 58.9712 59.7421C59.4797 63.0558 62.9047 63.4055 64.0966 60.6242C65.6065 57.096 64.4065 53.3611 61.7365 53.8617Z" fill="#484349"/>
<path d="M39.1364 53.6562C37.5947 53.9423 36.1644 55.9845 36.6332 58.9883C37.1021 61.992 40.2012 62.3099 41.274 59.7829C42.6408 56.5884 41.5521 53.2032 39.1364 53.6562Z" fill="#484349"/>
<path d="M55.2632 81.1051C54.1579 77.7893 49.7369 75.9472 47.5263 80.3682" stroke="#B07FFF" stroke-width="2.16" stroke-linecap="round" stroke-linejoin="round"/>
<path d="M74.0775 71.9497C75.2536 73.0542 74.308 74.6117 72.1545 75.6686C69.9533 76.7493 66.0675 78.2274 61.6174 77.4248C54.7676 76.1931 56.7622 72.3867 66.8303 71.1789C68.658 70.9564 72.5041 70.4716 74.0775 71.9497Z" fill="#D0B4FF"/>
<path d="M46.0345 73.7978C46.4 75.1964 45.0491 76.2771 43.0466 76.4837C40.9964 76.6983 37.5636 76.6903 34.7108 74.4335C30.3164 70.9609 33.3917 68.2115 41.1633 70.6033C42.5698 71.0404 45.5498 71.9304 46.0424 73.7978L46.0345 73.7978Z" fill="#D0B4FF"/>
<circle cx="111" cy="57" r="4" stroke="#44358C" stroke-width="2"/>
<path d="M104.956 14.5809C100.55 21.2709 101.944 27.5747 103.562 30.5764C105.18 33.5782 108.157 35.207 108.57 35.8935C108.982 36.58 106.99 43.8948 113.99 45.7993C119.823 47.3864 123.214 43.0116 123.627 43.0977C124.039 43.1839 129.159 50.6385 138.081 47C143.381 44.8388 140.68 38.2087 145.309 39.7958C149.937 41.3828 153.787 38.8091 153.138 34.9929C152.49 31.1768 161.607 33.6438 160.968 23.5862C160.477 15.8677 150.54 15.2674 150.428 14.5809C150.316 13.8944 150.609 3.29421 144.104 1.37308C137.599 -0.548056 133.074 5.57556 132.36 5.57556C131.646 5.57556 128.091 2.96012 124.943 5.57556C123.497 6.77627 123.136 9.26384 122.422 9.17769C121.708 9.09154 108.924 8.55481 104.956 14.5809Z" stroke="#44358C" stroke-width="2" stroke-linecap="round"/>
<defs>
<linearGradient id="paint0_linear_59803_8684" x1="73.2264" y1="56.6592" x2="62.3556" y2="56.6592" gradientUnits="userSpaceOnUse">
<stop stop-color="#C1C1C1"/>
<stop offset="0.06" stop-color="#C6C6C6"/>
<stop offset="0.43" stop-color="#E1E1E1"/>
<stop offset="0.75" stop-color="#F2F2F2"/>
<stop offset="1" stop-color="#F8F8F8"/>
</linearGradient>
<linearGradient id="paint1_linear_59803_8684" x1="50.0549" y1="56.2383" x2="41.2025" y2="56.2383" gradientUnits="userSpaceOnUse">
<stop stop-color="#C1C1C1"/>
<stop offset="0.06" stop-color="#C6C6C6"/>
<stop offset="0.43" stop-color="#E1E1E1"/>
<stop offset="0.75" stop-color="#F2F2F2"/>
<stop offset="1" stop-color="#F8F8F8"/>
</linearGradient>
</defs>
</svg>
