<svg width="112" height="146" viewBox="0 0 112 146" fill="none" xmlns="http://www.w3.org/2000/svg">
<path d="M32.0804 134.784C23.9432 107.098 25.4531 79.0153 32.9386 58.2829C41.5844 34.3243 59.0508 31.7417 69.3256 35.3097C80.4904 39.1876 86.6727 50.8292 88.0077 83.8388C89.3427 116.856 99.9672 120.726 98.0838 128.959C96.2005 137.184 80.1248 134.045 73.6007 128.228C73.6007 128.228 76.676 147.276 63.469 145.933C52.1929 144.788 48.0687 134.823 48.0687 134.823C48.0687 134.823 38.3025 156.001 32.0725 134.792L32.0804 134.784Z" fill="#DBC5FF"/>
<path opacity="0.25" d="M51.0247 51.0545C50.9453 55.7827 47.711 59.5175 45.3827 63.3477C40.8771 70.7379 39.995 79.1771 41.0281 87.6401C42.2121 97.303 46.9402 106.775 46.8608 116.526C46.8131 122.191 44.6119 128.318 38.5647 129.876C36.3953 130.432 34.5517 130.082 33.0975 129.16C27.1297 103.167 28.0435 78.5573 35.3781 59.3188C38.1753 51.9842 43.1021 45.5873 47.1627 41.8843C49.7771 43.7994 51.0724 48.1064 51.0247 51.0545Z" fill="#F6F1FF"/>
<path d="M91.7263 128.268C93.9354 125.273 92.2428 121.546 90.7886 118.621C84.5665 106.082 83.5811 93.5185 83.0726 79.7155C82.6911 69.4168 83.0249 56.7581 76.334 48.2156C73.1236 44.1232 68.6895 41.1751 63.9931 39.0295C59.3682 36.9237 55.252 36.4469 50.6907 36.3913C57.3737 33.2763 64.2315 33.5305 69.3331 35.2947C80.4979 39.1725 86.6803 50.8141 88.0153 83.8238C89.3503 116.841 99.9747 120.711 98.0914 128.944C96.7485 134.808 88.198 134.896 81.0383 132.353C84.932 132.083 89.4377 131.352 91.7263 128.26L91.7263 128.268Z" fill="#D0B4FF"/>
<path d="M65.5355 141.055C70.2001 138.973 71.7497 135.199 73.8793 131.083C74.1415 136.343 73.4422 146.936 63.4774 145.927C59.6631 145.537 56.6672 144.139 54.3707 142.462C58.1612 142.748 61.9199 142.676 65.5355 141.063L65.5355 141.055Z" fill="#D0B4FF"/>
<path d="M35.4809 138.662C38.5165 140.474 42.9824 140.649 45.9385 138.623C42.8235 143.367 36.9669 149.327 32.5884 136.302C33.4466 137.216 34.4002 138.019 35.473 138.662L35.4809 138.662Z" fill="#D0B4FF"/>
<path d="M55.2632 91.1051C54.1579 87.7893 49.7369 85.9472 47.5263 90.3682" stroke="#B07FFF" stroke-width="2.16" stroke-linecap="round" stroke-linejoin="round"/>
<path d="M56.8324 73.7894C58.423 76.8463 65.1113 78.7276 68.6079 74.8286" stroke="#656565" stroke-width="2.16" stroke-linecap="round" stroke-linejoin="round"/>
<path d="M36.2008 73.0526C37.5831 76.103 43.4385 77.958 46.5186 74.0459" stroke="#656565" stroke-width="2.16" stroke-linecap="round" stroke-linejoin="round"/>
<path d="M74.0774 81.9497C75.2535 83.0542 74.3078 84.6117 72.1543 85.6686C69.9532 86.7493 66.0673 88.2274 61.6173 87.4248C54.7675 86.1931 56.762 82.3867 66.8302 81.1789C68.6579 80.9564 72.504 80.4716 74.0774 81.9497Z" fill="#D0B4FF"/>
<path d="M46.0345 83.7978C46.4 85.1964 45.0491 86.2771 43.0466 86.4837C40.9964 86.6983 37.5636 86.6903 34.7108 84.4335C30.3164 80.9609 33.3917 78.2115 41.1633 80.6034C42.5698 81.0404 45.5498 81.9304 46.0424 83.7978L46.0345 83.7978Z" fill="#D0B4FF"/>
<path d="M6.26318 34L13.1425 28.9153C13.8026 28.4274 14.7369 28.8986 14.7369 29.7195V41.0067C14.7369 41.8659 15.7488 42.3251 16.3954 41.7593L20.6316 38.0526" stroke="#44358C" stroke-width="2" stroke-linecap="round"/>
<path d="M93.5397 30.4744L99.5038 33.3891C100.239 33.7482 100.255 34.7895 99.532 35.1717L92.1273 39.0847C91.3704 39.4847 91.4332 40.5887 92.2306 40.9003L96.1475 42.4307" stroke="#44358C" stroke-width="2" stroke-linecap="round"/>
<path d="M98.9879 47.4684L102.7 49.2825C103.435 49.6416 103.451 50.683 102.728 51.0651L98.5494 53.2733C97.7926 53.6733 97.8554 54.7773 98.6527 55.0889L100.836 55.942" stroke="#44358C" stroke-width="2" stroke-linecap="round"/>
<path d="M12.3578 6.81873L20.9013 2.20124C21.6208 1.81236 22.4774 2.40466 22.3677 3.21514L20.6437 15.9477C20.5289 16.796 21.4635 17.3871 22.1807 16.9197L27.6157 13.3776" stroke="#44358C" stroke-width="2" stroke-linecap="round"/>
</svg>
