<svg width="112" height="113" viewBox="0 0 112 113" fill="none" xmlns="http://www.w3.org/2000/svg">
<path fill-rule="evenodd" clip-rule="evenodd" d="M73.5863 7.54959C62.8114 6.72931 44.264 7.60161 30.258 17.2427C22.3874 22.6605 14.5932 32.0099 11.15 43.8425C7.71982 55.6301 8.5821 69.9623 18.1315 85.4735C31.7195 107.545 59.3055 110.945 74.6814 109.144C74.8038 109.13 74.8474 109.091 74.8628 109.075C74.8854 109.052 74.913 109.008 74.9234 108.937C74.9441 108.798 74.8912 108.611 74.6707 108.486C50.799 94.8858 40.5327 74.9842 41.3182 55.8018C42.102 36.6619 53.8828 18.4908 73.576 8.30951C73.8223 8.18213 73.8946 7.97051 73.8691 7.79358C73.8564 7.70485 73.8215 7.65008 73.7932 7.62206C73.7742 7.6032 73.7242 7.56009 73.5863 7.54959ZM28.7696 15.0805C43.5191 4.92756 62.8079 4.09645 73.7856 4.93217C75.3328 5.04996 76.2897 6.18371 76.4674 7.42014C76.6408 8.6266 76.0879 9.9659 74.7815 10.6413C55.8401 20.4339 44.6824 37.8043 43.941 55.9092C43.2014 73.9715 52.8233 93.018 75.9701 106.205C77.1738 106.891 77.6918 108.16 77.5202 109.321C77.3446 110.51 76.4373 111.582 74.9867 111.751C59.2362 113.596 30.2901 110.23 15.8961 86.8497C5.96799 70.7233 4.98695 55.6266 8.62952 43.1091C12.259 30.6366 20.4536 20.8048 28.7696 15.0805Z" fill="#44358C"/>
<path fill-rule="evenodd" clip-rule="evenodd" d="M94.7516 76.8952L93.5 76.5L93.7047 77.7964L93.6002 77.8131L93.3012 77.8611C93.0433 77.9028 92.6743 77.963 92.2314 78.0368C91.3449 78.1846 90.1653 78.3864 88.9878 78.6033C88.1915 78.75 87.4049 78.902 86.7141 79.0476C87.1847 79.3816 87.7079 79.7424 88.237 80.1014C89.1039 80.6897 89.9724 81.2636 90.6252 81.691C90.9513 81.9045 91.223 82.0811 91.4129 82.2042L91.633 82.3465L91.7087 82.3953L91 83.5L92.2693 83.8341L92.2419 83.9386L92.164 84.2378C92.0971 84.4959 92.0019 84.8649 91.8892 85.308C91.6636 86.1947 91.3686 87.3746 91.0897 88.5525C90.9329 89.2144 90.7827 89.8695 90.6531 90.4682C91.1412 90.1408 91.6677 89.7813 92.1924 89.4195C93.0933 88.7982 93.9797 88.1761 94.6415 87.709C94.9723 87.4755 95.2465 87.281 95.4379 87.145L95.736 86.9328L96.5 88L97.2762 86.9416L97.3579 87.0013L97.5937 87.1728C97.7976 87.3207 98.09 87.5317 98.4426 87.7835C99.1485 88.2878 100.092 88.9529 101.049 89.6009C101.72 90.0557 102.387 90.4945 102.976 90.861C102.824 90.1117 102.624 89.2447 102.412 88.3727C102.134 87.2288 101.84 86.0979 101.614 85.2515C101.502 84.8288 101.407 84.4779 101.34 84.233L101.263 83.9497L101.236 83.8526L102.5 83.5L101.753 82.4209L101.824 82.3715L102.028 82.2293C102.204 82.1063 102.457 81.9298 102.759 81.7164C103.365 81.2892 104.171 80.7156 104.976 80.1278C105.491 79.7514 105.999 79.3734 106.452 79.0265C105.852 78.8861 105.174 78.7398 104.485 78.598C103.434 78.3815 102.38 78.1801 101.588 78.0325C101.192 77.9588 100.862 77.8987 100.632 77.857L100.365 77.8091L100.273 77.7928L100.5 76.5L99.2484 76.8952L99.2152 76.7905L99.1199 76.4913C99.0374 76.2331 98.9189 75.864 98.775 75.4208C98.4872 74.5339 98.0989 73.3535 97.6957 72.1748C97.4615 71.4904 97.2243 70.8122 97 70.1953C96.7757 70.8122 96.5385 71.4904 96.3043 72.1748C95.9011 73.3535 95.5128 74.5339 95.225 75.4208C95.0811 75.864 94.9626 76.2331 94.8801 76.4913L94.7848 76.7905L94.7516 76.8952ZM100.5 76.5L99.2484 76.8952L99.4881 77.6542L100.273 77.7928L100.5 76.5ZM101.51 75.3488C101.442 75.1373 101.362 74.8882 101.272 74.6104C100.982 73.7161 100.589 72.5215 100.179 71.3252C99.7715 70.133 99.3417 68.9222 98.9786 68.0025C98.7991 67.5476 98.6241 67.1336 98.4679 66.8212C98.393 66.6715 98.2997 66.4985 98.1916 66.3465C98.14 66.2738 98.0506 66.1564 97.9232 66.0438C97.834 65.965 97.5075 65.6875 97 65.6875C96.4925 65.6875 96.166 65.965 96.0768 66.0438C95.9494 66.1564 95.86 66.2738 95.8084 66.3465C95.7003 66.4985 95.607 66.6715 95.5321 66.8212C95.3759 67.1336 95.2009 67.5476 95.0214 68.0025C94.6583 68.9222 94.2285 70.133 93.8207 71.3252C93.4114 72.5215 93.0184 73.7161 92.7282 74.6104C92.6403 74.8812 92.5617 75.1248 92.4949 75.3328C92.2929 75.3658 92.0589 75.4044 91.7999 75.4475C90.9051 75.5967 89.7097 75.8011 88.5122 76.0217C87.3196 76.2414 86.1058 76.4806 85.1819 76.6994C84.7261 76.8074 84.305 76.9186 83.9834 77.0287C83.8309 77.0808 83.6428 77.1519 83.4719 77.2464C83.3908 77.2912 83.2496 77.3756 83.1116 77.5099C82.9987 77.6199 82.6875 77.9573 82.6875 78.5C82.6875 78.8583 82.8288 79.1189 82.8805 79.2095C82.949 79.3294 83.0244 79.4248 83.0778 79.4877C83.1865 79.6158 83.3134 79.7363 83.4266 79.8374C83.6602 80.046 83.969 80.2893 84.3062 80.5422C84.9879 81.0534 85.8835 81.6768 86.763 82.2736C87.6461 82.8728 88.5276 83.4552 89.1873 83.8871C89.295 83.9577 89.397 84.0243 89.4921 84.0863C89.4477 84.259 89.3984 84.4518 89.3452 84.6608C89.1176 85.5553 88.8189 86.7504 88.5353 87.9475C88.253 89.1395 87.9811 90.3534 87.8108 91.2778C87.7271 91.7323 87.66 92.1582 87.634 92.4885C87.6221 92.6388 87.611 92.8533 87.6388 93.0645C87.6509 93.1569 87.6848 93.3757 87.813 93.6076C87.96 93.8735 88.3396 94.3125 89 94.3125C89.2377 94.3125 89.4264 94.2492 89.4869 94.2287C89.5765 94.1983 89.6574 94.1631 89.7201 94.1339C89.8472 94.0749 89.9842 94.0006 90.117 93.9247C90.3869 93.7705 90.7246 93.5602 91.0944 93.3216C91.8382 92.8417 92.7733 92.2076 93.6826 91.5805C94.5942 90.9518 95.489 90.3239 96.1553 89.8535C96.2755 89.7687 96.3882 89.689 96.4923 89.6153C96.6212 89.708 96.7634 89.81 96.9168 89.9196C97.6327 90.431 98.5954 91.1096 99.5764 91.7741C100.552 92.4347 101.568 93.0972 102.384 93.5671C102.785 93.7981 103.182 94.008 103.52 94.1451C103.681 94.2105 103.896 94.2874 104.126 94.3232C104.242 94.3411 104.419 94.3584 104.625 94.3281C104.833 94.2974 105.152 94.2041 105.428 93.9281C105.654 93.7025 105.749 93.4541 105.791 93.3213C105.837 93.1741 105.856 93.0385 105.866 92.939C105.886 92.7401 105.879 92.5348 105.867 92.3569C105.841 91.9921 105.775 91.5448 105.69 91.0728C105.519 90.1185 105.246 88.9155 104.963 87.7523C104.679 86.5837 104.379 85.4334 104.151 84.5766C104.1 84.3843 104.052 84.2066 104.009 84.0466C104.092 83.9887 104.18 83.9269 104.272 83.8617C104.885 83.4296 105.704 82.8469 106.524 82.2472C107.341 81.6501 108.174 81.0258 108.809 80.5132C109.123 80.2597 109.412 80.0149 109.63 79.8045C109.737 79.7023 109.856 79.5803 109.958 79.4508C110.008 79.3869 110.078 79.2918 110.141 79.1735C110.19 79.0812 110.312 78.8342 110.312 78.5C110.312 78.0116 110.059 77.6896 109.942 77.5622C109.811 77.4199 109.675 77.3283 109.594 77.2785C109.427 77.1751 109.245 77.0987 109.104 77.0446C108.804 76.9302 108.418 76.8163 108.008 76.7078C107.174 76.4872 106.083 76.2469 105.015 76.027C103.941 75.806 102.87 75.6012 102.068 75.4519C101.863 75.4137 101.676 75.3791 101.51 75.3488ZM102.5 83.5L101.753 82.4209L100.986 82.9521L101.236 83.8526L102.5 83.5ZM96.5 88L97.2762 86.9416L96.5101 86.3798L95.736 86.9328L96.5 88ZM91 83.5L92.2693 83.8341L92.512 82.9117L91.7087 82.3953L91 83.5ZM93.5 76.5L93.7047 77.7964L94.507 77.6698L94.7516 76.8952L93.5 76.5Z" fill="#44358C"/>
<path fill-rule="evenodd" clip-rule="evenodd" d="M64.4728 53.69L63.22 53.2987L63.4269 54.5948L63.348 54.6074L63.1214 54.6443C62.9258 54.6762 62.6459 54.7224 62.3099 54.779C61.6372 54.8923 60.7427 55.047 59.8503 55.2132C59.498 55.2788 59.1491 55.3457 58.8162 55.412C59.0074 55.5456 59.2042 55.6817 59.4024 55.8177C60.0594 56.2683 60.7179 56.7081 61.2132 57.036C61.4605 57.1997 61.6666 57.3351 61.8106 57.4294L61.9773 57.5384L62.0344 57.5756L61.32 58.6766L62.5902 59.0073L62.5695 59.0872L62.5104 59.3165C62.4596 59.5144 62.3874 59.7975 62.3019 60.1374C62.1307 60.8177 61.9069 61.7225 61.6954 62.6254C61.6396 62.8635 61.585 63.1 61.5326 63.3313C61.7009 63.2151 61.8714 63.0967 62.0419 62.9779C62.7253 62.5014 63.398 62.0243 63.9004 61.6657C64.1515 61.4866 64.3596 61.3374 64.5049 61.233L64.7308 61.0704L65.5102 60.5076L66.2816 61.0795L66.2967 61.0907L66.3431 61.1249L66.5216 61.2562C66.6761 61.3694 66.8977 61.5311 67.1649 61.724C67.7002 62.1106 68.415 62.6199 69.1391 63.1157C69.4176 63.3064 69.694 63.4928 69.9597 63.668C69.876 63.2898 69.7831 62.8906 69.6864 62.489C69.4756 61.6128 69.2525 60.7462 69.0817 60.0971C68.9964 59.773 68.9243 59.504 68.8737 59.3164L68.8149 59.0994L68.7947 59.0253L68.5492 58.132L69.361 57.5637L69.5157 57.4548C69.6493 57.3606 69.8405 57.2253 70.07 57.0617C70.5297 56.734 71.1407 56.2945 71.7501 55.8443C71.9562 55.692 72.1606 55.5397 72.3576 55.3911C72.0816 55.33 71.7937 55.2684 71.5026 55.2079C70.7062 55.0421 69.9075 54.8877 69.3065 54.7746C69.0064 54.7181 68.7564 54.672 68.5818 54.6401L68.3796 54.6034L68.3104 54.5909L67.5249 54.4508L67.2872 53.69L67.2621 53.61L67.1898 53.3806C67.1272 53.1827 67.0373 52.8995 66.9281 52.5595C66.7096 51.8789 66.415 50.9736 66.1093 50.0701C66.0329 49.8443 65.9561 49.6197 65.88 49.3996C65.8039 49.6197 65.7271 49.8443 65.6507 50.0701C65.345 50.9736 65.0504 51.8789 64.8319 52.5595C64.7227 52.8995 64.6328 53.1827 64.5702 53.3806L64.4979 53.61L64.4728 53.69ZM69.5533 52.1501C69.515 52.0301 69.4729 51.8984 69.4275 51.757C69.2066 51.0691 68.9075 50.1497 68.5957 49.2286C68.2854 48.3117 67.957 47.3762 67.6785 46.663C67.5412 46.3114 67.4045 45.9836 67.2799 45.7317C67.2208 45.6122 67.1418 45.4631 67.0463 45.3272C67.001 45.2628 66.9175 45.1512 66.7955 45.0421C66.7128 44.9682 66.3888 44.6875 65.88 44.6875C65.3712 44.6875 65.0472 44.9682 64.9645 45.0421C64.8425 45.1512 64.759 45.2628 64.7137 45.3272C64.6182 45.4631 64.5392 45.6122 64.4801 45.7317C64.3555 45.9836 64.2188 46.3114 64.0815 46.663C63.803 47.3762 63.4746 48.3117 63.1643 49.2286C62.8525 50.1497 62.5534 51.0691 62.3325 51.757C62.2892 51.892 62.2488 52.0182 62.2119 52.1338C62.1071 52.1513 61.994 52.1702 61.8738 52.1905C61.1928 52.3052 60.2823 52.4626 59.3697 52.6326C58.4621 52.8016 57.5329 52.9866 56.8225 53.1567C56.4735 53.2402 56.141 53.3287 55.8813 53.4185C55.7597 53.4605 55.5957 53.5224 55.441 53.6088C55.3679 53.6497 55.2332 53.7305 55.1 53.8616C54.9905 53.9695 54.6875 54.3016 54.6875 54.8352C54.6875 55.1862 54.8243 55.4404 54.8727 55.5259C54.9373 55.6402 55.0073 55.7294 55.0544 55.7855C55.1504 55.8998 55.2589 56.0034 55.3492 56.0849C55.5367 56.2541 55.7798 56.4474 56.0383 56.6434C56.5624 57.0408 57.2481 57.5231 57.9176 57.9823C58.5906 58.444 59.2621 58.8925 59.7643 59.2249C59.7818 59.2365 59.7991 59.2479 59.8162 59.2592C59.797 59.3348 59.777 59.4141 59.7562 59.4968C59.5831 60.1849 59.3556 61.1047 59.1396 62.0266C58.9248 62.9434 58.7168 63.8818 58.586 64.5996C58.522 64.9507 58.4687 65.2901 58.4477 65.5595C58.4383 65.6795 58.4277 65.8691 58.4529 66.0627C58.4638 66.1461 58.4954 66.3573 58.6193 66.5839C58.7605 66.8422 59.136 67.2878 59.8 67.2878C60.0363 67.2878 60.2213 67.2244 60.2752 67.2059C60.3586 67.1774 60.4318 67.145 60.4851 67.1199C60.5934 67.069 60.7064 67.0069 60.8105 66.9468C61.0231 66.8239 61.2854 66.6587 61.5679 66.4744C62.1374 66.103 62.8513 65.6136 63.5431 65.1313C64.2372 64.6474 64.9182 64.1642 65.4252 63.8025C65.4481 63.7862 65.4706 63.7701 65.4928 63.7543C65.5365 63.7859 65.5817 63.8186 65.6282 63.8522C66.1735 64.246 66.9075 64.769 67.6559 65.2816C68.3985 65.7901 69.1788 66.3044 69.8095 66.6715C70.1177 66.8509 70.4341 67.0212 70.7119 67.135C70.843 67.1887 71.0336 67.2588 71.2452 67.292C71.3516 67.3088 71.5223 67.3261 71.7227 67.2962C71.9268 67.2658 72.2416 67.1728 72.5131 66.8983C72.7333 66.6758 72.8243 66.4332 72.8627 66.3093C72.9057 66.1704 72.9234 66.0448 72.9319 65.9567C72.949 65.7806 72.9431 65.6046 72.9332 65.461C72.9127 65.165 72.8601 64.8093 72.7951 64.4434C72.6633 63.7013 72.454 62.7701 72.2386 61.8749C72.0219 60.9744 71.7938 60.0884 71.6202 59.429C71.6011 59.3564 71.5827 59.2866 71.565 59.2197C71.5745 59.2129 71.5841 59.2061 71.5937 59.1992C72.0603 58.8666 72.6843 58.4178 73.3099 57.9557C73.9319 57.4961 74.5699 57.0129 75.0582 56.6142C75.299 56.4176 75.5265 56.2228 75.7025 56.0517C75.7875 55.9692 75.8896 55.8642 75.9797 55.7485C76.0242 55.6915 76.0889 55.6026 76.148 55.49C76.1937 55.403 76.3125 55.1624 76.3125 54.8352C76.3125 54.3555 76.0661 54.039 75.9527 53.9142C75.8264 53.7753 75.6961 53.6873 75.6226 53.6414C75.4698 53.546 75.3095 53.4787 75.1956 53.4347C74.9517 53.3404 74.6446 53.2494 74.3299 53.1652C73.6875 52.9933 72.8507 52.8072 72.0374 52.6379C71.2188 52.4676 70.4025 52.3098 69.7923 52.1949C69.7086 52.1792 69.6288 52.1642 69.5533 52.1501ZM61.32 58.6766L62.5902 59.0073L62.8285 58.0917L62.0344 57.5756L61.32 58.6766ZM63.22 53.2987L63.4269 54.5948L64.2302 54.4665L64.4728 53.69L63.22 53.2987Z" fill="#44358C"/>
<path fill-rule="evenodd" clip-rule="evenodd" d="M92.4728 31.69L91.22 31.2987L91.4269 32.5948L91.348 32.6074L91.1214 32.6443C90.9258 32.6762 90.6459 32.7224 90.3099 32.779C89.6372 32.8923 88.7427 33.047 87.8503 33.2132C87.498 33.2788 87.1491 33.3457 86.8162 33.412C87.0074 33.5456 87.2042 33.6817 87.4024 33.8177C88.0594 34.2683 88.7179 34.7081 89.2132 35.036C89.4605 35.1997 89.6666 35.3351 89.8106 35.4294L89.9773 35.5384L90.0344 35.5756L89.32 36.6766L90.5902 37.0073L90.5695 37.0872L90.5104 37.3165C90.4596 37.5144 90.3874 37.7975 90.3019 38.1374C90.1307 38.8177 89.9069 39.7226 89.6954 40.6254C89.6396 40.8635 89.585 41.1001 89.5326 41.3313C89.7009 41.2151 89.8714 41.0968 90.0419 40.9779C90.7253 40.5015 91.398 40.0243 91.9004 39.6657C92.1515 39.4866 92.3596 39.3374 92.5049 39.233L92.7308 39.0704L93.5102 38.5076L94.2816 39.0795L94.2967 39.0907L94.3431 39.1249L94.5216 39.2562C94.6761 39.3694 94.8977 39.5311 95.1649 39.7241C95.7002 40.1106 96.415 40.6199 97.1391 41.1157C97.4176 41.3064 97.694 41.4928 97.9597 41.668C97.876 41.2898 97.7831 40.8906 97.6864 40.489C97.4756 39.6128 97.2525 38.7462 97.0817 38.0971C96.9964 37.773 96.9243 37.504 96.8737 37.3164L96.8149 37.0994L96.7947 37.0253L96.5492 36.132L97.361 35.5637L97.5157 35.4548C97.6493 35.3606 97.8405 35.2253 98.07 35.0617C98.5297 34.734 99.1407 34.2945 99.7501 33.8443C99.9562 33.692 100.161 33.5397 100.358 33.3911C100.082 33.33 99.7937 33.2684 99.5026 33.2079C98.7062 33.0421 97.9075 32.8877 97.3065 32.7746C97.0064 32.7181 96.7564 32.672 96.5818 32.6401L96.3796 32.6034L96.3104 32.5909L95.5249 32.4508L95.2872 31.69L95.2621 31.61L95.1898 31.3806C95.1272 31.1827 95.0373 30.8995 94.9281 30.5595C94.7096 29.8789 94.415 28.9736 94.1093 28.0701C94.0329 27.8443 93.9561 27.6197 93.88 27.3996C93.8039 27.6197 93.7271 27.8443 93.6507 28.0701C93.345 28.9736 93.0504 29.8789 92.8319 30.5595C92.7227 30.8995 92.6328 31.1827 92.5702 31.3806L92.4979 31.61L92.4728 31.69ZM97.5533 30.1501C97.515 30.0301 97.4729 29.8984 97.4275 29.757C97.2066 29.0691 96.9075 28.1497 96.5957 27.2286C96.2854 26.3117 95.957 25.3762 95.6785 24.663C95.5412 24.3114 95.4045 23.9836 95.2799 23.7317C95.2208 23.6122 95.1418 23.4631 95.0463 23.3272C95.001 23.2628 94.9175 23.1512 94.7955 23.0421C94.7128 22.9682 94.3888 22.6875 93.88 22.6875C93.3712 22.6875 93.0472 22.9682 92.9645 23.0421C92.8425 23.1512 92.759 23.2628 92.7137 23.3272C92.6182 23.4631 92.5392 23.6122 92.4801 23.7317C92.3555 23.9836 92.2188 24.3114 92.0815 24.663C91.803 25.3762 91.4746 26.3117 91.1643 27.2286C90.8525 28.1497 90.5534 29.0691 90.3325 29.757C90.2892 29.892 90.2488 30.0182 90.2119 30.1338C90.1071 30.1513 89.994 30.1702 89.8738 30.1905C89.1928 30.3052 88.2823 30.4626 87.3697 30.6326C86.4621 30.8016 85.5329 30.9866 84.8225 31.1567C84.4735 31.2402 84.141 31.3287 83.8813 31.4185C83.7597 31.4605 83.5957 31.5224 83.441 31.6089C83.3679 31.6497 83.2332 31.7305 83.1 31.8616C82.9905 31.9695 82.6875 32.3016 82.6875 32.8352C82.6875 33.1862 82.8243 33.4404 82.8727 33.5259C82.9373 33.6402 83.0073 33.7294 83.0544 33.7855C83.1504 33.8998 83.2589 34.0034 83.3492 34.0849C83.5367 34.2541 83.7798 34.4474 84.0383 34.6434C84.5624 35.0408 85.2481 35.5231 85.9176 35.9823C86.5906 36.444 87.2621 36.8925 87.7643 37.2249C87.7818 37.2365 87.7991 37.2479 87.8162 37.2592C87.797 37.3348 87.777 37.4142 87.7562 37.4968C87.5831 38.1849 87.3556 39.1047 87.1396 40.0266C86.9248 40.9434 86.7168 41.8818 86.586 42.5996C86.522 42.9508 86.4687 43.2901 86.4477 43.5595C86.4383 43.6795 86.4277 43.8691 86.4529 44.0627C86.4638 44.1462 86.4954 44.3573 86.6193 44.584C86.7605 44.8422 87.136 45.2878 87.8 45.2878C88.0363 45.2878 88.2213 45.2244 88.2752 45.2059C88.3586 45.1774 88.4318 45.145 88.4851 45.1199C88.5934 45.069 88.7064 45.0069 88.8105 44.9468C89.0231 44.8239 89.2854 44.6587 89.5679 44.4744C90.1374 44.103 90.8513 43.6136 91.5431 43.1313C92.2372 42.6474 92.9182 42.1642 93.4252 41.8025C93.4481 41.7862 93.4706 41.7701 93.4928 41.7543C93.5365 41.786 93.5817 41.8186 93.6282 41.8522C94.1735 42.246 94.9075 42.769 95.6559 43.2816C96.3985 43.7901 97.1788 44.3044 97.8095 44.6715C98.1177 44.8509 98.4341 45.0212 98.7119 45.135C98.843 45.1887 99.0336 45.2588 99.2452 45.292C99.3516 45.3088 99.5223 45.3261 99.7227 45.2962C99.9268 45.2658 100.242 45.1728 100.513 44.8983C100.733 44.6758 100.824 44.4332 100.863 44.3093C100.906 44.1704 100.923 44.0448 100.932 43.9567C100.949 43.7806 100.943 43.6046 100.933 43.461C100.913 43.1651 100.86 42.8093 100.795 42.4434C100.663 41.7013 100.454 40.7701 100.239 39.8749C100.022 38.9744 99.7938 38.0884 99.6202 37.429C99.6011 37.3564 99.5827 37.2866 99.565 37.2197C99.5745 37.2129 99.5841 37.2061 99.5937 37.1992C100.06 36.8666 100.684 36.4178 101.31 35.9557C101.932 35.4961 102.57 35.0129 103.058 34.6142C103.299 34.4176 103.527 34.2228 103.703 34.0517C103.787 33.9692 103.89 33.8642 103.98 33.7485C104.024 33.6915 104.089 33.6026 104.148 33.49C104.194 33.403 104.312 33.1624 104.312 32.8352C104.312 32.3555 104.066 32.039 103.953 31.9142C103.826 31.7753 103.696 31.6873 103.623 31.6414C103.47 31.546 103.309 31.4787 103.196 31.4347C102.952 31.3404 102.645 31.2494 102.33 31.1652C101.687 30.9933 100.851 30.8072 100.037 30.6379C99.2188 30.4676 98.4025 30.3098 97.7923 30.1949C97.7086 30.1792 97.6288 30.1642 97.5533 30.1501ZM89.32 36.6766L90.5902 37.0073L90.8285 36.0917L90.0344 35.5756L89.32 36.6766ZM91.22 31.2987L91.4269 32.5948L92.2302 32.4665L92.4728 31.69L91.22 31.2987Z" fill="#44358C"/>
<path fill-rule="evenodd" clip-rule="evenodd" d="M14.9454 59.6887C15.6696 59.6585 16.2812 60.2211 16.3114 60.9454C16.4698 64.7464 18.0478 73.1222 23.116 81.3092C25.656 85.4123 28.3735 88.5708 30.7187 90.7513C31.892 91.8422 32.9606 92.6777 33.8553 93.2621C34.7773 93.8644 35.4271 94.1421 35.775 94.2166C36.4838 94.3685 36.9353 95.0662 36.7834 95.775C36.6315 96.4838 35.9338 96.9353 35.225 96.7834C34.4062 96.6079 33.4353 96.1232 32.4197 95.4598C31.3769 94.7786 30.1914 93.8453 28.9313 92.6737C26.4098 90.3293 23.544 86.9878 20.884 82.6909C15.5522 74.0779 13.8636 65.2537 13.6887 61.0547C13.6585 60.3304 14.2211 59.7188 14.9454 59.6887Z" fill="#44358C"/>
<path fill-rule="evenodd" clip-rule="evenodd" d="M60.7064 13.4828C60.992 14.1491 60.6833 14.9207 60.0171 15.2062C58.4464 15.8794 56.1912 17.4053 54.0578 19.2949C51.9192 21.189 50.0638 23.3072 49.174 25.0868C48.8498 25.7352 48.0614 25.998 47.4131 25.6738C46.7647 25.3496 46.5019 24.5612 46.8261 23.9129C47.9363 21.6925 50.0808 19.3107 52.3173 17.3298C54.5589 15.3444 57.0537 13.6203 58.983 12.7935C59.6493 12.5079 60.4209 12.8166 60.7064 13.4828Z" fill="#44358C"/>
</svg>
