<svg width="176" height="186" viewBox="0 0 176 186" fill="none" xmlns="http://www.w3.org/2000/svg">
<path d="M37.0807 174.784C28.9435 147.098 30.4533 119.015 37.9389 98.2829C46.5847 74.3243 64.051 71.7417 74.3258 75.3097C85.4906 79.1876 91.673 90.8291 93.008 123.839C94.343 156.856 104.967 160.726 103.084 168.959C101.201 177.183 85.125 174.045 78.601 168.228C78.601 168.228 81.6763 187.276 68.4692 185.933C57.1932 184.788 53.069 174.823 53.069 174.823C53.069 174.823 43.3027 196.001 37.0727 174.792L37.0807 174.784Z" fill="#DBC5FF"/>
<path opacity="0.25" d="M56.0249 91.0545C55.9454 95.7827 52.7112 99.5175 50.3828 103.348C45.8772 110.738 44.9951 119.177 46.0282 127.64C47.2122 137.303 51.9404 146.775 51.8609 156.526C51.8132 162.191 49.612 168.318 43.5648 169.876C41.3954 170.432 39.5518 170.082 38.0976 169.16C32.1298 143.167 33.0436 118.557 40.3782 99.3188C43.1754 91.9842 48.1022 85.5873 52.1629 81.8843C54.7773 83.7994 56.0725 88.1064 56.0249 91.0545Z" fill="#F6F1FF"/>
<path d="M96.7263 168.268C98.9354 165.273 97.2428 161.546 95.7886 158.621C89.5665 146.082 88.5811 133.518 88.0726 119.715C87.6911 109.417 88.0249 96.7581 81.334 88.2156C78.1236 84.1232 73.6895 81.1751 68.9931 79.0295C64.3682 76.9237 60.252 76.4469 55.6907 76.3913C62.3737 73.2763 69.2315 73.5305 74.3331 75.2947C85.4979 79.1725 91.6803 90.8141 93.0153 123.824C94.3503 156.841 104.975 160.711 103.091 168.944C101.748 174.808 93.198 174.896 86.0383 172.353C89.932 172.083 94.4377 171.352 96.7263 168.26L96.7263 168.268Z" fill="#D0B4FF"/>
<path d="M70.5355 181.055C75.2001 178.973 76.7497 175.199 78.8793 171.083C79.1415 176.343 78.4422 186.936 68.4774 185.927C64.6631 185.537 61.6672 184.139 59.3707 182.462C63.1612 182.748 66.9199 182.676 70.5355 181.063L70.5355 181.055Z" fill="#D0B4FF"/>
<path d="M40.4809 178.662C43.5165 180.474 47.9824 180.649 50.9385 178.623C47.8235 183.367 41.9669 189.327 37.5884 176.302C38.4466 177.216 39.4002 178.019 40.473 178.662L40.4809 178.662Z" fill="#D0B4FF"/>
<path d="M77.2816 101.025C75.5493 95.542 69.216 94.6282 66.2281 96.885C60.8006 100.985 58.8299 113.541 65.6083 117.506C72.3866 121.471 81.1516 113.255 77.2816 101.025Z" fill="#F8F8F8"/>
<path d="M54.1961 101.041C52.6227 96.0661 46.8853 95.2397 44.1756 97.2898C39.2567 101.009 37.4688 112.388 43.6114 115.98C49.754 119.572 57.7005 112.134 54.1961 101.041Z" fill="#F8F8F8"/>
<path opacity="0.5" d="M76.5177 108.01C76.3746 103.171 72.7192 96.6149 67.3554 96.2494C70.5896 94.8985 75.7389 96.162 77.2805 101.025C79.8075 109.011 76.9388 115.289 72.7669 117.578C75.1826 115.083 76.6289 111.729 76.5256 108.01L76.5177 108.01Z" fill="url(#paint0_linear_59795_8683)"/>
<path opacity="0.5" d="M46.2025 96.4005C49.1029 95.7728 52.949 97.0998 54.1966 101.041C56.5647 108.519 53.7119 114.336 49.7228 116.227C54.594 110.14 53.7914 99.7857 46.2025 96.4005Z" fill="url(#paint1_linear_59795_8683)"/>
<path d="M66.7363 103.862C65.0357 104.18 63.4623 106.428 63.9709 109.742C64.4795 113.056 67.9044 113.405 69.0964 110.624C70.6062 107.096 69.4063 103.361 66.7363 103.862Z" fill="#484349"/>
<path d="M44.1361 103.656C42.5945 103.942 41.1641 105.985 41.633 108.988C42.1018 111.992 45.2009 112.31 46.2737 109.783C47.6405 106.588 46.5518 103.203 44.1361 103.656Z" fill="#484349"/>
<path d="M58.989 124.077C58.989 124.077 56.176 132.762 53.8794 123.878" stroke="#B07FFF" stroke-width="2.16" stroke-linecap="round" stroke-linejoin="round"/>
<path d="M79.0775 121.95C80.2536 123.054 79.308 124.612 77.1545 125.669C74.9533 126.749 71.0675 128.227 66.6174 127.425C59.7676 126.193 61.7622 122.387 71.8303 121.179C73.658 120.956 77.5041 120.472 79.0775 121.95Z" fill="#D0B4FF"/>
<path d="M51.0345 123.798C51.4 125.196 50.0491 126.277 48.0466 126.484C45.9964 126.698 42.5636 126.69 39.7108 124.434C35.3164 120.961 38.3917 118.211 46.1633 120.603C47.5698 121.04 50.5498 121.93 51.0424 123.798L51.0345 123.798Z" fill="#D0B4FF"/>
<circle cx="138.5" cy="37.5" r="18.5" stroke="#44358C" stroke-width="2"/>
<path d="M137.921 64.73V73.9998" stroke="#44358C" stroke-width="2" stroke-linecap="round"/>
<path d="M137.921 1V10.2698" stroke="#44358C" stroke-width="2" stroke-linecap="round"/>
<path d="M165.73 38.0796L175 38.0796" stroke="#44358C" stroke-width="2" stroke-linecap="round"/>
<path d="M102 38.0796L111.27 38.0796" stroke="#44358C" stroke-width="2" stroke-linecap="round"/>
<path d="M111.908 11.7861L118.867 17.5624" stroke="#44358C" stroke-width="2" stroke-linecap="round"/>
<path d="M157.558 57.2036L164.517 62.9799" stroke="#44358C" stroke-width="2" stroke-linecap="round"/>
<path d="M157.558 18.6831L163.632 11.9826" stroke="#44358C" stroke-width="2" stroke-linecap="round"/>
<path d="M112.982 63.2578L119.057 56.5573" stroke="#44358C" stroke-width="2" stroke-linecap="round"/>
<path d="M167.55 50.1814L163.472 48.4966" stroke="#44358C" stroke-width="2" stroke-linecap="round"/>
<path d="M113.03 25.9158L108.952 24.231" stroke="#44358C" stroke-width="2" stroke-linecap="round"/>
<path d="M167.467 26.492L163.457 28.3335" stroke="#44358C" stroke-width="2" stroke-linecap="round"/>
<path d="M126.32 65.2334L128.226 61.2539" stroke="#44358C" stroke-width="2" stroke-linecap="round"/>
<path d="M114.165 48.5081L110.156 50.3496" stroke="#44358C" stroke-width="2" stroke-linecap="round"/>
<path d="M151.921 32C152.386 39.6823 150.931 46.5 144 50" stroke="#44358C" stroke-width="2" stroke-linecap="round"/>
<path d="M127.492 10.849L125.754 6.79346" stroke="#44358C" stroke-width="2" stroke-linecap="round"/>
<path d="M150.087 66.4682L148.349 62.4126" stroke="#44358C" stroke-width="2" stroke-linecap="round"/>
<path d="M149.494 11.9316L151.4 7.95215" stroke="#44358C" stroke-width="2" stroke-linecap="round"/>
<path d="M2.34604 38.0264C3.97292 33.3815 9.88852 24.2776 20.5359 25.0215C33.8451 25.9513 34.8082 28.8361 42.6315 27.091C50.4548 25.346 52.0639 19.5227 51.8539 14.9998" stroke="#44358C" stroke-width="2" stroke-linecap="round"/>
<path d="M4.24728 46.8371C5.28568 43.804 8.53708 36.8432 13.2351 33.2643C19.5594 28.4465 29.8449 32.6593 34.4459 32.9431C38.1267 33.1702 43.154 33.5888 46.3764 31.56" stroke="#44358C" stroke-width="2" stroke-linecap="round"/>
<path d="M28 38C32.1667 39.1667 42.7 40.3 51.5 35.5C59 31.4091 58.9222 27.3606 66 23.5C71.5 20.5 77.8333 20.5 79.5 20.5" stroke="#44358C" stroke-width="2" stroke-linecap="round"/>
<defs>
<linearGradient id="paint0_linear_59795_8683" x1="78.2261" y1="106.659" x2="67.3554" y2="106.659" gradientUnits="userSpaceOnUse">
<stop stop-color="#C1C1C1"/>
<stop offset="0.06" stop-color="#C6C6C6"/>
<stop offset="0.43" stop-color="#E1E1E1"/>
<stop offset="0.75" stop-color="#F2F2F2"/>
<stop offset="1" stop-color="#F8F8F8"/>
</linearGradient>
<linearGradient id="paint1_linear_59795_8683" x1="55.0549" y1="106.238" x2="46.2025" y2="106.238" gradientUnits="userSpaceOnUse">
<stop stop-color="#C1C1C1"/>
<stop offset="0.06" stop-color="#C6C6C6"/>
<stop offset="0.43" stop-color="#E1E1E1"/>
<stop offset="0.75" stop-color="#F2F2F2"/>
<stop offset="1" stop-color="#F8F8F8"/>
</linearGradient>
</defs>
</svg>
