<svg width="201" height="181" viewBox="0 0 201 181" fill="none" xmlns="http://www.w3.org/2000/svg">
<path d="M89.0804 169.784C80.9432 142.098 82.4531 114.015 89.9386 93.2829C98.5844 69.3243 116.051 66.7417 126.326 70.3097C137.49 74.1876 143.673 85.8292 145.008 118.839C146.343 151.856 156.967 155.726 155.084 163.959C153.201 172.184 137.125 169.045 130.601 163.228C130.601 163.228 133.676 182.276 120.469 180.933C109.193 179.788 105.069 169.823 105.069 169.823C105.069 169.823 95.3025 191.001 89.0725 169.792L89.0804 169.784Z" fill="#DBC5FF"/>
<path opacity="0.25" d="M108.025 86.0545C107.945 90.7827 104.711 94.5175 102.383 98.3477C97.8772 105.738 96.9951 114.177 98.0282 122.64C99.2122 132.303 103.94 141.775 103.861 151.526C103.813 157.191 101.612 163.318 95.5648 164.876C93.3954 165.432 91.5518 165.082 90.0976 164.16C84.1298 138.167 85.0436 113.557 92.3782 94.3188C95.1754 86.9842 100.102 80.5873 104.163 76.8843C106.777 78.7994 108.073 83.1064 108.025 86.0545Z" fill="#F6F1FF"/>
<path d="M148.726 163.268C150.935 160.273 149.243 156.546 147.789 153.621C141.567 141.082 140.581 128.518 140.073 114.715C139.691 104.417 140.025 91.7581 133.334 83.2156C130.124 79.1232 125.689 76.1751 120.993 74.0295C116.368 71.9237 112.252 71.4469 107.691 71.3913C114.374 68.2763 121.231 68.5305 126.333 70.2947C137.498 74.1725 143.68 85.8141 145.015 118.824C146.35 151.841 156.975 155.711 155.091 163.944C153.748 169.808 145.198 169.896 138.038 167.353C141.932 167.083 146.438 166.352 148.726 163.26L148.726 163.268Z" fill="#D0B4FF"/>
<path d="M122.536 176.055C127.2 173.973 128.75 170.199 130.879 166.083C131.142 171.343 130.442 181.936 120.477 180.927C116.663 180.537 113.667 179.139 111.371 177.462C115.161 177.748 118.92 177.676 122.536 176.063L122.536 176.055Z" fill="#D0B4FF"/>
<path d="M92.4809 173.662C95.5165 175.474 99.9824 175.649 102.938 173.623C99.8235 178.367 93.9669 184.327 89.5884 171.302C90.4466 172.216 91.4002 173.019 92.473 173.662L92.4809 173.662Z" fill="#D0B4FF"/>
<path d="M129.282 96.0251C127.549 90.542 121.216 89.6282 118.228 91.885C112.801 95.9853 110.83 108.541 117.608 112.506C124.387 116.471 133.152 108.255 129.282 96.0251Z" fill="#F8F8F8"/>
<path d="M106.196 96.0406C104.623 91.0661 98.8853 90.2397 96.1756 92.2898C91.2567 96.0088 89.4688 107.388 95.6114 110.98C101.754 114.572 109.7 107.134 106.196 96.0406Z" fill="#F8F8F8"/>
<path opacity="0.5" d="M128.518 103.01C128.375 98.1707 124.719 91.6149 119.355 91.2494C122.59 89.8985 127.739 91.162 129.281 96.0252C131.807 104.011 128.939 110.289 124.767 112.578C127.183 110.083 128.629 106.729 128.526 103.01L128.518 103.01Z" fill="url(#paint0_linear_59795_8684)"/>
<path opacity="0.5" d="M98.2025 91.4005C101.103 90.7728 104.949 92.0998 106.197 96.0413C108.565 103.519 105.712 109.336 101.723 111.227C106.594 105.14 105.791 94.7857 98.2025 91.4005Z" fill="url(#paint1_linear_59795_8684)"/>
<path d="M118.736 98.8617C117.036 99.1796 115.462 101.428 115.971 104.742C116.479 108.056 119.904 108.405 121.096 105.624C122.606 102.096 121.406 98.3611 118.736 98.8617Z" fill="#484349"/>
<path d="M96.1361 98.6562C94.5945 98.9423 93.1641 100.985 93.633 103.988C94.1018 106.992 97.2009 107.31 98.2737 104.783C99.6405 101.588 98.5518 98.2032 96.1361 98.6562Z" fill="#484349"/>
<path d="M110.989 119.077C110.989 119.077 108.176 127.762 105.879 118.878" stroke="#B07FFF" stroke-width="2.16" stroke-linecap="round" stroke-linejoin="round"/>
<path d="M131.078 116.95C132.254 118.054 131.308 119.612 129.154 120.669C126.953 121.749 123.067 123.227 118.617 122.425C111.768 121.193 113.762 117.387 123.83 116.179C125.658 115.956 129.504 115.472 131.078 116.95Z" fill="#D0B4FF"/>
<path d="M103.034 118.798C103.4 120.196 102.049 121.277 100.047 121.484C97.9964 121.698 94.5636 121.69 91.7108 119.434C87.3164 115.961 90.3917 113.211 98.1633 115.603C99.5698 116.04 102.55 116.93 103.042 118.798L103.034 118.798Z" fill="#D0B4FF"/>
<path d="M1 20.5002C10 10.1243 28 1.49994 30.5 2.62423C39.3541 6.60605 17 27.5001 19 35.6242C21.749 46.7908 42 17.6242 55 10.1242C70.5 1.18192 62.5 17.5001 51.5 35.6242C40.9145 53.0654 46.5 55.876 58.5 49.5001C66.5084 45.2451 78.1667 36.6242 84 32.1242" stroke="#44358C" stroke-width="2" stroke-linecap="round"/>
<path d="M193.885 89.2925L179 103.349" stroke="#44358C" stroke-width="2" stroke-linecap="round"/>
<path d="M199.196 108.838L184.698 111.415" stroke="#44358C" stroke-width="2" stroke-linecap="round"/>
<path d="M44.4999 39.5C42.6666 42.6667 39.8999 51.4 41.4999 55C43.4999 59.5 48.4999 59.5 53.4999 57C57.4999 55 60.4999 53.1667 61.4999 52.5" stroke="#44358C" stroke-width="2" stroke-linecap="round"/>
<path d="M32.5 19.5C33.8333 17.8333 36.7 13.4 37.5 9C38.3 4.6 37.8333 1.83333 37.5 1" stroke="#44358C" stroke-width="2" stroke-linecap="round"/>
<defs>
<linearGradient id="paint0_linear_59795_8684" x1="130.226" y1="101.659" x2="119.355" y2="101.659" gradientUnits="userSpaceOnUse">
<stop stop-color="#C1C1C1"/>
<stop offset="0.06" stop-color="#C6C6C6"/>
<stop offset="0.43" stop-color="#E1E1E1"/>
<stop offset="0.75" stop-color="#F2F2F2"/>
<stop offset="1" stop-color="#F8F8F8"/>
</linearGradient>
<linearGradient id="paint1_linear_59795_8684" x1="107.055" y1="101.238" x2="98.2025" y2="101.238" gradientUnits="userSpaceOnUse">
<stop stop-color="#C1C1C1"/>
<stop offset="0.06" stop-color="#C6C6C6"/>
<stop offset="0.43" stop-color="#E1E1E1"/>
<stop offset="0.75" stop-color="#F2F2F2"/>
<stop offset="1" stop-color="#F8F8F8"/>
</linearGradient>
</defs>
</svg>
