<svg width="109" height="156" viewBox="0 0 109 156" fill="none" xmlns="http://www.w3.org/2000/svg">
<path d="M29.0744 67.0569C29.0744 67.0569 38.2582 42.4012 50.5614 42.0507C68.044 41.5541 75.3055 63.7047 76.3501 72.9652C76.3501 72.9652 90.2346 74.6523 99.2081 70.6793C108.189 66.7064 107.166 76.1786 102.668 82.1673C100.862 84.57 93.3539 91.457 82.7773 96.0872C82.7773 96.0872 94.696 135.167 86.3609 143.711C78.0258 152.256 71.4027 145.011 61.1162 146.611C50.8298 148.21 40.848 153.68 31.7077 148.597C22.5674 143.507 20.1663 134.838 13.6883 132.486C7.21025 130.135 5.23711 118.727 6.97811 112.666C8.71912 106.604 15.8863 91.7053 18.5196 86.1621C18.5196 86.1621 8.13153 79.9909 3.74274 65.976C-1.44402 49.4342 14.8852 67.517 29.0744 67.0496V67.0569Z" fill="#DBC5FF"/>
<path d="M99.2158 70.6793C90.2351 74.6523 76.3578 72.9652 76.3578 72.9652C75.3132 63.7047 68.0445 41.5541 50.5619 42.0507C50.4748 42.0507 50.395 42.0653 50.3152 42.0726C58.8969 45.5489 64.2868 53.5314 67.8051 62.3902C72.9701 75.3972 75.2914 89.3755 79.4844 102.704C82.5094 112.315 88.1314 123.496 84.3447 133.75C79.3465 147.305 63.0971 141.886 52.6656 145.734C48.4581 147.29 44.6207 149.342 40.5293 150.708C47.1306 150.628 54.0511 147.706 61.1167 146.611C71.4104 145.011 78.0335 152.256 86.3614 143.711C94.6892 135.167 82.7778 96.0872 82.7778 96.0872C93.3544 91.457 100.863 84.57 102.669 82.1673C107.166 76.1786 108.182 66.7064 99.2086 70.6793H99.2158Z" fill="#D0B4FF"/>
<path opacity="0.25" d="M31.0624 91.333C32.7526 84.2781 34.1019 77.0771 35.959 70.066C36.7787 66.9622 37.8233 63.9021 39.2959 61.0393C40.0503 59.5713 40.9208 58.1618 41.8856 56.8253C42.7852 55.5765 44.4972 54.2181 44.9977 52.7866C45.6578 52.1293 44.3521 49.0985 43.3147 49.7047C42.7271 49.7412 41.697 50.4934 41.2473 50.8075C39.4918 52.0344 38.2223 53.9259 37.2284 55.7882C35.618 58.7899 34.8273 62.1347 33.3184 65.1729C29.8074 72.2351 25.4621 78.6765 22.3356 85.9797C19.1147 93.5021 15.9083 101.039 13.0429 108.707C11.505 112.841 10.2573 117.267 11.5703 121.641C12.5424 124.869 14.5808 127.593 16.7571 130.098C17.4752 130.924 18.2152 131.727 18.9551 132.53C19.9127 133.195 20.8992 133.772 21.9148 134.196C30.3587 137.76 27.4353 119.071 27.457 114.849C27.5006 106.969 29.2271 98.9649 31.0551 91.333H31.0624Z" fill="#F6F1FF"/>
<path d="M38.128 73.8968C35.6112 72.4052 35.5257 68.2273 37.251 63.4692C38.9693 58.7181 43.6392 57.5925 45.5 60.4515C47.3609 63.3104 45.9706 71.5834 44.0242 73.3098C42.0707 75.0362 40.5592 75.3332 38.1351 73.8968H38.128Z" fill="url(#paint0_linear_57856_11874)"/>
<path d="M55.3641 77.8513C52.3101 76.5878 51.4541 71.8115 52.4842 66.0493C53.5143 60.2871 58.4544 58.1691 61.0369 61.1123C63.6121 64.0628 63.5976 73.798 61.7623 76.1277C59.927 78.4575 58.3093 79.0636 55.3713 77.8513H55.3641Z" fill="url(#paint1_linear_57856_11874)"/>
<path opacity="0.5" d="M37.0322 68.3206C37.3006 65.0415 39.0924 60.4405 42.0304 58.4102C40.1805 58.7242 38.2292 60.3382 37.2353 63.1865C35.4871 68.2184 35.5669 72.6368 38.1276 74.2143C38.5193 74.4553 38.882 74.6306 39.2302 74.784C37.6706 73.0969 36.8436 70.6723 37.0322 68.3279V68.3206Z" fill="url(#paint2_linear_57856_11874)"/>
<path opacity="0.5" d="M54 71.6063C53.5937 67.0564 54.7472 63.7043 56.8726 60.0234C54.914 60.688 53.0714 62.7841 52.4911 66.0486C51.4828 71.7013 52.2952 76.4046 55.2114 77.7703C54.4788 75.8276 54.1886 73.6732 54.0072 71.6063H54Z" fill="url(#paint3_linear_57856_11874)"/>
<path d="M41.3029 69.9588C40.1132 69.4622 39.3152 67.5634 40.2003 65.2191C41.0853 62.8747 43.6315 63.1449 44.0667 65.3724C44.6181 68.1915 43.1672 70.7403 41.3029 69.9588Z" fill="#484349"/>
<path d="M56.4253 72.4416C55.1196 71.8939 54.2491 69.8198 55.2139 67.249C56.1787 64.6783 58.9716 64.9777 59.4503 67.417C60.0597 70.5063 58.471 73.2961 56.4253 72.4416Z" fill="#484349"/>
<path d="M44.4971 79.9761C44.4971 79.9761 47.1376 85.49 51.345 80.7648" stroke="#B07FFF" stroke-width="2.12" stroke-linecap="round" stroke-linejoin="round"/>
<path d="M32.8177 75.8497C32.0415 76.3609 32.4187 77.3396 33.5286 78.1502C34.6602 78.9828 36.6987 80.2097 39.2884 80.2097C43.271 80.2097 42.5311 77.8435 36.9816 76.1418C35.9733 75.8351 33.855 75.1705 32.8249 75.8497H32.8177Z" fill="#D0B4FF"/>
<path d="M54.1888 81.2688C53.7246 82.1379 54.45 83.0654 55.734 83.5182C57.047 83.9783 59.303 84.5114 61.5301 83.4671C64.9541 81.8604 63.3654 79.5672 57.8957 79.925C56.9019 79.9908 54.8054 80.1149 54.1961 81.2688H54.1888Z" fill="#D0B4FF"/>
<path d="M13.5364 148.772C13.5364 152.395 10.6202 155.33 7.02209 155.33C3.424 155.33 0.507812 152.395 0.507812 148.772C0.507812 145.15 3.424 142.214 7.02209 142.214C10.6202 142.214 13.5364 145.15 13.5364 148.772Z" fill="#C8C9F8"/>
<path d="M50.9422 23.5573L47.3608 10.0513" stroke="#44358C" stroke-width="2" stroke-linecap="round"/>
<path d="M58.376 24.1055C61.7922 13.7481 64.5873 8.80574 71.0541 1.4409" stroke="#44358C" stroke-width="2" stroke-linecap="round"/>
<path d="M71.1643 31.941C76.4634 26.4462 79.5035 23.7948 85.044 19.786" stroke="#44358C" stroke-width="2" stroke-linecap="round"/>
<path d="M65.8523 25.0751C68.6627 20.7625 70.4193 18.7012 73.8581 15.6225" stroke="#44358C" stroke-width="2" stroke-linecap="round"/>
<defs>
<linearGradient id="paint0_linear_57856_11874" x1="36.1921" y1="66.6046" x2="46.2758" y2="67.0791" gradientUnits="userSpaceOnUse">
<stop stop-color="#EEEEEE"/>
<stop offset="0.29" stop-color="#F2F2F2"/>
<stop offset="1" stop-color="#F8F8F8"/>
</linearGradient>
<linearGradient id="paint1_linear_57856_11874" x1="51.9001" y1="69.8305" x2="63.1166" y2="68.5572" gradientUnits="userSpaceOnUse">
<stop stop-color="#EEEEEE"/>
<stop offset="0.29" stop-color="#F2F2F2"/>
<stop offset="1" stop-color="#F8F8F8"/>
</linearGradient>
<linearGradient id="paint2_linear_57856_11874" x1="36.1632" y1="66.3856" x2="46.4248" y2="66.8502" gradientUnits="userSpaceOnUse">
<stop stop-color="#C1C1C1"/>
<stop offset="0.06" stop-color="#C6C6C6"/>
<stop offset="0.43" stop-color="#E1E1E1"/>
<stop offset="0.75" stop-color="#F2F2F2"/>
<stop offset="1" stop-color="#F8F8F8"/>
</linearGradient>
<linearGradient id="paint3_linear_57856_11874" x1="51.8479" y1="69.3727" x2="63.0644" y2="68.0994" gradientUnits="userSpaceOnUse">
<stop stop-color="#C1C1C1"/>
<stop offset="0.06" stop-color="#C6C6C6"/>
<stop offset="0.43" stop-color="#E1E1E1"/>
<stop offset="0.75" stop-color="#F2F2F2"/>
<stop offset="1" stop-color="#F8F8F8"/>
</linearGradient>
</defs>
</svg>
