<svg width="112" height="160" viewBox="0 0 112 160" fill="none" xmlns="http://www.w3.org/2000/svg">
<path d="M32.0807 148.784C23.9435 121.098 25.4533 93.0153 32.9389 72.2829C41.5847 48.3243 59.051 45.7417 69.3258 49.3097C80.4906 53.1876 86.673 64.8292 88.008 97.8388C89.343 130.856 99.9674 134.726 98.0841 142.959C96.2008 151.184 80.125 148.045 73.601 142.228C73.601 142.228 76.6763 161.276 63.4692 159.933C52.1932 158.788 48.069 148.823 48.069 148.823C48.069 148.823 38.3027 170.001 32.0727 148.792L32.0807 148.784Z" fill="#DBC5FF"/>
<path opacity="0.25" d="M51.0246 65.0545C50.9451 69.7827 47.7109 73.5175 45.3826 77.3477C40.877 84.7379 39.9949 93.1771 41.0279 101.64C42.212 111.303 46.9401 120.775 46.8606 130.526C46.813 136.191 44.6118 142.318 38.5645 143.876C36.3951 144.432 34.5516 144.082 33.0974 143.16C27.1295 117.167 28.0434 92.5573 35.378 73.3188C38.1752 65.9842 43.102 59.5873 47.1626 55.8843C49.777 57.7994 51.0723 62.1064 51.0246 65.0545Z" fill="#F6F1FF"/>
<path d="M91.7263 142.268C93.9354 139.273 92.2428 135.546 90.7886 132.621C84.5665 120.082 83.5811 107.518 83.0726 93.7155C82.6911 83.4168 83.0249 70.7581 76.334 62.2156C73.1236 58.1232 68.6895 55.1751 63.9931 53.0295C59.3682 50.9237 55.252 50.4469 50.6907 50.3913C57.3737 47.2763 64.2315 47.5305 69.3331 49.2947C80.4979 53.1725 86.6803 64.8141 88.0153 97.8238C89.3503 130.841 99.9747 134.711 98.0914 142.944C96.7485 148.808 88.198 148.896 81.0383 146.353C84.932 146.083 89.4377 145.352 91.7263 142.26L91.7263 142.268Z" fill="#D0B4FF"/>
<path d="M65.5355 155.055C70.2001 152.973 71.7497 149.199 73.8793 145.083C74.1415 150.343 73.4422 160.936 63.4774 159.927C59.6631 159.537 56.6672 158.139 54.3707 156.462C58.1612 156.748 61.9199 156.676 65.5355 155.063L65.5355 155.055Z" fill="#D0B4FF"/>
<path d="M35.4809 152.662C38.5165 154.474 42.9824 154.649 45.9385 152.623C42.8235 157.367 36.9669 163.327 32.5884 150.302C33.4466 151.216 34.4002 152.019 35.473 152.662L35.4809 152.662Z" fill="#D0B4FF"/>
<path d="M72.2819 75.0251C70.5495 69.542 64.2162 68.6282 61.2283 70.885C55.8009 74.9853 53.8302 87.5408 60.6085 91.5061C67.3868 95.4714 76.1518 87.2547 72.2819 75.0251Z" fill="#F8F8F8"/>
<path d="M49.1961 75.0406C47.6227 70.0661 41.8853 69.2397 39.1756 71.2898C34.2567 75.0088 32.4688 86.3881 38.6114 89.98C44.754 93.5718 52.7005 86.1339 49.1961 75.0406Z" fill="#F8F8F8"/>
<path opacity="0.5" d="M71.5179 82.0101C71.3749 77.1707 67.7195 70.6149 62.3556 70.2494C65.5898 68.8985 70.7391 70.162 72.2808 75.0252C74.8077 83.0114 71.9391 89.2891 67.7672 91.5777C70.1829 89.0825 71.6291 85.7291 71.5258 82.0101L71.5179 82.0101Z" fill="url(#paint0_linear_59795_8682)"/>
<path opacity="0.5" d="M41.2025 70.4005C44.1029 69.7728 47.949 71.0998 49.1966 75.0413C51.5647 82.5189 48.7119 88.3357 44.7228 90.227C49.594 84.14 48.7914 73.7857 41.2025 70.4005Z" fill="url(#paint1_linear_59795_8682)"/>
<path d="M61.7365 77.8617C60.036 78.1796 58.4626 80.4285 58.9712 83.7421C59.4797 87.0558 62.9047 87.4055 64.0966 84.6242C65.6065 81.096 64.4065 77.3611 61.7365 77.8617Z" fill="#484349"/>
<path d="M39.1364 77.6562C37.5947 77.9423 36.1644 79.9845 36.6332 82.9883C37.1021 85.992 40.2012 86.3099 41.274 83.7829C42.6408 80.5884 41.5521 77.2032 39.1364 77.6562Z" fill="#484349"/>
<path d="M53.9893 98.0766C53.9893 98.0766 51.1762 106.762 48.8797 97.8779" stroke="#B07FFF" stroke-width="2.16" stroke-linecap="round" stroke-linejoin="round"/>
<path d="M74.0775 95.9497C75.2536 97.0542 74.308 98.6117 72.1545 99.6686C69.9533 100.749 66.0675 102.227 61.6174 101.425C54.7676 100.193 56.7622 96.3867 66.8303 95.1789C68.658 94.9564 72.5041 94.4716 74.0775 95.9497Z" fill="#D0B4FF"/>
<path d="M46.0345 97.7978C46.4 99.1964 45.0491 100.277 43.0466 100.484C40.9964 100.698 37.5636 100.69 34.7108 98.4335C30.3164 94.9609 33.3917 92.2115 41.1633 94.6033C42.5698 95.0404 45.5498 95.9304 46.0424 97.7978L46.0345 97.7978Z" fill="#D0B4FF"/>
<path d="M32.5122 23.4423C34.9765 22.7269 40.5728 20.2944 43.2438 16.288C45.9148 12.2815 46.9005 7.94117 47.0595 6.27182C47.3109 3.63117 51.829 13.1877 55.6447 12.2338C59.4604 11.2799 61.4689 3.59111 61.7869 1.52429C62.3246 -1.97073 65.7562 13.1877 72.8152 12.2338C79.8742 11.2799 83.3878 3.25107 82.5929 6.27182C81.7979 9.29256 81.162 15.9541 84.9777 18.4343C88.7933 20.9145 94.1989 20.4216 96.4247 19.8652C98.6505 19.3087 91.3963 27.5669 92 33C92.5 37.5 97.8556 38.546 98.571 38.705" stroke="#44358C" stroke-width="2" stroke-linecap="round"/>
<path d="M43 23.4998C44.5 22.8331 47.7 20.7998 48.5 17.9998C49.5 14.4998 49 14.9998 51 15.9998C53 16.9998 55.5 18.4998 58 17.5C60 16.7002 61.6667 14 62 13" stroke="#44358C" stroke-width="2" stroke-linecap="round"/>
<path d="M88.5577 25.2183C88.0026 26.457 86.4719 28.4685 86.4717 31.9775C86.4715 35.0357 88.0008 37.7463 89.5994 39.2058" stroke="#44358C" stroke-width="2" stroke-linecap="round"/>
<defs>
<linearGradient id="paint0_linear_59795_8682" x1="73.2264" y1="80.6592" x2="62.3556" y2="80.6592" gradientUnits="userSpaceOnUse">
<stop stop-color="#C1C1C1"/>
<stop offset="0.06" stop-color="#C6C6C6"/>
<stop offset="0.43" stop-color="#E1E1E1"/>
<stop offset="0.75" stop-color="#F2F2F2"/>
<stop offset="1" stop-color="#F8F8F8"/>
</linearGradient>
<linearGradient id="paint1_linear_59795_8682" x1="50.0549" y1="80.2383" x2="41.2025" y2="80.2383" gradientUnits="userSpaceOnUse">
<stop stop-color="#C1C1C1"/>
<stop offset="0.06" stop-color="#C6C6C6"/>
<stop offset="0.43" stop-color="#E1E1E1"/>
<stop offset="0.75" stop-color="#F2F2F2"/>
<stop offset="1" stop-color="#F8F8F8"/>
</linearGradient>
</defs>
</svg>
