<svg width="112" height="112" viewBox="0 0 112 112" fill="none" xmlns="http://www.w3.org/2000/svg">
<path fill-rule="evenodd" clip-rule="evenodd" d="M80.928 62.7052C77.7771 62.2886 74.8869 64.1122 73.7261 67.5856C73.4643 68.3688 73.3474 69.5128 73.406 71.0007C73.4638 72.4696 73.6882 74.1843 74.044 76.0597C74.7553 79.8098 75.9722 84.1026 77.3311 88.1737C78.689 92.2419 80.1772 96.0544 81.4186 98.8375C82.0412 100.233 82.5902 101.344 83.0202 102.092C83.0878 102.209 83.1502 102.314 83.2075 102.407C83.4386 102.268 83.7181 102.091 84.0432 101.876C85.0112 101.235 86.3199 100.296 87.838 99.1271C90.8739 96.7892 94.7025 93.565 98.2622 90.0285C101.836 86.4782 105.073 82.6768 106.991 79.1848C108.95 75.6177 109.297 72.8346 108.007 70.9059C106.747 69.0215 105.318 68.386 103.887 68.3187C102.36 68.2469 100.668 68.8188 98.9933 69.6964C97.4055 70.5282 95.9678 71.5602 94.8428 72.3677C94.7921 72.4041 94.742 72.44 94.6926 72.4755C94.155 72.8611 93.62 73.2433 93.2142 73.4621C93.1045 73.5213 92.9748 73.585 92.8348 73.6364C92.7099 73.6823 92.4901 73.7516 92.2241 73.7505C91.9311 73.7493 91.481 73.6553 91.1381 73.2545C90.9644 73.0514 90.8763 72.8355 90.8324 72.6492C88.0094 65.9017 84.1078 63.1256 80.928 62.7052ZM82.5899 102.736C82.5903 102.736 82.5994 102.732 82.616 102.727C82.5978 102.734 82.5895 102.737 82.5899 102.736ZM92.8 70.6011C89.7847 64.0422 85.5002 60.6618 81.272 60.1028C76.7455 59.5043 72.7531 62.2153 71.2364 66.7535C70.8288 67.9733 70.7192 69.4824 70.783 71.104C70.8476 72.7446 71.0945 74.5958 71.4649 76.5489C72.206 80.4556 73.4609 84.8698 74.8411 89.0049C76.2224 93.1429 77.7407 97.0359 79.0212 99.9068C79.6595 101.338 80.2503 102.541 80.7448 103.401C80.9887 103.825 81.2324 104.206 81.4669 104.498C81.5819 104.64 81.728 104.804 81.9023 104.943C82.0386 105.052 82.3936 105.313 82.8996 105.313C83.2394 105.313 83.5358 105.188 83.6437 105.142L83.6445 105.142C83.81 105.072 83.988 104.982 84.1667 104.883C84.5276 104.684 84.9777 104.405 85.4924 104.065C86.5265 103.38 87.8874 102.402 89.4396 101.207C92.5445 98.8158 96.4596 95.5197 100.112 91.8907C103.751 88.2756 107.195 84.2663 109.292 80.4486C111.348 76.7059 112.351 72.6801 110.189 69.447C108.494 66.9104 106.321 65.8052 104.011 65.6966C101.797 65.5926 99.6098 66.4099 97.7751 67.3712C96.0191 68.2911 94.4481 69.4193 93.3378 70.2167C93.2781 70.2596 93.2197 70.3015 93.1627 70.3424C93.0314 70.4365 92.9108 70.5227 92.8 70.6011Z" fill="#44358C"/>
<path fill-rule="evenodd" clip-rule="evenodd" d="M12.8821 9.88886C7.65927 13.252 3.2773 19.5754 4.07278 30.4201C4.38251 34.6425 6.72017 40.4306 10.2514 46.8719C13.7567 53.2659 18.3434 60.138 22.9752 66.4791C27.6047 72.8171 32.262 78.6012 35.8961 82.8156C37.7145 84.9243 39.2672 86.6289 40.426 87.8093C40.9798 88.3734 41.4289 88.8027 41.7656 89.0953C41.9785 88.8805 42.2445 88.5859 42.5636 88.2055C43.4295 87.1732 44.5743 85.6452 45.9223 83.7406C48.6127 79.9394 52.0472 74.7314 55.5612 69.2143C62.6024 58.1593 69.8858 45.9838 72.1071 41.4887C75.6969 34.2243 75.284 26.2774 72.4493 20.5922C69.6182 14.9143 64.5358 11.6986 58.6704 13.1794C53.8775 14.3894 51.2109 17.8515 49.4937 20.8895C49.0657 21.6468 48.7026 22.367 48.3777 23.0184C48.3487 23.0766 48.3198 23.1346 48.291 23.1924C48.0076 23.7614 47.7361 24.3065 47.4861 24.7317C47.347 24.9683 47.1889 25.2127 47.0108 25.4251C46.8473 25.6202 46.5761 25.9001 46.1824 26.0613C45.7022 26.2579 45.1691 26.2244 44.7104 25.9525C44.3329 25.7287 44.0945 25.3961 43.9454 25.1453C43.7002 24.7325 43.4083 24.1775 43.0605 23.5162C40.8558 19.3239 36.4033 10.8572 27.3166 7.22881C25.9409 6.6795 23.6937 6.45266 21.0456 6.83806C18.425 7.21945 15.5282 8.18494 12.8821 9.88886ZM42.2348 89.4594C42.2358 89.4605 42.2286 89.457 42.2125 89.447C42.2263 89.4539 42.2339 89.4585 42.2348 89.4594ZM20.6675 4.24042C23.596 3.81423 26.346 4.01472 28.29 4.79098C38.4023 8.8289 43.3588 18.3748 45.4622 22.4258C45.5105 22.519 45.5574 22.6092 45.6027 22.6964C45.7091 22.4879 45.8251 22.255 45.9543 21.9959C45.9786 21.9471 46.0034 21.8974 46.0286 21.8468C46.3558 21.1908 46.7446 20.4185 47.2085 19.5978C49.0591 16.3238 52.2005 12.1054 58.0278 10.6343C65.4376 8.76355 71.5949 12.9959 74.7984 19.4208C77.9983 25.8383 78.4151 34.6489 74.4604 42.6517C72.1671 47.2925 64.8086 59.5819 57.7753 70.6245C54.252 76.1562 50.7912 81.4051 48.0649 85.2571C46.7046 87.1791 45.5106 88.7767 44.5747 89.8925C44.1107 90.4456 43.6814 90.9152 43.3077 91.2517C43.1236 91.4174 42.9144 91.5863 42.6913 91.7164C42.5201 91.8162 42.0948 92.0441 41.5623 91.9651C41.1727 91.9072 40.8543 91.6976 40.7176 91.6058C40.5248 91.4764 40.3181 91.3121 40.1076 91.1318C39.6832 90.7681 39.1571 90.2638 38.5528 89.6483C37.3398 88.4127 35.7467 86.6619 33.9082 84.5298C30.2284 80.2626 25.5271 74.4232 20.8554 68.0274C16.186 61.6348 11.5288 54.6627 7.94961 48.1338C4.39633 41.6523 1.80885 35.4386 1.45481 30.6121C0.590882 18.8342 5.40901 11.5789 11.4609 7.68185C14.4522 5.75566 17.7115 4.67063 20.6675 4.24042ZM44.9779 23.762C44.9779 23.7617 44.9809 23.7584 44.987 23.7528C44.981 23.7595 44.9779 23.7623 44.9779 23.762ZM46.2211 23.8346C46.2258 23.8403 46.2281 23.8436 46.228 23.8438C46.228 23.844 46.2256 23.8412 46.2211 23.8346Z" fill="#44358C"/>
<path fill-rule="evenodd" clip-rule="evenodd" d="M15.9119 14.2518C16.1411 14.9395 15.7695 15.6828 15.0818 15.912C15.0826 15.9117 15.0826 15.9118 15.0816 15.9122C15.0754 15.9147 15.0317 15.9328 14.9479 15.9857C14.8554 16.044 14.7372 16.1299 14.5951 16.2488C14.3101 16.4874 13.9691 16.8252 13.5961 17.2556C12.8507 18.1157 12.0316 19.2829 11.3267 20.6143C9.8844 23.3387 9.08282 26.4312 9.9119 28.9185C10.1411 29.6062 9.76948 30.3494 9.0818 30.5787C8.39412 30.8079 7.65083 30.4362 7.4216 29.7486C6.25068 26.2358 7.44911 22.3284 9.00678 19.3861C9.80194 17.8841 10.7328 16.5513 11.6124 15.5364C12.0519 15.0293 12.4921 14.5859 12.9102 14.2359C13.3051 13.9054 13.7682 13.5829 14.2517 13.4217C14.9394 13.1925 15.6827 13.5641 15.9119 14.2518Z" fill="#44358C"/>
<path fill-rule="evenodd" clip-rule="evenodd" d="M108.883 91.6958C109.419 92.1834 109.459 93.0135 108.971 93.5499C107.844 94.7899 105.958 96.7768 103.947 98.7261C101.954 100.658 99.7693 102.62 98.0614 103.759C97.4583 104.161 96.6434 103.998 96.2413 103.395C95.8392 102.792 96.0022 101.977 96.6053 101.575C98.0974 100.58 100.135 98.7653 102.12 96.8412C104.087 94.935 105.934 92.9885 107.029 91.7841C107.516 91.2478 108.347 91.2082 108.883 91.6958Z" fill="#44358C"/>
<path fill-rule="evenodd" clip-rule="evenodd" d="M67.7573 29.7132C68.4681 29.8554 68.929 30.5469 68.7869 31.2577C68.2677 33.8534 66.4312 40.4807 63.158 46.6179C59.9299 52.6704 53.1022 63.7138 48.579 70.2473C48.1664 70.8433 47.3488 70.992 46.7528 70.5794C46.1568 70.1668 46.0081 69.3492 46.4207 68.7532C50.8975 62.2867 57.6698 51.3301 60.8418 45.3826C63.9686 39.5199 65.732 33.1471 66.2129 30.7429C66.355 30.0321 67.0465 29.5711 67.7573 29.7132Z" fill="#44358C"/>
<path fill-rule="evenodd" clip-rule="evenodd" d="M68.1547 86.7341C68.854 86.5434 69.5755 86.9556 69.7662 87.6549C69.7662 87.6548 69.7663 87.6549 69.7662 87.6549L69.7699 87.668L69.7821 87.7123C69.7931 87.752 69.8099 87.8119 69.8322 87.8908C69.8769 88.0486 69.9439 88.2824 70.0324 88.5822C70.2093 89.1821 70.4715 90.0461 70.8113 91.0963C71.4915 93.1988 72.4794 96.0382 73.7116 98.9955C74.9411 101.946 76.2965 104.658 77.3466 106.635C77.8711 107.622 78.3179 108.423 78.6327 108.976C78.7901 109.252 78.9144 109.466 78.9989 109.611C79.0411 109.683 79.0733 109.737 79.0947 109.773L79.1185 109.813L79.1254 109.825C79.1253 109.825 79.1254 109.825 79.1254 109.825M68.5 88.0003C67.2338 88.3457 67.2338 88.3458 67.2338 88.3459L67.239 88.3646L67.2529 88.4148C67.265 88.4586 67.2829 88.5227 67.3065 88.6059C67.3536 88.7723 67.4233 89.0152 67.5146 89.3247C67.697 89.9436 67.966 90.8296 68.3138 91.9043C69.0085 94.0518 70.0207 96.9624 71.2885 100.005C72.559 103.054 73.9536 105.843 75.0284 107.866C75.5665 108.879 76.0259 109.703 76.3517 110.275C76.5146 110.561 76.6442 110.784 76.7336 110.937C76.7783 111.013 76.813 111.072 76.8368 111.112L76.8642 111.158L76.8715 111.171L76.8736 111.174C76.8737 111.174 76.8746 111.176 78 110.5M68.1547 86.7341C67.4553 86.9248 67.0431 87.6466 67.2338 88.3459L68.1547 86.7341ZM67.2338 88.3459L68.5 88.0003L67.2338 88.3459Z" fill="#44358C"/>
</svg>
