<svg width="193" height="216" viewBox="0 0 193 216" fill="none" xmlns="http://www.w3.org/2000/svg">
<path d="M66.0807 204.784C57.9435 177.098 59.4533 149.015 66.9389 128.283C75.5847 104.324 93.051 101.742 103.326 105.31C114.491 109.188 120.673 120.829 122.008 153.839C123.343 186.856 133.967 190.726 132.084 198.959C130.201 207.184 114.125 204.045 107.601 198.228C107.601 198.228 110.676 217.276 97.4692 215.933C86.1932 214.788 82.069 204.823 82.069 204.823C82.069 204.823 72.3027 226.001 66.0727 204.792L66.0807 204.784Z" fill="#DBC5FF"/>
<path opacity="0.25" d="M85.0246 121.055C84.9451 125.783 81.7109 129.518 79.3826 133.348C74.877 140.738 73.9949 149.177 75.0279 157.64C76.212 167.303 80.9401 176.775 80.8606 186.526C80.813 192.191 78.6118 198.318 72.5645 199.876C70.3951 200.432 68.5516 200.082 67.0974 199.16C61.1295 173.167 62.0434 148.557 69.378 129.319C72.1752 121.984 77.102 115.587 81.1626 111.884C83.777 113.799 85.0723 118.106 85.0246 121.055Z" fill="#F6F1FF"/>
<path d="M125.726 198.268C127.935 195.273 126.243 191.546 124.789 188.621C118.567 176.082 117.581 163.518 117.073 149.715C116.691 139.417 117.025 126.758 110.334 118.216C107.124 114.123 102.689 111.175 97.9931 109.03C93.3682 106.924 89.252 106.447 84.6907 106.391C91.3737 103.276 98.2315 103.531 103.333 105.295C114.498 109.173 120.68 120.814 122.015 153.824C123.35 186.841 133.975 190.711 132.091 198.944C130.748 204.808 122.198 204.896 115.038 202.353C118.932 202.083 123.438 201.352 125.726 198.26L125.726 198.268Z" fill="#D0B4FF"/>
<path d="M99.5355 211.055C104.2 208.973 105.75 205.199 107.879 201.083C108.142 206.343 107.442 216.936 97.4774 215.927C93.6631 215.537 90.6672 214.139 88.3707 212.462C92.1612 212.748 95.9199 212.676 99.5355 211.063L99.5355 211.055Z" fill="#D0B4FF"/>
<path d="M69.4809 208.662C72.5165 210.474 76.9824 210.649 79.9385 208.623C76.8235 213.367 70.9669 219.327 66.5884 206.302C67.4466 207.216 68.4002 208.019 69.473 208.662L69.4809 208.662Z" fill="#D0B4FF"/>
<path d="M106.282 131.025C104.55 125.542 98.2162 124.628 95.2283 126.885C89.8009 130.985 87.8302 143.541 94.6085 147.506C101.387 151.471 110.152 143.255 106.282 131.025Z" fill="#F8F8F8"/>
<path d="M83.1961 131.041C81.6227 126.066 75.8853 125.24 73.1756 127.29C68.2567 131.009 66.4688 142.388 72.6114 145.98C78.754 149.572 86.7005 142.134 83.1961 131.041Z" fill="#F8F8F8"/>
<path opacity="0.5" d="M105.518 138.01C105.375 133.171 101.719 126.615 96.3556 126.249C99.5898 124.898 104.739 126.162 106.281 131.025C108.808 139.011 105.939 145.289 101.767 147.578C104.183 145.083 105.629 141.729 105.526 138.01L105.518 138.01Z" fill="url(#paint0_linear_59795_8681)"/>
<path opacity="0.5" d="M75.2025 126.401C78.1029 125.773 81.949 127.1 83.1966 131.041C85.5647 138.519 82.7119 144.336 78.7228 146.227C83.594 140.14 82.7914 129.786 75.2025 126.401Z" fill="url(#paint1_linear_59795_8681)"/>
<path d="M95.7365 133.862C94.036 134.18 92.4626 136.428 92.9712 139.742C93.4797 143.056 96.9047 143.405 98.0966 140.624C99.6065 137.096 98.4065 133.361 95.7365 133.862Z" fill="#484349"/>
<path d="M73.1364 133.656C71.5947 133.942 70.1644 135.985 70.6332 138.988C71.1021 141.992 74.2012 142.31 75.274 139.783C76.6408 136.588 75.5521 133.203 73.1364 133.656Z" fill="#484349"/>
<path d="M87.9893 154.077C87.9893 154.077 85.1762 162.762 82.8797 153.878" stroke="#B07FFF" stroke-width="2.16" stroke-linecap="round" stroke-linejoin="round"/>
<path d="M108.078 151.95C109.254 153.054 108.308 154.612 106.154 155.669C103.953 156.749 100.067 158.227 95.6174 157.425C88.7676 156.193 90.7622 152.387 100.83 151.179C102.658 150.956 106.504 150.472 108.078 151.95Z" fill="#D0B4FF"/>
<path d="M80.0345 153.798C80.4 155.196 79.0491 156.277 77.0466 156.484C74.9964 156.698 71.5636 156.69 68.7108 154.434C64.3164 150.961 67.3917 148.211 75.1633 150.603C76.5698 151.04 79.5498 151.93 80.0424 153.798L80.0345 153.798Z" fill="#D0B4FF"/>
<path d="M33.715 107.718C34.88 107.252 51.1899 91.1751 41.404 84.8842C31.618 78.5932 26.0261 91.8741 31.385 92.1071C36.744 92.3401 43.9669 79.7582 37.676 75.0983C31.385 70.4383 20.3829 79.7119 20.8977 83.8303C21.4125 87.9487 28.105 87.4339 30.3358 78.6823C32.5666 69.9306 30.1642 62.895 22.0989 66.8418C14.0337 70.7886 13.5189 80.9131 18.4953 78.6823C23.4717 76.4515 27.0754 63.753 23.9865 60.321C20.8977 56.889 4.25244 65.4691 6.14005 71.1319C8.02766 76.7947 19.1817 64.0963 17.4657 58.7766C15.7497 53.457 10.8362 49.9599 6.14005 52.7746C3.02651 54.6408 2.32666 57.5568 1.39355 62.5724" stroke="#44358C" stroke-width="2" stroke-linecap="round"/>
<path d="M80.6412 64.7064C81.8791 64.9116 104.159 59.6129 99.0494 49.1615C93.9396 38.7102 82.275 47.1713 86.7377 50.1475C91.2003 53.1237 103.898 46.1055 100.932 38.8601C97.966 31.6148 83.7508 33.8451 82.0571 37.6343C80.3633 41.4234 86.3539 44.451 92.7968 38.1219C99.2396 31.7928 100.831 24.5306 91.8875 23.7269C82.9444 22.9233 77.2578 31.3157 82.6699 31.9864C88.0821 32.6572 97.7442 23.6639 96.8808 19.128C96.0175 14.5921 77.3352 13.3052 76.0153 19.1266C74.6953 24.9479 90.8152 19.8671 92.104 14.4282C93.3929 8.98926 91.0026 3.4522 85.5276 3.4261C81.8977 3.40879 79.7881 5.54015 76.3911 9.34633" stroke="#44358C" stroke-width="2" stroke-linecap="round"/>
<path d="M135.113 79.9622C135.846 80.9812 155.37 92.9513 159.126 81.9407C162.882 70.93 148.646 68.6923 149.707 73.9503C150.769 79.2083 164.717 83.1971 167.73 75.971C170.742 68.7448 159.097 60.2926 155.223 61.7817C151.348 63.2708 153.456 69.6436 162.487 69.7067C171.518 69.7698 177.771 65.7476 172.002 58.8666C166.233 51.9857 156.282 53.9182 159.643 58.213C163.004 62.5078 176.196 62.9553 178.785 59.1325C181.375 55.3096 169.047 41.213 164.004 44.4057C158.96 47.5984 173.966 55.3753 178.718 52.4316C183.47 49.4879 185.684 43.8782 181.824 39.9957C179.264 37.4217 176.265 37.4428 171.172 37.742" stroke="#44358C" stroke-width="2" stroke-linecap="round"/>
<defs>
<linearGradient id="paint0_linear_59795_8681" x1="107.226" y1="136.659" x2="96.3556" y2="136.659" gradientUnits="userSpaceOnUse">
<stop stop-color="#C1C1C1"/>
<stop offset="0.06" stop-color="#C6C6C6"/>
<stop offset="0.43" stop-color="#E1E1E1"/>
<stop offset="0.75" stop-color="#F2F2F2"/>
<stop offset="1" stop-color="#F8F8F8"/>
</linearGradient>
<linearGradient id="paint1_linear_59795_8681" x1="84.0549" y1="136.238" x2="75.2025" y2="136.238" gradientUnits="userSpaceOnUse">
<stop stop-color="#C1C1C1"/>
<stop offset="0.06" stop-color="#C6C6C6"/>
<stop offset="0.43" stop-color="#E1E1E1"/>
<stop offset="0.75" stop-color="#F2F2F2"/>
<stop offset="1" stop-color="#F8F8F8"/>
</linearGradient>
</defs>
</svg>
