<svg width="112" height="112" viewBox="0 0 112 112" fill="none" xmlns="http://www.w3.org/2000/svg">
<path fill-rule="evenodd" clip-rule="evenodd" d="M69.1937 44.5233C66.1843 36.94 56.3851 33.3377 45.9458 34.5358C39.5383 35.2712 34.8961 38.925 32.4694 41.7106C31.9913 42.2593 31.9655 43.1657 32.575 43.9195L36.3601 48.6002C37.1184 49.538 38.5758 49.7304 39.6756 48.9588C41.5703 47.6296 43.889 46.2152 46.2027 45.2415C48.4616 44.2909 50.9622 43.6533 53.0988 44.2043C56.2457 45.0158 58.4412 46.9722 59.4784 49.5816C60.5018 52.1565 60.3418 55.2188 59.1143 58.2159C57.8444 61.3162 55.1674 63.6525 52.564 65.8398C52.3745 65.999 52.185 66.1577 51.9957 66.3162C49.4973 68.4086 47.0351 70.4706 45.2452 73.1411C44.0618 74.9069 43.3433 77.5909 42.9778 80.5885C42.6167 83.5499 42.6178 86.6567 42.7613 89.141C42.8104 89.9906 43.5379 90.6872 44.49 90.6872C45.6198 90.6872 46.7923 89.5657 46.9556 88.0977C47.1138 86.6766 47.4389 85.0074 48.0391 83.2164C48.9597 80.4693 51.0885 77.7414 53.829 75.0675C56.5897 72.3737 60.0862 69.6262 63.8985 66.859C70.8658 61.8018 72.1668 52.0153 69.1937 44.5233ZM45.6465 31.9279C56.5422 30.6774 67.9665 34.3145 71.6336 43.555C74.9099 51.8109 73.6538 63.0217 65.4405 68.9834C61.6623 71.7257 58.2865 74.3856 55.6622 76.9463C53.0176 79.5268 51.2487 81.9003 50.5281 84.0505C49.9928 85.6478 49.7042 87.133 49.5645 88.388C49.2933 90.8258 47.2901 93.3122 44.49 93.3122C42.2491 93.3122 40.2758 91.6304 40.1407 89.2923C39.9911 86.7019 39.9867 83.4309 40.3721 80.2707C40.7531 77.1465 41.5332 73.9647 43.0647 71.6797C45.0731 68.683 47.8159 66.3894 50.2643 64.3418C50.4703 64.1696 50.6742 63.999 50.8754 63.83C53.5545 61.5791 55.6983 59.6302 56.6851 57.221C57.7141 54.7087 57.7593 52.3634 57.039 50.5512C56.3324 48.7735 54.8354 47.363 52.4433 46.7461C51.1759 46.4193 49.3564 46.7623 47.2209 47.661C45.1401 48.5367 42.99 49.8402 41.1832 51.1078C39.0677 52.5919 36.0303 52.3671 34.319 50.2508L30.5339 45.57C29.2798 44.0192 29.0213 41.6723 30.4901 39.9863C33.2029 36.8724 38.3991 32.7597 45.6465 31.9279Z" fill="#44358C"/>
<path fill-rule="evenodd" clip-rule="evenodd" d="M44.5 107.375C46.8419 107.375 48.375 105.67 48.375 104C48.375 102.33 46.8419 100.625 44.5 100.625C42.1581 100.625 40.625 102.33 40.625 104C40.625 105.67 42.1581 107.375 44.5 107.375ZM44.5 110C48.0898 110 51 107.314 51 104C51 100.686 48.0898 98 44.5 98C40.9101 98 38 100.686 38 104C38 107.314 40.9101 110 44.5 110Z" fill="#44358C"/>
<path fill-rule="evenodd" clip-rule="evenodd" d="M1.0937 57.1773C1.09984 56.4525 1.69243 55.8698 2.41728 55.876L16.9512 55.9993C17.676 56.0054 18.2587 56.598 18.2525 57.3229C18.2464 58.0477 17.6538 58.6303 16.9289 58.6242L2.39501 58.5009C1.67017 58.4947 1.08755 57.9022 1.0937 57.1773Z" fill="#44358C"/>
<path fill-rule="evenodd" clip-rule="evenodd" d="M4.72825 26.7109C5.09144 26.0836 5.89441 25.8694 6.52173 26.2326L22.3195 35.3786C22.9468 35.7418 23.1609 36.5448 22.7978 37.1721C22.4346 37.7994 21.6316 38.0135 21.0043 37.6503L5.20652 28.5044C4.5792 28.1412 4.36507 27.3382 4.72825 26.7109Z" fill="#44358C"/>
<path fill-rule="evenodd" clip-rule="evenodd" d="M37.9429 0.683452C38.6588 0.569896 39.3313 1.05821 39.4448 1.77414L42.4275 20.5786C42.541 21.2945 42.0527 21.9669 41.3368 22.0805C40.6208 22.194 39.9484 21.7057 39.8349 20.9898L36.8522 2.18536C36.7387 1.46943 37.227 0.797007 37.9429 0.683452Z" fill="#44358C"/>
<path fill-rule="evenodd" clip-rule="evenodd" d="M84.693 0.885174C85.3087 1.26786 85.4975 2.07715 85.1148 2.69277L73.6148 21.1928C73.2321 21.8084 72.4229 21.9972 71.8072 21.6145C71.1916 21.2319 71.0028 20.4226 71.3855 19.8069L82.8854 1.30695C83.2681 0.691323 84.0774 0.502488 84.693 0.885174Z" fill="#44358C"/>
<path fill-rule="evenodd" clip-rule="evenodd" d="M109.301 29.5982C109.621 30.2487 109.353 31.0353 108.702 31.3551L90.3295 40.3883C89.679 40.7082 88.8924 40.4401 88.5726 39.7896C88.2528 39.1391 88.5208 38.3525 89.1713 38.0327L107.544 28.9995C108.194 28.6796 108.981 28.9477 109.301 29.5982Z" fill="#44358C"/>
<path fill-rule="evenodd" clip-rule="evenodd" d="M111.581 62.1967C111.523 62.9192 110.891 63.4582 110.168 63.4005L93.0895 62.0364C92.3669 61.9787 91.8279 61.3462 91.8856 60.6236C91.9433 59.901 92.5759 59.362 93.2985 59.4197L110.377 60.7838C111.1 60.8415 111.639 61.4741 111.581 62.1967Z" fill="#44358C"/>
<path fill-rule="evenodd" clip-rule="evenodd" d="M76.6817 49.7265C77.385 49.5507 78.0976 49.9783 78.2734 50.6815C78.8304 52.9097 78.8911 56.2859 78.2124 59.7053C77.5328 63.1299 76.0753 66.7807 73.4281 69.4279C70.545 72.311 68.4354 73.8539 66.6349 75.1707C66.514 75.2591 66.3945 75.3465 66.2762 75.4332C64.4387 76.7807 62.9198 77.9512 61.0249 80.3197C60.5721 80.8858 59.7462 80.9775 59.1801 80.5247C58.6141 80.0719 58.5223 79.2459 58.9752 78.6799C61.0803 76.0485 62.8114 74.7189 64.7239 73.3164C64.842 73.2298 64.9608 73.1429 65.0805 73.0554C66.8573 71.7558 68.8332 70.3105 71.572 67.5717C73.7248 65.4189 75.0173 62.3198 75.6377 59.1943C76.259 56.0638 76.1697 53.0899 75.7267 51.3182C75.5509 50.6149 75.9785 49.9023 76.6817 49.7265Z" fill="#44358C"/>
<path fill-rule="evenodd" clip-rule="evenodd" d="M24.1402 17.9388C24.7182 17.5014 25.5414 17.6154 25.9788 18.1934L32.0547 26.2227C32.4921 26.8008 32.3782 27.6239 31.8001 28.0613C31.2221 28.4987 30.3989 28.3847 29.9615 27.8067L23.8856 19.7774C23.4482 19.1994 23.5622 18.3762 24.1402 17.9388Z" fill="#44358C"/>
<path fill-rule="evenodd" clip-rule="evenodd" d="M59.0068 13.3011C59.7225 13.4161 60.2096 14.0894 60.0946 14.8051L58.4981 24.7469C58.3831 25.4626 57.7098 25.9496 56.9941 25.8346C56.2784 25.7197 55.7913 25.0463 55.9063 24.3306L57.5028 14.3889C57.6178 13.6732 58.2911 13.1862 59.0068 13.3011Z" fill="#44358C"/>
<path fill-rule="evenodd" clip-rule="evenodd" d="M86.9244 24.446C87.4791 24.9127 87.5504 25.7406 87.0838 26.2953L80.6013 34.0001C80.1346 34.5548 79.3067 34.6261 78.752 34.1594C78.1973 33.6928 78.126 32.8648 78.5927 32.3101L85.0751 24.6053C85.5418 24.0506 86.3698 23.9793 86.9244 24.446Z" fill="#44358C"/>
<path fill-rule="evenodd" clip-rule="evenodd" d="M10.0162 43.3145C10.3271 42.6596 11.1099 42.3808 11.7647 42.6916L20.861 47.0095C21.5159 47.3203 21.7947 48.1032 21.4839 48.758C21.173 49.4129 20.3902 49.6917 19.7353 49.3809L10.6391 45.063C9.98423 44.7522 9.70536 43.9693 10.0162 43.3145Z" fill="#44358C"/>
<path fill-rule="evenodd" clip-rule="evenodd" d="M87.7757 50.9763C87.6337 50.2655 88.0948 49.5741 88.8056 49.4321L98.6795 47.4591C99.3903 47.3171 100.082 47.7782 100.224 48.489C100.366 49.1998 99.9046 49.8912 99.1938 50.0332L89.3199 52.0062C88.6091 52.1482 87.9177 51.6871 87.7757 50.9763Z" fill="#44358C"/>
</svg>
