<svg width="112" height="113" viewBox="0 0 112 113" fill="none" xmlns="http://www.w3.org/2000/svg">
<path fill-rule="evenodd" clip-rule="evenodd" d="M30.3196 24.2433C29.6406 24.2521 29.3373 24.5679 29.2785 24.7528C27.3921 30.6846 24.7224 34.9881 21.0271 38.3261C17.3522 41.6455 12.7435 43.9361 7.10952 45.9747C6.91636 46.0446 6.74019 46.2496 6.75742 46.6323C6.77477 47.0177 6.97647 47.2341 7.1931 47.2969C13.8059 49.2135 18.555 51.7677 22.0568 55.2865C25.5602 58.8069 27.7119 63.1897 29.3076 68.5747C29.3606 68.7534 29.6128 69.0315 30.2073 69.0311C30.8019 69.0307 31.0697 68.7501 31.1277 68.5617C33.1454 62.0081 35.8356 57.4563 39.4444 54.1704C43.0454 50.8916 47.4514 48.9742 52.7082 47.499C52.906 47.4435 53.1265 47.2308 53.135 46.7823C53.1435 46.3325 52.9276 46.0921 52.7203 46.0217C46.6051 43.9433 42.0909 41.3296 38.6742 37.8275C35.2564 34.3241 33.0224 30.0192 31.3276 24.7019C31.2759 24.5394 31 24.2344 30.3196 24.2433ZM30.2854 21.6185C31.5835 21.6016 33.2863 22.2031 33.8287 23.9047C35.4446 28.9746 37.5086 32.8737 40.5532 35.9944C43.599 39.1164 47.7117 41.5469 53.565 43.5363C55.1353 44.07 55.7834 45.5678 55.7595 46.832C55.7356 48.0975 55.0273 49.5746 53.4174 50.0264C48.3473 51.4492 44.384 53.2229 41.2117 56.1113C38.0474 58.9926 35.5607 63.0844 33.6365 69.3341C33.1224 71.0038 31.5 71.6552 30.2092 71.6561C28.9184 71.657 27.2902 71.0059 26.7908 69.3205C25.2666 64.177 23.2849 60.242 20.1962 57.1382C17.1059 54.0328 12.8042 51.6562 6.46237 49.8181C4.92853 49.3736 4.19094 47.9915 4.13507 46.7503C4.07907 45.5063 4.69575 44.0565 6.21637 43.5063C11.7133 41.5173 15.9575 39.368 19.2675 36.3781C22.5571 33.4066 25.0044 29.5311 26.777 23.9572C27.3112 22.2776 28.9861 21.6354 30.2854 21.6185Z" fill="#44358C"/>
<path fill-rule="evenodd" clip-rule="evenodd" d="M91.1829 69.7638C89.8927 74.3011 87.9992 77.5704 85.2786 80.0805C82.6605 82.496 79.3633 84.1258 75.3557 85.5641C80.141 86.9285 83.5658 88.7793 86.071 91.3938C88.5567 93.9877 90.0287 97.2214 91.1161 101.157C92.5334 96.2161 94.4719 92.8062 97.1584 90.3711C99.752 88.0203 102.93 86.6836 106.679 85.6608C102.191 84.1784 98.8953 82.2845 96.4226 79.6809C93.9206 77.0464 92.3579 73.786 91.1829 69.7638ZM91.1532 66.612C91.9854 66.6006 93.1501 67.0315 93.4896 68.2738C94.6307 72.4488 96.0757 75.5038 98.326 77.8732C100.575 80.2411 103.737 82.0387 108.52 83.4906C109.659 83.8363 110.127 84.8838 110.11 85.7387C110.093 86.5949 109.581 87.6272 108.42 87.9188C104.329 88.9454 101.286 90.1728 98.9213 92.3161C96.5691 94.4481 94.7523 97.6133 93.3918 102.782C93.0721 103.996 91.9566 104.466 91.1119 104.468C90.2663 104.47 89.1412 104.002 88.8291 102.774C87.7664 98.5928 86.4123 95.544 84.1757 93.21C81.9423 90.8791 78.702 89.1305 73.6154 87.811C72.5107 87.5244 71.9778 86.557 71.9358 85.7085C71.8937 84.8564 72.3353 83.8299 73.4334 83.4555C77.8189 81.9602 81.0555 80.4053 83.4985 78.1512C85.915 75.9218 87.6575 72.9112 88.8571 68.3152C89.1788 67.0829 90.3213 66.6235 91.1532 66.612Z" fill="#44358C"/>
<path fill-rule="evenodd" clip-rule="evenodd" d="M99.7027 1.00148C100.316 1.38492 100.501 2.19454 100.116 2.80982L84.6186 27.5458C84.2331 28.1611 83.4231 28.349 82.8093 27.9656C82.1956 27.5821 82.0105 26.7725 82.396 26.1572L97.8934 1.42128C98.2789 0.805997 99.0889 0.618049 99.7027 1.00148Z" fill="#44358C"/>
<path fill-rule="evenodd" clip-rule="evenodd" d="M108.928 30.5292C109.226 31.204 108.942 31.9899 108.294 32.2845L89.6257 40.7705C88.9776 41.0651 88.2108 40.7569 87.913 40.0821C87.6153 39.4073 87.8993 38.6214 88.5474 38.3268L107.215 29.8408C107.864 29.5462 108.63 29.8544 108.928 30.5292Z" fill="#44358C"/>
<path fill-rule="evenodd" clip-rule="evenodd" d="M68.6498 6.45987C69.3545 6.56546 69.831 7.24093 69.714 7.96855L66.3438 28.9348C66.2268 29.6625 65.5607 30.1667 64.856 30.0611C64.1513 29.9555 63.6748 29.2801 63.7918 28.5524L67.1621 7.58615C67.279 6.85852 67.9451 6.35427 68.6498 6.45987Z" fill="#44358C"/>
<path fill-rule="evenodd" clip-rule="evenodd" d="M50.9183 55.9337C51.277 56.5635 51.0572 57.365 50.4274 57.7237C49.2488 58.395 47.2929 59.7412 45.37 61.5466C43.4401 63.3584 41.6224 65.5591 40.6151 67.9256C38.4515 73.0087 36.9987 79.023 36.5483 81.3744C36.412 82.0864 35.7243 82.553 35.0124 82.4166C34.3004 82.2802 33.8338 81.5925 33.9702 80.8806C34.4416 78.4194 35.9387 72.2098 38.1998 66.8976C39.4048 64.0665 41.5048 61.5749 43.5733 59.6329C45.6487 57.6844 47.7718 56.2153 49.1282 55.4427C49.7581 55.084 50.5595 55.3038 50.9183 55.9337Z" fill="#44358C"/>
<path fill-rule="evenodd" clip-rule="evenodd" d="M87.1112 58.1582C87.836 58.1582 88.4237 58.7458 88.4237 59.4707C88.4237 60.537 88.2654 63.7805 86.9788 67.8107C85.4771 72.5146 81.5356 76.3632 78.7731 77.9366C78.1432 78.2953 77.3418 78.0755 76.983 77.4457C76.6243 76.8158 76.8441 76.0143 77.474 75.6556C79.7814 74.3414 83.2143 70.9711 84.4781 67.0124C85.665 63.2944 85.7987 60.3295 85.7987 59.4707C85.7987 58.7458 86.3863 58.1582 87.1112 58.1582Z" fill="#44358C"/>
</svg>
