<svg width="64" height="64" viewBox="0 0 64 64" fill="none" xmlns="http://www.w3.org/2000/svg">
<path fill-rule="evenodd" clip-rule="evenodd" d="M19.9854 24.8555C19.5457 27.4108 19.1485 29.4242 18.9278 30.1201C18.7339 30.7318 18.565 31.3883 18.4 32.0422C18.3857 32.0987 18.3715 32.1553 18.3572 32.2119C18.2091 32.7999 18.0613 33.3866 17.9041 33.8994C17.7365 34.4465 17.5347 34.9928 17.2617 35.3909C17.1225 35.5939 16.9313 35.8087 16.6679 35.9495C16.3815 36.1026 16.0566 36.1422 15.731 36.0532C15.4771 35.9837 15.3105 35.8077 15.2504 35.743C15.1623 35.6483 15.0789 35.5363 15.0024 35.4237C14.8475 35.1958 14.671 34.8909 14.4801 34.5334C14.0958 33.8139 13.6175 32.8147 13.085 31.6352C12.0183 29.2725 10.7146 26.1431 9.47744 22.982C8.24069 19.8218 7.06556 16.6173 6.2584 14.1058C5.85563 12.8526 5.5392 11.7558 5.35362 10.917C5.26136 10.5 5.19629 10.1242 5.17315 9.81442C5.16162 9.65999 5.15879 9.5011 5.17506 9.35079C5.18976 9.21503 5.22745 9.00766 5.35459 8.81579C5.59898 8.44698 6.03483 8.1171 6.48644 7.83128C6.96434 7.52881 7.56269 7.2136 8.23191 6.89743C9.57245 6.26412 11.2537 5.60071 12.952 5.00183C14.6518 4.40239 16.3843 3.86216 17.8315 3.47734C18.5547 3.28507 19.2141 3.12959 19.7669 3.02507C20.3013 2.92402 20.7939 2.85886 21.1555 2.87693C21.766 2.90743 22.0053 3.44839 22.0788 3.64886C22.1788 3.92161 22.2315 4.26008 22.2619 4.60982C22.3241 5.32472 22.3093 6.3087 22.244 7.45133C22.1128 9.74807 21.769 12.8128 21.3492 15.9378C20.9288 19.0666 20.4299 22.2717 19.9854 24.8555ZM20.725 4.39344C20.7404 4.48408 20.7553 4.59848 20.7676 4.73974C20.8201 5.34383 20.8108 6.24049 20.7465 7.36574C20.6185 9.60478 20.2808 12.6247 19.8625 15.7381C19.4447 18.8477 18.9487 22.0346 18.5071 24.6011C18.0606 27.1961 17.6805 29.0913 17.498 29.6668C17.2888 30.3266 17.1101 31.0236 16.9456 31.6751C16.9318 31.7298 16.9181 31.7842 16.9045 31.8381C16.7538 32.4362 16.6153 32.9855 16.47 33.46C16.3439 33.8715 16.2266 34.1771 16.118 34.3848C16.0285 34.2376 15.9233 34.0517 15.8031 33.8267C15.442 33.1507 14.9796 32.1865 14.4521 31.018C13.3987 28.6847 12.1049 25.5799 10.8743 22.4354C9.64328 19.2899 8.48038 16.1172 7.68646 13.6469C7.28868 12.4092 6.9888 11.364 6.8182 10.5929C6.73237 10.205 6.68438 9.90883 6.66898 9.70269C6.6649 9.64794 6.66358 9.60534 6.66368 9.57338C6.759 9.47285 6.95217 9.3117 7.28863 9.09876C7.69465 8.84178 8.23257 8.5561 8.87266 8.2537C10.1507 7.64988 11.7803 7.00553 13.4508 6.41645C15.1197 5.82794 16.8139 5.30003 18.217 4.92698C18.919 4.74032 19.5406 4.59443 20.0456 4.49896C20.3223 4.44662 20.5483 4.41261 20.725 4.39344ZM20.6529 4.12489C20.6531 4.12409 20.6567 4.13031 20.6631 4.14599C20.6559 4.13354 20.6527 4.1257 20.6529 4.12489ZM6.66813 9.50039C6.66822 9.50051 6.66788 9.5032 6.66683 9.5081C6.66751 9.50272 6.66803 9.50027 6.66813 9.50039ZM16.3485 34.7212C16.3478 34.7205 16.3471 34.7197 16.3464 34.7189C16.3631 34.7336 16.3641 34.738 16.3485 34.7212Z" fill="#44358C"/>
<path fill-rule="evenodd" clip-rule="evenodd" d="M34.8267 35.4843C32.6148 36.8306 30.8385 37.8531 30.1691 38.144C29.5801 38.4 28.9743 38.7041 28.3732 39.0093C28.3213 39.0357 28.2693 39.0621 28.2173 39.0885C27.6769 39.3632 27.1378 39.6371 26.6481 39.8557C26.1254 40.0889 25.5814 40.2955 25.1015 40.3521C24.8569 40.3809 24.5692 40.3787 24.2886 40.2744C23.9834 40.1609 23.7356 39.944 23.5838 39.6403C23.4649 39.4025 23.4859 39.1603 23.4942 39.0728C23.5064 38.9443 23.5347 38.8081 23.5681 38.6769C23.6356 38.4113 23.7465 38.0792 23.8871 37.7019C24.17 36.9426 24.6001 35.9295 25.1291 34.7579C26.1888 32.4108 27.6654 29.3837 29.2103 26.3858C30.7547 23.3887 32.3736 20.4087 33.7186 18.1582C34.3897 17.0353 35.0013 16.0794 35.5066 15.3907C35.7579 15.0482 35.9963 14.7533 36.2133 14.533C36.3214 14.4231 36.4386 14.317 36.562 14.2309C36.6736 14.153 36.8532 14.0461 37.0802 14.0157C37.5185 13.957 38.0562 14.0664 38.5729 14.2169C39.1192 14.3761 39.7558 14.6171 40.4406 14.9105C41.8124 15.4982 43.4347 16.3212 45.02 17.1992C46.6069 18.078 48.171 19.0201 49.4278 19.8506C50.0558 20.2656 50.6135 20.6571 51.0617 21.0021C51.4949 21.3357 51.8735 21.6616 52.102 21.9444C52.4907 22.4251 52.242 22.9634 52.1412 23.1488C52.0033 23.4027 51.7845 23.664 51.5425 23.9159C51.0477 24.4309 50.2995 25.0648 49.3984 25.765C47.5871 27.1723 45.0572 28.9242 42.4312 30.6587C39.802 32.3953 37.063 34.1232 34.8267 35.4843ZM50.6806 22.619C50.6233 22.6892 50.5484 22.774 50.4524 22.8739C50.034 23.3094 49.3547 23.8903 48.4672 24.58C46.7011 25.9522 44.2087 27.6794 41.5923 29.4074C38.9792 31.1334 36.2556 32.8516 34.0341 34.2037C31.7881 35.5708 30.1111 36.529 29.5566 36.77C28.9217 37.046 28.2793 37.3691 27.6803 37.6732C27.63 37.6987 27.58 37.7241 27.5304 37.7493C26.9809 38.0285 26.4758 38.2852 26.0223 38.4875C25.6283 38.6633 25.3194 38.7763 25.0898 38.8313C25.1402 38.6692 25.2087 38.4708 25.296 38.2365C25.5618 37.5233 25.976 36.5453 26.5001 35.3846C27.5465 33.0669 29.0112 30.0636 30.548 27.0814C32.0852 24.0983 33.6884 21.1483 35.0112 18.9349C35.674 17.8259 36.2578 16.9164 36.7224 16.2833C36.9561 15.9648 37.1463 15.7347 37.2908 15.5879C37.3302 15.5479 37.362 15.5184 37.3864 15.4974C37.5263 15.5023 37.7781 15.5413 38.1656 15.6542C38.6303 15.7896 39.2047 16.0049 39.8599 16.2856C41.1681 16.8461 42.7417 17.643 44.3012 18.5067C45.8592 19.3695 47.3886 20.2911 48.6071 21.0963C49.2167 21.4992 49.742 21.8687 50.1514 22.1839C50.3734 22.3548 50.5486 22.5002 50.6806 22.619ZM50.8371 22.3852C50.8379 22.3848 50.8356 22.3916 50.828 22.4067C50.8326 22.3931 50.8364 22.3855 50.8371 22.3852ZM37.4427 15.4541C37.4427 15.4543 37.4405 15.4558 37.4361 15.4582C37.4406 15.4552 37.4428 15.454 37.4427 15.4541ZM24.9898 39.2294C24.9899 39.2283 24.99 39.2271 24.9902 39.2259C24.9903 39.2481 24.9877 39.2518 24.9898 39.2294Z" fill="#44358C"/>
<path fill-rule="evenodd" clip-rule="evenodd" d="M42.3335 53.0383C40.0178 53.1117 38.1768 53.1259 37.5204 53.058C36.9504 52.9991 36.3458 52.9697 35.7425 52.943C35.6902 52.9407 35.638 52.9384 35.5857 52.9361C35.0436 52.9124 34.5006 52.8886 34.0204 52.8436C33.509 52.7956 32.9845 52.7175 32.5744 52.5483C32.3653 52.462 32.1301 52.3301 31.9459 52.1161C31.7446 51.8822 31.6368 51.5869 31.6519 51.2625C31.6642 50.9984 31.8015 50.8014 31.8472 50.7365C31.9169 50.6373 32.0023 50.541 32.0872 50.4532C32.2594 50.275 32.4941 50.0655 32.7697 49.8361C33.3248 49.3738 34.1053 48.7811 35.0312 48.1104C36.8863 46.7668 39.3641 45.0821 41.8821 43.4498C44.3993 41.818 46.9682 40.231 49.0048 39.0854C50.0208 38.5138 50.9191 38.0438 51.6186 37.7326C51.9661 37.578 52.2854 37.4533 52.5566 37.3768C52.6918 37.3386 52.8346 37.3068 52.9748 37.2936C53.101 37.2818 53.301 37.2769 53.5065 37.3579C53.8891 37.5089 54.2705 37.8356 54.6098 38.1767C54.9704 38.5392 55.365 39.0033 55.7734 39.5274C56.5916 40.5774 57.5023 41.9165 58.3594 43.2807C59.2173 44.6464 60.0301 46.0511 60.6513 47.2371C60.9617 47.8297 61.2278 48.3745 61.4287 48.8367C61.6219 49.2813 61.7794 49.7043 61.8366 50.032C61.8875 50.3232 61.7902 50.571 61.667 50.7406C61.5544 50.8956 61.4119 51.001 61.2983 51.0712C61.0698 51.2123 60.7761 51.3204 60.475 51.4093C59.8577 51.5917 58.9914 51.7543 57.9802 51.9008C55.9465 52.1955 53.201 52.4426 50.3896 52.6343C47.5745 52.8264 44.6774 52.964 42.3335 53.0383ZM60.2467 49.9042C60.1899 49.924 60.1238 49.9454 60.0475 49.9679C59.5358 50.1191 58.7554 50.2697 57.761 50.4138C55.7836 50.7003 53.0827 50.9444 50.2828 51.1354C47.4867 51.3261 44.6077 51.4629 42.2809 51.5366C39.9259 51.6112 38.2018 51.6186 37.6688 51.5635C37.0495 51.4995 36.4042 51.4686 35.8031 51.442C35.7527 51.4398 35.7027 51.4376 35.6531 51.4354C35.1008 51.4112 34.5956 51.389 34.1545 51.3477C33.8568 51.3198 33.6184 51.2853 33.4348 51.2454C33.5195 51.1702 33.6173 51.0862 33.7285 50.9935C34.2455 50.563 34.9946 49.9932 35.9106 49.3297C37.7394 48.0051 40.1949 46.3352 42.698 44.7125C45.2019 43.0894 47.7419 41.5209 49.7407 40.3965C50.7424 39.833 51.5934 39.3895 52.2296 39.1065C52.5498 38.964 52.795 38.8717 52.9667 38.8232C52.9989 38.8141 53.0257 38.8074 53.0477 38.8024C53.1487 38.8674 53.3161 38.9994 53.5517 39.2362C53.8531 39.5391 54.2061 39.9513 54.5948 40.4502C55.3708 41.4461 56.2518 42.7393 57.0932 44.0786C57.9338 45.4166 58.7262 46.7869 59.3262 47.9324C59.6264 48.5056 59.8749 49.0156 60.0562 49.433C60.1364 49.6175 60.1992 49.7743 60.2467 49.9042ZM60.5203 49.784C60.5204 49.784 60.5193 49.7849 60.5168 49.7865C60.519 49.7848 60.5203 49.784 60.5203 49.784ZM53.127 38.7891C53.1269 38.7892 53.1244 38.7895 53.1197 38.7895C53.1247 38.7891 53.1271 38.789 53.127 38.7891ZM33.0722 51.6051C33.073 51.6038 33.0743 51.6021 33.076 51.5999C33.066 51.6169 33.0621 51.6194 33.0722 51.6051Z" fill="#44358C"/>
</svg>
