<svg width="100" height="102" viewBox="0 0 100 102" fill="none" xmlns="http://www.w3.org/2000/svg">
<path d="M30.4825 94.5348C25.0335 76.1078 26.0445 57.4163 31.0572 43.6171C36.8468 27.6706 48.543 25.9517 55.4234 28.3265C62.8999 30.9075 67.0398 38.656 67.9338 60.6267C68.8278 82.6027 75.9424 85.1785 74.6812 90.6579C73.4201 96.1321 62.6551 94.0429 58.2863 90.1713C58.2863 90.1713 60.3456 102.849 51.5016 101.955C43.9507 101.194 41.1889 94.5613 41.1889 94.5613C41.1889 94.5613 34.6491 108.657 30.4772 94.5401L30.4825 94.5348Z" fill="#DBC5FF"/>
<path opacity="0.25" d="M43.1683 38.8057C43.1151 41.9527 40.9494 44.4385 39.3902 46.9879C36.373 51.9067 35.7824 57.5237 36.4741 63.1565C37.267 69.588 40.4332 75.8925 40.38 82.3822C40.348 86.1533 38.874 90.2311 34.8245 91.2678C33.3718 91.638 32.1373 91.4053 31.1635 90.7918C27.1672 73.4913 27.7791 57.1111 32.6907 44.3063C34.5638 39.4245 37.863 35.1668 40.5822 32.7021C42.3329 33.9768 43.2003 36.8435 43.1683 38.8057Z" fill="#F6F1FF"/>
<path d="M70.4238 90.1982C71.9032 88.2042 70.7697 85.7237 69.7959 83.7773C65.6294 75.4312 64.9695 67.0692 64.629 57.8821C64.3735 51.0275 64.597 42.602 60.1165 36.9163C57.9667 34.1925 54.9974 32.2302 51.8525 30.8022C48.7555 29.4006 45.9991 29.0832 42.9447 29.0462C47.4199 26.9729 52.0122 27.1421 55.4284 28.3163C62.9049 30.8974 67.0448 38.6458 67.9388 60.6165C68.8328 82.5925 75.9474 85.1683 74.6862 90.6478C73.7869 94.5511 68.0612 94.6093 63.2667 92.9168C65.8741 92.7369 68.8913 92.2504 70.4238 90.1929L70.4238 90.1982Z" fill="#D0B4FF"/>
<path d="M52.8854 98.7089C56.009 97.3232 57.0466 94.8109 58.4728 92.0712C58.6484 95.5725 58.1801 102.623 51.5072 101.951C48.953 101.692 46.9468 100.761 45.409 99.6451C47.9472 99.8355 50.4642 99.7879 52.8854 98.7142L52.8854 98.7089Z" fill="#D0B4FF"/>
<path d="M32.7596 97.1163C34.7924 98.3222 37.7829 98.4386 39.7625 97.0899C37.6765 100.247 33.7547 104.214 30.8227 95.5455C31.3974 96.1537 32.0359 96.6879 32.7543 97.1163L32.7596 97.1163Z" fill="#D0B4FF"/>
<path d="M57.4029 45.442C56.2428 41.7926 52.0017 41.1843 50.0009 42.6864C46.3665 45.4156 45.0468 53.7723 49.5859 56.4115C54.1249 59.0507 59.9943 53.5819 57.4029 45.442Z" fill="#F8F8F8"/>
<path d="M41.9437 45.4524C40.8901 42.1414 37.0481 41.5914 35.2335 42.956C31.9396 45.4312 30.7423 53.0052 34.8557 55.3958C38.9691 57.7865 44.2904 52.8359 41.9437 45.4524Z" fill="#F8F8F8"/>
<path opacity="0.5" d="M56.8913 50.0911C56.7955 46.8701 54.3477 42.5066 50.7559 42.2633C52.9216 41.3642 56.3698 42.2051 57.4022 45.442C59.0943 50.7575 57.1733 54.9359 54.3797 56.4591C55.9973 54.7984 56.9658 52.5664 56.8966 50.0911L56.8913 50.0911Z" fill="url(#paint0_linear_58557_9215)"/>
<path opacity="0.5" d="M36.5909 42.364C38.5331 41.9462 41.1086 42.8295 41.9441 45.4528C43.5298 50.4298 41.6195 54.3014 38.9482 55.5602C42.2101 51.5088 41.6727 44.6172 36.5909 42.364Z" fill="url(#paint1_linear_58557_9215)"/>
<path d="M50.3413 47.33C49.2025 47.5416 48.1489 49.0384 48.4895 51.2439C48.83 53.4495 51.1235 53.6822 51.9217 51.831C52.9328 49.4827 52.1292 46.9968 50.3413 47.33Z" fill="#484349"/>
<path d="M35.2072 47.1932C34.1749 47.3836 33.217 48.7428 33.531 50.7421C33.8449 52.7414 35.9203 52.9529 36.6386 51.271C37.5539 49.1448 36.8249 46.8917 35.2072 47.1932Z" fill="#484349"/>
<path d="M45.1534 60.7849C45.1534 60.7849 43.2697 66.5658 41.7318 60.6526" stroke="#B07FFF" stroke-width="2.16" stroke-linecap="round" stroke-linejoin="round"/>
<path d="M58.6055 59.3691C59.3931 60.1043 58.7598 61.1409 57.3177 61.8444C55.8437 62.5637 53.2416 63.5474 50.2617 63.0132C45.6747 62.1934 47.0104 59.66 53.7525 58.856C54.9764 58.708 57.5519 58.3853 58.6055 59.3691Z" fill="#D0B4FF"/>
<path d="M39.8267 60.5994C40.0715 61.5302 39.1669 62.2495 37.8259 62.3871C36.453 62.5299 34.1542 62.5246 32.2438 61.0225C29.3012 58.7112 31.3605 56.8812 36.5647 58.4732C37.5066 58.7641 39.5021 59.3564 39.832 60.5994L39.8267 60.5994Z" fill="#D0B4FF"/>
<path fill-rule="evenodd" clip-rule="evenodd" d="M80.9607 9.63044C80.797 9.60233 80.6862 9.44805 80.7132 9.28586C80.8309 8.57838 80.7403 8.01167 80.5174 7.52868C80.2922 7.0408 79.9228 6.61837 79.4518 6.21686C79.3255 6.10915 79.3102 5.92092 79.4177 5.79643C79.5252 5.67195 79.7148 5.65834 79.8411 5.76605C80.3496 6.19955 80.7883 6.68867 81.0632 7.28414C81.3402 7.88451 81.4415 8.57295 81.3059 9.38767C81.2789 9.54986 81.1244 9.65856 80.9607 9.63044Z" fill="#44358C"/>
<path fill-rule="evenodd" clip-rule="evenodd" d="M72.2915 6.31557C74.4686 4.61604 77.0997 3.34258 79.7526 3.77551C80.5918 3.91246 81.2732 4.231 81.7979 4.70762C82.3219 5.18368 82.674 5.80331 82.8781 6.51884C83.2837 7.94071 83.1122 9.76337 82.5296 11.7062C81.3625 15.5982 78.5009 20.1197 74.9028 23.2198C73.106 24.7678 71.5161 25.6716 70.0768 26.0091C68.6248 26.3496 67.3436 26.1094 66.1927 25.4074C65.0529 24.7123 64.0544 23.5731 63.1318 22.1367C62.2079 20.6982 61.3471 18.9405 60.4915 16.9857C59.6241 15.0042 59.2563 13.1679 59.2932 11.6498C59.3298 10.1397 59.7694 8.90552 60.5645 8.18533C61.3812 7.44569 62.5099 7.30335 63.7688 7.85901C64.9394 8.37567 66.2391 9.49778 67.5863 11.3292C68.6026 9.86265 70.2768 7.88826 72.2915 6.31557ZM72.6622 6.78476C70.5388 8.44234 68.7964 10.5682 67.8455 12.0159L67.6029 12.3853L67.3483 12.0239C65.9411 10.026 64.6283 8.89109 63.5252 8.40426C62.4373 7.92407 61.5746 8.07767 60.9688 8.62631C60.3416 9.19439 59.9277 10.2408 59.8932 11.6642C59.8589 13.0796 60.2023 14.8296 61.0419 16.7477C61.8932 18.6926 62.7392 20.4167 63.6378 21.8157C64.5377 23.2169 65.4772 24.2711 66.5066 24.8989C67.5248 25.5199 68.6439 25.7322 69.9389 25.4285C71.2466 25.1218 72.7504 24.2847 74.5096 22.769C78.0235 19.7414 80.8207 15.3163 81.9544 11.5358C82.5222 9.64238 82.6617 7.9473 82.3006 6.68158C82.1214 6.05332 81.8208 5.5367 81.3929 5.14798C80.9657 4.75984 80.396 4.48509 79.6553 4.36421C77.2523 3.97207 74.7935 5.12104 72.6622 6.78476Z" fill="#44358C"/>
<path fill-rule="evenodd" clip-rule="evenodd" d="M78.9523 14.0737C79.0945 14.1584 79.1407 14.3416 79.0555 14.4829C76.6386 18.4923 74.8115 20.5415 70.5755 23.7155C70.4432 23.8147 70.255 23.7884 70.1552 23.6569C70.0554 23.5253 70.0818 23.3383 70.2142 23.2391C74.3917 20.1089 76.1655 18.1164 78.5406 14.1763C78.6258 14.035 78.8101 13.989 78.9523 14.0737Z" fill="#44358C"/>
<defs>
<linearGradient id="paint0_linear_58557_9215" x1="58.0354" y1="49.192" x2="50.7559" y2="49.192" gradientUnits="userSpaceOnUse">
<stop stop-color="#C1C1C1"/>
<stop offset="0.06" stop-color="#C6C6C6"/>
<stop offset="0.43" stop-color="#E1E1E1"/>
<stop offset="0.75" stop-color="#F2F2F2"/>
<stop offset="1" stop-color="#F8F8F8"/>
</linearGradient>
<linearGradient id="paint1_linear_58557_9215" x1="42.5188" y1="48.9119" x2="36.5909" y2="48.9119" gradientUnits="userSpaceOnUse">
<stop stop-color="#C1C1C1"/>
<stop offset="0.06" stop-color="#C6C6C6"/>
<stop offset="0.43" stop-color="#E1E1E1"/>
<stop offset="0.75" stop-color="#F2F2F2"/>
<stop offset="1" stop-color="#F8F8F8"/>
</linearGradient>
</defs>
</svg>
