<svg width="100" height="102" viewBox="0 0 100 102" fill="none" xmlns="http://www.w3.org/2000/svg">
<path d="M30.4825 94.5349C25.0335 76.1078 26.0445 57.4163 31.0572 43.6172C36.8468 27.6707 48.543 25.9518 55.4234 28.3266C62.8999 30.9076 67.0398 38.6561 67.9338 60.6268C68.8278 82.6028 75.9424 85.1785 74.6812 90.658C73.4201 96.1322 62.6551 94.043 58.2863 90.1714C58.2863 90.1714 60.3456 102.849 51.5016 101.955C43.9507 101.194 41.1889 94.5613 41.1889 94.5613C41.1889 94.5613 34.6491 108.657 30.4772 94.5402L30.4825 94.5349Z" fill="#E2E4E8"/>
<path opacity="0.25" d="M43.1683 38.8057C43.1151 41.9527 40.9494 44.4385 39.3902 46.9879C36.373 51.9067 35.7824 57.5237 36.4741 63.1565C37.267 69.588 40.4332 75.8925 40.38 82.3822C40.348 86.1533 38.874 90.2311 34.8245 91.2678C33.3718 91.638 32.1373 91.4053 31.1635 90.7918C27.1672 73.4913 27.7791 57.1111 32.6907 44.3063C34.5638 39.4245 37.863 35.1668 40.5822 32.7021C42.3329 33.9768 43.2003 36.8435 43.1683 38.8057Z" fill="#F6F1FF"/>
<path d="M70.4238 90.1983C71.9032 88.2043 70.7697 85.7237 69.7959 83.7774C65.6294 75.4312 64.9695 67.0692 64.629 57.8822C64.3735 51.0276 64.597 42.6021 60.1165 36.9164C57.9667 34.1925 54.9974 32.2303 51.8525 30.8022C48.7555 29.4006 45.9991 29.0833 42.9447 29.0463C47.4199 26.973 52.0122 27.1422 55.4284 28.3164C62.9049 30.8974 67.0448 38.6459 67.9388 60.6166C68.8328 82.5926 75.9474 85.1684 74.6862 90.6478C73.7869 94.5512 68.0612 94.6093 63.2667 92.9168C65.8741 92.737 68.8913 92.2504 70.4238 90.193L70.4238 90.1983Z" fill="#C1C3C8"/>
<path d="M52.8854 98.709C56.009 97.3233 57.0466 94.811 58.4728 92.0713C58.6484 95.5726 58.1801 102.623 51.5072 101.951C48.953 101.692 46.9468 100.761 45.409 99.6452C47.9472 99.8356 50.4642 99.788 52.8854 98.7143L52.8854 98.709Z" fill="#C1C3C8"/>
<path d="M32.7596 97.1163C34.7924 98.3222 37.7829 98.4385 39.7625 97.0898C37.6765 100.247 33.7547 104.214 30.8227 95.5454C31.3974 96.1537 32.0359 96.6878 32.7543 97.1163L32.7596 97.1163Z" fill="#C1C3C8"/>
<path d="M57.4029 45.4421C56.2428 41.7927 52.0017 41.1845 50.0009 42.6866C46.3665 45.4157 45.0468 53.7724 49.5859 56.4116C54.1249 59.0509 59.9943 53.582 57.4029 45.4421Z" fill="#F8F8F8"/>
<path d="M41.9437 45.4525C40.8901 42.1415 37.0481 41.5914 35.2335 42.956C31.9396 45.4313 30.7423 53.0052 34.8557 55.3959C38.9691 57.7865 44.2904 52.836 41.9437 45.4525Z" fill="#F8F8F8"/>
<path opacity="0.5" d="M56.8913 50.0912C56.7955 46.8702 54.3477 42.5067 50.7559 42.2634C52.9216 41.3643 56.3698 42.2053 57.4022 45.4422C59.0943 50.7576 57.1733 54.936 54.3797 56.4592C55.9973 54.7985 56.9658 52.5665 56.8966 50.0912L56.8913 50.0912Z" fill="url(#paint0_linear_58557_9762)"/>
<path opacity="0.5" d="M36.5909 42.364C38.5331 41.9462 41.1086 42.8295 41.9441 45.4528C43.5298 50.4298 41.6195 54.3014 38.9482 55.5602C42.2101 51.5088 41.6727 44.6172 36.5909 42.364Z" fill="url(#paint1_linear_58557_9762)"/>
<path d="M50.3413 47.3302C49.2025 47.5418 48.1489 49.0386 48.4895 51.2441C48.83 53.4497 51.1235 53.6824 51.9217 51.8312C52.9328 49.4829 52.1292 46.997 50.3413 47.3302Z" fill="#484349"/>
<path d="M35.2072 47.1933C34.1749 47.3837 33.217 48.743 33.531 50.7422C33.8449 52.7415 35.9203 52.9531 36.6386 51.2711C37.5539 49.1449 36.8249 46.8918 35.2072 47.1933Z" fill="#484349"/>
<path d="M45.1534 60.7851C45.1534 60.7851 43.2697 66.566 41.7318 60.6528" stroke="#97989C" stroke-width="2.16" stroke-linecap="round" stroke-linejoin="round"/>
<path d="M58.6055 59.3691C59.3931 60.1043 58.7598 61.141 57.3177 61.8444C55.8437 62.5637 53.2416 63.5475 50.2617 63.0133C45.6747 62.1935 47.0104 59.66 53.7525 58.8561C54.9764 58.708 57.5519 58.3854 58.6055 59.3691Z" fill="#C1C3C8"/>
<path d="M39.8267 60.5995C40.0715 61.5304 39.1669 62.2497 37.8259 62.3872C36.453 62.53 34.1542 62.5247 32.2438 61.0226C29.3012 58.7113 31.3605 56.8813 36.5647 58.4733C37.5066 58.7642 39.5021 59.3566 39.832 60.5995L39.8267 60.5995Z" fill="#C1C3C8"/>
<path fill-rule="evenodd" clip-rule="evenodd" d="M80.9607 9.63026C80.797 9.60215 80.6862 9.44787 80.7132 9.28567C80.8309 8.5782 80.7403 8.01149 80.5174 7.5285C80.2922 7.04062 79.9228 6.61819 79.4518 6.21668C79.3255 6.10897 79.3102 5.92074 79.4177 5.79625C79.5252 5.67176 79.7148 5.65816 79.8411 5.76586C80.3496 6.19936 80.7883 6.68849 81.0632 7.28396C81.3402 7.88433 81.4415 8.57276 81.3059 9.38748C81.2789 9.54968 81.1244 9.65838 80.9607 9.63026Z" fill="#44358C"/>
<path fill-rule="evenodd" clip-rule="evenodd" d="M72.2915 6.31545C74.4686 4.61592 77.0997 3.34246 79.7526 3.77538C80.5918 3.91234 81.2732 4.23088 81.7979 4.7075C82.3219 5.18356 82.674 5.80319 82.8781 6.51872C83.2837 7.94059 83.1122 9.76325 82.5296 11.7061C81.3625 15.598 78.5009 20.1196 74.9028 23.2196C73.106 24.7677 71.5161 25.6715 70.0768 26.009C68.6248 26.3495 67.3436 26.1092 66.1927 25.4073C65.0529 24.7122 64.0544 23.573 63.1318 22.1366C62.2079 20.6981 61.3471 18.9404 60.4915 16.9856C59.6241 15.004 59.2563 13.1678 59.2932 11.6497C59.3298 10.1396 59.7694 8.9054 60.5645 8.18521C61.3812 7.44557 62.5099 7.30322 63.7688 7.85889C64.9394 8.37555 66.2391 9.49766 67.5863 11.3291C68.6026 9.86252 70.2768 7.88814 72.2915 6.31545ZM72.6622 6.78463C70.5388 8.44222 68.7964 10.5681 67.8455 12.0158L67.6029 12.3852L67.3483 12.0238C65.9411 10.0259 64.6283 8.89097 63.5252 8.40414C62.4373 7.92395 61.5746 8.07755 60.9688 8.62618C60.3416 9.19427 59.9277 10.2407 59.8932 11.6641C59.8589 13.0794 60.2023 14.8295 61.0419 16.7476C61.8932 18.6925 62.7392 20.4166 63.6378 21.8156C64.5377 23.2168 65.4772 24.271 66.5066 24.8988C67.5248 25.5198 68.6439 25.7321 69.9389 25.4284C71.2466 25.1217 72.7504 24.2846 74.5096 22.7688C78.0235 19.7413 80.8207 15.3162 81.9544 11.5357C82.5222 9.64226 82.6617 7.94718 82.3006 6.68146C82.1214 6.0532 81.8208 5.53657 81.3929 5.14786C80.9657 4.75971 80.396 4.48497 79.6553 4.36409C77.2523 3.97194 74.7935 5.12092 72.6622 6.78463Z" fill="#44358C"/>
<path fill-rule="evenodd" clip-rule="evenodd" d="M78.9523 14.0737C79.0945 14.1584 79.1407 14.3416 79.0555 14.4829C76.6386 18.4923 74.8115 20.5415 70.5755 23.7155C70.4432 23.8147 70.255 23.7884 70.1552 23.6569C70.0554 23.5253 70.0818 23.3383 70.2142 23.2391C74.3917 20.1089 76.1655 18.1164 78.5406 14.1763C78.6258 14.035 78.8101 13.989 78.9523 14.0737Z" fill="#44358C"/>
<defs>
<linearGradient id="paint0_linear_58557_9762" x1="58.0354" y1="49.1921" x2="50.7559" y2="49.1921" gradientUnits="userSpaceOnUse">
<stop stop-color="#C1C1C1"/>
<stop offset="0.06" stop-color="#C6C6C6"/>
<stop offset="0.43" stop-color="#E1E1E1"/>
<stop offset="0.75" stop-color="#F2F2F2"/>
<stop offset="1" stop-color="#F8F8F8"/>
</linearGradient>
<linearGradient id="paint1_linear_58557_9762" x1="42.5188" y1="48.9119" x2="36.5909" y2="48.9119" gradientUnits="userSpaceOnUse">
<stop stop-color="#C1C1C1"/>
<stop offset="0.06" stop-color="#C6C6C6"/>
<stop offset="0.43" stop-color="#E1E1E1"/>
<stop offset="0.75" stop-color="#F2F2F2"/>
<stop offset="1" stop-color="#F8F8F8"/>
</linearGradient>
</defs>
</svg>
