<svg width="64" height="64" viewBox="0 0 64 64" fill="none" xmlns="http://www.w3.org/2000/svg">
<path fill-rule="evenodd" clip-rule="evenodd" d="M56.4045 19.1849C55.9955 19.1142 55.7186 18.7263 55.786 18.3185C56.0802 16.5397 55.8537 15.1149 55.2966 13.9005C54.7339 12.6738 53.8107 11.6117 52.6337 10.6022C52.318 10.3314 52.2799 9.85813 52.5485 9.54513C52.8172 9.23213 53.2909 9.19793 53.6066 9.46873C54.8773 10.5587 55.9737 11.7885 56.6605 13.2857C57.353 14.7952 57.6059 16.5261 57.2672 18.5745C57.1998 18.9823 56.8135 19.2556 56.4045 19.1849Z" fill="#44358C"/>
<path fill-rule="evenodd" clip-rule="evenodd" d="M34.7397 10.8504C40.1805 6.57732 46.7556 3.37547 53.3853 4.46397C55.4826 4.80832 57.1855 5.60921 58.4966 6.80758C59.8061 8.00451 60.6861 9.56245 61.1961 11.3615C62.2098 14.9365 61.7813 19.5192 60.3253 24.404C57.4086 34.1895 50.2573 45.5579 41.2655 53.3524C36.7753 57.2447 32.802 59.517 29.205 60.3657C25.5764 61.2218 22.3747 60.6177 19.4984 58.8528C16.65 57.105 14.1548 54.2409 11.8493 50.6293C9.54037 47.0124 7.3891 42.5931 5.25091 37.6782C3.0834 32.696 2.16427 28.0791 2.25625 24.2622C2.34775 20.4654 3.44631 17.3623 5.43349 15.5515C7.47434 13.6919 10.2949 13.334 13.4412 14.7311C16.3666 16.0301 19.6146 18.8514 22.9813 23.4562C25.5209 19.7688 29.705 14.8046 34.7397 10.8504ZM35.6662 12.0301C30.3597 16.1977 26.0054 21.5428 23.6289 25.1828L23.0226 26.1114L22.3865 25.2029C18.8699 20.1796 15.589 17.326 12.8324 16.102C10.1135 14.8946 7.95761 15.2808 6.44379 16.6603C4.87631 18.0886 3.84206 20.7196 3.75582 24.2983C3.67006 27.857 4.52827 32.2571 6.62638 37.0798C8.7538 41.9699 10.8681 46.3047 13.1136 49.8222C15.3626 53.3452 17.7105 55.9958 20.2829 57.5743C22.8275 59.1357 25.6242 59.6693 28.8606 58.9058C32.1285 58.1347 35.8865 56.03 40.283 52.219C49.0644 44.6068 56.0546 33.4809 58.8878 23.9755C60.3068 19.215 60.6553 14.9531 59.753 11.7707C59.3052 10.191 58.5539 8.8921 57.4846 7.91477C56.4169 6.93886 54.9934 6.24808 53.1423 5.94415C47.1371 4.95818 40.9923 7.84704 35.6662 12.0301Z" fill="#44358C"/>
<path fill-rule="evenodd" clip-rule="evenodd" d="M51.3855 30.3568C51.7408 30.5696 51.8562 31.0303 51.6433 31.3856C45.6034 41.4663 41.0373 46.6185 30.4515 54.599C30.1207 54.8483 29.6504 54.7824 29.4011 54.4516C29.1518 54.1208 29.2177 53.6506 29.5485 53.4012C39.9883 45.5309 44.4211 40.5212 50.3566 30.6146C50.5695 30.2593 51.0301 30.1439 51.3855 30.3568Z" fill="#44358C"/>
</svg>
