<svg width="64" height="64" viewBox="0 0 64 64" fill="none" xmlns="http://www.w3.org/2000/svg">
<path fill-rule="evenodd" clip-rule="evenodd" d="M39.7106 19.3782C39.7062 19.3812 39.7017 19.3842 39.6971 19.3873C39.538 19.4948 39.3262 19.6448 39.0775 19.8261C38.5813 20.188 37.9549 20.6625 37.3414 21.1441C36.7265 21.6268 36.1333 22.1098 35.7 22.49C35.6558 22.5287 35.6138 22.5659 35.5741 22.6016C35.7328 22.6855 35.9126 22.7762 36.105 22.8729L36.1347 22.8879C36.44 23.0414 36.7741 23.2094 37.0418 23.3652C37.1793 23.4453 37.3216 23.5349 37.4422 23.6295C37.5027 23.6771 37.5715 23.7365 37.6351 23.8071C37.6935 23.8721 37.7818 23.9838 37.8348 24.1388C37.9125 24.3658 37.8604 24.5599 37.8252 24.6537C37.7882 24.7525 37.7383 24.8258 37.7078 24.8671C37.6455 24.9509 37.5737 25.0194 37.5229 25.0651C37.4142 25.1627 37.2712 25.2705 37.1173 25.3794C36.8029 25.6019 36.3581 25.8886 35.8366 26.2122C34.7897 26.862 33.3845 27.691 31.979 28.5115C31.3642 28.8704 30.7504 29.2271 30.1647 29.5674C29.4058 30.0084 28.6942 30.4219 28.0892 30.7771C27.7421 30.9809 27.4334 31.1635 27.1738 31.3194C27.7209 31.6525 28.4633 32.0758 29.2248 32.5098L29.2465 32.5222C30.0012 32.9523 30.7722 33.3917 31.357 33.747C31.6504 33.9253 31.912 34.0914 32.1056 34.2299C32.2 34.2974 32.2979 34.3721 32.3793 34.4483C32.4189 34.4853 32.4734 34.5401 32.5237 34.6088C32.5575 34.6551 32.6734 34.8167 32.6823 35.0521C32.6888 35.2229 32.6331 35.3546 32.6196 35.3865L32.6188 35.3884C32.5967 35.4409 32.5721 35.485 32.5548 35.5145C32.5193 35.575 32.4767 35.6366 32.4368 35.6918C32.3546 35.8053 32.2417 35.9485 32.1093 36.1107C31.8422 36.4378 31.4649 36.88 31.0195 37.3938C30.4601 38.0394 29.7831 38.81 29.0674 39.6246C28.6437 40.1069 28.2064 40.6047 27.7719 41.1011C27.0678 41.9055 26.3702 42.7073 25.7439 43.4403C27.2582 42.3934 29.1127 41.0679 30.9573 39.7221C33.0603 38.1878 35.144 36.6319 36.6883 35.4388C37.4501 34.8503 38.0744 34.3549 38.5037 33.9957C38.4801 33.9818 38.4559 33.9677 38.4312 33.9533C38.0778 33.7472 37.6454 33.5061 37.189 33.2517C37.045 33.1714 36.8985 33.0898 36.7515 33.0076C36.1471 32.6695 35.5316 32.3204 35.0674 32.0282C34.8381 31.8839 34.6243 31.7402 34.4623 31.6097C34.3837 31.5464 34.2923 31.4665 34.2149 31.3749C34.1761 31.3289 34.1242 31.2608 34.0811 31.1736C34.0404 31.0915 33.9806 30.9386 33.9983 30.7431C34.016 30.5471 34.1066 30.411 34.1345 30.3701C34.1745 30.3114 34.2161 30.2658 34.244 30.2371C34.3009 30.1783 34.3649 30.1243 34.4201 30.0802C34.5344 29.9888 34.6862 29.8806 34.8587 29.7632C35.2077 29.5258 35.6959 29.2144 36.2688 28.8578C37.2834 28.2261 38.5922 27.4353 39.9254 26.6296C40.1004 26.5239 40.2758 26.4179 40.451 26.312C41.9654 25.3964 43.4656 24.4864 44.5779 23.7813C44.9996 23.514 45.359 23.2803 45.6395 23.0893C45.5192 23.0017 45.384 22.9053 45.2358 22.8016C44.5989 22.3556 43.7526 21.7949 42.8946 21.249C42.0359 20.7026 41.175 20.1773 40.508 19.8003C40.1762 19.6128 39.9049 19.4691 39.7106 19.3782ZM39.1117 34.3868C39.1112 34.3867 39.1063 34.3826 39.0983 34.3747C39.1082 34.3829 39.1122 34.3868 39.1117 34.3868ZM35.0762 22.3035C35.0762 22.3035 35.0768 22.304 35.0779 22.305L35.0762 22.3035ZM47.3565 22.563C47.384 22.5953 47.469 22.6956 47.5201 22.8393C47.607 23.0839 47.5418 23.2914 47.5063 23.3795C47.4672 23.4766 47.416 23.5485 47.3858 23.5879C47.3234 23.669 47.2513 23.737 47.1985 23.7839C47.0858 23.8841 46.9354 23.9978 46.7701 24.1156C46.4332 24.3559 45.9551 24.6692 45.3925 25.0258C44.2639 25.7411 42.7493 26.6598 41.2379 27.5735C41.0623 27.6797 40.8868 27.7857 40.7119 27.8914C39.3769 28.6982 38.078 29.4831 37.0728 30.1089C36.634 30.382 36.2566 30.6215 35.9591 30.8172C36.379 31.0782 36.9342 31.3934 37.5117 31.7165C37.6529 31.7954 37.7954 31.8749 37.937 31.9538C38.3967 32.21 38.8477 32.4614 39.2149 32.6756C39.4547 32.8154 39.6724 32.9472 39.8402 33.0597C39.9232 33.1153 40.0067 33.1746 40.0787 33.234L40.0819 33.2366C40.127 33.2736 40.2675 33.3892 40.3539 33.5607C40.5174 33.8858 40.3803 34.1768 40.3599 34.22C40.3595 34.221 40.359 34.2219 40.3587 34.2226C40.3185 34.3088 40.2696 34.3747 40.2428 34.4091C40.1841 34.4844 40.1126 34.5579 40.0489 34.6199C39.9153 34.75 39.7269 34.9151 39.5023 35.1035C39.0488 35.4839 38.3978 36.0002 37.6196 36.6014C36.0607 37.8057 33.9651 39.3705 31.8549 40.91C29.7451 42.4494 27.6144 43.9681 25.9857 45.0795C25.1731 45.634 24.4764 46.0933 23.9667 46.404C23.715 46.5574 23.491 46.6856 23.314 46.7712C23.2304 46.8117 23.1247 46.8588 23.0164 46.8894C22.9654 46.9038 22.8709 46.9272 22.7566 46.9276C22.6607 46.9279 22.3865 46.9123 22.1695 46.6785C22.0187 46.5159 21.9764 46.333 21.9671 46.2145C21.9581 46.0992 21.976 46.0033 21.9901 45.9452C22.0183 45.8296 22.0663 45.7284 22.1013 45.6608C22.1759 45.5166 22.2845 45.3515 22.4033 45.1837C22.6466 44.8402 23.0048 44.386 23.4303 43.8682C24.2847 42.8282 25.4535 41.4797 26.6257 40.1405C27.0649 39.6388 27.5042 39.1387 27.9286 38.6556C28.6413 37.8444 29.3118 37.0812 29.8684 36.4389C30.2947 35.947 30.6481 35.5329 30.8988 35.2274C30.7963 35.162 30.6797 35.0896 30.55 35.0108C29.9833 34.6665 29.2269 34.2354 28.4609 33.7988L28.454 33.7949C27.6926 33.361 26.9213 32.9214 26.3495 32.5726C26.0662 32.3998 25.8138 32.2385 25.6316 32.1052C25.545 32.0419 25.4455 31.9644 25.3639 31.8808C25.3266 31.8426 25.2581 31.7683 25.2028 31.6656C25.1623 31.5902 25.019 31.295 25.1908 30.9556C25.2528 30.8332 25.3368 30.7534 25.3555 30.7357L25.3573 30.734C25.3897 30.703 25.4211 30.6775 25.4436 30.6598C25.4897 30.6236 25.5424 30.5866 25.593 30.5523C25.6968 30.4821 25.8358 30.394 25.9987 30.2936C26.3268 30.0913 26.783 29.8202 27.3194 29.5054C27.9253 29.1496 28.6436 28.7323 29.4065 28.2889C29.9923 27.9485 30.6045 27.5928 31.2124 27.2379C32.618 26.4173 34.007 25.5977 35.0344 24.9601C35.3543 24.7615 35.6345 24.5835 35.8668 24.4304C35.7235 24.3561 35.5678 24.2778 35.4053 24.1961L35.4019 24.1944C35.089 24.0371 34.7463 23.8647 34.48 23.7069C34.3485 23.6289 34.2074 23.5381 34.0896 23.4393C34.0308 23.3901 33.9578 23.3224 33.8926 23.2369C33.8334 23.1594 33.7337 23.007 33.7126 22.7942C33.6923 22.59 33.7598 22.4317 33.7872 22.3724C33.8223 22.2963 33.8637 22.2334 33.8949 22.1898C33.9583 22.1012 34.036 22.014 34.1096 21.9369C34.2606 21.7787 34.4654 21.5895 34.6951 21.3879C35.1587 20.9812 35.7765 20.4788 36.4008 19.9887C37.0264 19.4976 37.6673 19.012 38.1802 18.638C38.4361 18.4514 38.6643 18.2895 38.845 18.1674C38.9348 18.1067 39.0182 18.0523 39.0902 18.0084C39.1442 17.9755 39.2457 17.9145 39.3507 17.8757C39.5508 17.8017 39.729 17.8255 39.788 17.8342C39.8712 17.8464 39.9462 17.8676 40.0028 17.8859C40.118 17.9231 40.2432 17.9765 40.3649 18.0332C40.613 18.1488 40.9269 18.3163 41.2741 18.5125C41.9726 18.9073 42.8577 19.4479 43.7279 20.0015C44.5987 20.5556 45.4642 21.1288 46.1242 21.5909C46.4529 21.821 46.7386 22.0291 46.9505 22.1962C47.0552 22.2787 47.1527 22.3597 47.2315 22.4335C47.2704 22.47 47.3149 22.5142 47.3565 22.563ZM31.3272 35.5261C31.327 35.526 31.3273 35.5263 31.3272 35.5261V35.5261Z" fill="#453A7B"/>
<path fill-rule="evenodd" clip-rule="evenodd" d="M58.662 45.7108C58.6564 45.7115 58.6506 45.7121 58.6448 45.7128C58.4523 45.7346 58.1928 45.7697 57.8858 45.8155C57.2731 45.9069 56.4914 46.0378 55.7176 46.181C54.942 46.3245 54.1852 46.4782 53.6189 46.6148C53.5558 46.63 53.4959 46.6448 53.4392 46.6592C53.5375 46.804 53.6507 46.9643 53.7721 47.1356L53.7914 47.1628C53.9865 47.4382 54.2007 47.7405 54.3621 48.0016C54.4451 48.1359 54.5281 48.2814 54.5895 48.4219C54.6204 48.4925 54.6529 48.5778 54.6753 48.6711C54.696 48.7571 54.7202 48.8984 54.692 49.0611C54.651 49.2971 54.5125 49.4418 54.4395 49.5055C54.3615 49.5736 54.2845 49.6142 54.2388 49.636C54.1457 49.6803 54.0512 49.7073 53.9848 49.7241C53.8431 49.76 53.6659 49.7893 53.4778 49.8147C53.0936 49.8665 52.5634 49.9151 51.9472 49.9611C50.7102 50.0536 49.0708 50.1395 47.4349 50.2179C46.7194 50.2522 46.0059 50.285 45.3251 50.3162C44.4426 50.3567 43.6152 50.3947 42.9101 50.4302C42.4964 50.451 42.1287 50.4708 41.8201 50.4894C42.1418 51.034 42.5919 51.7473 43.0539 52.4792L43.0673 52.5004C43.5255 53.2263 43.994 53.9683 44.3387 54.5507C44.5116 54.8429 44.6627 55.1103 44.7672 55.3223C44.8181 55.4256 44.8689 55.5377 44.9045 55.6437C44.9218 55.6954 44.944 55.7701 44.9554 55.8556C44.9632 55.9146 44.9871 56.1118 44.8818 56.3228C44.8065 56.4736 44.6965 56.562 44.6701 56.5833L44.6684 56.5847C44.6247 56.6199 44.5828 56.6469 44.5538 56.6646C44.4943 56.7011 44.4279 56.7355 44.3663 56.7657C44.2396 56.8278 44.0715 56.902 43.8766 56.9842C43.4835 57.1501 42.9376 57.3667 42.2968 57.6155C41.4919 57.9281 40.5231 58.297 39.4987 58.687C38.8922 58.918 38.2662 59.1563 37.6433 59.3947C36.652 59.7742 35.6675 60.1543 34.774 60.5079C36.603 60.2804 38.8507 59.9663 41.0992 59.6304C43.6949 59.2426 46.2841 58.8268 48.2224 58.4835C49.1877 58.3125 49.9838 58.1608 50.537 58.0404C50.5238 58.0189 50.5103 57.997 50.4966 57.9747C50.2843 57.6308 50.0193 57.2199 49.7394 56.7858C49.651 56.6488 49.5611 56.5095 49.471 56.3692C49.1009 55.7935 48.7259 55.2022 48.4569 54.7305C48.324 54.4976 48.2041 54.2715 48.1235 54.0806C48.0845 53.9881 48.0417 53.8739 48.0172 53.7556C48.0049 53.6961 47.9918 53.6108 47.9959 53.5126C47.9997 53.4193 48.0213 53.2574 48.1296 53.0954C48.2372 52.9344 48.3787 52.8584 48.4215 52.8359C48.4832 52.8035 48.5404 52.7829 48.5782 52.7705C48.6553 52.7453 48.7368 52.7273 48.8064 52.7137C48.9506 52.6858 49.1361 52.6601 49.3448 52.6358C49.7669 52.5867 50.3475 52.5362 51.0249 52.4847C52.2247 52.3934 53.7607 52.2968 55.3255 52.1983C55.531 52.1854 55.7369 52.1724 55.9427 52.1594C57.7204 52.0473 59.4832 51.9334 60.8049 51.8222C61.3154 51.7792 61.7523 51.7373 62.0951 51.6969C62.0315 51.5649 61.959 51.4183 61.8786 51.2592C61.5319 50.5736 61.056 49.6906 60.5624 48.815C60.0684 47.9388 59.5625 47.0803 59.1563 46.4419C58.9565 46.128 58.7884 45.8794 58.662 45.7108ZM53.1423 46.1668C53.1423 46.1668 53.1426 46.1675 53.1431 46.169L53.1423 46.1668ZM63.8527 52.0391C63.8616 52.0812 63.8886 52.211 63.864 52.363C63.8228 52.6188 63.6664 52.769 63.5962 52.8275C63.5172 52.8932 63.4397 52.932 63.3951 52.9524C63.3031 52.9943 63.2084 53.0207 63.1397 53.0378C62.9931 53.0741 62.8065 53.1052 62.6039 53.1333C62.1913 53.1904 61.6187 53.2472 60.9504 53.3034C59.6098 53.4162 57.8305 53.5311 56.0562 53.643C55.8502 53.656 55.6443 53.669 55.4392 53.6819C53.872 53.7805 52.3471 53.8765 51.1581 53.9669C50.6298 54.007 50.1742 54.0456 49.8139 54.0823C50.058 54.5045 50.3949 55.0361 50.7479 55.5853C50.8343 55.7197 50.9216 55.8551 51.0085 55.9898C51.2905 56.427 51.5674 56.8563 51.7882 57.2142C51.9324 57.4478 52.0612 57.6646 52.1555 57.8417C52.202 57.9292 52.2475 58.0207 52.2829 58.1073L52.2845 58.1111C52.3066 58.1651 52.3763 58.3352 52.3696 58.5298C52.3627 58.7304 52.2779 58.8749 52.2195 58.9525C52.1605 59.0309 52.098 59.0823 52.0603 59.1105C51.9855 59.1665 51.9125 59.2012 51.873 59.2189C51.7866 59.2577 51.6892 59.2893 51.6035 59.3147C51.4237 59.3679 51.1785 59.4269 50.8896 59.4899C50.3063 59.6171 49.4833 59.7736 48.5067 59.9466C46.5506 60.2931 43.9471 60.7111 41.3427 61.1002C38.7388 61.4892 36.1265 61.8505 34.1537 62.083C33.1694 62.199 32.3335 62.2842 31.7343 62.3242C31.4385 62.3439 31.1795 62.3541 30.9827 62.3484C30.8898 62.3457 30.7745 62.3387 30.6646 62.316C30.6131 62.3054 30.5181 62.2827 30.416 62.23C30.3314 62.1863 30.089 62.0427 30.0077 61.7263C29.9515 61.5078 30.0042 61.3249 30.0523 61.2181C30.0994 61.1133 30.1605 61.0382 30.2001 60.9945C30.279 60.9074 30.3684 60.8413 30.4312 60.7982C30.5651 60.7063 30.7393 60.6111 30.9248 60.5178C31.3043 60.327 31.8387 60.091 32.4638 59.8296C33.7189 59.3047 35.4003 58.6519 37.0806 58.0087C37.71 57.7678 38.3388 57.5284 38.9463 57.2971C39.9665 56.9087 40.9263 56.5432 41.7272 56.2322C42.3465 55.9917 42.8623 55.787 43.232 55.6318C43.1741 55.529 43.1074 55.4138 43.0326 55.2874C42.6989 54.7237 42.2396 53.9961 41.7742 53.2589L41.7703 53.2527C41.3079 52.5202 40.8392 51.7777 40.5027 51.207C40.3361 50.9243 40.1908 50.6652 40.0938 50.4629C40.0477 50.3669 39.9967 50.2513 39.9644 50.1382C39.9496 50.0862 39.9245 49.9873 39.9254 49.8692C39.926 49.7782 39.9443 49.4572 40.2508 49.2429C40.3609 49.1659 40.47 49.1351 40.4946 49.1282L40.4969 49.1275C40.5395 49.1154 40.5787 49.1074 40.6067 49.1022C40.6642 49.0916 40.728 49.0832 40.7891 49.0762C40.9141 49.062 41.079 49.0481 41.2711 49.0343C41.6579 49.0066 42.1911 48.977 42.8162 48.9455C43.5224 48.91 44.3573 48.8716 45.2443 48.8309C45.9253 48.7996 46.637 48.7669 47.3447 48.733C48.9807 48.6547 50.6017 48.5695 51.816 48.4788C52.2027 48.4499 52.5426 48.4208 52.8255 48.3918C52.7357 48.2617 52.6371 48.1225 52.534 47.977L52.5319 47.974C52.332 47.6919 52.1124 47.3818 51.9531 47.1195C51.8744 46.9898 51.7928 46.8435 51.7358 46.7003C51.7073 46.6289 51.675 46.5339 51.6583 46.4265C51.6431 46.3281 51.6291 46.1463 51.7129 45.9492C51.7925 45.7623 51.9257 45.6562 51.9766 45.6178C52.0425 45.5681 52.1078 45.5325 52.1556 45.5087C52.2527 45.4605 52.362 45.4197 52.4637 45.3856C52.6722 45.3158 52.9434 45.243 53.2431 45.1707C53.8477 45.025 54.6348 44.8655 55.4218 44.7199C56.2105 44.574 57.0099 44.44 57.6426 44.3456C57.9582 44.2985 58.2375 44.2605 58.4554 44.2359C58.5638 44.2236 58.6634 44.2139 58.7477 44.2083C58.811 44.2041 58.9289 44.1969 59.0391 44.2108C59.2508 44.2373 59.3977 44.3405 59.4473 44.3765C59.516 44.4263 59.5728 44.4804 59.6144 44.523C59.6991 44.6098 59.7845 44.7153 59.8648 44.8216C60.0286 45.0384 60.2251 45.331 60.4369 45.6638C60.8631 46.3335 61.3835 47.2174 61.8843 48.1057C62.3855 48.9947 62.8728 49.8984 63.2324 50.6096C63.4115 50.9639 63.5634 51.2791 63.6701 51.5245C63.7228 51.6457 63.77 51.7627 63.8042 51.865C63.8211 51.9154 63.8394 51.9758 63.8527 52.0391ZM53.6086 48.2798C53.6086 48.2798 53.6079 48.28 53.6063 48.2805L53.6086 48.2798ZM43.4675 56.0941C43.4674 56.0939 43.4676 56.0944 43.4675 56.0941V56.0941Z" fill="#453A7B"/>
<path fill-rule="evenodd" clip-rule="evenodd" d="M5.10244 4.00658C5.10116 4.01153 5.09987 4.01654 5.09857 4.02162C5.05159 4.20464 4.99374 4.45351 4.92931 4.74979C4.80072 5.34103 4.65037 6.10057 4.51449 6.85723C4.3783 7.61567 4.25865 8.36017 4.18973 8.92446C4.18309 8.9788 4.17701 9.03085 4.17147 9.08055C4.34878 9.04131 4.54687 8.99344 4.75839 8.94205L4.79064 8.93422C5.12409 8.85319 5.48846 8.76464 5.79455 8.70972C5.9518 8.6815 6.11854 8.65744 6.27216 8.65109C6.34927 8.64791 6.44026 8.64835 6.53482 8.66046C6.62149 8.67157 6.76212 8.69844 6.90586 8.78037C7.1176 8.90104 7.21081 9.08164 7.24869 9.17721C7.28822 9.27696 7.30053 9.36568 7.30548 9.41713C7.31552 9.5217 7.30769 9.62051 7.30029 9.68783C7.28445 9.83191 7.24955 10.0055 7.20741 10.1865C7.12125 10.5564 6.98046 11.0583 6.80704 11.6372C6.45882 12.7994 5.96235 14.3268 5.45992 15.848C5.24013 16.5134 5.0196 17.1764 4.8092 17.809C4.53654 18.6289 4.2809 19.3975 4.06596 20.0538C3.9443 20.4252 3.83684 20.7572 3.74771 21.0388C4.38456 20.9373 5.22946 20.7779 6.09558 20.6142L6.12032 20.6096C6.9784 20.4474 7.8548 20.2819 8.53431 20.1729C8.87527 20.1182 9.18377 20.0749 9.42233 20.0545C9.53869 20.0445 9.6621 20.0378 9.77379 20.0427C9.82818 20.0451 9.90529 20.0511 9.98855 20.0702C10.0437 20.0829 10.2394 20.1293 10.4054 20.3009C10.5269 20.4265 10.5747 20.5632 10.5864 20.5965L10.587 20.5984C10.6062 20.6529 10.6177 20.7026 10.6247 20.7362C10.639 20.8052 10.6487 20.8795 10.6559 20.9469C10.6709 21.0856 10.6827 21.2662 10.6928 21.4734C10.713 21.8915 10.728 22.4668 10.7404 23.1397C10.7559 23.985 10.7675 25.0001 10.7798 26.0731C10.7871 26.7083 10.7946 27.3638 10.8033 28.0165C10.8176 29.0848 10.835 30.1467 10.8596 31.1082C11.293 29.3408 11.7954 27.1359 12.2764 24.9221C12.8209 22.4156 13.3363 19.9053 13.6914 18.0149C13.8655 17.0877 13.9997 16.3173 14.0799 15.7718C14.0517 15.7768 14.023 15.7819 13.9935 15.7871C13.5885 15.8595 13.1003 15.9565 12.5853 16.0588C12.4227 16.0911 12.2575 16.124 12.0913 16.1567C11.4085 16.2913 10.7102 16.4247 10.1642 16.5036C9.89437 16.5426 9.63717 16.572 9.42808 16.5781C9.32669 16.581 9.2049 16.5797 9.08596 16.5608C9.02639 16.5513 8.94224 16.5337 8.85158 16.4962C8.76678 16.4611 8.61816 16.3848 8.4984 16.2252C8.37759 16.0642 8.35331 15.9008 8.34648 15.8511C8.33673 15.78 8.33725 15.7181 8.33879 15.6781C8.34193 15.5965 8.35366 15.514 8.36537 15.4452C8.38966 15.3024 8.43076 15.1231 8.48121 14.9238C8.58329 14.5206 8.73996 13.9722 8.92977 13.3355C9.26594 12.2078 9.71562 10.7713 10.1737 9.30793C10.2338 9.11577 10.2941 8.92315 10.3543 8.73071C10.8744 7.06809 11.3875 5.41884 11.7475 4.17324C11.8824 3.70622 11.9937 3.30319 12.0753 2.98115C11.9254 2.99265 11.7583 3.00718 11.5765 3.02454C10.796 3.09902 9.78064 3.22183 8.76648 3.36339C7.75157 3.50505 6.74903 3.66393 5.99248 3.80963C5.6137 3.88258 5.31058 3.94958 5.10244 4.00658ZM12.22 2.29676C12.22 2.29675 12.22 2.29722 12.2199 2.29818L12.22 2.29676ZM14.8008 15.6751C14.8004 15.6753 14.7941 15.6754 14.783 15.6746C14.7957 15.6744 14.8013 15.6748 14.8008 15.6751ZM13.0034 1.471C13.0453 1.47752 13.1757 1.498 13.3102 1.57262C13.5407 1.70055 13.6333 1.8998 13.667 1.99135C13.7039 2.09131 13.7142 2.17976 13.7181 2.2295C13.7261 2.33206 13.7177 2.43059 13.7096 2.50006C13.6925 2.64861 13.6561 2.83134 13.6115 3.02641C13.5204 3.42411 13.3725 3.96747 13.1904 4.5975C12.8251 5.86157 12.307 7.52683 11.7879 9.18612C11.7277 9.37874 11.6674 9.5713 11.6073 9.76317C11.1486 11.2287 10.7023 12.6546 10.3692 13.7718C10.2254 14.2541 10.1045 14.6731 10.0135 15.0096C10.5062 14.9357 11.1375 14.8154 11.7906 14.6866C11.9501 14.6552 12.111 14.6232 12.2709 14.5915C12.7895 14.4884 13.2983 14.3873 13.719 14.3121C13.9937 14.263 14.246 14.2221 14.4478 14.1988C14.5475 14.1872 14.6498 14.1782 14.7434 14.1765L14.7475 14.1764C14.8061 14.1753 14.9876 14.1718 15.1665 14.2444C15.5093 14.3837 15.6039 14.6934 15.6183 14.7405C15.6186 14.7415 15.6189 14.7424 15.6191 14.7431C15.6477 14.8354 15.6555 14.9177 15.6586 14.9612C15.6655 15.0566 15.6613 15.1587 15.6553 15.2464C15.6427 15.4307 15.6125 15.6765 15.5709 15.9627C15.4869 16.5407 15.3463 17.3479 15.1673 18.3006C14.8089 20.2092 14.2904 22.7339 13.7439 25.2491C13.1976 27.7639 12.6216 30.2766 12.1479 32.1602C11.9115 33.0999 11.698 33.8937 11.5246 34.4555C11.439 34.7328 11.3571 34.9736 11.2817 35.1522C11.2461 35.2366 11.1983 35.3403 11.1373 35.4333C11.1086 35.4771 11.0535 35.5552 10.9682 35.6287C10.8963 35.6906 10.6834 35.8519 10.3684 35.8164C9.95091 35.7694 9.77063 35.4361 9.74083 35.381L9.73995 35.3793C9.68237 35.273 9.64968 35.1648 9.6302 35.091C9.58865 34.9336 9.55862 34.7388 9.5346 34.5359C9.48542 34.1206 9.44783 33.5482 9.41785 32.8851C9.35764 31.5533 9.32535 29.7872 9.3019 28.0262C9.29311 27.3663 9.28556 26.7076 9.27827 26.0713C9.26604 25.003 9.25452 23.9979 9.23907 23.157C9.2273 22.5165 9.21338 21.9804 9.19553 21.5902C9.07314 21.6071 8.93499 21.6279 8.78246 21.6524C8.12349 21.7581 7.26319 21.9206 6.39234 22.0851L6.38463 22.0866C5.51885 22.2502 4.6422 22.4158 3.97687 22.5214C3.64719 22.5737 3.34892 22.6146 3.1225 22.6316C3.01487 22.6397 2.88861 22.6453 2.77194 22.6351C2.71859 22.6304 2.6181 22.6188 2.50831 22.5775C2.43011 22.5481 2.11949 22.4186 2.01775 22.0469C1.98094 21.9124 1.99044 21.7963 1.99253 21.7706L1.99273 21.7682C1.99624 21.7234 2.00264 21.6836 2.00766 21.6557C2.01796 21.5983 2.03262 21.5364 2.04758 21.4779C2.07821 21.3581 2.12322 21.2023 2.17789 21.0219C2.28798 20.6587 2.44784 20.1613 2.63839 19.5795C2.85366 18.9222 3.11171 18.1463 3.38581 17.3221C3.59628 16.6893 3.81621 16.028 4.03351 15.3701C4.53598 13.8488 5.02654 12.3392 5.36816 11.199C5.4731 10.8487 5.56244 10.5383 5.63322 10.2762C5.47445 10.3127 5.30368 10.3542 5.12551 10.3975L5.12173 10.3984C4.77994 10.4814 4.4062 10.5722 4.09984 10.6247C3.94854 10.6507 3.78197 10.6731 3.62785 10.6746C3.55104 10.6753 3.45145 10.6714 3.3458 10.6494C3.25056 10.6295 3.07342 10.5796 2.91366 10.4331C2.75925 10.2915 2.70218 10.1271 2.68224 10.0635C2.65683 9.98253 2.64538 9.90757 2.6393 9.85416C2.62695 9.74572 2.62653 9.62941 2.62978 9.52385C2.63647 9.30713 2.66261 9.03262 2.69918 8.73317C2.77299 8.12885 2.89813 7.35329 3.03642 6.58317C3.17503 5.81126 3.32886 5.03376 3.46181 4.42245C3.52814 4.11746 3.59038 3.84869 3.6438 3.64056C3.67037 3.53704 3.69634 3.44227 3.7209 3.36274C3.73927 3.30326 3.77456 3.19141 3.82757 3.09414C3.92822 2.90945 4.07784 2.81332 4.12701 2.78253C4.19712 2.73862 4.26724 2.70663 4.32175 2.68413C4.43273 2.6383 4.56231 2.59806 4.69192 2.56246C4.95605 2.48993 5.30474 2.41405 5.69825 2.33827C6.48988 2.18581 7.52033 2.02288 8.54853 1.87936C9.57748 1.73574 10.6154 1.61001 11.4235 1.53289C11.826 1.49447 12.1811 1.46719 12.4529 1.45649C12.5872 1.4512 12.7148 1.44936 12.8233 1.45418C12.8769 1.45655 12.9398 1.4611 13.0034 1.471Z" fill="#453A7B"/>
</svg>
