<svg width="64" height="64" viewBox="0 0 64 64" fill="none" xmlns="http://www.w3.org/2000/svg">
<path fill-rule="evenodd" clip-rule="evenodd" d="M14.3982 34.746C13.9893 34.691 13.7035 34.3123 13.7597 33.9003L13.7628 33.8777C13.9621 32.4167 14.6813 27.1463 16.0064 23.6511C17.3185 20.1905 20.401 13.9721 26.1462 10.8383C26.5097 10.64 26.9628 10.7755 27.1582 11.1409C27.3536 11.5062 27.2173 11.9632 26.8538 12.1615C21.599 15.0278 18.6815 20.8094 17.4023 24.1834C16.1432 27.5046 15.4409 32.6296 15.2403 34.0995C15.1841 34.5116 14.807 34.801 14.3982 34.746Z" fill="#453A7B"/>
<path fill-rule="evenodd" clip-rule="evenodd" d="M22.6719 40.6519C21.7281 36.0086 22.1871 30.0401 25.8526 23.6259C32.0317 12.813 43.3346 7.75633 59.4567 6.74864C59.8687 6.72289 60.2221 7.03838 60.246 7.4533C60.27 7.86822 59.9554 8.22546 59.5434 8.25121C43.6654 9.24364 32.9683 14.1865 27.1471 24.3731C23.5077 30.7417 23.231 36.5733 24.2677 40.9421C25.828 41.3578 27.2265 42.1221 28.3559 43.0187C29.6769 44.0673 30.6868 45.338 31.1769 46.5314C31.4216 47.1273 31.5561 47.7516 31.489 48.3411C31.4192 48.955 31.1294 49.5135 30.5806 49.8927C29.9694 50.3151 29.2463 50.294 28.5987 50.0653C27.9552 49.8381 27.3025 49.3839 26.6855 48.7831C25.4457 47.5759 24.2195 45.6503 23.3726 43.2159C23.2604 42.8933 23.1547 42.5613 23.0564 42.2205C21.4767 41.9639 19.7566 42.1481 18.0253 43.0244C12.1186 46.0143 8.24731 52.2058 8.24731 62.4969C8.24731 62.9126 7.91275 63.2509 7.50005 63.2526C7.08735 63.2542 6.75279 62.9185 6.75279 62.5028C6.7528 51.7938 10.8217 44.9886 17.3585 41.6798C19.1849 40.7552 20.9934 40.4877 22.6719 40.6519ZM24.7732 42.6839C24.7765 42.6936 24.7799 42.7034 24.7833 42.7131C25.5687 44.9711 26.6834 46.6832 27.7264 47.6987C28.2508 48.2093 28.7249 48.5127 29.098 48.6444C29.4668 48.7746 29.6499 48.7136 29.7385 48.6524C29.8896 48.5479 29.9782 48.4044 30.0042 48.1755C30.033 47.9222 29.9809 47.5628 29.7956 47.1116C29.4257 46.2109 28.6019 45.1343 27.428 44.2025C26.6563 43.5899 25.758 43.0577 24.7732 42.6839Z" fill="#453A7B"/>
</svg>
