<svg width="64" height="64" viewBox="0 0 64 64" fill="none" xmlns="http://www.w3.org/2000/svg">
<path fill-rule="evenodd" clip-rule="evenodd" d="M29.218 13.6985C18.6611 13.9512 8.06476 14.818 1.537 15.5398C1.12529 15.5854 0.754635 15.2885 0.709108 14.8768C0.663581 14.4651 0.960426 14.0945 1.37213 14.0489C7.93528 13.3232 18.5753 12.4528 29.1821 12.1989C39.7594 11.9457 50.406 12.3015 56.9238 14.0706C58.9465 14.6196 60.409 15.204 61.3433 15.8451C62.2764 16.4853 62.8779 17.3382 62.6264 18.3704C62.4102 19.2577 61.6031 19.9826 60.675 20.5813C59.7038 21.2078 58.4068 21.816 56.911 22.4046C52.1641 24.2724 45.0427 26.0808 38.8735 27.6473C37.2917 28.049 35.7724 28.4348 34.3719 28.8016C30.9388 29.7007 28.1686 30.625 26.1126 31.5356C24.0195 32.4626 22.788 33.3244 22.2844 34.0362C22.0499 34.3676 22.0183 34.6014 22.0494 34.7707C22.0832 34.9539 22.2192 35.2173 22.6228 35.5407C23.4523 36.2053 25.1119 36.8829 27.7983 37.4771C32.1579 38.4413 36.8126 39.078 41.1242 39.6677C43.2632 39.9603 45.3177 40.2413 47.2098 40.5451C50.0297 40.9977 52.5076 41.5049 54.2921 42.1916C55.1833 42.5345 55.9573 42.9426 56.5189 43.4536C57.0957 43.9783 57.4773 44.642 57.4773 45.4475C57.4773 45.9715 57.2179 46.4337 56.8956 46.8111C56.5668 47.1961 56.1084 47.5689 55.5592 47.9293C54.4582 48.6518 52.8766 49.3986 50.8968 50.1318C46.9286 51.6013 41.2413 53.0593 34.2983 54.1503C33.8891 54.2146 33.5052 53.935 33.4409 53.5258C33.3766 53.1166 33.6562 52.7328 34.0654 52.6685C40.9406 51.5881 46.526 50.1508 50.3759 48.7251C52.3053 48.0106 53.7691 47.3098 54.7363 46.6752C55.2211 46.357 55.5526 46.0739 55.755 45.8369C55.964 45.5922 55.9773 45.4664 55.9773 45.4475C55.9773 45.1672 55.8589 44.881 55.5095 44.5631C55.145 44.2315 54.5667 43.9045 53.7534 43.5915C52.1288 42.9663 49.7885 42.4782 46.9721 42.0261C45.1479 41.7333 43.1308 41.4572 41.0121 41.1671C36.6654 40.572 31.8905 39.9184 27.4744 38.9417C24.754 38.34 22.8011 37.6055 21.685 36.7114C21.1158 36.2554 20.6958 35.7028 20.5742 35.0421C20.4501 34.3674 20.664 33.7294 21.0599 33.1698C21.8171 32.0996 23.3859 31.1027 25.5052 30.1641C27.6615 29.2091 30.5157 28.2609 33.9918 27.3505C35.4244 26.9753 36.9675 26.5834 38.566 26.1773C44.7284 24.6121 51.7134 22.8378 56.3618 21.0087C57.8205 20.4347 59.0122 19.869 59.8619 19.3208C60.7549 18.7447 61.1012 18.294 61.1691 18.0153C61.2016 17.8816 61.2179 17.5781 60.4948 17.082C59.7729 16.5867 58.508 16.0549 56.5308 15.5182C50.2486 13.813 39.8043 13.445 29.218 13.6985Z" fill="#44358C"/>
</svg>
