<svg width="65" height="64" viewBox="0 0 65 64" fill="none" xmlns="http://www.w3.org/2000/svg">
<path fill-rule="evenodd" clip-rule="evenodd" d="M3.20586 14.0994C3.58041 13.9225 4.02743 14.0827 4.20432 14.4573L5.77577 17.7846C5.95266 18.1591 5.79243 18.6062 5.41789 18.783C5.04335 18.9599 4.59632 18.7997 4.41943 18.4252L2.84798 15.0978C2.67109 14.7233 2.83132 14.2763 3.20586 14.0994Z" fill="#453A7B"/>
<path fill-rule="evenodd" clip-rule="evenodd" d="M0.84986 8.88959C1.22608 8.71629 1.67155 8.88079 1.84485 9.25701L2.42117 10.5082C2.59447 10.8844 2.42997 11.3299 2.05375 11.5032C1.67754 11.6765 1.23206 11.512 1.05877 11.1357L0.482439 9.88457C0.309141 9.50835 0.473641 9.06288 0.84986 8.88959Z" fill="#453A7B"/>
<path fill-rule="evenodd" clip-rule="evenodd" d="M63.7835 16.8411C64.1345 17.0611 64.2407 17.5239 64.0208 17.8749L60.2621 23.8726C60.0422 24.2236 59.5794 24.3299 59.2284 24.1099C58.8774 23.8899 58.7712 23.4271 58.9911 23.0761L62.7497 17.0784C62.9697 16.7274 63.4325 16.6212 63.7835 16.8411Z" fill="#453A7B"/>
<path fill-rule="evenodd" clip-rule="evenodd" d="M32.5227 0.413574C32.9369 0.413574 33.2727 0.749361 33.2727 1.16357L33.2727 10.8219C33.2727 11.2361 32.9369 11.5719 32.5227 11.5719C32.1085 11.5719 31.7727 11.2361 31.7727 10.8219L31.7727 1.16357C31.7727 0.749361 32.1085 0.413574 32.5227 0.413574Z" fill="#453A7B"/>
<path fill-rule="evenodd" clip-rule="evenodd" d="M33.1446 19.9161C33.3893 20.0838 33.5114 20.3346 33.576 20.4964C33.7531 20.94 34.1789 22.4713 34.7092 24.4892C35.2479 26.5394 35.9124 29.1632 36.5722 31.8525C37.8854 37.2054 39.1992 42.8938 39.4459 44.7879C39.4821 45.0665 39.523 45.2782 39.5641 45.4358C39.6009 45.3978 39.6411 45.3544 39.685 45.3048C40.0257 44.9196 40.4297 44.3453 40.9241 43.6424L40.9824 43.5597C41.4904 42.8377 42.0736 42.0143 42.716 41.244C43.7776 39.9711 44.7652 38.622 45.6873 37.3622C46.2539 36.5882 46.7959 35.8478 47.3151 35.1796C47.9695 34.3375 48.6016 33.5943 49.1718 33.1384C49.4529 32.9136 49.7884 32.701 50.1595 32.6252C50.5865 32.538 51.0213 32.6433 51.358 32.9806C51.5721 33.1951 51.6528 33.4703 51.6909 33.6506C51.7338 33.8538 51.7506 34.081 51.7537 34.3109C51.76 34.7733 51.7117 35.3511 51.631 35.9886C51.4688 37.2695 51.162 38.8929 50.8203 40.528C50.4778 42.1669 50.0963 43.836 49.7818 45.2113C49.5384 46.2757 49.3399 47.1441 49.2264 47.6979C49.4145 47.6062 49.6348 47.4857 49.8885 47.3376C50.3451 47.0711 50.87 46.7392 51.4627 46.3643C51.6841 46.2243 51.915 46.0783 52.1554 45.9274C53.0288 45.3793 54.0066 44.7809 55.0378 44.2246L55.23 44.121C57.1871 43.065 59.4185 41.8611 61.0199 41.2073C61.4368 41.0371 61.8297 40.8964 62.1761 40.8049C62.5002 40.7193 62.8712 40.652 63.2052 40.7039C63.3825 40.7314 63.6057 40.801 63.798 40.9744C64.004 41.1601 64.1046 41.4018 64.1289 41.6384C64.1703 42.0412 63.9943 42.4456 63.8137 42.772C63.0985 44.0646 60.6588 47.4385 58.446 50.4308C57.3298 51.9402 56.2566 53.3718 55.4627 54.4259C55.0657 54.953 54.7384 55.3859 54.5103 55.687L54.1533 56.1575C54.1533 56.1576 54.1529 56.158 53.556 55.7039C52.9591 55.2498 52.9592 55.2497 52.9592 55.2497L53.3146 54.7813C53.542 54.4811 53.8684 54.0494 54.2645 53.5235C55.0568 52.4716 56.1271 51.0437 57.24 49.5389C59.3314 46.7108 61.5231 43.677 62.343 42.318C62.1259 42.3862 61.8729 42.4793 61.5868 42.5961C60.0619 43.2186 57.8885 44.3911 55.8915 45.4685L55.75 45.5448C54.7626 46.0774 53.8179 46.6551 52.9527 47.198C52.7264 47.34 52.5039 47.4807 52.2871 47.6178C51.6851 47.9985 51.1261 48.352 50.6446 48.6331C50.315 48.8255 50.0032 48.995 49.7222 49.1223C49.4546 49.2437 49.1552 49.355 48.866 49.3821C48.5646 49.4104 48.1019 49.352 47.82 48.9168C47.5933 48.5666 47.6203 48.1555 47.6666 47.874C47.7497 47.3688 47.9987 46.2799 48.3014 44.9565L48.3195 44.8769C48.6344 43.5 49.0128 41.8442 49.352 40.2212C49.6919 38.5945 49.9885 37.0192 50.1429 35.8001C50.2205 35.1876 50.2587 34.6902 50.2538 34.3314C50.2532 34.2854 50.2519 34.2433 50.25 34.205C50.209 34.2328 50.1619 34.2673 50.1085 34.31C49.6919 34.6431 49.1552 35.2563 48.4995 36.1C48.0352 36.6975 47.5151 37.4071 46.9575 38.1679C46.0066 39.4652 44.9466 40.9114 43.868 42.2047C43.2701 42.9217 42.7193 43.6977 42.2091 44.4228C42.1797 44.4646 42.1504 44.5063 42.1211 44.5479C41.6554 45.2103 41.2068 45.8483 40.8085 46.2987C40.5986 46.5359 40.3608 46.7705 40.1018 46.9285C39.8437 47.086 39.4307 47.2435 38.9823 47.0551C38.5714 46.8824 38.3579 46.5081 38.2379 46.2047C38.1094 45.8798 38.0216 45.467 37.9584 44.9816C37.7253 43.1911 36.4383 37.6021 35.1154 32.2099C34.4571 29.5267 33.7947 26.911 33.2584 24.8704C32.9609 23.7382 32.7073 22.8035 32.5167 22.1339C32.2794 22.783 32.0083 23.6758 31.7105 24.764C31.0807 27.0649 30.3656 30.1066 29.6268 33.2495C29.4031 34.201 29.1773 35.1617 28.9509 36.114C28.082 39.77 27.6056 42.874 27.2705 45.0573C27.2345 45.292 27.2001 45.516 27.1671 45.7289C27.0017 46.7941 26.859 47.66 26.6948 48.1535C26.6523 48.2814 26.5944 48.429 26.5108 48.5613C26.4423 48.6696 26.2603 48.9234 25.9141 48.9941C25.5168 49.0753 25.2322 48.8594 25.108 48.7339C24.9817 48.6063 24.894 48.4531 24.8329 48.3307C24.7685 48.2015 24.5703 47.8989 24.2223 47.4211C23.8875 46.9616 23.4461 46.3828 22.9301 45.7238C21.8988 44.4067 20.5815 42.7843 19.2503 41.184C17.919 39.5836 16.5777 38.0099 15.4985 36.7899C15.0782 36.3147 14.6999 35.8957 14.3788 35.551C14.3904 35.7244 14.4053 35.9131 14.4236 36.1164C14.5547 37.5725 14.8424 39.6177 15.1816 41.7533C15.861 46.0316 16.7301 50.5715 16.9154 51.314C16.9431 51.4252 16.9731 51.6103 16.9146 51.8174C16.8452 52.0628 16.6742 52.2576 16.4479 52.3603C16.2571 52.447 16.0755 52.4471 15.967 52.4385C15.8493 52.4292 15.7388 52.4029 15.646 52.3752C15.2977 52.271 14.842 52.0339 14.3619 51.7556C13.3703 51.1808 12.0013 50.2658 10.5744 49.2967C10.2394 49.0692 9.90076 48.8384 9.56196 48.6074C8.44613 47.8469 7.32855 47.0851 6.3342 46.4365C5.68677 46.0141 5.10042 45.6456 4.60832 45.3605C4.1026 45.0676 3.74107 44.8894 3.52834 44.8184C3.52671 44.8178 3.52509 44.8173 3.52349 44.8168C3.56748 44.9943 3.64471 45.2207 3.76129 45.4978C4.30509 46.7902 5.52587 48.7754 7.10152 51.0712C8.56009 53.1964 10.1152 55.1811 11.623 57.0837C11.7618 57.2589 11.9004 57.4336 12.0385 57.6076C13.3936 59.3156 14.7032 60.9663 15.8329 62.5745C16.071 62.9135 15.9892 63.3812 15.6503 63.6193C15.3114 63.8574 14.8436 63.7757 14.6055 63.4367C13.5025 61.8665 12.2208 60.2509 10.8597 58.5352C10.723 58.363 10.5855 58.1897 10.4474 58.0154C8.93907 56.1122 7.35535 54.0918 5.86478 51.92C4.29075 49.6266 2.98836 47.5285 2.37869 46.0795C2.22455 45.7132 2.10386 45.3636 2.03753 45.0465C1.97496 44.7474 1.94037 44.3857 2.05436 44.0481C2.19215 43.6399 2.51595 43.3602 2.9404 43.277C3.29476 43.2074 3.66804 43.2836 4.00344 43.3956C4.37298 43.519 4.84846 43.7661 5.3602 44.0626C5.88556 44.3669 6.49711 44.7518 7.15373 45.1801C8.16213 45.8379 9.29766 46.6119 10.4161 47.3743C10.7526 47.6037 11.0876 47.832 11.4171 48.0558C12.853 49.031 14.1771 49.9146 15.1142 50.4578C15.1481 50.4775 15.1812 50.4965 15.2135 50.5149C14.852 48.7012 14.2183 45.2513 13.7002 41.9886C13.36 39.8466 13.0655 37.76 12.9297 36.2509C12.8626 35.5058 12.8301 34.86 12.8601 34.4111C12.8732 34.2146 12.9032 33.9351 13.0213 33.705C13.0829 33.585 13.2325 33.3537 13.537 33.258C13.8637 33.1554 14.1352 33.2791 14.2751 33.3725C14.5035 33.525 14.8421 33.8601 15.2041 34.2395C15.5917 34.6457 16.0764 35.1792 16.6221 35.7961C17.7143 37.0309 19.066 38.6169 20.4035 40.2247C21.741 41.8326 23.0681 43.467 24.1112 44.7991C24.6324 45.4647 25.0856 46.0586 25.4347 46.5379C25.4571 46.5686 25.4792 46.5991 25.5011 46.6294C25.5563 46.3132 25.6167 45.9372 25.6848 45.4988C25.7177 45.2872 25.752 45.0638 25.788 44.8291C26.123 42.6453 26.6079 39.4852 27.4916 35.7672C27.7151 34.827 27.939 33.8744 28.1615 32.928C28.9017 29.7788 29.626 26.6979 30.2637 24.368C30.6751 22.8647 31.0654 21.6168 31.4167 20.8598C31.5062 20.667 31.6024 20.4854 31.7068 20.3314C31.8008 20.1928 31.949 20.0037 32.1658 19.8807C32.2846 19.8133 32.4446 19.7541 32.6354 19.7551C32.8324 19.7562 33.0063 19.8213 33.1446 19.9161ZM32.1737 21.0312C32.17 21.0252 32.1684 21.0216 32.1685 21.0214C32.1686 21.0211 32.1704 21.0242 32.1737 21.0312ZM53.556 55.7039L52.9592 55.2497C52.7084 55.5793 52.7723 56.05 53.1019 56.3008C53.4316 56.5516 53.9025 56.4871 54.1533 56.1575L53.556 55.7039Z" fill="#453A7B"/>
</svg>
