<svg width="64" height="64" viewBox="0 0 64 64" fill="none" xmlns="http://www.w3.org/2000/svg">
<path fill-rule="evenodd" clip-rule="evenodd" d="M31.1237 6.94238C29.7043 10.5323 27.6255 15.767 24.9989 21.649C22.3596 27.5595 19.8198 31.6506 17.7021 34.3698C15.6073 37.0594 13.8732 38.4742 12.819 38.9213C12.4377 39.083 11.9975 38.905 11.8357 38.5237C11.674 38.1423 11.852 37.7021 12.2333 37.5403C12.9255 37.2468 14.4658 36.0839 16.5186 33.4481C18.5485 30.8417 21.0294 26.8594 23.6292 21.0374C26.2417 15.1871 28.3104 9.97811 29.7288 6.39084C29.7765 6.27019 29.8235 6.15129 29.8698 6.03421C30.5091 4.41689 31.0122 3.14427 31.3612 2.33518C31.5409 1.91851 31.704 1.56604 31.8371 1.35935C31.8711 1.30656 31.9257 1.22702 31.9998 1.15319C32.0367 1.11633 32.102 1.057 32.1949 1.00641C32.2865 0.95646 32.4584 0.886703 32.6778 0.917486C33.1781 0.987675 33.3071 1.43704 33.323 1.49422C33.3564 1.61479 33.3592 1.72739 33.3592 1.78922C33.3592 2.00018 33.3034 2.66039 33.2194 3.57768C33.1329 4.52156 33.0107 5.79539 32.8676 7.2823C32.8518 7.44664 32.8357 7.61361 32.8194 7.78304C32.5403 10.681 32.1918 14.3 31.8725 17.8681C31.5344 21.6467 31.2298 25.3594 31.0749 28.0945C31.0016 29.3882 30.9628 30.4477 30.9682 31.1877C31.0104 31.1576 31.0538 31.1264 31.0985 31.0942C31.6814 30.6746 32.4624 30.0981 33.3798 29.4139C34.9153 28.2686 36.8238 26.8285 38.8079 25.3313C39.1938 25.0401 39.5824 24.7469 39.9718 24.4532C42.3618 22.6502 44.7771 20.832 46.7045 19.4087C47.6679 18.6972 48.5127 18.082 49.1731 17.6157C49.8122 17.1643 50.3287 16.8161 50.6057 16.6751C50.6671 16.6439 50.7634 16.601 50.8823 16.5795C50.9986 16.5585 51.2129 16.5451 51.4334 16.6707C51.6707 16.806 51.7747 17.0208 51.8132 17.176C51.8484 17.3176 51.8397 17.4413 51.8309 17.5124C51.8002 17.7602 51.6695 18.047 51.557 18.2748C51.3 18.7957 50.8453 19.5648 50.2722 20.4823C49.1185 22.3293 47.4199 24.88 45.6746 27.4793C45.2486 28.1139 44.8197 28.7514 44.395 29.3828C43.076 31.3434 41.7971 33.2446 40.7672 34.8123C40.086 35.8491 39.5193 36.7317 39.1244 37.3845C39.0305 37.5396 38.9478 37.6795 38.8764 37.8036C39.3458 37.861 40.0082 37.9003 40.8227 37.9228C42.5818 37.9712 44.9525 37.939 47.3784 37.8737C50.3626 37.7933 53.456 37.6612 55.5299 37.5727C56.7953 37.5186 57.6812 37.4808 57.9313 37.4808C57.995 37.4808 58.1255 37.486 58.2696 37.5466C58.4379 37.6174 58.6529 37.7817 58.7267 38.0773C58.7888 38.3255 58.7122 38.5249 58.6747 38.6067C58.6315 38.7006 58.5782 38.7719 58.5433 38.8148C58.4179 38.969 58.2207 39.1254 58.0438 39.2571C57.6529 39.5481 57.0374 39.9501 56.2856 40.4187C54.7732 41.3615 52.6293 42.6232 50.4243 43.9051C49.2999 44.5587 48.1695 45.2119 47.0944 45.8331C46.0443 46.4399 45.0468 47.0163 44.1591 47.5329C43.2677 48.0517 42.5029 48.501 41.9326 48.8453C41.8119 48.9182 41.7006 48.9859 41.5992 49.0483C41.9559 49.2822 42.4525 49.5706 43.0639 49.902C44.5759 50.7216 46.6768 51.7439 48.7836 52.7486C49.5246 53.1019 50.2667 53.4533 50.9825 53.7922C52.2923 54.4124 53.5138 54.9908 54.4777 55.4626C55.22 55.826 55.8322 56.1371 56.2212 56.3614C56.3944 56.4613 56.5953 56.5836 56.7281 56.7087C56.7641 56.7426 56.83 56.8085 56.8871 56.9026C56.9321 56.9768 57.066 57.223 56.9695 57.5381C56.8638 57.8833 56.5804 58.0101 56.4659 58.0476C56.3443 58.0874 56.2368 58.0904 56.1849 58.0904C55.5574 58.0904 49.2712 58.2889 42.3111 58.8876C38.8335 59.1867 35.2009 59.5847 32.0308 60.1053C28.8366 60.6299 26.1924 61.267 24.6398 62.0157C24.2667 62.1956 23.8184 62.0389 23.6385 61.6658C23.4586 61.2927 23.6152 60.8444 23.9883 60.6645C25.7537 59.8133 28.5888 59.1505 31.7878 58.6252C35.011 58.0958 38.6858 57.6939 42.1826 57.3931C46.6888 57.0055 50.9214 56.784 53.5429 56.6756C52.6356 56.2346 51.535 55.7135 50.3544 55.1545C49.6367 54.8147 48.8894 54.4608 48.138 54.1025C46.033 53.0987 43.8995 52.0612 42.3491 51.2208C41.5793 50.8035 40.9245 50.4196 40.4852 50.103C40.2762 49.9523 40.0597 49.7777 39.9119 49.5893C39.8421 49.5004 39.7276 49.3347 39.6921 49.1101C39.6467 48.8229 39.7458 48.5285 39.9785 48.3282C40.0844 48.237 40.2548 48.1231 40.43 48.0107C40.6208 47.8882 40.8671 47.7364 41.1573 47.5612C41.7386 47.2103 42.512 46.7559 43.4047 46.2365C44.2809 45.7265 45.2877 45.1447 46.3462 44.533C47.4283 43.9078 48.5644 43.2513 49.6704 42.6083C51.8761 41.326 54.0016 40.0748 55.4922 39.1457C55.5331 39.1202 55.5734 39.095 55.6132 39.0701C53.5719 39.1579 50.4867 39.2905 47.4188 39.3731C44.9877 39.4386 42.5832 39.4719 40.7814 39.4222C39.8849 39.3975 39.1127 39.3517 38.5544 39.2743C38.2821 39.2365 38.0174 39.1857 37.8043 39.1086C37.7014 39.0714 37.5598 39.0105 37.4309 38.9064C37.2998 38.8005 37.0983 38.5768 37.0983 38.2308C37.0983 38.0387 37.1669 37.8662 37.1947 37.7971C37.2354 37.6954 37.2892 37.5836 37.3485 37.469C37.4682 37.238 37.6367 36.9456 37.841 36.608C38.251 35.9303 38.8303 35.0286 39.5135 33.9887C40.5483 32.4135 41.8341 30.5022 43.1543 28.5398C43.5781 27.9097 44.0055 27.2744 44.4293 26.6432C46.1767 24.0405 47.8616 21.5102 49 19.6877C49.0392 19.6248 49.0778 19.563 49.1155 19.5021C48.6582 19.8334 48.1476 20.2076 47.5956 20.6153C45.6753 22.0334 43.2659 23.8472 40.8751 25.6507C40.4861 25.9441 40.0975 26.2373 39.7117 26.5284C37.728 28.0254 35.8156 29.4684 34.2766 30.6163C33.3576 31.3017 32.5684 31.8844 31.9748 32.3117C31.6784 32.525 31.4269 32.7023 31.2306 32.8353C31.0561 32.9536 30.8719 33.0742 30.739 33.1352C30.5429 33.2251 30.2888 33.2455 30.0477 33.1262C29.8462 33.0265 29.7396 32.8704 29.6917 32.7877C29.5971 32.6245 29.5592 32.4436 29.5397 32.3327C29.495 32.0782 29.4758 31.7317 29.4698 31.3398C29.4576 30.5396 29.4993 29.3868 29.5773 28.0097C29.7336 25.2485 30.0401 21.5151 30.3785 17.7344C30.6983 14.161 31.0472 10.5373 31.3262 7.63998C31.3425 7.4703 31.3586 7.30311 31.3745 7.13856C31.4111 6.75796 31.4464 6.39161 31.48 6.04139C31.4082 6.2229 31.3343 6.40983 31.2583 6.60206C31.2141 6.71372 31.1693 6.82717 31.1237 6.94238ZM33.103 2.16448C33.103 2.16453 33.1022 2.16573 33.1006 2.16791C33.1022 2.16551 33.103 2.16442 33.103 2.16448ZM31.8592 1.79046C31.8588 1.78285 31.8592 1.78185 31.8592 1.78922L31.8592 1.79046ZM38.3008 37.6926C38.3006 37.6925 38.3022 37.6931 38.3051 37.6945C38.3023 37.6933 38.3009 37.6927 38.3008 37.6926ZM38.5809 38.3708C38.5786 38.3792 38.5769 38.3837 38.5767 38.3838C38.5765 38.3839 38.5776 38.3798 38.5809 38.3708ZM31.0266 32.1175C31.0266 32.1176 31.0262 32.1164 31.0255 32.1135C31.0262 32.116 31.0266 32.1174 31.0266 32.1175Z" fill="#44358C"/>
<path fill-rule="evenodd" clip-rule="evenodd" d="M26.7306 36.1246C27.0541 36.3833 27.1065 36.8553 26.8477 37.1788C26.8109 37.2248 26.7668 37.2802 26.7161 37.344C25.9169 38.3486 23.4471 41.4533 21.0584 43.4439C18.2484 45.7855 16.1913 46.6651 14.0694 47.5724C13.9782 47.6114 13.8869 47.6504 13.7954 47.6896C13.4147 47.8528 12.9738 47.6764 12.8107 47.2957C12.6475 46.915 12.8238 46.4741 13.2046 46.3109C13.2944 46.2724 13.3839 46.2342 13.4729 46.1961C15.5647 45.3015 17.4575 44.4921 20.0981 42.2915C22.3595 40.407 24.7387 37.4191 25.5464 36.4048C25.5957 36.3428 25.6392 36.2882 25.6764 36.2417C25.9352 35.9183 26.4072 35.8658 26.7306 36.1246Z" fill="#44358C"/>
<path fill-rule="evenodd" clip-rule="evenodd" d="M25.5359 44.5409C25.7913 44.867 25.7339 45.3384 25.4078 45.5938C25.3614 45.6301 25.3058 45.6739 25.2417 45.7244C24.2332 46.5186 21.1164 48.9731 18.3344 50.3619C14.9393 52.0567 10.0173 53.3637 7.60347 53.786C7.19545 53.8573 6.80683 53.5844 6.73546 53.1764C6.66409 52.7684 6.937 52.3798 7.34501 52.3084C9.66888 51.9019 14.4399 50.6295 17.6644 49.0198C20.2982 47.705 23.3 45.3433 24.319 44.5417C24.3813 44.4927 24.4361 44.4495 24.483 44.4128C24.8091 44.1574 25.2805 44.2148 25.5359 44.5409Z" fill="#44358C"/>
</svg>
