<svg width="64" height="64" viewBox="0 0 64 64" fill="none" xmlns="http://www.w3.org/2000/svg">
<path fill-rule="evenodd" clip-rule="evenodd" d="M30.17 54.2804C30.9711 51.9907 32.1987 49.1125 34.1336 47.3593C36.1065 45.5719 38.8775 44.8908 41.6103 45.1695C44.3477 45.4486 47.1194 46.695 49.1445 48.8634C49.5752 49.3246 49.9505 49.7425 50.2771 50.1198C50.2049 49.7416 50.1338 49.341 50.0689 48.9259C49.7686 47.0055 49.5828 44.6663 50.1218 42.7578C51.1788 39.0145 53.7328 37.0689 55.9734 36.027C56.8154 35.6355 57.6169 35.3692 58.282 35.1801C57.9023 34.9833 57.4711 34.7434 57.0055 34.4501C55.267 33.3548 53.0669 31.526 51.1854 28.4035C49.2382 25.1717 49.3529 21.6879 49.8681 19.0605C50.0974 17.8907 50.4093 16.8738 50.6652 16.1061C49.8163 16.5338 48.6412 17.1174 47.2633 17.6906C44.4884 18.8448 40.806 19.9941 37.2149 19.7033C33.425 19.3964 30.695 16.3129 28.8877 13.5381C27.968 12.126 27.2471 10.7305 26.7198 9.69656C26.6905 9.63919 26.662 9.58316 26.6341 9.52849C26.5161 9.29683 26.4104 9.08944 26.3156 8.90721C26.2407 9.26552 26.1517 9.7209 26.0375 10.3052C25.8023 11.5088 25.4602 13.2594 24.9142 15.8353C24.1626 19.3812 22.4096 21.551 20.0392 22.7297C17.7165 23.8846 14.8993 24.0381 12.0868 23.7921C11.673 23.7559 11.3209 23.7263 11.0233 23.7055C11.1385 23.815 11.2648 23.9337 11.4026 24.0633C11.7236 24.3651 12.107 24.7256 12.5579 25.1643C13.5378 26.1176 14.7612 27.3718 16.137 29.0065C17.5702 30.7095 17.96 32.5525 17.724 34.3326C17.4921 36.0808 16.6627 37.7387 15.7146 39.1523C14.8318 40.4684 13.8166 41.6157 13.0019 42.4772C13.6616 42.3428 14.4428 42.2143 15.3128 42.1431C18.0299 41.9207 21.6314 42.2563 25.1482 44.7094C28.5474 47.0805 29.635 50.5978 29.9592 53.4476C30.0048 53.8486 30.0356 54.2383 30.0556 54.6117C30.0929 54.5022 30.131 54.3917 30.17 54.2804ZM10.2929 22.9398C10.293 22.9398 10.2938 22.9412 10.2951 22.9436C10.2935 22.9409 10.2928 22.9397 10.2929 22.9398ZM9.97632 23.6893C9.97101 23.691 9.96813 23.6916 9.96818 23.6915C9.96822 23.6914 9.96987 23.6908 9.97332 23.69C9.97429 23.6898 9.97529 23.6895 9.97632 23.6893ZM26.5401 8.02277C26.5401 8.02288 26.5393 8.02449 26.5377 8.02737C26.5393 8.0241 26.5401 8.02265 26.5401 8.02277ZM30.0709 59.0088C30.0049 59.0878 29.6622 59.4685 29.1442 59.2915C28.8826 59.202 28.7458 59.0105 28.6843 58.8969C28.6226 58.7828 28.5945 58.672 28.58 58.6004C28.5503 58.4548 28.5426 58.2926 28.5402 58.1522C28.5363 57.9199 28.5468 57.6134 28.5585 57.2746C28.5612 57.1936 28.5641 57.1106 28.5668 57.0265C28.596 56.1268 28.6184 54.932 28.4688 53.6172C28.1692 50.9833 27.1922 47.9641 24.29 45.9397C21.1418 43.7436 17.92 43.4347 15.4352 43.6381C14.191 43.74 13.1363 43.9701 12.3691 44.1567C12.2388 44.1883 12.1113 44.2202 11.9905 44.2503C11.7708 44.3052 11.5735 44.3545 11.4231 44.3869C11.3086 44.4115 11.1708 44.438 11.0436 44.4446C10.9836 44.4477 10.8739 44.4499 10.7509 44.4197C10.6357 44.3915 10.3657 44.297 10.2189 43.996C10.1119 43.7765 10.1392 43.5753 10.1599 43.4819C10.1822 43.3817 10.2195 43.3043 10.2422 43.2613C10.2886 43.1735 10.3457 43.0979 10.3857 43.0477C10.4711 42.9404 10.5878 42.8143 10.7113 42.6851C10.8241 42.5671 10.9586 42.43 11.1059 42.2798L11.1631 42.2214C11.3344 42.0467 11.5248 41.8521 11.7295 41.6383C12.5502 40.7813 13.5877 39.6305 14.4688 38.3168C15.3543 36.9967 16.0479 35.5615 16.237 34.1354C16.4219 32.741 16.1306 31.3284 14.9894 29.9724C13.6532 28.3848 12.4658 27.1674 11.512 26.2394C11.1231 25.8611 10.7587 25.5178 10.4362 25.214C9.99351 24.7969 9.62975 24.4542 9.38997 24.1973C9.27935 24.0788 9.17404 23.9571 9.08821 23.8363C9.01005 23.7263 8.90597 23.5599 8.8601 23.3564C8.8053 23.1133 8.8349 22.8002 9.06623 22.544C9.25296 22.3372 9.49095 22.2626 9.62911 22.2301C9.91338 22.163 10.2848 22.1648 10.6664 22.182C11.0729 22.2003 11.5913 22.243 12.2175 22.2978C14.93 22.5351 17.4163 22.3587 19.3713 21.3866C21.2784 20.4382 22.7771 18.6837 23.4468 15.5242C23.9777 13.0198 24.3248 11.2471 24.5657 10.017C24.7272 9.19236 24.8409 8.61161 24.9302 8.21778C24.9877 7.96438 25.0431 7.74958 25.1038 7.5776C25.1576 7.42507 25.2496 7.20121 25.4355 7.02739C25.6809 6.79788 25.9676 6.75841 26.1829 6.77949C26.3045 6.79141 26.4552 6.83329 26.506 6.84742C26.5131 6.84941 26.5183 6.85084 26.5211 6.85157C26.7201 6.90259 26.8549 7.01531 26.9186 7.07403C26.9928 7.14254 27.0541 7.21725 27.1015 7.28065C27.1969 7.40802 27.2923 7.56551 27.3843 7.72812C27.5483 8.01842 27.7462 8.40695 27.9689 8.84408C27.9976 8.90031 28.0266 8.95735 28.0561 9.01509C28.5815 10.0454 29.2717 11.3793 30.1446 12.7195C31.9226 15.4494 34.3039 17.9627 37.336 18.2082C40.567 18.4698 43.9813 17.4312 46.6872 16.3056C48.0312 15.7465 49.1795 15.1752 50.0244 14.7494C50.0836 14.7195 50.1417 14.6902 50.1986 14.6615C50.5408 14.4888 50.8372 14.3392 51.0627 14.2342C51.1923 14.1739 51.3226 14.1168 51.4369 14.0776C51.4923 14.0586 51.5702 14.0345 51.6566 14.0208L51.6593 14.0204C51.711 14.0122 51.9352 13.9764 52.1701 14.0969C52.4917 14.2618 52.5701 14.5629 52.5893 14.6799C52.6102 14.8074 52.5984 14.9189 52.5905 14.9778C52.5733 15.105 52.5351 15.2422 52.5001 15.3576C52.4477 15.5304 52.3698 15.7565 52.2826 16.0096C52.2494 16.106 52.2148 16.2062 52.1798 16.3089C51.9173 17.0794 51.5792 18.1292 51.34 19.3491C50.8598 21.7986 50.7949 24.8488 52.4703 27.6293C54.2114 30.5191 56.2303 32.1888 57.8051 33.1809C58.5946 33.6784 59.2773 34.0085 59.775 34.2417C59.8188 34.2622 59.8623 34.2825 59.9052 34.3026C60.0952 34.3911 60.273 34.474 60.4044 34.544C60.4829 34.5858 60.5868 34.6445 60.6792 34.7185C60.7257 34.7556 60.7968 34.8181 60.8612 34.9077C60.9254 34.9973 61.0158 35.1604 61.0158 35.3816C61.0158 35.7313 60.7953 35.9347 60.7174 35.998C60.6248 36.0733 60.531 36.1171 60.4799 36.1392C60.3706 36.1866 60.2435 36.2236 60.1371 36.2523C60.0209 36.2838 59.8624 36.3224 59.6876 36.365C59.549 36.3988 59.4002 36.435 59.254 36.4722C58.5439 36.6528 57.6005 36.9246 56.6058 37.3872C54.6252 38.3082 52.4681 39.9684 51.5653 43.1655C51.1199 44.7427 51.2558 46.8073 51.5508 48.6941C51.6963 49.6241 51.8756 50.4843 52.0276 51.1889C52.049 51.2878 52.0702 51.3854 52.0909 51.4808C52.2107 52.0315 52.3153 52.5124 52.3436 52.7938C52.3547 52.9045 52.3726 52.9802 52.3829 53.0187C52.3956 53.0476 52.4206 53.1066 52.4376 53.1711C52.4409 53.1838 52.4463 53.2055 52.4511 53.2325L52.4511 53.2326C52.4542 53.25 52.4655 53.3135 52.4623 53.3953C52.4608 53.433 52.4548 53.5262 52.4124 53.6361C52.3695 53.7469 52.2481 53.9716 51.9636 54.0726C51.6903 54.1696 51.4645 54.0807 51.375 54.0356C51.2793 53.9874 51.2168 53.9299 51.1911 53.905C51.1357 53.8515 51.1015 53.8015 51.0916 53.7869C51.0766 53.7649 51.0656 53.7463 51.0591 53.735C51.046 53.712 51.0363 53.6923 51.0306 53.6805C51.0162 53.6504 51.0009 53.6138 50.9855 53.5715C50.9692 53.5393 50.944 53.492 50.9074 53.4284C50.6546 52.9904 49.9172 51.8884 48.0482 49.8872C46.2902 48.0048 43.8638 46.9071 41.4581 46.6617C39.0479 46.416 36.7309 47.0302 35.1408 48.4709C33.5128 49.9459 32.3845 52.4931 31.5858 54.7758C31.3113 55.5604 31.0856 56.2825 30.8906 56.9064C30.8039 57.1839 30.7232 57.442 30.647 57.6776C30.5283 58.0445 30.4135 58.3785 30.3033 58.62C30.2517 58.7331 30.1765 58.8824 30.0709 59.0088ZM51.011 53.6255C51.0109 53.6254 51.0099 53.6231 51.0083 53.6189C51.0102 53.6235 51.0111 53.6256 51.011 53.6255Z" fill="#44358C"/>
<path fill-rule="evenodd" clip-rule="evenodd" d="M17.5429 53.3577C17.2659 53.0497 17.2886 52.5728 17.5935 52.2924L19.6456 50.4057C19.9505 50.1254 20.4223 50.1478 20.6993 50.4557C20.9763 50.7637 20.9536 51.2406 20.6487 51.521L18.5966 53.4077C18.2917 53.688 17.8199 53.6656 17.5429 53.3577Z" fill="#453A7B"/>
<path fill-rule="evenodd" clip-rule="evenodd" d="M41.4072 55.1578C41.0076 55.2669 40.597 55.0308 40.4902 54.6306L39.7676 51.9231C39.6608 51.5229 39.8981 51.1101 40.2978 51.0011C40.6974 50.8921 41.1079 51.1281 41.2147 51.5283L41.9373 54.2358C42.0441 54.636 41.8068 55.0488 41.4072 55.1578Z" fill="#453A7B"/>
<path fill-rule="evenodd" clip-rule="evenodd" d="M60.0379 44.5031C59.8159 44.8528 59.3543 44.9535 59.0068 44.7281L56.6724 43.2135C56.3249 42.988 56.2232 42.5218 56.4452 42.1721C56.6671 41.8223 57.1288 41.7216 57.4763 41.9471L59.8106 43.4617C60.1581 43.6871 60.2599 44.1534 60.0379 44.5031Z" fill="#453A7B"/>
<path fill-rule="evenodd" clip-rule="evenodd" d="M59.5171 23.4554C59.6895 23.832 59.5251 24.2797 59.1499 24.4552L56.6326 25.6329C56.2575 25.8084 55.8136 25.6454 55.6412 25.2688C55.4688 24.8921 55.6332 24.4445 56.0084 24.269L58.5256 23.0913C58.9008 22.9157 59.3447 23.0788 59.5171 23.4554Z" fill="#453A7B"/>
<path fill-rule="evenodd" clip-rule="evenodd" d="M39.9544 9.44797C40.3522 9.5635 40.5829 9.98016 40.4697 10.3786L39.7038 13.0739C39.5906 13.4723 39.1763 13.7017 38.7785 13.5861C38.3808 13.4706 38.1501 13.0539 38.2633 12.6555L39.0292 9.96021C39.1424 9.56177 39.5567 9.33243 39.9544 9.44797Z" fill="#453A7B"/>
<path fill-rule="evenodd" clip-rule="evenodd" d="M15.6077 14.8905C15.9224 14.6211 16.3931 14.6602 16.659 14.9778L18.4513 17.118C18.7172 17.4356 18.6777 17.9114 18.363 18.1807C18.0484 18.4501 17.5777 18.411 17.3118 18.0934L15.5195 15.9532C15.2535 15.6356 15.2931 15.1598 15.6077 14.8905Z" fill="#453A7B"/>
<path fill-rule="evenodd" clip-rule="evenodd" d="M4.70845 33.5669C4.70782 33.1527 5.0431 32.8164 5.45731 32.8157L8.23103 32.8114C8.64524 32.8108 8.98154 33.146 8.98217 33.5602C8.9828 33.9745 8.64753 34.3108 8.23331 34.3114L5.45959 34.3157C5.04538 34.3164 4.70908 33.9811 4.70845 33.5669Z" fill="#453A7B"/>
<path fill-rule="evenodd" clip-rule="evenodd" d="M14.3056 56.2345C14.0315 55.9239 14.0587 55.4472 14.3663 55.1698L15.1412 54.471C15.4488 54.1936 15.9203 54.2205 16.1943 54.5311C16.4684 54.8417 16.4412 55.3183 16.1336 55.5958L15.3587 56.2946C15.0511 56.572 14.5796 56.5451 14.3056 56.2345Z" fill="#453A7B"/>
<path fill-rule="evenodd" clip-rule="evenodd" d="M42.4594 59.3835C42.0587 59.4887 41.6504 59.2487 41.5474 58.8475L41.2865 57.8314C41.1835 57.4302 41.4248 57.0197 41.8254 56.9145C42.2261 56.8094 42.6344 57.0494 42.7374 57.4506L42.9983 58.4667C43.1013 58.8679 42.86 59.2784 42.4594 59.3835Z" fill="#453A7B"/>
<path fill-rule="evenodd" clip-rule="evenodd" d="M63.6251 46.9189C63.3998 47.2665 62.9373 47.3628 62.592 47.134L61.7235 46.5586C61.3782 46.3298 61.2809 45.8626 61.5062 45.515C61.7315 45.1674 62.1941 45.0711 62.5394 45.2999L63.4079 45.8753C63.7532 46.1041 63.8504 46.5713 63.6251 46.9189Z" fill="#453A7B"/>
<path fill-rule="evenodd" clip-rule="evenodd" d="M63.4591 21.6927C63.6279 22.071 63.4592 22.517 63.0824 22.6889L62.1359 23.1206C61.759 23.2925 61.3167 23.1252 61.1479 22.747C60.9791 22.3687 61.1478 21.9227 61.5246 21.7508L62.4711 21.3191C62.8479 21.1472 63.2903 21.3145 63.4591 21.6927Z" fill="#453A7B"/>
<path fill-rule="evenodd" clip-rule="evenodd" d="M41.2148 5.2806C41.6115 5.39997 41.8382 5.81886 41.7212 6.21621L41.4249 7.22237C41.3079 7.61972 40.8915 7.84506 40.4949 7.72569C40.0983 7.60631 39.8716 7.18743 39.9886 6.79008L40.2848 5.78392C40.4018 5.38657 40.8182 5.16122 41.2148 5.2806Z" fill="#453A7B"/>
<path fill-rule="evenodd" clip-rule="evenodd" d="M12.8789 11.5173C13.1962 11.251 13.6665 11.2945 13.9294 11.6146L14.5927 12.4223C14.8556 12.7424 14.8115 13.2178 14.4943 13.4841C14.177 13.7504 13.7067 13.7069 13.4438 13.3868L12.7805 12.5791C12.5176 12.259 12.5617 11.7836 12.8789 11.5173Z" fill="#453A7B"/>
<path fill-rule="evenodd" clip-rule="evenodd" d="M0.398964 33.4995C0.402255 33.0853 0.740698 32.7523 1.1549 32.7556L2.19322 32.7641C2.60742 32.7674 2.94052 33.1059 2.93723 33.5201C2.93394 33.9344 2.5955 34.2674 2.1813 34.264L1.14298 34.2556C0.728781 34.2522 0.395673 33.9137 0.398964 33.4995Z" fill="#453A7B"/>
</svg>
