<svg width="64" height="64" viewBox="0 0 64 64" fill="none" xmlns="http://www.w3.org/2000/svg">
<path fill-rule="evenodd" clip-rule="evenodd" d="M25.7874 1.25318C25.789 0.838969 26.126 0.504488 26.5403 0.506096L27.4125 0.509481C27.8267 0.511089 28.1613 0.848177 28.1597 1.26239C28.1581 1.6766 27.8211 2.01108 27.4069 2.00947L26.5346 2.00608C26.1204 2.00448 25.7859 1.66739 25.7874 1.25318Z" fill="#44358C"/>
<path fill-rule="evenodd" clip-rule="evenodd" d="M5.35626 14.5167C4.981 14.3413 4.81574 13.8935 4.98714 13.5164L5.35226 12.7131C5.52366 12.336 5.96681 12.1725 6.34207 12.3479C6.71733 12.5232 6.88259 12.9711 6.71118 13.3482L6.34607 14.1515C6.17467 14.5285 5.73151 14.6921 5.35626 14.5167Z" fill="#44358C"/>
<path fill-rule="evenodd" clip-rule="evenodd" d="M24.4176 1.08273C24.4602 1.49572 24.1619 1.86764 23.7512 1.91344C22.0691 2.10103 20.8432 2.67032 19.8924 3.48411C18.931 4.30688 18.2086 5.4159 17.5976 6.74613C17.4239 7.12429 16.9794 7.29127 16.6049 7.11908C16.2303 6.94688 16.0674 6.50073 16.2411 6.12257C16.9036 4.68024 17.7399 3.35773 18.9282 2.3407C20.127 1.31469 21.6416 0.635914 23.5967 0.417882C24.0074 0.372081 24.3749 0.669744 24.4176 1.08273Z" fill="#44358C"/>
<path fill-rule="evenodd" clip-rule="evenodd" d="M4.76608 15.4768C5.16567 15.5864 5.40132 15.9991 5.2924 16.3986C4.53728 19.1683 5.18735 22.1583 6.98151 24.8143C7.21354 25.1578 7.12353 25.624 6.78046 25.8555C6.43739 26.087 5.97117 25.9963 5.73913 25.6528C3.74925 22.707 2.95403 19.271 3.84533 16.0018C3.95425 15.6023 4.36648 15.3672 4.76608 15.4768Z" fill="#44358C"/>
<path fill-rule="evenodd" clip-rule="evenodd" d="M32.2278 39.4881C31.873 39.7019 31.7588 40.1629 31.9726 40.5176C32.0821 40.6993 32.2322 41.0046 32.4385 41.4401C32.4857 41.5397 32.5353 41.645 32.5873 41.7552C32.7547 42.1105 32.9463 42.5171 33.1591 42.9508C33.7175 44.0889 34.4397 45.4512 35.3408 46.7303C36.6772 48.6273 38.1628 50.2965 40.9548 52.4237C41.2843 52.6747 41.7549 52.6111 42.0059 52.2816C42.2569 51.9521 42.1933 51.4815 41.8639 51.2305C39.193 49.1957 37.8146 47.6373 36.5671 45.8664C35.7323 44.6814 35.0502 43.3998 34.5057 42.29C34.2987 41.8681 34.1142 41.4765 33.9475 41.1229C33.8946 41.0107 33.8435 40.9022 33.7941 40.7979C33.5958 40.3793 33.413 40.0017 33.2573 39.7433C33.0435 39.3886 32.5826 39.2743 32.2278 39.4881Z" fill="#44358C"/>
<path fill-rule="evenodd" clip-rule="evenodd" d="M23.1374 5.12146C21.0809 6.182 19.5726 8.3311 19.2683 11.4158C19.1985 12.1232 19.3001 12.905 19.4505 13.6222C19.5199 13.9529 19.602 14.2803 19.6882 14.5932C19.0722 14.1094 18.3292 13.589 17.5084 13.1535C15.5967 12.1391 13.0671 11.4853 10.6551 13.0138C8.95594 14.0906 7.80709 15.4925 7.36625 17.188C6.92673 18.8784 7.22047 20.747 8.18247 22.7059C9.14016 24.656 10.3167 25.9477 11.229 26.7686C11.4213 26.9416 11.6017 27.0935 11.7645 27.2253C11.7228 27.2514 11.6808 27.2779 11.6387 27.3048C11.1394 27.6235 10.5389 28.0461 9.91551 28.5354C8.68229 29.5033 7.29638 30.7812 6.44511 32.0759C5.29144 33.8306 4.68317 36.1853 4.99987 38.4768C5.32008 40.7938 6.58788 43.0389 9.15326 44.4925C11.2955 45.7064 13.8384 45.9878 16.1301 45.6997C18.4112 45.4129 20.5519 44.5477 21.8853 43.339C22.1921 43.0608 22.2154 42.5865 21.9372 42.2796C21.659 41.9727 21.1847 41.9495 20.8778 42.2277C19.8347 43.1733 18.0135 43.9511 15.943 44.2114C13.8831 44.4704 11.685 44.203 9.89274 43.1875C7.76331 41.9809 6.74678 40.1602 6.48574 38.2714C6.22118 36.3571 6.73471 34.3659 7.69848 32.9C8.41672 31.8076 9.65259 30.6486 10.8416 29.7153C11.4293 29.2541 11.9902 28.86 12.4458 28.5691C12.9293 28.2605 13.2267 28.1122 13.3134 28.0848L13.3931 28.0595L13.4653 28.0173C13.6085 27.9336 13.7819 27.7669 13.8344 27.4996C13.8803 27.2656 13.8064 27.0822 13.7662 27.001C13.6934 26.8541 13.5857 26.7542 13.5527 26.7236L13.5505 26.7216C13.4639 26.6412 13.3404 26.5477 13.2335 26.4668L13.1978 26.4398C12.9548 26.2559 12.6216 26.0038 12.2323 25.6535C11.4296 24.9312 10.3848 23.7875 9.52887 22.0447C8.67728 20.3106 8.49291 18.8157 8.81797 17.5655C9.1417 16.3204 10.0001 15.2048 11.4581 14.2808C13.2025 13.1754 15.0954 13.5712 16.8054 14.4785C18.3083 15.2759 19.5187 16.3909 20.1341 16.9579C20.1984 17.0171 20.2562 17.0704 20.3072 17.1166C20.3624 17.1846 20.4192 17.2501 20.4757 17.3062C20.5106 17.3409 20.56 17.3867 20.6209 17.4299C20.6668 17.4625 20.795 17.5496 20.9798 17.5772C21.0842 17.5928 21.2236 17.5916 21.3725 17.5343C21.5256 17.4753 21.6401 17.3756 21.7173 17.2702C21.8512 17.0874 21.866 16.8997 21.8696 16.8404C21.8783 16.6986 21.8506 16.5653 21.8367 16.5014C21.7912 16.2927 21.6795 15.9496 21.5569 15.5732C21.5146 15.4437 21.4712 15.3102 21.4286 15.1768C21.2499 14.6163 21.0549 13.9643 20.9186 13.3142C20.7804 12.6556 20.7132 12.0474 20.761 11.5631C21.0221 8.91691 22.2779 7.25242 23.8249 6.45462C25.3889 5.64807 27.3495 5.67461 29.1133 6.61428C30.8211 7.52414 31.443 8.89898 31.6927 10.1273C31.8197 10.752 31.8481 11.3313 31.8678 11.8046C31.8686 11.8239 31.8694 11.8433 31.8702 11.8628C31.8785 12.0676 31.8872 12.2786 31.9068 12.4463C31.9176 12.5382 31.9356 12.6564 31.9734 12.7728C32.004 12.867 32.0896 13.0994 32.3263 13.2594C32.7066 13.5164 33.0823 13.3581 33.2268 13.2707C33.3683 13.185 33.4738 13.0697 33.5349 12.9987C33.668 12.8441 33.8172 12.6249 33.9638 12.406C34.001 12.3505 34.0396 12.2926 34.0795 12.2328C34.3733 11.7919 34.742 11.2387 35.2173 10.6391C36.2963 9.2778 37.8777 7.74063 40.1529 6.98016C42.1609 6.30897 44.2909 6.49384 45.8955 7.50611C47.4728 8.5011 48.6434 10.3592 48.6434 13.2637C48.6434 15.7057 48.0715 17.3649 47.5766 18.4531C47.4515 18.7285 47.3299 18.97 47.2194 19.1856C47.1996 19.2244 47.1796 19.2631 47.1598 19.3015C47.0738 19.4687 46.9901 19.6312 46.9254 19.7709C46.8538 19.9254 46.7558 20.1521 46.7338 20.3878C46.7216 20.5192 46.7278 20.6988 46.8116 20.8858C46.9005 21.0843 47.0473 21.2253 47.2061 21.3147C47.3394 21.3898 47.4685 21.4152 47.5415 21.4261C47.6237 21.4384 47.7033 21.4416 47.7707 21.4418C47.9047 21.4422 48.0568 21.4303 48.2076 21.4151C48.3814 21.3976 48.5987 21.3705 48.8358 21.341C48.9989 21.3207 49.1713 21.2992 49.3453 21.2789C50.2367 21.1747 51.3686 21.0746 52.5643 21.1533C54.9506 21.3104 57.475 22.1618 58.8705 25.023C60.1353 27.6162 59.9639 30.3719 58.9464 32.627C57.9214 34.8986 56.0748 36.5869 54.0838 37.105C52.2959 37.5702 50.8878 37.231 49.8521 36.8311C49.59 36.7299 49.3512 36.6246 49.1304 36.5245C49.0817 36.5023 49.0325 36.4799 48.9835 36.4574C48.8199 36.3827 48.6576 36.3085 48.5161 36.2501C48.3442 36.1791 48.1137 36.092 47.8815 36.0708C47.6134 36.0464 47.2046 36.1069 46.9475 36.498C46.7935 36.7322 46.7533 36.9979 46.7365 37.1673C46.7178 37.3564 46.718 37.5663 46.7211 37.7623C46.7224 37.8443 46.7242 37.9268 46.7261 38.01C46.7336 38.3492 46.7414 38.6996 46.7145 39.0751C46.649 39.9881 46.3876 40.8687 45.5114 41.4906C45.1736 41.7304 45.0942 42.1986 45.3339 42.5363C45.5737 42.8741 46.0419 42.9536 46.3796 42.7138C47.7762 41.7226 48.1297 40.3104 48.2106 39.1824C48.2431 38.7291 48.2331 38.2921 48.2253 37.95C48.2238 37.8822 48.2223 37.8182 48.2213 37.7585C48.2586 37.7754 48.2978 37.7933 48.339 37.8122C48.3925 37.8366 48.4495 37.8627 48.5107 37.8904C48.741 37.9949 49.0101 38.114 49.3119 38.2305C50.5317 38.7014 52.2734 39.126 54.4615 38.5566C56.9794 37.9015 59.1428 35.8387 60.3136 33.2439C61.4919 30.6326 61.702 27.4066 60.2187 24.3654C58.4937 20.8287 55.3321 19.8322 52.6629 19.6565C51.3309 19.5689 50.0927 19.6813 49.1711 19.789C48.9649 19.8131 48.7826 19.8359 48.6192 19.8563C48.5982 19.859 48.5776 19.8615 48.5572 19.8641C48.6709 19.6422 48.8037 19.3784 48.9421 19.074C49.5065 17.8328 50.1434 15.9617 50.1434 13.2637C50.1434 9.91264 48.7635 7.5418 46.6959 6.23746C44.6557 4.9504 42.0466 4.76561 39.6773 5.55753C37.0171 6.44674 35.2136 8.22901 34.0418 9.70732C33.76 10.0628 33.512 10.4044 33.2973 10.7129C33.2679 10.436 33.2256 10.138 33.1626 9.82842C32.8527 8.30382 32.0339 6.47066 29.8186 5.29044C27.6593 4.14002 25.177 4.06967 23.1374 5.12146ZM12.5298 27.8207C12.5284 27.8195 12.5269 27.8182 12.5253 27.8167C12.5353 27.827 12.5383 27.8287 12.5298 27.8207Z" fill="#44358C"/>
<path fill-rule="evenodd" clip-rule="evenodd" d="M21.0144 35.0506C20.6391 35.226 20.477 35.6723 20.6523 36.0476C21.5427 37.9536 24.3473 43.0931 28.5446 48.6494C30.6713 51.4648 33.661 54.4473 36.7 56.9934C39.7333 59.5347 42.8654 61.683 45.2903 62.7983C45.6666 62.9713 46.112 62.8066 46.285 62.4303C46.4581 62.054 46.2934 61.6086 45.9171 61.4355C43.6649 60.3996 40.6496 58.3455 37.6633 55.8436C34.6828 53.3465 31.7806 50.4448 29.7414 47.7453C25.6068 42.2718 22.8568 37.2225 22.0114 35.4127C21.836 35.0374 21.3897 34.8753 21.0144 35.0506Z" fill="#44358C"/>
<path fill-rule="evenodd" clip-rule="evenodd" d="M37.0405 34.0754C36.6351 34.1604 36.3753 34.5579 36.4603 34.9633C36.8859 36.9942 38.0219 39.5389 39.0601 41.4155C41.6946 46.1774 44.7538 49.0661 47.5229 51.6809C47.6173 51.77 47.7114 51.8589 47.8051 51.9475C48.1062 52.232 48.5808 52.2186 48.8654 51.9176C49.1499 51.6166 49.1365 51.1419 48.8355 50.8574C48.7494 50.776 48.6632 50.6945 48.5768 50.6129C45.8061 47.9961 42.8928 45.2447 40.3726 40.6893C39.3654 38.8688 38.3096 36.4749 37.9284 34.6556C37.8434 34.2502 37.4459 33.9905 37.0405 34.0754Z" fill="#44358C"/>
</svg>
