<svg width="24" height="24" viewBox="0 0 24 24" fill="none" xmlns="http://www.w3.org/2000/svg">
<path d="M19.501 7.5L20.441 5.44L22.501 4.5L20.441 3.56L19.501 1.5L18.561 3.56L16.501 4.5L18.561 5.44L19.501 7.5Z" fill="#595A5C"/>
<path d="M8.00104 7.5L8.94103 5.44L11.001 4.5L8.94103 3.56L8.00104 1.5L7.06104 3.56L5.00104 4.5L7.06104 5.44L8.00104 7.5Z" fill="#595A5C"/>
<path d="M19.501 13L18.561 15.06L16.501 16L18.561 16.94L19.501 19L20.441 16.94L22.501 16L20.441 15.06L19.501 13Z" fill="#595A5C"/>
<path d="M17.211 9.62L14.381 6.79C14.181 6.6 13.931 6.5 13.671 6.5C13.411 6.5 13.161 6.6 12.961 6.79L1.79104 17.96C1.40104 18.35 1.40104 18.98 1.79104 19.37L4.62104 22.2C4.82104 22.4 5.07104 22.5 5.33104 22.5C5.59103 22.5 5.84104 22.4 6.04104 22.21L17.211 11.04C17.601 10.65 17.601 10.01 17.211 9.62ZM13.671 8.92L15.081 10.33L13.911 11.5L12.501 10.09L13.671 8.92ZM5.33104 20.09L3.92104 18.68L11.091 11.5L12.501 12.91L5.33104 20.09Z" fill="#595A5C"/>
</svg>
