<svg width="112" height="112" viewBox="0 0 112 112" fill="none" xmlns="http://www.w3.org/2000/svg">
<path d="M42.3151 109.935C42.1751 109.935 42.0351 109.918 41.8951 109.865C39.9701 109.218 37.7476 106.943 37.1351 105.7C36.8026 105.053 37.0651 104.265 37.7301 103.933C38.3776 103.618 39.1651 103.863 39.4976 104.528C39.8826 105.298 41.6326 106.995 42.7351 107.363C43.4176 107.59 43.8026 108.343 43.5576 109.025C43.3826 109.568 42.8576 109.918 42.3151 109.918V109.935Z" fill="#44358C"/>
<path d="M83.0801 53.6276C82.9751 53.6276 82.8701 53.6276 82.7476 53.5926C81.3301 53.2251 79.5626 51.9301 78.9676 51.0376C78.5651 50.4251 78.7401 49.6201 79.3351 49.2176C79.9476 48.8151 80.7526 48.9901 81.1551 49.5851C81.3651 49.8826 82.5551 50.8276 83.3776 51.0376C84.0776 51.2126 84.4976 51.9301 84.3226 52.6301C84.1651 53.2251 83.6401 53.6276 83.0451 53.6276H83.0801Z" fill="#44358C"/>
<path d="M55.1249 108.377C48.6324 108.377 42.9449 104.562 39.6374 97.8772C33.3549 85.1897 45.6224 60.9172 52.9374 46.4272L53.6549 44.9922L54.8099 45.3772C57.3649 46.3047 74.7949 80.5172 71.2599 95.7072C69.7024 102.427 63.9974 107.467 57.0674 108.272C56.4024 108.342 55.7549 108.395 55.1074 108.395L55.1249 108.377ZM54.5474 49.0872C47.7749 62.5097 36.5049 85.6272 41.9999 96.7222C45.1149 103.04 50.6449 106.382 56.7874 105.665C62.6149 105 67.4099 100.747 68.7224 95.1122C71.7149 82.2672 58.5199 55.7372 54.5474 49.0872Z" fill="#44358C"/>
<path d="M88.9349 51.4324C84.5949 51.4324 80.7974 48.8774 78.5924 44.3974C74.4799 36.0149 82.3899 20.2299 87.1149 10.8149L87.7624 9.50244L88.8999 9.88744C90.9999 10.6399 102.042 32.8999 99.7324 42.8924C98.6824 47.4249 94.8674 50.8199 90.2299 51.3624C89.7924 51.4149 89.3549 51.4324 88.9349 51.4324ZM88.6199 13.6849C84.2974 22.3474 77.6474 36.4874 80.9549 43.2424C82.8624 47.1274 86.2049 49.1924 89.9324 48.7549C93.4674 48.3524 96.3724 45.7624 97.1774 42.2974C98.9274 34.7374 91.5949 18.8999 88.6199 13.6849Z" fill="#44358C"/>
<path d="M26.8975 38.43C23.3275 38.43 20.195 36.2775 18.3925 32.515C15.05 25.5325 21.4025 12.53 25.2 4.76L25.8125 3.5L26.95 3.885C29.085 4.6375 37.5725 23.3275 35.7875 31.2375C34.93 35.07 31.7625 37.94 27.9125 38.3775C27.5625 38.4125 27.23 38.43 26.88 38.43H26.8975ZM26.6525 7.7875C23.205 14.8925 18.2 26.04 20.755 31.3775C22.225 34.44 24.7975 36.085 27.6325 35.77C30.3625 35.455 32.62 33.4075 33.2325 30.66C34.5625 24.7275 29.155 12.4425 26.6525 7.7875Z" fill="#44358C"/>
<path d="M35.8051 102.935C35.3151 102.935 34.8601 102.672 34.6326 102.2L34.4926 101.92C33.7401 100.432 31.9901 96.9325 31.5001 89.1975C31.0276 81.6375 33.3201 75.6875 34.7026 72.135L35.0876 71.155C35.3501 70.4725 36.1026 70.14 36.7851 70.385C37.4676 70.6475 37.8001 71.4 37.5551 72.0825L37.1701 73.0975C35.8751 76.4575 33.7051 82.0575 34.1426 89.04C34.5976 96.2325 36.1901 99.4 36.8551 100.747L37.0126 101.045C37.3276 101.692 37.0651 102.48 36.4176 102.795C36.2251 102.882 36.0326 102.935 35.8401 102.935H35.8051Z" fill="#44358C"/>
<path d="M76.4748 47.4247C75.9673 47.4247 75.4773 47.1272 75.2673 46.6372L75.1973 46.4622C74.7598 45.4997 73.7623 43.2247 73.4823 38.2722C73.2198 33.4072 74.5148 29.5922 75.3023 27.3172L75.5123 26.7047C75.7398 26.0222 76.4748 25.6372 77.1748 25.8822C77.8573 26.1097 78.2423 26.8622 77.9973 27.5447L77.7873 28.1922C77.0173 30.4322 75.8623 33.7922 76.1073 38.1497C76.3523 42.6297 77.2273 44.5897 77.5948 45.4122L77.6823 45.6047C77.9623 46.2697 77.6648 47.0397 76.9998 47.3372C76.8248 47.4072 76.6498 47.4422 76.4748 47.4422V47.4247Z" fill="#44358C"/>
<path d="M84.7526 81.1127C82.5476 81.1127 80.7451 79.3102 80.7451 77.1052C80.7451 74.9002 82.5476 73.0977 84.7526 73.0977C86.9576 73.0977 88.7601 74.9002 88.7601 77.1052C88.7601 79.3102 86.9576 81.1127 84.7526 81.1127ZM84.7526 75.7402C84.0001 75.7402 83.3701 76.3527 83.3701 77.1227C83.3701 77.8927 83.9826 78.5052 84.7526 78.5052C85.5226 78.5052 86.1351 77.8927 86.1351 77.1227C86.1351 76.3527 85.5226 75.7402 84.7526 75.7402Z" fill="#44358C"/>
<path d="M53.7426 21.1224C51.5376 21.1224 49.7351 19.3199 49.7351 17.1149C49.7351 14.9099 51.5376 13.1074 53.7426 13.1074C55.9476 13.1074 57.7501 14.9099 57.7501 17.1149C57.7501 19.3199 55.9476 21.1224 53.7426 21.1224ZM53.7426 15.7499C52.9901 15.7499 52.3601 16.3624 52.3601 17.1324C52.3601 17.9024 52.9726 18.5149 53.7426 18.5149C54.5126 18.5149 55.1251 17.9024 55.1251 17.1324C55.1251 16.3624 54.5126 15.7499 53.7426 15.7499Z" fill="#44358C"/>
<path d="M19.7575 59.1151C17.5525 59.1151 15.75 57.3126 15.75 55.1076C15.75 52.9026 17.5525 51.1001 19.7575 51.1001C21.9625 51.1001 23.765 52.9026 23.765 55.1076C23.765 57.3126 21.9625 59.1151 19.7575 59.1151ZM19.7575 53.7426C19.005 53.7426 18.375 54.3551 18.375 55.1251C18.375 55.8951 18.9875 56.5076 19.7575 56.5076C20.5275 56.5076 21.14 55.8951 21.14 55.1251C21.14 54.3551 20.5275 53.7426 19.7575 53.7426Z" fill="#44358C"/>
</svg>
