<svg width="153" height="169" viewBox="0 0 153 169" fill="none" xmlns="http://www.w3.org/2000/svg">
<path d="M32.0802 157.784C23.943 130.099 25.4528 102.016 32.9384 81.2834C41.5842 57.3248 59.0505 54.7422 69.3253 58.3102C80.4901 62.1881 86.6725 73.8296 88.0075 106.839C89.3425 139.857 99.9669 143.727 98.0836 151.959C96.2003 160.184 80.1246 157.045 73.6005 151.228C73.6005 151.228 76.6758 170.276 63.4687 168.933C52.1927 167.789 48.0685 157.824 48.0685 157.824C48.0685 157.824 38.3023 179.001 32.0722 157.792L32.0802 157.784Z" fill="#DBC5FF"/>
<path opacity="0.25" d="M51.0246 74.0545C50.9451 78.7827 47.7109 82.5175 45.3826 86.3477C40.877 93.7379 39.9949 102.177 41.0279 110.64C42.212 120.303 46.9401 129.775 46.8606 139.526C46.813 145.191 44.6118 151.318 38.5645 152.876C36.3951 153.432 34.5516 153.082 33.0974 152.16C27.1295 126.167 28.0434 101.557 35.378 82.3188C38.1752 74.9842 43.102 68.5873 47.1626 64.8843C49.777 66.7994 51.0723 71.1064 51.0246 74.0545Z" fill="#F6F1FF"/>
<path d="M91.7263 151.268C93.9354 148.273 92.2428 144.546 90.7886 141.621C84.5665 129.082 83.5811 116.518 83.0726 102.715C82.6911 92.4168 83.0249 79.7581 76.334 71.2156C73.1236 67.1232 68.6895 64.1751 63.9931 62.0295C59.3682 59.9237 55.252 59.4469 50.6907 59.3913C57.3737 56.2763 64.2315 56.5305 69.3331 58.2947C80.4979 62.1725 86.6803 73.8141 88.0153 106.824C89.3503 139.841 99.9747 143.711 98.0914 151.944C96.7485 157.808 88.198 157.896 81.0383 155.353C84.932 155.083 89.4377 154.352 91.7263 151.26L91.7263 151.268Z" fill="#D0B4FF"/>
<path d="M65.5355 164.055C70.2001 161.973 71.7497 158.199 73.8793 154.083C74.1415 159.343 73.4422 169.936 63.4774 168.927C59.6631 168.537 56.6672 167.139 54.3707 165.462C58.1612 165.748 61.9199 165.676 65.5355 164.063L65.5355 164.055Z" fill="#D0B4FF"/>
<path d="M35.4809 161.662C38.5165 163.474 42.9824 163.649 45.9385 161.623C42.8235 166.367 36.9669 172.327 32.5884 159.302C33.4466 160.216 34.4002 161.019 35.473 161.662L35.4809 161.662Z" fill="#D0B4FF"/>
<path d="M72.2819 84.0251C70.5495 78.542 64.2162 77.6282 61.2283 79.885C55.8009 83.9853 53.8302 96.5408 60.6085 100.506C67.3868 104.471 76.1518 96.2547 72.2819 84.0251Z" fill="#F8F8F8"/>
<path d="M49.1961 84.0406C47.6227 79.0661 41.8853 78.2397 39.1756 80.2898C34.2567 84.0088 32.4688 95.3881 38.6114 98.98C44.754 102.572 52.7005 95.1339 49.1961 84.0406Z" fill="#F8F8F8"/>
<path opacity="0.5" d="M71.5179 91.0101C71.3749 86.1707 67.7195 79.6149 62.3556 79.2494C65.5898 77.8985 70.7391 79.162 72.2808 84.0252C74.8077 92.0114 71.9391 98.2891 67.7672 100.578C70.1829 98.0825 71.6291 94.7291 71.5258 91.0101L71.5179 91.0101Z" fill="url(#paint0_linear_59817_15184)"/>
<path opacity="0.5" d="M41.2025 79.4005C44.1029 78.7728 47.949 80.0998 49.1966 84.0413C51.5647 91.5189 48.7119 97.3357 44.7228 99.227C49.594 93.14 48.7914 82.7857 41.2025 79.4005Z" fill="url(#paint1_linear_59817_15184)"/>
<path d="M61.7365 86.8617C60.036 87.1796 58.4626 89.4285 58.9712 92.7421C59.4797 96.0558 62.9047 96.4055 64.0966 93.6242C65.6065 90.096 64.4065 86.3611 61.7365 86.8617Z" fill="#484349"/>
<path d="M39.1364 86.6562C37.5947 86.9423 36.1644 88.9845 36.6332 91.9883C37.1021 94.992 40.2012 95.3099 41.274 92.7829C42.6408 89.5884 41.5521 86.2032 39.1364 86.6562Z" fill="#484349"/>
<path d="M55.2632 114.105C53.5 112.499 50 111.5 47.5263 113.368" stroke="#B07FFF" stroke-width="2.16" stroke-linecap="round" stroke-linejoin="round"/>
<path d="M74.0775 104.95C75.2536 106.054 74.308 107.612 72.1545 108.669C69.9533 109.749 66.0675 111.227 61.6174 110.425C54.7676 109.193 56.7622 105.387 66.8303 104.179C68.658 103.956 72.5041 103.472 74.0775 104.95Z" fill="#D0B4FF"/>
<path d="M46.0345 106.798C46.4 108.196 45.0491 109.277 43.0466 109.484C40.9964 109.698 37.5636 109.69 34.7108 107.434C30.3164 103.961 33.3917 101.211 41.1633 103.603C42.5698 104.04 45.5498 104.93 46.0424 106.798L46.0345 106.798Z" fill="#D0B4FF"/>
<path d="M115.864 42.6618C111.667 48.828 109.596 61.8336 107.384 63.3083C106.412 63.9562 106.009 64.2483 105.863 64.3722C105.745 64.4727 105.99 64.4144 106.145 64.4144H146.399C147.362 64.4144 147.193 64.3581 146.878 63.4486C146.862 63.4038 146.847 63.3571 146.833 63.3083C146.173 61.0101 145.22 54.8931 143.238 43.0736C141.914 35.1815 137.277 26.7405 134.051 21.874C133.521 21.0742 132.741 21.4391 132.527 22.3745C132.335 23.2164 131.898 24.3604 131.015 26.001C128.399 30.8639 121.108 34.9571 115.864 42.6618Z" stroke="#44358C" stroke-width="2" stroke-linecap="round"/>
<rect x="102.485" y="64.6768" width="48.8788" height="8.32323" rx="4.16162" stroke="#44358C" stroke-width="2"/>
<path d="M136.616 16.4849C136.616 18.7194 134.654 20.6465 132.086 20.6465C129.518 20.6465 127.556 18.7194 127.556 16.4849C127.556 14.2503 129.518 12.3232 132.086 12.3232C134.654 12.3232 136.616 14.2503 136.616 16.4849Z" stroke="#44358C" stroke-width="2"/>
<path d="M86 1H96.2392C97.1129 1 97.5665 2.0415 96.9714 2.68113L90.6908 9.4324C90.1096 10.0572 90.5275 11.076 91.38 11.1126L96.2854 11.3232" stroke="#44358C" stroke-width="2" stroke-linecap="round"/>
<path d="M99.2729 17.9595H105.078C105.953 17.9595 106.406 19.0042 105.808 19.643L102.841 22.8109C102.257 23.435 102.674 24.457 103.529 24.4935L105.928 24.5958" stroke="#44358C" stroke-width="2" stroke-linecap="round"/>
<defs>
<linearGradient id="paint0_linear_59817_15184" x1="73.2264" y1="89.6592" x2="62.3556" y2="89.6592" gradientUnits="userSpaceOnUse">
<stop stop-color="#C1C1C1"/>
<stop offset="0.06" stop-color="#C6C6C6"/>
<stop offset="0.43" stop-color="#E1E1E1"/>
<stop offset="0.75" stop-color="#F2F2F2"/>
<stop offset="1" stop-color="#F8F8F8"/>
</linearGradient>
<linearGradient id="paint1_linear_59817_15184" x1="50.0549" y1="89.2383" x2="41.2025" y2="89.2383" gradientUnits="userSpaceOnUse">
<stop stop-color="#C1C1C1"/>
<stop offset="0.06" stop-color="#C6C6C6"/>
<stop offset="0.43" stop-color="#E1E1E1"/>
<stop offset="0.75" stop-color="#F2F2F2"/>
<stop offset="1" stop-color="#F8F8F8"/>
</linearGradient>
</defs>
</svg>
