<svg width="112" height="112" viewBox="0 0 112 112" fill="none" xmlns="http://www.w3.org/2000/svg">
<path fill-rule="evenodd" clip-rule="evenodd" d="M60 61.375C61.5787 61.375 62.375 60.2822 62.375 59.5C62.375 58.7178 61.5787 57.625 60 57.625C58.4213 57.625 57.625 58.7178 57.625 59.5C57.625 60.2822 58.4213 61.375 60 61.375ZM60 64C62.7614 64 65 61.9853 65 59.5C65 57.0147 62.7614 55 60 55C57.2386 55 55 57.0147 55 59.5C55 61.9853 57.2386 64 60 64Z" fill="#44358C"/>
<path fill-rule="evenodd" clip-rule="evenodd" d="M81.1713 10.4446C81.0759 10.5013 80.7535 10.6931 80.3304 10.6931C79.9734 10.6931 79.6316 10.5619 79.4898 10.5074L79.4794 10.5034C79.3343 10.4478 79.1606 10.3743 78.9945 10.304C78.9418 10.2818 78.89 10.2598 78.84 10.2388C78.388 10.0493 77.8808 9.84951 77.328 9.71891C76.2485 9.46387 75.0989 9.48873 73.9993 10.3939C73.5597 10.7558 73.2323 11.3672 72.8668 12.1327C72.852 12.1636 72.8368 12.1955 72.8212 12.2283C72.6753 12.5352 72.4942 12.9162 72.3003 13.21C72.1902 13.3769 72.0183 13.6079 71.7691 13.7972C71.4952 14.0053 71.082 14.1935 70.5739 14.1327C70.5743 14.1328 70.5737 14.1327 70.5719 14.1325C70.5612 14.1316 70.508 14.1271 70.3988 14.1212C70.283 14.1151 70.1252 14.1086 69.9298 14.1035C69.5392 14.0934 69.0067 14.0891 68.3715 14.1038C67.0986 14.1332 65.4316 14.2382 63.6782 14.5177C61.9188 14.7982 60.115 15.248 58.5472 15.9474C56.9747 16.649 55.7228 17.5642 54.9488 18.7291C51.0101 24.657 52.2863 30.1618 53.662 32.6904C54.3344 33.9264 55.3091 34.9134 56.2217 35.7003C56.5616 35.9933 56.8735 36.2429 57.164 36.4753C57.2682 36.5586 57.3696 36.6398 57.4686 36.7199C57.6467 36.8641 57.8269 37.0135 57.9811 37.1565C58.1173 37.2829 58.3195 37.4814 58.4689 37.7275C58.6535 38.0317 58.6896 38.3468 58.702 38.4627C58.7194 38.6244 58.7222 38.7923 58.7215 38.9363C58.7207 39.1021 58.7136 39.319 58.7064 39.5399C58.702 39.6764 58.6975 39.8144 58.6944 39.9428C58.6764 40.6903 58.6874 41.5686 58.8654 42.4548C59.0422 43.3353 59.3755 44.1794 59.9725 44.889C60.56 45.5871 61.4669 46.2323 62.9253 46.6255C65.3436 47.2776 67.2251 46.7122 68.5802 45.9826C69.2678 45.6125 69.8212 45.1984 70.2482 44.8602C70.3094 44.8118 70.3746 44.7595 70.44 44.707C70.5783 44.5961 70.7178 44.4841 70.8244 44.4045C70.9051 44.3442 71.0244 44.2581 71.1568 44.1859C71.2235 44.1495 71.3317 44.0954 71.4679 44.0542C71.5916 44.0168 71.8469 43.9562 72.1592 44.0208C72.4652 44.0841 72.6778 44.2436 72.7218 44.2766C72.7235 44.2779 72.725 44.279 72.7262 44.2799C72.8043 44.3379 72.8706 44.3975 72.9146 44.4383C73.0042 44.5216 73.1058 44.6257 73.1968 44.7197C73.2211 44.7447 73.246 44.7705 73.2717 44.797C73.4537 44.9852 73.6712 45.2101 73.9389 45.4663C74.5474 46.0486 75.3874 46.7644 76.4471 47.3737C78.528 48.5702 81.4962 49.3896 85.3664 47.8255C87.2856 47.0499 87.7756 45.565 88.3322 43.8787L88.3462 43.8363C88.4806 43.429 88.6339 42.9734 88.8261 42.5602C89.0189 42.1457 89.2901 41.6846 89.7096 41.3106C90.6803 40.4454 91.9335 40.4503 93.2628 40.902C95.1999 41.5602 96.8237 41.3079 97.8382 40.6729C98.8131 40.0626 99.3313 39.052 99.1111 37.7681C98.9874 37.0468 99.0869 36.3612 99.4454 35.7549C99.7812 35.1869 100.277 34.8051 100.727 34.5311C101.176 34.2579 101.692 34.0277 102.156 33.8231C102.199 33.8041 102.242 33.7852 102.285 33.7664C102.727 33.5716 103.152 33.3847 103.575 33.1633C104.488 32.6862 105.283 32.1034 105.84 31.1942C106.395 30.2896 106.801 28.9177 106.659 26.7089C106.467 23.7126 104.469 22.0399 102.187 20.9792C101.051 20.451 99.9104 20.1096 98.998 19.8507C98.9219 19.8291 98.8456 19.8076 98.7699 19.7863C98.4157 19.6864 98.073 19.5899 97.813 19.5015C97.6591 19.4492 97.4606 19.3759 97.2794 19.276C97.1892 19.2262 97.0493 19.141 96.9125 19.009C96.7811 18.8823 96.5577 18.6204 96.4912 18.2154C96.4702 18.0879 96.4627 17.9315 96.4583 17.8427L96.458 17.8364C96.4544 17.7619 96.4506 17.6703 96.4464 17.5709C96.4442 17.5167 96.4418 17.4602 96.4393 17.4028C96.4247 17.066 96.4032 16.6269 96.3617 16.1142C96.2783 15.0844 96.1155 13.7761 95.776 12.4482C95.075 9.70591 93.7476 7.3307 91.3081 6.61663C88.6626 5.84228 86.3948 6.66402 84.6045 7.79005C83.708 8.35392 82.9607 8.97679 82.3669 9.48796C82.3087 9.53808 82.2502 9.58867 82.1921 9.63896C81.9697 9.8313 81.7522 10.0194 81.5733 10.1611C81.4594 10.2513 81.3202 10.356 81.1734 10.4433L81.1713 10.4446ZM83.2069 5.56803C85.3464 4.22238 88.4069 3.0323 92.0455 4.09733C95.89 5.22265 97.5635 8.84167 98.3193 11.7981C98.7082 13.3196 98.8878 14.7867 98.9781 15.9023C99.0173 16.3855 99.0399 16.8063 99.0551 17.1383C99.1714 17.1719 99.3027 17.209 99.4511 17.2509C99.5335 17.2741 99.6212 17.2989 99.7145 17.3254C100.647 17.5901 101.957 17.9775 103.294 18.5989C105.958 19.8374 108.997 22.1471 109.279 26.5409C109.446 29.1468 108.982 31.0908 108.079 32.5658C107.177 34.0363 105.925 34.8969 104.792 35.4896C104.285 35.7542 103.781 35.9762 103.348 36.1664C103.303 36.1863 103.259 36.2058 103.215 36.225C102.73 36.439 102.37 36.6042 102.091 36.7738C101.814 36.9427 101.729 37.051 101.705 37.0909C101.705 37.0909 101.705 37.0907 101.705 37.0909C101.702 37.0953 101.667 37.1395 101.698 37.3244C102.105 39.6942 101.077 41.7425 99.2309 42.8979C97.4246 44.0286 94.953 44.2487 92.4182 43.3874C91.9601 43.2317 91.7037 43.2166 91.5814 43.2274C91.4956 43.2349 91.4759 43.2526 91.4583 43.2684L91.4563 43.2702C91.4117 43.3099 91.3243 43.4136 91.2062 43.6674C91.0876 43.9224 90.9777 44.2386 90.8389 44.6591C90.8182 44.7219 90.7971 44.7863 90.7755 44.8522C90.2442 46.4757 89.4108 49.0223 86.3499 50.2593C81.6001 52.1788 77.7853 51.1712 75.1386 49.6493C73.8345 48.8995 72.8245 48.0332 72.124 47.3628C71.9934 47.2378 71.8726 47.1187 71.7629 47.0086C71.2934 47.3757 70.6411 47.8544 69.8245 48.294C68.0333 49.2583 65.4592 50.0275 62.2419 49.16C60.3188 48.6415 58.9301 47.7273 57.9639 46.5789C57.0073 45.442 56.5289 44.1522 56.2918 42.9717C56.0558 41.7969 56.0507 40.6872 56.0702 39.8796C56.0748 39.6875 56.0801 39.5285 56.0848 39.3896C56.0899 39.2385 56.0942 39.1114 56.0958 38.9918C56.022 38.9279 55.9301 38.8518 55.8165 38.7598C55.7373 38.6957 55.6489 38.6249 55.5531 38.5483C55.2557 38.3104 54.8877 38.0161 54.5076 37.6884C53.492 36.8127 52.2472 35.5829 51.3561 33.9449C49.6047 30.7254 48.1892 24.1592 52.7624 17.2764C53.9052 15.5565 55.6348 14.3723 57.4777 13.5501C59.3256 12.7258 61.3713 12.2273 63.2649 11.9254C66.2694 11.4464 69.0293 11.4417 70.2626 11.4881C70.3241 11.3655 70.399 11.2087 70.4965 11.0047L70.5078 10.981C70.8393 10.2868 71.3833 9.1474 72.3309 8.36732C74.2732 6.76839 76.3613 6.79324 77.9316 7.16424C78.7037 7.34666 79.3743 7.61642 79.8553 7.81814C79.9299 7.84945 79.9967 7.8777 80.0574 7.90336C80.0871 7.91594 80.1154 7.9279 80.1424 7.93929C80.2298 7.86524 80.329 7.77952 80.4443 7.67989C80.5089 7.62397 80.5787 7.56367 80.6543 7.49859C81.2707 6.96791 82.1386 6.23999 83.2069 5.56803ZM56.0921 38.7437C56.0924 38.7459 56.0926 38.7488 56.0929 38.7528C56.0892 38.7301 56.0901 38.725 56.0921 38.7437Z" fill="#44358C"/>
<path fill-rule="evenodd" clip-rule="evenodd" d="M48 106.375C47.2406 106.375 46.625 105.759 46.625 105C46.625 104.241 47.2406 103.625 48 103.625C48.7594 103.625 49.375 104.241 49.375 105C49.375 105.759 48.7594 106.375 48 106.375ZM48 109C45.7909 109 44 107.209 44 105C44 102.791 45.7909 101 48 101C50.2091 101 52 102.791 52 105C52 107.209 50.2091 109 48 109Z" fill="#44358C"/>
<path fill-rule="evenodd" clip-rule="evenodd" d="M28.9267 61.0566C29.0159 61.1106 29.3345 61.3038 29.757 61.3038C30.1071 61.3038 30.4366 61.1747 30.5632 61.1251C30.5674 61.1234 30.5715 61.1218 30.5753 61.1203C30.7079 61.0686 30.867 61 31.0161 60.9358C31.0627 60.9157 31.1083 60.8961 31.1519 60.8775C31.5547 60.7054 31.9989 60.5276 32.4803 60.4118C33.4143 60.1871 34.3869 60.2108 35.3249 60.9971C35.6935 61.3061 35.9771 61.8386 36.3064 62.5407C36.3196 62.5688 36.3332 62.5979 36.3472 62.628C36.4771 62.9062 36.6425 63.2607 36.8205 63.5354C36.9217 63.6914 37.0843 63.9154 37.3244 64.1012C37.5891 64.306 37.9982 64.4982 38.5058 64.4364C38.5036 64.4367 38.5046 64.4366 38.509 64.4363C38.5223 64.4352 38.5668 64.4315 38.6518 64.4269C38.7537 64.4214 38.8935 64.4155 39.067 64.411C39.4139 64.4018 39.8877 64.3979 40.4533 64.4112C41.5871 64.4379 43.0711 64.5331 44.6309 64.7863C46.1967 65.0406 47.7963 65.4473 49.1828 66.0772C50.573 66.7088 51.6697 67.5281 52.3458 68.5642C55.8452 73.9274 54.7088 78.9048 53.4922 81.1821C52.8998 82.291 52.0397 83.1789 51.2288 83.8908C50.9267 84.156 50.6503 84.3812 50.3909 84.5925C50.2973 84.6688 50.2059 84.7432 50.1163 84.8171C49.9566 84.9488 49.7925 85.0872 49.6511 85.2208C49.5272 85.3378 49.336 85.5282 49.1937 85.767C49.0159 86.0654 48.9824 86.3715 48.9711 86.4783C48.9549 86.6309 48.9525 86.788 48.9532 86.9202C48.9539 87.0723 48.9603 87.2728 48.9668 87.4753C48.9707 87.5994 48.9747 87.7242 48.9774 87.8391C48.9935 88.518 48.9834 89.31 48.8262 90.107C48.67 90.8991 48.377 91.6499 47.8587 92.2772C47.3508 92.892 46.5645 93.464 45.2882 93.8144C43.1738 94.395 41.5328 93.8932 40.3446 93.2418C39.7403 92.9105 39.2525 92.5391 38.8728 92.2329C38.8199 92.1903 38.7627 92.1435 38.7047 92.0962C38.5799 91.9942 38.4514 91.8893 38.3542 91.8154C38.281 91.7596 38.1677 91.6761 38.04 91.6052C37.9756 91.5694 37.8687 91.5148 37.7329 91.473C37.6098 91.4351 37.3518 91.3724 37.0354 91.4391C36.7273 91.5039 36.515 91.6666 36.4735 91.6984C36.4718 91.6996 36.4704 91.7007 36.4693 91.7016C36.3936 91.7588 36.3302 91.817 36.2895 91.8554C36.2065 91.9339 36.1133 92.0313 36.0322 92.1165C36.0104 92.1394 35.9881 92.1629 35.9651 92.1871C35.8022 92.3586 35.6092 92.5618 35.3716 92.7933C34.8315 93.3197 34.0887 93.9638 33.1537 94.5112C31.3237 95.5828 28.72 96.3168 25.3106 94.9138C23.6508 94.2307 23.228 92.9265 22.7237 91.3707L22.7184 91.3543C22.5983 90.9838 22.4595 90.5633 22.2846 90.1805C22.1095 89.7972 21.8591 89.3609 21.4658 89.0039C20.5419 88.1653 19.3512 88.1816 18.1346 88.6026C16.4382 89.1896 15.0371 88.9587 14.1745 88.4089C13.3489 87.8826 12.8988 87.0065 13.09 85.8712C13.2038 85.1959 13.1133 84.5477 12.7783 83.9707C12.4643 83.4299 12.0017 83.0682 11.5882 82.8121C11.177 82.5573 10.7067 82.3438 10.2926 82.1579C10.2541 82.1407 10.2159 82.1235 10.1779 82.1065C9.7812 81.9287 9.40578 81.7604 9.03156 81.5612C8.22857 81.1337 7.53896 80.6172 7.05555 79.8139C6.57357 79.0131 6.21177 77.7844 6.33767 75.7852C6.5064 73.1062 8.25408 71.6139 10.2675 70.6608C11.2727 70.1849 12.2832 69.8766 13.0982 69.6412C13.1653 69.6218 13.2329 69.6024 13.3003 69.583C13.6172 69.4921 13.9291 69.4026 14.166 69.3206C14.3059 69.2722 14.4938 69.202 14.6677 69.1043C14.7545 69.0556 14.891 68.9709 15.0248 68.8394C15.1542 68.7123 15.3702 68.4533 15.4343 68.0559C15.4539 67.9342 15.4609 67.7871 15.4647 67.7071L15.4651 67.6999C15.4683 67.6318 15.4718 67.5478 15.4755 67.4569C15.4775 67.4076 15.4796 67.3563 15.4818 67.3044C15.4949 66.9981 15.5141 66.5993 15.5511 66.1338C15.6255 65.1986 15.7705 64.0123 16.0725 62.8096C16.6998 60.3109 17.875 58.2105 19.9799 57.5831C22.2856 56.8959 24.2664 57.6207 25.8501 58.6351C26.6431 59.143 27.3056 59.7049 27.8358 60.1698C27.8871 60.2147 27.9389 60.2603 27.9906 60.3058C28.1898 60.4813 28.3875 60.6554 28.5501 60.7866C28.6534 60.8699 28.7836 60.9699 28.9231 61.0544L28.9267 61.0566ZM27.2659 56.4246C25.3336 55.187 22.547 54.0788 19.2301 55.0675C15.7123 56.116 14.2026 59.477 13.5265 62.1705C13.1767 63.5638 13.0154 64.9063 12.9343 65.9257C12.9022 66.3296 12.8825 66.6857 12.8689 66.9754C12.7895 66.9985 12.7027 67.0235 12.6074 67.0508C12.5333 67.0721 12.4542 67.0949 12.3696 67.1193C11.5335 67.3609 10.3518 67.7166 9.14438 68.2882C6.73262 69.4299 3.9732 71.566 3.71786 75.6202C3.56749 78.0078 3.98363 79.8003 4.80644 81.1675C5.62784 82.5324 6.76988 83.331 7.79804 83.8783C8.25549 84.1218 8.71167 84.3261 9.09812 84.4992C9.13869 84.5173 9.17849 84.5351 9.21745 84.5526C9.65277 84.7481 9.96581 84.8949 10.206 85.0437C10.4439 85.191 10.5007 85.2759 10.5082 85.2888C10.5085 85.2894 10.5087 85.2891 10.5089 85.2898C10.509 85.2904 10.5093 85.2917 10.5097 85.2945C10.5112 85.304 10.5165 85.3463 10.5015 85.4353C10.132 87.629 11.0654 89.54 12.7636 90.6224C14.4249 91.6813 16.6881 91.8808 18.9929 91.0833C19.3911 90.9455 19.597 90.9384 19.6762 90.9455C19.6888 90.9466 19.6976 90.948 19.7032 90.9492C19.727 90.9715 19.7965 91.0513 19.897 91.2713C20.0002 91.4974 20.0969 91.7801 20.2213 92.1638C20.2404 92.2228 20.2599 92.2836 20.28 92.3459C20.7534 93.8204 21.5142 96.19 24.3116 97.3413C28.6149 99.1122 32.0801 98.1817 34.4801 96.7765C35.6602 96.0855 36.5726 95.2882 37.2036 94.6733C37.2852 94.5938 37.3625 94.5169 37.4352 94.4436C37.8486 94.7678 38.4025 95.1707 39.0828 95.5436C40.7097 96.4355 43.0552 97.1497 45.9832 96.3458C47.7325 95.8655 49.0002 95.0169 49.8823 93.9492C50.7541 92.8941 51.1874 91.7007 51.4016 90.615C51.6147 89.5342 51.6191 88.5148 51.6017 87.777C51.5975 87.5995 51.5927 87.4541 51.5885 87.3277C51.5846 87.2109 51.5813 87.1105 51.5795 87.0163C51.6365 86.9669 51.7048 86.9096 51.7865 86.8423C51.8564 86.7846 51.9348 86.7207 52.02 86.6514C52.2864 86.4344 52.6185 86.1638 52.9607 85.8634C53.8751 85.0605 55.0009 83.9287 55.8075 82.419C57.3887 79.4592 58.6607 73.4386 54.5442 67.1298C53.5052 65.5374 51.9343 64.444 50.2685 63.6873C48.599 62.9288 46.7542 62.4717 45.0515 62.1953C42.4304 61.7697 40.015 61.7527 38.8557 61.7914C38.8087 61.694 38.7526 61.5744 38.683 61.4261L38.6711 61.4008C38.3761 60.7714 37.8803 59.714 37.0113 58.9855C35.2276 57.4902 33.3032 57.5139 31.8663 57.8596C31.1624 58.029 30.5527 58.279 30.1208 58.4634C30.0589 58.4899 30.0034 58.5138 29.9529 58.5355C29.8938 58.4839 29.8287 58.4266 29.7561 58.3627C29.6979 58.3115 29.6349 58.256 29.5662 58.1958C29.0137 57.7115 28.2309 57.0427 27.2659 56.4246ZM29.5295 58.7073C29.5293 58.7075 29.5334 58.7065 29.5423 58.7036C29.5341 58.7057 29.5296 58.7072 29.5295 58.7073ZM39.0376 62.1282C39.0376 62.1281 39.0361 62.1259 39.0329 62.1219C39.036 62.1264 39.0376 62.1284 39.0376 62.1282Z" fill="#44358C"/>
<path fill-rule="evenodd" clip-rule="evenodd" d="M49.3156 17.9967C49.3126 18.0141 49.3125 18.0147 49.3125 18C49.3125 18.7249 48.7249 19.3125 48 19.3125C47.2751 19.3125 46.6875 18.7249 46.6875 18C46.6875 17.6539 46.7802 17.2519 46.8846 16.8978C46.9994 16.5082 47.1666 16.0514 47.3858 15.5562C47.8238 14.5669 48.4897 13.3786 49.4144 12.2279C51.2672 9.9221 54.2354 7.6875 58.5 7.6875C59.2249 7.6875 59.8125 8.27513 59.8125 9C59.8125 9.72487 59.2249 10.3125 58.5 10.3125C55.2646 10.3125 52.9828 11.9779 51.4606 13.8721C50.6978 14.8214 50.145 15.8081 49.7861 16.6188C49.6069 17.0236 49.4811 17.3731 49.4025 17.6397C49.3419 17.8455 49.3221 17.9595 49.3156 17.9967Z" fill="#44358C"/>
<path fill-rule="evenodd" clip-rule="evenodd" d="M61.5 75.6875C62.2249 75.6875 62.8125 76.2751 62.8125 77C62.8125 78.0854 62.6051 80.7713 61.7186 82.9875C61.2499 84.1593 60.4102 85.3996 59.6124 86.429C58.8016 87.4752 57.9647 88.3914 57.4281 88.9281C56.9155 89.4406 56.0845 89.4406 55.5719 88.9281C55.0594 88.4155 55.0594 87.5845 55.5719 87.0719C56.0353 86.6086 56.7984 85.7748 57.5376 84.821C58.2898 83.8504 58.9501 82.8407 59.2814 82.0125C59.9949 80.2287 60.1875 77.9146 60.1875 77C60.1875 76.2751 60.7751 75.6875 61.5 75.6875Z" fill="#44358C"/>
</svg>
