<svg width="112" height="113" viewBox="0 0 112 113" fill="none" xmlns="http://www.w3.org/2000/svg">
<path fill-rule="evenodd" clip-rule="evenodd" d="M31.6648 78.0007C32.2357 78.4413 32.3364 79.255 31.8897 79.8182C31.3644 80.4804 30.8386 81.7138 31.0808 83.1516C31.3152 84.543 32.3121 86.3681 35.2872 88.1685C38.266 89.9711 42.2876 90.9739 46.2026 91.468C50.097 91.9596 53.75 91.9316 55.893 91.7586C56.6154 91.7004 57.249 92.2308 57.3081 92.9435C57.3672 93.6562 56.8294 94.2811 56.107 94.3394C53.7919 94.5262 49.9552 94.5522 45.8695 94.0365C41.8044 93.5235 37.3555 92.4579 33.9146 90.3757C30.4699 88.2912 28.8811 85.8897 28.4913 83.5761C28.1094 81.3089 28.921 79.3588 29.8223 78.2225C30.269 77.6594 31.0939 77.56 31.6648 78.0007Z" fill="#44358C"/>
<path fill-rule="evenodd" clip-rule="evenodd" d="M97.6657 77.7342C98.3858 77.6524 99.0368 78.162 99.1197 78.8723C99.3969 81.2471 97.2495 85.3299 89.9175 88.2039C82.7326 91.0204 74.2444 93.2832 67.9514 93.2832C67.2265 93.2832 66.6389 92.7035 66.6389 91.9885C66.6389 91.2734 67.2265 90.6938 67.9514 90.6938C73.7561 90.6938 81.882 88.5674 88.9481 85.7976C95.8672 83.0854 96.584 79.7863 96.5119 79.1685C96.429 78.4581 96.9456 77.816 97.6657 77.7342Z" fill="#44358C"/>
<path fill-rule="evenodd" clip-rule="evenodd" d="M34.805 96.9212C35.3438 96.4429 36.1737 96.486 36.6586 97.0175C36.6753 97.0358 36.693 97.0552 36.7115 97.0755C37.5961 98.0457 40.4474 101.173 43.2282 103.001C43.8313 103.398 43.9943 104.202 43.5922 104.797C43.1901 105.392 42.3752 105.553 41.7721 105.156C38.7067 103.14 35.6722 99.8088 34.7843 98.8341C34.7566 98.8036 34.7309 98.7754 34.7074 98.7497C34.2225 98.2182 34.2662 97.3996 34.805 96.9212Z" fill="#44358C"/>
<path fill-rule="evenodd" clip-rule="evenodd" d="M102.335 55.4375C102.998 55.1478 103.773 55.443 104.067 56.0967C104.547 57.1655 104.739 58.8881 104.569 60.6683C104.395 62.4858 103.825 64.5686 102.579 66.344C97.7607 73.2096 87.2946 78.2168 71.1948 80.5918C60.2303 82.2093 51.9038 81.3255 45.6357 79.6531C39.8764 78.1165 35.8935 75.921 33.304 74.4936C33.0778 74.3689 32.8623 74.2501 32.6572 74.1381C32.023 73.7919 31.7934 73.0041 32.1443 72.3784C32.4953 71.7528 33.294 71.5263 33.9282 71.8725C34.1352 71.9855 34.3507 72.1042 34.575 72.2278C37.1468 73.6445 40.8829 75.7026 46.3211 77.1535C52.2279 78.7295 60.1884 79.5973 70.8065 78.0309C86.7054 75.6855 96.2393 70.8282 100.421 64.8701C101.343 63.5558 101.811 61.934 101.955 60.425C102.103 58.8789 101.895 57.6534 101.667 57.1457C101.373 56.4919 101.672 55.7272 102.335 55.4375Z" fill="#44358C"/>
<path fill-rule="evenodd" clip-rule="evenodd" d="M86.7411 23.8147C87.2873 24.2848 87.3437 25.1027 86.8672 25.6415C85.9008 26.7341 83.7359 28.2858 80.3073 29.7991C76.8417 31.3287 72.0003 32.8571 65.5931 33.8449C52.8802 35.805 41.918 35.6464 37.9618 35.3137C37.2396 35.253 36.704 34.6261 36.7656 33.9137C36.8271 33.2012 37.4626 32.6729 38.1848 32.7336C41.9335 33.0489 52.6848 33.2143 65.1877 31.2866C71.3884 30.3306 76.0028 28.8622 79.2352 27.4355C82.5045 25.9925 84.2796 24.6284 84.8892 23.9392C85.3657 23.4004 86.1948 23.3447 86.7411 23.8147Z" fill="#44358C"/>
<path fill-rule="evenodd" clip-rule="evenodd" d="M19.6621 51.8813C20.3357 51.6174 21.0988 51.9422 21.3663 52.6068C22.1317 54.5079 23.8166 57.333 26.8119 59.6581C28.2385 60.7655 30.5259 61.7756 32.7576 62.541C34.9884 63.3061 36.9505 63.7558 37.6372 63.8269C38.3581 63.9015 38.8812 64.5385 38.8056 65.2497C38.7299 65.9608 38.0842 66.4768 37.3633 66.4022C36.3794 66.3003 34.1952 65.7755 31.8956 64.9868C29.5968 64.1984 26.9695 63.0755 25.1886 61.693C21.7687 59.0384 19.8319 55.8111 18.9266 53.5624C18.6591 52.8979 18.9884 52.1452 19.6621 51.8813Z" fill="#44358C"/>
<path fill-rule="evenodd" clip-rule="evenodd" d="M103.237 38.9836C103.871 38.6372 104.67 38.8634 105.021 39.4889C106.375 41.8997 106.082 45.5517 103.911 49.3183C101.711 53.1355 97.5073 57.2521 90.6118 60.8345C76.4198 68.2076 56.4661 68.8828 45.0651 67.335C44.347 67.2375 43.845 66.5842 43.9438 65.8759C44.0426 65.1675 44.7049 64.6723 45.423 64.7698C56.5342 66.2782 75.8673 65.568 89.3885 58.5434C95.9547 55.1322 99.734 51.3271 101.629 48.0387C103.553 44.6996 103.465 42.0621 102.725 40.7435C102.374 40.118 102.603 39.3301 103.237 38.9836Z" fill="#44358C"/>
<path fill-rule="evenodd" clip-rule="evenodd" d="M102.156 29.6167C102.754 30.0207 102.907 30.8265 102.498 31.4165C101.735 32.5157 98.6402 36.6559 94.2281 39.5574C89.0712 42.9487 85.2545 43.9065 80.077 45.2056C79.0042 45.4748 77.873 45.7587 76.6593 46.0819C75.9595 46.2683 75.239 45.8597 75.0501 45.1694C74.8612 44.4791 75.2753 43.7684 75.9751 43.582C77.2562 43.2408 78.4273 42.9461 79.5188 42.6713C84.6423 41.3816 88.0116 40.5335 92.772 37.4029C96.7718 34.7725 99.64 30.95 100.332 29.9534C100.741 29.3635 101.558 29.2127 102.156 29.6167Z" fill="#44358C"/>
<path fill-rule="evenodd" clip-rule="evenodd" d="M16.8614 18.0979C17.3084 18.6608 17.2082 19.4746 16.6375 19.9155C13.8226 22.0908 10.5749 25.366 9.10471 28.9283C8.37932 30.686 8.10819 32.4597 8.47667 34.1955C8.84309 35.9216 9.86911 37.7392 11.9671 39.5501C18.1876 44.9192 27.7871 47.1018 38.0103 47.6193C48.1863 48.1344 58.7187 46.99 66.5795 45.936C67.2977 45.8397 67.9591 46.336 68.0568 47.0445C68.1544 47.7531 67.6513 48.4055 66.933 48.5018C59.0376 49.5604 48.3061 50.7333 37.8758 50.2053C27.4927 49.6797 17.1435 47.4588 10.2386 41.4988C7.78905 39.3846 6.41004 37.094 5.90739 34.7262C5.4068 32.3681 5.80256 30.0622 6.67346 27.952C8.39585 23.7785 12.0584 20.1648 15.0187 17.8771C15.5894 17.4362 16.4143 17.535 16.8614 18.0979Z" fill="#44358C"/>
<path fill-rule="evenodd" clip-rule="evenodd" d="M97.6292 16.1276C93.3797 11.3779 81.469 4.04674 48.962 8.71823C36.0263 10.5772 29.4409 14.3701 26.3469 18.0898C23.2935 21.7608 23.5069 25.5165 24.5335 27.8032C24.827 28.457 24.5277 29.2217 23.8649 29.5112C23.2021 29.8008 22.4269 29.5055 22.1333 28.8517C20.7371 25.7417 20.5871 20.9323 24.3176 16.4473C28.0074 12.0112 35.3531 8.05718 48.5836 6.15587C81.4921 1.42669 94.5017 8.71876 99.5973 14.4142C101.524 16.5679 102.835 18.4716 103.693 19.9952C104.535 21.49 104.979 22.6848 105.1 23.4182C105.217 24.1239 104.732 24.7895 104.017 24.9048C103.301 25.0202 102.627 24.5416 102.51 23.8359C102.458 23.5248 102.175 22.6306 101.399 21.253C100.639 19.9042 99.4404 18.152 97.6292 16.1276Z" fill="#44358C"/>
<path fill-rule="evenodd" clip-rule="evenodd" d="M87.9337 96.7561C88.4433 97.2646 88.4385 98.0843 87.923 98.587C87.3153 99.1796 83.1063 102.915 75.9951 105.771C68.3106 108.856 61.4232 109.543 56.9335 109.317C56.2096 109.281 55.6526 108.672 55.6895 107.958C55.7264 107.244 56.3431 106.694 57.067 106.731C61.1872 106.938 67.6899 106.31 75.0054 103.372C81.7399 100.668 85.6672 97.1457 86.0776 96.7455C86.5931 96.2428 87.4241 96.2476 87.9337 96.7561Z" fill="#44358C"/>
<path fill-rule="evenodd" clip-rule="evenodd" d="M45.3053 105.483C45.6706 104.866 46.4743 104.657 47.1004 105.017C47.1276 105.033 47.162 105.054 47.2036 105.08C47.6795 105.37 49.0967 106.237 51.5001 106.237C52.225 106.237 52.8126 106.817 52.8126 107.532C52.8126 108.247 52.225 108.826 51.5001 108.826C49.8181 108.826 48.4774 108.489 47.4979 108.114C47.0092 107.927 46.6143 107.732 46.3156 107.569C46.0728 107.436 45.7545 107.241 45.7777 107.254C45.1516 106.894 44.9401 106.101 45.3053 105.483Z" fill="#44358C"/>
<path fill-rule="evenodd" clip-rule="evenodd" d="M5.42827 25.2347C5.94083 25.7403 5.94083 26.5601 5.42826 27.0657C4.54285 27.9391 3.93475 29.8328 3.87478 32.1876C3.81619 34.4884 4.29437 36.8302 5.14755 38.3451C7.05087 41.7246 10.8202 45.7564 15.3772 47.105C16.0715 47.3104 16.4655 48.0322 16.2572 48.7171C16.0489 49.402 15.3172 49.7906 14.6229 49.5852C9.17988 47.9744 4.94957 43.3255 2.85289 39.6027C1.70607 37.5664 1.18422 34.7294 1.25061 32.1226C1.31562 29.5699 1.9575 26.8274 3.57212 25.2347C4.08468 24.7291 4.91571 24.7291 5.42827 25.2347Z" fill="#44358C"/>
<path fill-rule="evenodd" clip-rule="evenodd" d="M90.085 6.66323C83.0191 4.33988 73.3761 3.11802 69.0486 3.27613C68.3242 3.30259 67.7152 2.74479 67.6884 2.03023C67.6616 1.31568 68.2271 0.714963 68.9514 0.688498C73.6239 0.51779 83.5809 1.79514 90.9151 4.2067C98.3863 6.66334 102.771 11.0526 104.107 13.1246C104.496 13.7279 104.316 14.5281 103.705 14.912C103.093 15.2959 102.282 15.1181 101.893 14.5148C100.896 12.9699 97.0137 8.9415 90.085 6.66323Z" fill="#44358C"/>
<path fill-rule="evenodd" clip-rule="evenodd" d="M107 60.8604C107.725 60.8604 108.313 61.44 108.313 62.1551C108.313 63.3563 107.857 66.1801 106.092 68.7919C105.195 70.1192 103.841 71.4418 102.573 72.5283C101.292 73.6263 100.022 74.5473 99.2281 75.0696C98.6249 75.4662 97.81 75.3055 97.408 74.7105C97.0059 74.1156 97.1688 73.3117 97.772 72.9151C98.4777 72.451 99.6581 71.5963 100.852 70.5735C102.059 69.5392 103.205 68.3956 103.908 67.3555C105.343 65.2324 105.688 62.9267 105.688 62.1551C105.688 61.44 106.275 60.8604 107 60.8604Z" fill="#44358C"/>
<path fill-rule="evenodd" clip-rule="evenodd" d="M83.7621 80.5419C83.9612 81.2294 83.5577 81.946 82.8607 82.1425C80.4781 82.814 74.1441 84.3424 67.6629 85.1416C64.3781 85.5466 60.8461 85.6296 57.7971 85.5081C54.7849 85.3881 52.1153 85.0639 50.6086 84.5994C49.9167 84.3862 49.5311 83.66 49.7474 82.9775C49.9636 82.295 50.6997 81.9146 51.3916 82.1279C52.5516 82.4855 54.932 82.8025 57.9031 82.9208C60.8374 83.0377 64.2221 82.9563 67.3373 82.5722C73.6562 81.793 79.8555 80.2964 82.1395 79.6527C82.8365 79.4562 83.563 79.8544 83.7621 80.5419Z" fill="#44358C"/>
<path fill-rule="evenodd" clip-rule="evenodd" d="M97.2282 93.137C97.8313 93.5337 97.9943 94.3375 97.5922 94.9324C95.5421 97.9659 92.2098 102.587 85.1656 106.674C79.0259 110.237 75.6103 111.438 73.9868 112.008C73.7842 112.08 73.6096 112.141 73.461 112.196C72.7822 112.447 72.0257 112.108 71.7712 111.438C71.5167 110.769 71.8605 110.023 72.5393 109.771C72.6894 109.716 72.8645 109.654 73.0667 109.583C74.6511 109.027 77.8979 107.887 83.8346 104.442C90.3904 100.638 93.4582 96.3813 95.408 93.4961C95.8101 92.9011 96.625 92.7404 97.2282 93.137Z" fill="#44358C"/>
</svg>
