<svg width="207" height="154" viewBox="0 0 207 154" fill="none" xmlns="http://www.w3.org/2000/svg">
<path d="M77.0802 142.784C68.943 115.099 70.4528 87.0158 77.9384 66.2834C86.5842 42.3248 104.051 39.7422 114.325 43.3102C125.49 47.1881 131.672 58.8296 133.007 91.8393C134.342 124.857 144.967 128.727 143.084 136.959C141.2 145.184 125.125 142.045 118.6 136.228C118.6 136.228 121.676 155.276 108.469 153.933C97.1927 152.789 93.0685 142.824 93.0685 142.824C93.0685 142.824 83.3023 164.001 77.0722 142.792L77.0802 142.784Z" fill="#DBC5FF"/>
<path opacity="0.25" d="M96.0246 59.0545C95.9451 63.7827 92.7109 67.5175 90.3826 71.3477C85.877 78.7379 84.9949 87.1771 86.0279 95.6401C87.212 105.303 91.9401 114.775 91.8606 124.526C91.813 130.191 89.6118 136.318 83.5645 137.876C81.3951 138.432 79.5516 138.082 78.0974 137.16C72.1295 111.167 73.0434 86.5573 80.378 67.3188C83.1752 59.9842 88.102 53.5873 92.1626 49.8843C94.777 51.7994 96.0723 56.1064 96.0246 59.0545Z" fill="#F6F1FF"/>
<path d="M136.726 136.268C138.935 133.273 137.243 129.546 135.789 126.621C129.567 114.082 128.581 101.518 128.073 87.7155C127.691 77.4168 128.025 64.7581 121.334 56.2156C118.124 52.1232 113.689 49.1751 108.993 47.0295C104.368 44.9237 100.252 44.4469 95.6907 44.3913C102.374 41.2763 109.231 41.5305 114.333 43.2947C125.498 47.1725 131.68 58.8141 133.015 91.8238C134.35 124.841 144.975 128.711 143.091 136.944C141.748 142.808 133.198 142.896 126.038 140.353C129.932 140.083 134.438 139.352 136.726 136.26L136.726 136.268Z" fill="#D0B4FF"/>
<path d="M110.536 149.055C115.2 146.973 116.75 143.199 118.879 139.083C119.142 144.343 118.442 154.936 108.477 153.927C104.663 153.537 101.667 152.139 99.3707 150.462C103.161 150.748 106.92 150.676 110.536 149.063L110.536 149.055Z" fill="#D0B4FF"/>
<path d="M80.4809 146.662C83.5165 148.474 87.9824 148.649 90.9385 146.623C87.8235 151.367 81.9669 157.327 77.5884 144.302C78.4466 145.216 79.4002 146.019 80.473 146.662L80.4809 146.662Z" fill="#D0B4FF"/>
<path d="M117.282 69.0251C115.55 63.542 109.216 62.6282 106.228 64.885C100.801 68.9853 98.8302 81.5408 105.609 85.5061C112.387 89.4714 121.152 81.2547 117.282 69.0251Z" fill="#F8F8F8"/>
<path d="M94.1961 69.0406C92.6227 64.0661 86.8853 63.2397 84.1756 65.2898C79.2567 69.0088 77.4688 80.3881 83.6114 83.98C89.754 87.5718 97.7005 80.1339 94.1961 69.0406Z" fill="#F8F8F8"/>
<path opacity="0.5" d="M116.518 76.0101C116.375 71.1707 112.719 64.6149 107.356 64.2494C110.59 62.8985 115.739 64.162 117.281 69.0252C119.808 77.0114 116.939 83.2891 112.767 85.5777C115.183 83.0825 116.629 79.7291 116.526 76.0101L116.518 76.0101Z" fill="url(#paint0_linear_59817_15185)"/>
<path opacity="0.5" d="M86.2025 64.4005C89.1029 63.7728 92.949 65.0998 94.1966 69.0413C96.5647 76.5189 93.7119 82.3357 89.7228 84.227C94.594 78.14 93.7914 67.7857 86.2025 64.4005Z" fill="url(#paint1_linear_59817_15185)"/>
<path d="M106.737 71.8617C105.036 72.1796 103.463 74.4285 103.971 77.7421C104.48 81.0558 107.905 81.4055 109.097 78.6242C110.606 75.096 109.407 71.3611 106.737 71.8617Z" fill="#484349"/>
<path d="M84.1364 71.6562C82.5947 71.9423 81.1644 73.9845 81.6332 76.9883C82.1021 79.992 85.2012 80.3099 86.274 77.7829C87.6408 74.5884 86.5521 71.2032 84.1364 71.6562Z" fill="#484349"/>
<path d="M100.263 99.1051C98.5 97.499 95 96.4996 92.5263 98.3682" stroke="#B07FFF" stroke-width="2.16" stroke-linecap="round" stroke-linejoin="round"/>
<path d="M119.078 89.9497C120.254 91.0542 119.308 92.6117 117.154 93.6686C114.953 94.7493 111.067 96.2274 106.617 95.4248C99.7676 94.1931 101.762 90.3867 111.83 89.1789C113.658 88.9564 117.504 88.4716 119.078 89.9497Z" fill="#D0B4FF"/>
<path d="M91.0345 91.7978C91.4 93.1964 90.0491 94.2771 88.0466 94.4837C85.9964 94.6983 82.5636 94.6903 79.7108 92.4335C75.3164 88.9609 78.3917 86.2115 86.1633 88.6033C87.5698 89.0404 90.5498 89.9304 91.0424 91.7978L91.0345 91.7978Z" fill="#D0B4FF"/>
<path d="M180.83 59.2232L172.869 72.9791C172.483 73.6457 172.964 74.48 173.734 74.48H177.313C177.845 74.48 178.283 74.8956 178.312 75.4262L178.864 85.6709C178.917 86.6616 180.225 86.9782 180.726 86.1217L189.12 71.7606C189.51 71.094 189.029 70.256 188.257 70.256H183.696C183.143 70.256 182.696 69.8083 182.696 69.256V59.7241C182.696 58.7016 181.342 58.3382 180.83 59.2232Z" stroke="#44358C" stroke-width="2" stroke-linecap="round"/>
<path d="M22.6443 84.1823L15.8812 95.7348C15.4909 96.4014 15.9717 97.24 16.7442 97.24H19.6183C20.1494 97.24 20.5879 97.6552 20.6168 98.1856L21.0812 106.705C21.1351 107.692 22.4371 108.011 22.9405 107.159L30.1078 95.0369C30.502 94.3703 30.0214 93.528 29.247 93.528H25.5072C24.955 93.528 24.5072 93.0803 24.5072 92.528V84.6875C24.5072 83.6676 23.1595 83.3021 22.6443 84.1823Z" stroke="#44358C" stroke-width="2" stroke-linecap="round"/>
<path d="M78.2753 15.0596L73.9207 22.2415C73.5166 22.908 73.9964 23.76 74.7758 23.76H76.2288C76.7592 23.76 77.1973 24.1741 77.2272 24.7036L77.5153 29.8057C77.5705 30.7843 78.8546 31.1074 79.3665 30.2715L84.0678 22.5942C84.4759 21.9279 83.9964 21.072 83.215 21.072H81.1304C80.5782 21.072 80.1304 20.6243 80.1304 20.072V15.578C80.1304 14.5662 78.7999 14.1944 78.2753 15.0596Z" stroke="#44358C" stroke-width="2" stroke-linecap="round"/>
<path d="M169.199 71.733C164.754 71.997 156.93 69.9878 156.126 63.5508C155.013 54.6416 161.617 54.3127 163.447 53.7848C165.277 53.2569 161.355 48.242 166.323 42.4352C171.291 36.6284 179.135 39.2679 182.012 42.4352C184.888 45.6025 183.842 46.9223 184.626 46.9223C185.411 46.9223 189.424 43.1757 194.039 44.5468C199.753 46.2439 199.349 50.6707 198.223 52.993C198.02 53.4114 197.883 53.8112 197.786 54.1786C197.576 54.9785 198.626 56.0233 199.445 56.1408C201.247 56.3996 203.444 57.4031 205.021 59.8555C206.62 62.3415 206.59 68.5657 202.407 70.6773C199.06 72.3665 194.911 72.085 193.255 71.733" stroke="#44358C" stroke-width="2" stroke-linecap="round"/>
<path d="M12.6154 94.7654C8.70377 94.9973 1.8183 93.2317 1.11056 87.5749C0.131013 79.7456 5.94265 79.4566 7.55333 78.9927C9.16401 78.5288 5.71255 74.1217 10.0844 69.0188C14.4562 63.9159 21.3592 66.2354 23.8902 69.0188C26.4213 71.8022 25.5009 72.962 26.1912 72.962C26.8815 72.962 30.4129 69.6695 34.4747 70.8744C39.5023 72.3659 39.1468 76.2561 38.1563 78.2969C38.0203 78.5769 37.9177 78.8475 37.8391 79.1032C37.5959 79.8937 38.6574 80.9542 39.4712 81.1021C41.009 81.3816 42.8198 82.2799 44.1388 84.3276C45.546 86.5122 45.5194 91.982 41.8378 93.8376C38.8926 95.3221 35.2417 95.0747 33.7844 94.7654" stroke="#44358C" stroke-width="2" stroke-linecap="round"/>
<path d="M71.4476 21.8301C68.6027 21.9981 63.5951 20.7195 63.0804 16.6232C62.368 10.9537 66.5947 10.7444 67.7661 10.4085C68.9375 10.0726 66.4273 6.88126 69.6068 3.18603C72.7864 -0.509189 77.8067 1.17046 79.6474 3.18603C81.4882 5.20161 80.8188 6.04144 81.3209 6.04144C81.8229 6.04144 84.3912 3.65724 87.3452 4.52976C91.0017 5.60976 90.7431 8.42683 90.0227 9.90463C90.0124 9.92575 90.0024 9.94681 89.9926 9.96778C89.6429 10.7178 90.724 11.8264 91.5163 12.0653C92.5006 12.3623 93.5644 13.0208 94.3737 14.2717C95.3971 15.8537 95.3777 19.8145 92.7002 21.1583C90.5582 22.2332 87.9031 22.0541 86.8432 21.8301" stroke="#44358C" stroke-width="2" stroke-linecap="round"/>
<defs>
<linearGradient id="paint0_linear_59817_15185" x1="118.226" y1="74.6592" x2="107.356" y2="74.6592" gradientUnits="userSpaceOnUse">
<stop stop-color="#C1C1C1"/>
<stop offset="0.06" stop-color="#C6C6C6"/>
<stop offset="0.43" stop-color="#E1E1E1"/>
<stop offset="0.75" stop-color="#F2F2F2"/>
<stop offset="1" stop-color="#F8F8F8"/>
</linearGradient>
<linearGradient id="paint1_linear_59817_15185" x1="95.0549" y1="74.2383" x2="86.2025" y2="74.2383" gradientUnits="userSpaceOnUse">
<stop stop-color="#C1C1C1"/>
<stop offset="0.06" stop-color="#C6C6C6"/>
<stop offset="0.43" stop-color="#E1E1E1"/>
<stop offset="0.75" stop-color="#F2F2F2"/>
<stop offset="1" stop-color="#F8F8F8"/>
</linearGradient>
</defs>
</svg>
