<svg width="112" height="112" viewBox="0 0 112 112" fill="none" xmlns="http://www.w3.org/2000/svg">
<path fill-rule="evenodd" clip-rule="evenodd" d="M56.9375 12.25C56.9375 10.5586 58.3086 9.1875 60 9.1875H69.3318C72.3825 9.1875 73.5574 13.1609 70.9973 14.82L69.1369 16.0257C68.8708 16.1982 68.8708 16.5876 69.1369 16.76L70.9974 17.9657C73.5574 19.6248 72.3825 23.5982 69.3318 23.5982H59.5625V32.5C59.5625 33.2249 58.9749 33.8125 58.25 33.8125C57.5251 33.8125 56.9375 33.2249 56.9375 32.5V12.25ZM59.5625 20.9732H69.3318C69.4693 20.9732 69.5496 20.9329 69.6029 20.8904C69.665 20.8408 69.7213 20.7616 69.7514 20.6598C69.7815 20.558 69.7773 20.4609 69.7522 20.3855C69.7306 20.3208 69.6851 20.2433 69.5698 20.1686L67.7093 18.9629C65.8466 17.7558 65.8466 15.03 67.7093 13.8229L69.5698 12.6171C69.6851 12.5424 69.7306 12.4649 69.7522 12.4002C69.7773 12.3248 69.7815 12.2277 69.7514 12.1259C69.7213 12.0242 69.665 11.9449 69.6029 11.8954C69.5496 11.8528 69.4693 11.8125 69.3318 11.8125H60C59.7584 11.8125 59.5625 12.0084 59.5625 12.25V20.9732Z" fill="#44358C"/>
<path fill-rule="evenodd" clip-rule="evenodd" d="M36.6108 63.3299C36.2035 63.271 35.8721 63.0411 35.6664 62.74C34.3632 60.8317 33.2369 58.6937 32.2377 56.6723C31.8756 55.9397 31.534 55.2309 31.2068 54.5518C30.6133 53.3203 30.0671 52.1868 29.531 51.1869C29.1211 50.4224 28.7419 49.7845 28.3846 49.2874C28.018 48.7773 27.7283 48.4922 27.5209 48.3556C27.4259 48.2931 27.3744 48.2794 27.3628 48.277C27.3588 48.2761 27.3648 48.2762 27.3624 48.2768C27.3397 48.2829 27.1381 48.3532 26.7863 48.8056C26.433 49.2597 25.3074 51.0339 23.6769 53.7007C22.0727 56.3242 20.0335 59.7216 17.8878 63.3369C13.5945 70.5707 8.88808 78.6544 6.39756 83.1372C6.04553 83.7708 5.24647 83.9991 4.61282 83.6471C3.97917 83.2951 3.75088 82.496 4.10291 81.8623C6.6124 77.3454 11.3345 69.2353 15.6304 61.9971C17.7794 58.3764 19.825 54.9683 21.4373 52.3313C23.0233 49.7375 24.2459 47.796 24.7142 47.194C25.2374 46.5213 25.8795 45.9566 26.683 45.7413C27.5455 45.5101 28.3331 45.7477 28.964 46.1629C29.5612 46.5559 30.0723 47.1377 30.5163 47.7555C30.9696 48.3863 31.4106 49.1374 31.8445 49.9465C32.4054 50.9927 32.9961 52.218 33.6084 53.4881C33.9303 54.1559 34.2582 54.8361 34.5909 55.5091C35.3327 57.0098 36.1176 58.5172 36.971 59.9184C37.4539 59.2541 38.0722 58.3408 38.8005 57.2322C39.7488 55.7888 40.8482 54.0693 42.0402 52.2049C43.0536 50.6199 44.134 48.9301 45.2453 47.2163C47.6438 43.5177 50.1601 39.7491 52.3277 36.8983C53.4083 35.477 54.4302 34.2465 55.3276 33.3596C55.7748 32.9177 56.2236 32.5284 56.6606 32.2413C57.0649 31.9757 57.6216 31.6875 58.2502 31.6875C59.0303 31.6875 59.7623 31.9963 60.3967 32.392C61.0429 32.795 61.692 33.3536 62.333 34.0047C63.6153 35.3075 64.9948 37.1151 66.3974 39.1916C69.2092 43.354 72.2363 48.781 74.9129 53.891L74.9773 54.0139C76.3202 56.5777 77.1647 58.19 77.7772 59.0958C77.785 59.0802 77.7928 59.0643 77.8008 59.048C78.0279 58.5843 78.2856 57.9773 78.6193 57.191L78.6309 57.1636C79.3005 55.5864 80.214 53.4418 81.5946 50.8777C82.4925 49.2103 83.3191 48.0013 84.1257 47.2099C84.9396 46.4114 85.8834 45.8986 86.9534 46.0015C87.9624 46.0986 88.7259 46.7179 89.267 47.2797C89.7721 47.804 90.2549 48.4653 90.6908 49.0625C90.7308 49.1173 90.7703 49.1715 90.8095 49.225C91.2779 49.8652 92.0884 51.3684 93.0811 53.3158C94.0984 55.3115 95.3667 57.895 96.7697 60.7944C98.4536 64.2742 100.34 68.226 102.226 72.179C103.482 74.809 104.737 77.4396 105.933 79.932C106.247 80.5855 105.972 81.3696 105.318 81.6833C104.665 81.9969 103.881 81.7215 103.567 81.068C102.365 78.5632 101.107 75.9282 99.8513 73.2971C97.9681 69.3513 96.089 65.4141 94.4068 61.9378C93.0058 59.0426 91.7471 56.4788 90.7424 54.5079C89.7131 52.4888 89.0066 51.2063 88.691 50.775C88.6609 50.7338 88.6311 50.6931 88.6017 50.6529C88.13 50.0078 87.7512 49.4898 87.3766 49.1009C86.9683 48.6771 86.7606 48.6201 86.7021 48.6145C86.6851 48.6128 86.6358 48.6092 86.5292 48.6576C86.4107 48.7115 86.2222 48.8304 85.9641 49.0836C85.4364 49.6014 84.758 50.5397 83.9059 52.1223C82.5863 54.5729 81.7121 56.6232 81.0472 58.1894L81.0127 58.2708C80.6988 59.0102 80.4171 59.674 80.1583 60.2025C79.9093 60.711 79.5965 61.2814 79.1717 61.6686C78.9369 61.8826 78.6031 62.1018 78.1658 62.1745C77.7128 62.2498 77.3041 62.1422 76.9784 61.9703C76.4153 61.6732 75.9793 61.1175 75.6337 60.6119C74.9303 59.5826 74.0221 57.8483 72.7609 55.44C72.7039 55.331 72.6461 55.2207 72.5876 55.109C69.9231 50.0223 66.9502 44.6993 64.2222 40.6609C62.855 38.6369 61.5797 36.9814 60.4622 35.8462C59.9033 35.2784 59.4162 34.8742 59.0075 34.6192C58.6568 34.4006 58.4305 34.3333 58.3099 34.317C58.275 34.3325 58.207 34.3662 58.1018 34.4353C57.8674 34.5893 57.5574 34.8465 57.1728 35.2267C56.4064 35.9841 55.4719 37.0999 54.4173 38.487C52.3142 41.2531 49.8438 44.9497 47.4478 48.6445C46.3613 50.3199 45.2844 52.0041 44.2684 53.5931C43.0626 55.4788 41.9426 57.2303 40.9944 58.6735C40.1185 60.0068 39.359 61.1239 38.7855 61.8779C38.5074 62.2434 38.2297 62.582 37.9784 62.8186C37.8712 62.9197 37.6619 63.1071 37.3833 63.2255C37.2382 63.2872 36.9593 63.3803 36.6108 63.3299ZM36.1572 60.9266C36.1571 60.9264 36.1615 60.9224 36.1701 60.9157C36.1615 60.9235 36.1573 60.9268 36.1572 60.9266Z" fill="#44358C"/>
<path fill-rule="evenodd" clip-rule="evenodd" d="M55.3373 43.3259C55.9856 43.65 56.2484 44.4384 55.9242 45.0868C55.7598 45.4156 55.0791 46.4992 54.2326 47.8294C53.3559 49.2071 52.2295 50.9592 51.1055 52.7078L51.1043 52.7095C49.9788 54.4604 48.8556 56.2076 47.9826 57.5794C47.5459 58.2657 47.174 58.8545 46.8967 59.3013C46.7578 59.525 46.645 59.7094 46.5606 59.8507C46.5184 59.9213 46.4852 59.9781 46.4603 60.0217C46.4334 60.069 46.4238 60.0876 46.4242 60.0868C46.1001 60.7351 45.3117 60.9979 44.6633 60.6737C44.015 60.3496 43.7522 59.5612 44.0764 58.9128C44.2408 58.584 44.9215 57.5004 45.768 56.1701C46.6446 54.7926 47.7708 53.0407 48.8948 51.2924L48.8962 51.2901C50.0218 49.5392 51.145 47.792 52.018 46.4201C52.4547 45.7339 52.8266 45.1451 53.1039 44.6983C53.2427 44.4746 53.3555 44.2902 53.4399 44.1489C53.4822 44.0783 53.5154 44.0215 53.5403 43.9779C53.5649 43.9347 53.575 43.9154 53.5762 43.9131C53.5763 43.9128 53.5764 43.9128 53.5764 43.9128C53.9005 43.2645 54.6889 43.0017 55.3373 43.3259Z" fill="#44358C"/>
<path fill-rule="evenodd" clip-rule="evenodd" d="M39.9015 68.3607C40.5309 68.7203 40.7495 69.522 40.3899 70.1514C40.3183 70.2766 40.2166 70.4593 40.0904 70.6859C39.6687 71.4433 38.9738 72.6912 38.2197 73.923C37.7269 74.728 37.1927 75.5536 36.67 76.264C36.1685 76.9456 35.6025 77.6267 35.0378 78.0502C34.0489 78.7919 32.852 78.6746 31.9802 78.4633C31.0707 78.2428 30.1011 77.8146 29.2798 77.4496L29.2187 77.4225C28.3621 77.0417 27.6664 76.7325 27.0953 76.5818C26.8432 76.5153 26.6975 76.5017 26.6231 76.5013C26.604 76.5273 26.58 76.5609 26.551 76.6034C26.4591 76.7377 26.3436 76.9202 26.2049 77.1528C25.9278 77.6173 25.5831 78.2392 25.1843 78.9896C24.3881 80.4879 23.4017 82.451 22.354 84.5901C20.2599 88.8656 17.9394 93.8059 16.442 97.0502C16.1382 97.7084 15.3585 97.9957 14.7003 97.6919C14.0421 97.3882 13.7549 96.6084 14.0586 95.9502C15.5612 92.6945 17.8908 87.7348 19.9966 83.4354C21.0489 81.287 22.05 79.2938 22.8663 77.7578C23.2738 76.9909 23.6415 76.3261 23.9504 75.8082C24.2294 75.3404 24.5377 74.8567 24.8222 74.5721C25.7443 73.6501 27.0102 73.8446 27.7647 74.0436C28.5479 74.2502 29.422 74.6395 30.1888 74.9809C30.2417 75.0045 30.2941 75.0278 30.3459 75.0508C31.212 75.4358 31.9611 75.7576 32.5986 75.9122C33.2737 76.0758 33.4517 75.9585 33.4628 75.9502C33.6981 75.7738 34.0738 75.3632 34.5556 74.7083C35.0163 74.0823 35.507 73.3266 35.9809 72.5525C36.7014 71.3755 37.3456 70.2188 37.7711 69.4548C37.9089 69.2075 38.0237 69.0014 38.1107 68.849C38.4704 68.2197 39.2721 68.001 39.9015 68.3607ZM26.5585 76.5061C26.5584 76.506 26.5603 76.5054 26.5646 76.5047C26.5607 76.5058 26.5586 76.5062 26.5585 76.5061Z" fill="#44358C"/>
<path fill-rule="evenodd" clip-rule="evenodd" d="M70.9163 66.2305C71.6173 66.0461 72.3351 66.4648 72.5196 67.1658C72.926 68.7102 73.6594 71.1042 74.5287 73.2432C74.9641 74.3143 75.4206 75.2892 75.8719 76.0515C76.3521 76.8626 76.7241 77.2535 76.9256 77.3744C78.0007 78.0194 78.844 78.2321 79.6079 78.4084C79.6624 78.421 79.7188 78.4337 79.7771 78.4467C80.4719 78.6027 81.4227 78.816 82.1784 79.5718C82.3298 79.7232 82.4703 79.9259 82.5642 80.0651C82.6789 80.2352 82.8125 80.4465 82.9593 80.6867C83.2539 81.1688 83.6244 81.8051 84.042 82.5414C84.8784 84.0162 85.9217 85.9237 86.9587 87.8702C87.9957 89.8166 89.0308 91.8103 89.8504 93.4573C90.6446 95.0534 91.2993 96.4461 91.5048 97.1138C91.718 97.8067 91.3291 98.5411 90.6363 98.7543C89.9435 98.9675 89.209 98.5786 88.9959 97.8858C88.868 97.4702 88.331 96.2963 87.5003 94.6267C86.6948 93.0081 85.6716 91.0372 84.642 89.1045C83.6123 87.1718 82.5805 85.2855 81.7587 83.8364C81.3471 83.1107 80.9926 82.5025 80.7194 82.0555C80.5824 81.8312 80.4715 81.6568 80.3876 81.5325C80.3366 81.4567 80.3075 81.4178 80.2971 81.4037C80.1213 81.2404 79.8972 81.1692 79.0177 80.9662C78.1567 80.7675 76.9999 80.4802 75.575 79.6253C74.7765 79.1462 74.1277 78.2579 73.6131 77.3888C73.0697 76.4709 72.5574 75.3645 72.0969 74.2315C71.1746 71.9621 70.408 69.4561 69.981 67.8339C69.7966 67.1328 70.2153 66.415 70.9163 66.2305Z" fill="#44358C"/>
</svg>
