<svg width="113" height="112" viewBox="0 0 113 112" fill="none" xmlns="http://www.w3.org/2000/svg">
<path fill-rule="evenodd" clip-rule="evenodd" d="M54.9271 15.7166C50.1877 10.777 43.3884 6.79911 34.1516 9.70205C29.593 11.1347 26.6143 13.431 24.646 16.0613C22.666 18.707 21.6531 21.7657 21.1574 24.7917C20.6609 27.8223 20.6913 30.7649 20.7601 33.1598C20.7672 33.4094 20.7749 33.6554 20.7824 33.8962C20.8103 34.7877 20.8359 35.6083 20.8253 36.2823C20.8184 36.7142 20.7966 37.1304 20.7423 37.4987C20.6918 37.8407 20.596 38.2751 20.3595 38.6521C20.0112 39.2075 19.3793 39.6824 18.8129 40.0694C18.2344 40.4645 17.5092 40.9049 16.7271 41.3796C16.6753 41.4111 16.6233 41.4427 16.571 41.4745C14.8605 42.5134 12.789 43.7841 10.772 45.4135C6.7446 48.6668 3.07314 53.2333 3.07312 59.9688C3.07309 67.0012 6.36281 71.0213 10.3352 73.3286C14.3924 75.6852 19.2118 76.2685 22.0629 76.1794L22.0828 76.1788H72.289C74.9184 76.1788 77.4086 76.2019 79.7692 76.2238C83.0233 76.254 86.0313 76.282 88.8184 76.2439C93.6145 76.1784 97.5851 75.9162 100.754 75.1646C103.91 74.4163 106.143 73.2125 107.611 71.3579C109.081 69.5009 109.927 66.8093 109.927 62.7882C109.927 55.0705 106.119 51.0378 102.177 48.7502C100.176 47.5888 98.1291 46.8754 96.4895 46.3891C95.9619 46.2327 95.5115 46.1093 95.1026 45.9973C94.8533 45.929 94.6194 45.8649 94.3927 45.8001C94.1165 45.7212 93.8482 45.6399 93.6234 45.5554C93.4645 45.4957 93.0928 45.3553 92.8142 45.074C92.4522 44.7085 92.3692 44.2475 92.3396 44.0466C92.3018 43.7894 92.2981 43.5116 92.3046 43.2547C92.3167 42.7817 92.3714 42.1786 92.4301 41.5323C92.4352 41.4753 92.4404 41.418 92.4457 41.3603C92.578 39.8962 92.7348 38.0376 92.6312 36.0149C92.4241 31.974 91.1914 27.4574 86.7829 24.3549C81.5321 20.6597 76.3437 21.3651 72.211 23.0315C70.135 23.8686 68.3557 24.9395 67.0072 25.8007C66.777 25.9477 66.5515 26.0938 66.3368 26.2329C65.9465 26.4858 65.5918 26.7156 65.3085 26.8864C65.0876 27.0195 64.8494 27.1547 64.626 27.2498C64.5151 27.297 64.3616 27.3547 64.1859 27.3879C64.0318 27.4171 63.7026 27.4591 63.3402 27.3074C63.0052 27.1672 62.7967 26.9139 62.7434 26.8491L62.7381 26.8427C62.6472 26.7329 62.5625 26.6105 62.4897 26.4993C62.3419 26.2737 62.1662 25.9753 61.9747 25.6444C61.8955 25.5073 61.8115 25.3613 61.7226 25.2067C61.3706 24.5942 60.9417 23.8482 60.423 23.001C59.126 20.8825 57.3031 18.1929 54.9271 15.7166ZM64.2719 24.5396C64.2409 24.4866 64.2084 24.4306 64.1744 24.3717C64.0998 24.2428 64.0192 24.1025 63.9326 23.952C63.58 23.3384 63.1294 22.5546 62.5903 21.674C61.2454 19.4774 59.3135 16.6176 56.7608 13.9572C51.6428 8.62312 43.8891 3.97794 33.3897 7.2777C28.3581 8.85903 24.9204 11.4531 22.6113 14.5387C20.3139 17.6087 19.1884 21.0912 18.6495 24.3809C18.1114 27.666 18.1504 30.8137 18.2199 33.2327C18.2277 33.5054 18.2358 33.7665 18.2436 34.0162C18.2709 34.8955 18.2939 35.6338 18.2843 36.2423C18.2782 36.6291 18.2591 36.919 18.2283 37.1277C18.2124 37.235 18.1968 37.2962 18.189 37.3239C18.1638 37.3533 18.1089 37.4125 18.0053 37.5021C17.856 37.6312 17.6504 37.7859 17.3794 37.971C16.8596 38.3261 16.19 38.7327 15.3789 39.2253C15.3368 39.2508 15.2945 39.2765 15.2517 39.3025C13.5422 40.3408 11.3385 41.689 9.1751 43.4366C4.8417 46.9371 0.531889 52.1563 0.53186 59.9688C0.531831 67.997 4.38475 72.8112 9.05877 75.526C13.6381 78.1859 18.9559 78.8156 22.1221 78.7201H72.289C74.859 78.7201 77.3326 78.7429 79.6929 78.7646C82.9822 78.7949 86.0511 78.8232 88.8531 78.7849C93.6783 78.719 97.8842 78.457 101.341 77.6373C104.811 76.8143 107.653 75.3998 109.604 72.935C111.553 70.4724 112.468 67.1434 112.468 62.7882C112.468 53.9886 108.013 49.1987 103.453 46.5522C101.203 45.2465 98.9396 44.4651 97.2121 43.9528C96.6735 43.793 96.1498 43.6493 95.7149 43.5299C95.4762 43.4644 95.2642 43.4062 95.0912 43.3568C95.0002 43.3307 94.9187 43.3068 94.846 43.2849C94.8577 42.9024 94.9039 42.3919 94.9645 41.7229L94.9766 41.589C95.1095 40.1189 95.2828 38.1033 95.1691 35.8849C94.9415 31.4434 93.5498 26.0096 88.2454 22.2767C82.0446 17.9129 75.8682 18.8168 71.2606 20.6747C68.9665 21.5997 67.0317 22.7697 65.6394 23.659C65.3648 23.8343 65.1199 23.9931 64.8995 24.1359C64.6645 24.2883 64.4574 24.4226 64.2719 24.5396ZM94.8533 43.6732C94.8614 43.705 94.8588 43.7107 94.8539 43.6771C94.8537 43.6759 94.8535 43.6746 94.8533 43.6732Z" fill="#44358C"/>
<path fill-rule="evenodd" clip-rule="evenodd" d="M11.123 52.9857C11.7745 53.2464 12.0914 53.9858 11.8308 54.6374C10.6997 57.4651 9.22041 62.3929 12.7233 66.285C14.4223 68.1727 17.1127 68.9785 20.3173 69.2524C22.4914 69.4382 24.6928 69.3722 26.8054 69.3089C27.8371 69.278 28.8477 69.2477 29.8234 69.2477C30.5252 69.2477 31.0941 69.8166 31.0941 70.5184C31.0941 71.2201 30.5252 71.789 29.8234 71.789C28.9956 71.789 28.0684 71.8163 27.0826 71.8453C24.8947 71.9096 22.4183 71.9825 20.1009 71.7844C16.7079 71.4944 13.1955 70.6084 10.8344 67.985C6.21724 62.8548 8.34683 56.5048 9.47132 53.6936C9.73194 53.042 10.4714 52.7251 11.123 52.9857Z" fill="#44358C"/>
<path fill-rule="evenodd" clip-rule="evenodd" d="M75.9221 30.9663C75.9659 30.2659 76.5692 29.7336 77.2695 29.7774C78.9619 29.8832 81.4668 30.5061 83.5834 32.0671C85.7547 33.6684 87.4832 36.2415 87.4832 40.0679C87.4832 43.675 86.5786 46.3894 85.7544 48.2626C85.4908 48.8616 85.2107 49.4242 84.9967 49.8528C85.0393 49.8602 85.0831 49.8678 85.1279 49.8757C85.5247 49.9449 86.0041 50.0285 86.4635 50.1143C88.0958 50.4192 90.2836 50.8918 92.5583 51.6989C97.0539 53.2941 102.221 56.3215 103.794 62.3002C103.973 62.9788 103.567 63.6737 102.889 63.8523C102.21 64.0309 101.515 63.6256 101.337 62.9469C100.091 58.2116 95.9532 55.6001 91.7085 54.0939C89.6131 53.3503 87.5717 52.9066 85.9969 52.6123C85.5049 52.5204 85.1167 52.4531 84.7655 52.3922C84.5105 52.348 84.275 52.3072 84.0334 52.2628C83.7852 52.2171 83.5482 52.1704 83.3552 52.1209C83.2599 52.0965 83.1454 52.0641 83.0325 52.0205L83.0302 52.0196C82.9579 51.9917 82.7109 51.8966 82.4946 51.6803C81.9171 51.1028 82.0617 50.3688 82.1172 50.1389C82.1896 49.8391 82.3281 49.5294 82.4474 49.2775C82.5473 49.0667 82.6513 48.8592 82.7611 48.6399C82.9607 48.2415 83.1796 47.8044 83.4283 47.2392C84.1548 45.5881 84.9419 43.2274 84.9419 40.0679C84.9419 37.1275 83.663 35.2834 82.075 34.1123C80.4324 32.9008 78.4261 32.3959 77.111 32.3137C76.4106 32.27 75.8784 31.6667 75.9221 30.9663Z" fill="#44358C"/>
<path fill-rule="evenodd" clip-rule="evenodd" d="M47.8988 94.2018C47.8988 93.5 48.4677 92.9312 49.1694 92.9312H99.9197C100.621 92.9312 101.19 93.5 101.19 94.2018C101.19 94.9035 100.621 95.4724 99.9197 95.4724H49.1694C48.4677 95.4724 47.8988 94.9035 47.8988 94.2018Z" fill="#44358C"/>
<path fill-rule="evenodd" clip-rule="evenodd" d="M21.9597 105.48C21.9597 104.778 22.5285 104.209 23.2303 104.209L62.7027 104.209C63.4045 104.209 63.9734 104.778 63.9734 105.48C63.9734 106.181 63.4045 106.75 62.7027 106.75L23.2303 106.75C22.5285 106.75 21.9597 106.181 21.9597 105.48Z" fill="#44358C"/>
<path fill-rule="evenodd" clip-rule="evenodd" d="M16.3209 94.2018C16.3209 93.5 16.8897 92.9312 17.5915 92.9312H37.3277C38.0295 92.9312 38.5983 93.5 38.5983 94.2018C38.5983 94.9035 38.0295 95.4724 37.3277 95.4724H17.5915C16.8897 95.4724 16.3209 94.9035 16.3209 94.2018Z" fill="#44358C"/>
<path fill-rule="evenodd" clip-rule="evenodd" d="M74.9656 105.48C74.9656 104.778 75.5345 104.209 76.2363 104.209H93.153C93.8548 104.209 94.4237 104.778 94.4237 105.48C94.4237 106.181 93.8548 106.75 93.153 106.75H76.2363C75.5345 106.75 74.9656 106.181 74.9656 105.48Z" fill="#44358C"/>
</svg>
