<svg width="126" height="119" viewBox="0 0 126 119" fill="none" xmlns="http://www.w3.org/2000/svg">
<path d="M36.0804 107.784C27.9432 80.0986 29.4531 52.0158 36.9386 31.2834C45.5844 7.32481 63.0508 4.74221 73.3255 8.31017C84.4903 12.1881 90.6727 23.8296 92.0077 56.8393C93.3427 89.8569 103.967 93.7268 102.084 101.959C100.201 110.184 84.1248 107.045 77.6007 101.228C77.6007 101.228 80.676 120.276 67.469 118.933C56.1929 117.789 52.0687 107.824 52.0687 107.824C52.0687 107.824 42.3025 129.001 36.0725 107.792L36.0804 107.784Z" fill="#DBC5FF"/>
<path opacity="0.25" d="M55.0249 24.0545C54.9454 28.7827 51.7112 32.5175 49.3828 36.3477C44.8772 43.7379 43.9951 52.1771 45.0282 60.6401C46.2122 70.303 50.9404 79.7752 50.8609 89.5255C50.8132 95.1914 48.612 101.318 42.5648 102.876C40.3954 103.432 38.5518 103.082 37.0976 102.16C31.1298 76.1675 32.0436 51.5573 39.3782 32.3188C42.1754 24.9842 47.1022 18.5873 51.1629 14.8843C53.7773 16.7994 55.0725 21.1064 55.0249 24.0545Z" fill="#F6F1FF"/>
<path d="M95.7263 101.268C97.9354 98.2726 96.2428 94.5457 94.7886 91.6214C88.5665 79.0819 87.5811 66.5185 87.0726 52.7155C86.6911 42.4168 87.0249 29.7581 80.334 21.2156C77.1236 17.1232 72.6895 14.1751 67.9931 12.0295C63.3682 9.92369 59.252 9.4469 54.6907 9.39128C61.3737 6.27626 68.2315 6.53055 73.3331 8.29466C84.4979 12.1725 90.6803 23.8141 92.0153 56.8238C93.3503 89.8414 103.975 93.7113 102.091 101.944C100.748 107.808 92.198 107.896 85.0383 105.353C88.932 105.083 93.4377 104.352 95.7263 101.26L95.7263 101.268Z" fill="#D0B4FF"/>
<path d="M69.5355 114.055C74.2001 111.973 75.7497 108.199 77.8793 104.083C78.1415 109.343 77.4422 119.936 67.4774 118.927C63.6631 118.537 60.6672 117.139 58.3707 115.462C62.1612 115.748 65.9199 115.676 69.5355 114.063L69.5355 114.055Z" fill="#D0B4FF"/>
<path d="M39.4809 111.662C42.5165 113.474 46.9824 113.649 49.9385 111.623C46.8235 116.367 40.9669 122.327 36.5884 109.302C37.4466 110.216 38.4002 111.019 39.473 111.662L39.4809 111.662Z" fill="#D0B4FF"/>
<path d="M76.2816 34.0251C74.5493 28.542 68.216 27.6282 65.2281 29.885C59.8006 33.9853 57.8299 46.5408 64.6083 50.5061C71.3866 54.4714 80.1516 46.2547 76.2816 34.0251Z" fill="#F8F8F8"/>
<path d="M53.1961 34.0406C51.6227 29.0661 45.8853 28.2397 43.1756 30.2898C38.2567 34.0088 36.4688 45.3881 42.6114 48.98C48.754 52.5718 56.7005 45.1339 53.1961 34.0406Z" fill="#F8F8F8"/>
<path opacity="0.5" d="M75.5177 41.0101C75.3746 36.1707 71.7192 29.6149 66.3554 29.2494C69.5896 27.8985 74.7389 29.162 76.2805 34.0252C78.8075 42.0114 75.9388 48.2891 71.7669 50.5777C74.1826 48.0825 75.6289 44.7291 75.5256 41.0101L75.5177 41.0101Z" fill="url(#paint0_linear_59817_15177)"/>
<path opacity="0.5" d="M45.2025 29.4005C48.1029 28.7728 51.949 30.0998 53.1966 34.0413C55.5647 41.5189 52.7119 47.3357 48.7228 49.227C53.594 43.14 52.7914 32.7857 45.2025 29.4005Z" fill="url(#paint1_linear_59817_15177)"/>
<path d="M65.7363 36.8617C64.0357 37.1796 62.4623 39.4285 62.9709 42.7421C63.4795 46.0558 66.9044 46.4055 68.0964 43.6242C69.6062 40.096 68.4063 36.3611 65.7363 36.8617Z" fill="#484349"/>
<path d="M43.1361 36.6562C41.5945 36.9423 40.1641 38.9845 40.633 41.9883C41.1018 44.992 44.2009 45.3099 45.2737 42.7829C46.6405 39.5884 45.5518 36.2032 43.1361 36.6562Z" fill="#484349"/>
<path d="M59.2632 64.1051C57.5 62.499 54 61.4996 51.5263 63.3682" stroke="#B07FFF" stroke-width="2.16" stroke-linecap="round" stroke-linejoin="round"/>
<path d="M78.0775 54.9497C79.2536 56.0542 78.308 57.6117 76.1545 58.6686C73.9533 59.7493 70.0675 61.2274 65.6174 60.4248C58.7676 59.1931 60.7622 55.3867 70.8303 54.1789C72.658 53.9564 76.5041 53.4716 78.0775 54.9497Z" fill="#D0B4FF"/>
<path d="M50.0345 56.7978C50.4 58.1964 49.0491 59.2771 47.0466 59.4837C44.9964 59.6983 41.5636 59.6903 38.7108 57.4335C34.3164 53.9609 37.3917 51.2115 45.1633 53.6033C46.5698 54.0404 49.5498 54.9304 50.0424 56.7978L50.0345 56.7978Z" fill="#D0B4FF"/>
<path d="M113.015 1C109.182 1.33333 101.615 3.3 102.015 8.5C102.515 15 115.015 16.5 113.015 23C111.015 29.5 103.015 27.5 103.515 35.5C104.015 43.5 113.015 48.5 115.515 48.5" stroke="#44358C" stroke-width="2" stroke-linecap="round"/>
<path d="M122.78 2C119.377 2.30175 112.658 4.08211 113.014 8.78947C113.457 14.6737 124.556 16.0316 122.78 21.9158C121.005 27.8 113.901 25.9895 114.345 33.2316C114.789 40.4737 122.78 45 125 45" stroke="#44358C" stroke-width="2" stroke-linecap="round"/>
<path d="M8.33521 63C5.78254 63.2246 0.743792 64.5495 1.01016 68.0526C1.34311 72.4316 9.66704 73.4421 8.33521 77.8211C7.00339 82.2 1.67608 80.8526 2.00903 86.2421C2.34199 91.6316 8.33522 95 10 95" stroke="#44358C" stroke-width="2" stroke-linecap="round"/>
<path d="M16.5202 64C14.2511 64.2105 9.77226 65.4526 10.009 68.7368C10.305 72.8421 17.704 73.7895 16.5202 77.8947C15.3363 82 10.601 80.7368 10.8969 85.7895C11.1929 90.8421 16.5202 94 18 94" stroke="#44358C" stroke-width="2" stroke-linecap="round"/>
<defs>
<linearGradient id="paint0_linear_59817_15177" x1="77.2261" y1="39.6592" x2="66.3554" y2="39.6592" gradientUnits="userSpaceOnUse">
<stop stop-color="#C1C1C1"/>
<stop offset="0.06" stop-color="#C6C6C6"/>
<stop offset="0.43" stop-color="#E1E1E1"/>
<stop offset="0.75" stop-color="#F2F2F2"/>
<stop offset="1" stop-color="#F8F8F8"/>
</linearGradient>
<linearGradient id="paint1_linear_59817_15177" x1="54.0549" y1="39.2383" x2="45.2025" y2="39.2383" gradientUnits="userSpaceOnUse">
<stop stop-color="#C1C1C1"/>
<stop offset="0.06" stop-color="#C6C6C6"/>
<stop offset="0.43" stop-color="#E1E1E1"/>
<stop offset="0.75" stop-color="#F2F2F2"/>
<stop offset="1" stop-color="#F8F8F8"/>
</linearGradient>
</defs>
</svg>
