<svg width="138" height="158" viewBox="0 0 138 158" fill="none" xmlns="http://www.w3.org/2000/svg">
<path d="M55.5803 146.784C47.4431 119.099 48.9529 91.0158 56.4385 70.2834C65.0843 46.3248 82.5506 43.7422 92.8254 47.3102C103.99 51.1881 110.173 62.8296 111.508 95.8393C112.843 128.857 123.467 132.727 121.584 140.959C119.7 149.184 103.625 146.045 97.1006 140.228C97.1006 140.228 100.176 159.276 86.9689 157.933C75.6928 156.789 71.5686 146.824 71.5686 146.824C71.5686 146.824 61.8024 168.001 55.5723 146.792L55.5803 146.784Z" fill="#DBC5FF"/>
<path opacity="0.25" d="M74.5247 63.0545C74.4453 67.7827 71.211 71.5175 68.8827 75.3477C64.3771 82.7379 63.495 91.1771 64.5281 99.6401C65.7121 109.303 70.4402 118.775 70.3608 128.526C70.3131 134.191 68.1119 140.318 62.0647 141.876C59.8953 142.432 58.0517 142.082 56.5975 141.16C50.6297 115.167 51.5435 90.5573 58.8781 71.3188C61.6753 63.9842 66.6021 57.5873 70.6627 53.8843C73.2771 55.7994 74.5724 60.1064 74.5247 63.0545Z" fill="#F6F1FF"/>
<path d="M115.226 140.268C117.435 137.273 115.743 133.546 114.289 130.621C108.067 118.082 107.081 105.518 106.573 91.7155C106.191 81.4168 106.525 68.7581 99.834 60.2156C96.6236 56.1232 92.1895 53.1751 87.4931 51.0295C82.8682 48.9237 78.752 48.4469 74.1907 48.3913C80.8737 45.2763 87.7315 45.5305 92.8331 47.2947C103.998 51.1725 110.18 62.8141 111.515 95.8238C112.85 128.841 123.475 132.711 121.591 140.944C120.248 146.808 111.698 146.896 104.538 144.353C108.432 144.083 112.938 143.352 115.226 140.26L115.226 140.268Z" fill="#D0B4FF"/>
<path d="M89.0355 153.055C93.7001 150.973 95.2497 147.199 97.3793 143.083C97.6415 148.343 96.9422 158.936 86.9774 157.927C83.1631 157.537 80.1672 156.139 77.8707 154.462C81.6612 154.748 85.4199 154.676 89.0355 153.063L89.0355 153.055Z" fill="#D0B4FF"/>
<path d="M58.9809 150.662C62.0165 152.474 66.4824 152.649 69.4385 150.623C66.3235 155.367 60.4669 161.327 56.0884 148.302C56.9466 149.216 57.9002 150.019 58.973 150.662L58.9809 150.662Z" fill="#D0B4FF"/>
<path d="M95.7816 73.0251C94.0493 67.542 87.716 66.6282 84.7281 68.885C79.3006 72.9853 77.3299 85.5408 84.1083 89.5061C90.8866 93.4714 99.6516 85.2547 95.7816 73.0251Z" fill="#F8F8F8"/>
<path d="M72.696 73.0406C71.1226 68.0661 65.3852 67.2397 62.6755 69.2898C57.7566 73.0088 55.9686 84.3881 62.1113 87.98C68.2539 91.5718 76.2004 84.1339 72.696 73.0406Z" fill="#F8F8F8"/>
<path opacity="0.5" d="M95.0178 80.0101C94.8747 75.1707 91.2194 68.6149 85.8555 68.2494C89.0897 66.8985 94.239 68.162 95.7806 73.0252C98.3076 81.0114 95.4389 87.2891 91.267 89.5777C93.6828 87.0825 95.129 83.7291 95.0257 80.0101L95.0178 80.0101Z" fill="url(#paint0_linear_59818_15187)"/>
<path opacity="0.5" d="M64.7024 68.4005C67.6028 67.7728 71.4489 69.0998 72.6965 73.0413C75.0646 80.5189 72.2118 86.3357 68.2226 88.227C73.0938 82.14 72.2912 71.7857 64.7024 68.4005Z" fill="url(#paint1_linear_59818_15187)"/>
<path d="M85.2363 75.8617C83.5357 76.1796 81.9623 78.4285 82.4709 81.7421C82.9795 85.0558 86.4044 85.4055 87.5964 82.6242C89.1062 79.096 87.9063 75.3611 85.2363 75.8617Z" fill="#484349"/>
<path d="M62.6361 75.6562C61.0945 75.9423 59.6641 77.9845 60.133 80.9883C60.6018 83.992 63.7009 84.3099 64.7737 81.7829C66.1405 78.5884 65.0518 75.2032 62.6361 75.6562Z" fill="#484349"/>
<path d="M78.7631 103.105C77.6578 99.7893 73.2367 97.9472 71.0262 102.368" stroke="#B07FFF" stroke-width="2.16" stroke-linecap="round" stroke-linejoin="round"/>
<path d="M97.5774 93.9497C98.7535 95.0542 97.8078 96.6117 95.6543 97.6686C93.4532 98.7493 89.5673 100.227 85.1173 99.4248C78.2675 98.1931 80.262 94.3867 90.3302 93.1789C92.1579 92.9564 96.004 92.4716 97.5774 93.9497Z" fill="#D0B4FF"/>
<path d="M69.5345 95.7978C69.9 97.1964 68.5491 98.2771 66.5466 98.4837C64.4964 98.6983 61.0636 98.6903 58.2108 96.4335C53.8164 92.9609 56.8917 90.2115 64.6633 92.6033C66.0698 93.0404 69.0498 93.9304 69.5424 95.7978L69.5345 95.7978Z" fill="#D0B4FF"/>
<path d="M30.4999 10C31.5587 4.66667 35.4411 4.66668 36.4999 10" stroke="#44358C" stroke-width="2" stroke-linecap="round"/>
<path d="M33.4999 42C33.4999 42 33.4999 55.3838 33.4999 64.8134C33.4999 74.2429 17.4999 74.8512 17.4999 63.9008" stroke="#44358C" stroke-width="2" stroke-linecap="round"/>
<path d="M13.7454 19.7483C3.45785 26.9453 1.30186 38.4092 1.51096 43.2693C1.99983 44.5007 2.49983 43.5007 2.49983 43.5007C7.22236 35.9361 20.06 38.3887 21.5866 43.6351C21.7418 44.1684 22.2139 43.7385 22.2139 43.6351C25.0367 34.949 41.6313 35.7703 44.4827 43.3249C44.9215 44.4874 45.7373 43.8419 45.7373 43.6351C50.445 35.2903 64.088 38.1252 65.4969 43.3249C65.6117 43.7486 63.9969 26.4999 50.9999 18.5C42.0597 12.9972 26.6049 10.7519 13.7454 19.7483Z" stroke="#44358C" stroke-width="2"/>
<path d="M21.4999 43.5C21.6665 40.3333 22.2999 32.9 23.4999 28.5C24.6999 24.1 25.6665 22.3333 25.9999 22" stroke="#44358C" stroke-width="2" stroke-linecap="round"/>
<path d="M44.9999 42.5C44.8332 39.3333 44.1999 31.9 42.9999 27.5C41.7999 23.1 41.3332 22.8333 40.9999 22.5" stroke="#44358C" stroke-width="2" stroke-linecap="round"/>
<path d="M119.5 68.5L137 61" stroke="#44358C" stroke-width="2" stroke-linecap="round"/>
<path d="M120.737 74.3892L135 73.5008" stroke="#44358C" stroke-width="2" stroke-linecap="round"/>
<path d="M70.3761 16.5181C68.6069 17.4818 66.3626 17.4406 64.7588 16.7437C63.1551 16.0468 61.842 13.6977 62.0922 11.1583C62.4144 7.8875 65.8306 4.11516 67.644 2.18739C68.7406 3.58974 71.819 7.47838 72.5649 10.4624C73.1745 12.9005 72.1454 15.5544 70.3761 16.5181Z" stroke="#44358C" stroke-width="2"/>
<defs>
<linearGradient id="paint0_linear_59818_15187" x1="96.7263" y1="78.6592" x2="85.8555" y2="78.6592" gradientUnits="userSpaceOnUse">
<stop stop-color="#C1C1C1"/>
<stop offset="0.06" stop-color="#C6C6C6"/>
<stop offset="0.43" stop-color="#E1E1E1"/>
<stop offset="0.75" stop-color="#F2F2F2"/>
<stop offset="1" stop-color="#F8F8F8"/>
</linearGradient>
<linearGradient id="paint1_linear_59818_15187" x1="73.5547" y1="78.2383" x2="64.7024" y2="78.2383" gradientUnits="userSpaceOnUse">
<stop stop-color="#C1C1C1"/>
<stop offset="0.06" stop-color="#C6C6C6"/>
<stop offset="0.43" stop-color="#E1E1E1"/>
<stop offset="0.75" stop-color="#F2F2F2"/>
<stop offset="1" stop-color="#F8F8F8"/>
</linearGradient>
</defs>
</svg>
