<svg width="112" height="147" viewBox="0 0 112 147" fill="none" xmlns="http://www.w3.org/2000/svg">
<path d="M32.0802 135.784C23.943 108.099 25.4528 80.0158 32.9384 59.2834C41.5842 35.3248 59.0505 32.7422 69.3253 36.3102C80.4901 40.1881 86.6725 51.8296 88.0075 84.8393C89.3425 117.857 99.9669 121.727 98.0836 129.959C96.2003 138.184 80.1246 135.045 73.6005 129.228C73.6005 129.228 76.6758 148.276 63.4687 146.933C52.1927 145.789 48.0685 135.824 48.0685 135.824C48.0685 135.824 38.3023 157.001 32.0722 135.792L32.0802 135.784Z" fill="#DBC5FF"/>
<path opacity="0.25" d="M51.0246 52.0545C50.9451 56.7827 47.7109 60.5175 45.3826 64.3477C40.877 71.7379 39.9949 80.1771 41.0279 88.6401C42.212 98.303 46.9401 107.775 46.8606 117.526C46.813 123.191 44.6118 129.318 38.5645 130.876C36.3951 131.432 34.5516 131.082 33.0974 130.16C27.1295 104.167 28.0434 79.5573 35.378 60.3188C38.1752 52.9842 43.102 46.5873 47.1626 42.8843C49.777 44.7994 51.0723 49.1064 51.0246 52.0545Z" fill="#F6F1FF"/>
<path d="M91.7263 129.268C93.9354 126.273 92.2428 122.546 90.7886 119.621C84.5665 107.082 83.5811 94.5185 83.0726 80.7155C82.6911 70.4168 83.0249 57.7581 76.334 49.2156C73.1236 45.1232 68.6895 42.1751 63.9931 40.0295C59.3682 37.9237 55.252 37.4469 50.6907 37.3913C57.3737 34.2763 64.2315 34.5305 69.3331 36.2947C80.4979 40.1725 86.6803 51.8141 88.0153 84.8238C89.3503 117.841 99.9747 121.711 98.0914 129.944C96.7485 135.808 88.198 135.896 81.0383 133.353C84.932 133.083 89.4377 132.352 91.7263 129.26L91.7263 129.268Z" fill="#D0B4FF"/>
<path d="M65.5355 142.055C70.2001 139.973 71.7497 136.199 73.8793 132.083C74.1415 137.343 73.4422 147.936 63.4774 146.927C59.6631 146.537 56.6672 145.139 54.3707 143.462C58.1612 143.748 61.9199 143.676 65.5355 142.063L65.5355 142.055Z" fill="#D0B4FF"/>
<path d="M35.4809 139.662C38.5165 141.474 42.9824 141.649 45.9385 139.623C42.8235 144.367 36.9669 150.327 32.5884 137.302C33.4466 138.216 34.4002 139.019 35.473 139.662L35.4809 139.662Z" fill="#D0B4FF"/>
<path d="M72.2819 62.0251C70.5495 56.542 64.2162 55.6282 61.2283 57.885C55.8009 61.9853 53.8302 74.5408 60.6085 78.5061C67.3868 82.4714 76.1518 74.2547 72.2819 62.0251Z" fill="#F8F8F8"/>
<path d="M49.1961 62.0406C47.6227 57.0661 41.8853 56.2397 39.1756 58.2898C34.2567 62.0088 32.4688 73.3881 38.6114 76.98C44.754 80.5718 52.7005 73.1339 49.1961 62.0406Z" fill="#F8F8F8"/>
<path opacity="0.5" d="M71.5179 69.0101C71.3749 64.1707 67.7195 57.6149 62.3556 57.2494C65.5898 55.8985 70.7391 57.162 72.2808 62.0252C74.8077 70.0114 71.9391 76.2891 67.7672 78.5777C70.1829 76.0825 71.6291 72.7291 71.5258 69.0101L71.5179 69.0101Z" fill="url(#paint0_linear_59817_15182)"/>
<path opacity="0.5" d="M41.2025 57.4005C44.1029 56.7728 47.949 58.0998 49.1966 62.0413C51.5647 69.5189 48.7119 75.3357 44.7228 77.227C49.594 71.14 48.7914 60.7857 41.2025 57.4005Z" fill="url(#paint1_linear_59817_15182)"/>
<path d="M61.7365 64.8617C60.036 65.1796 58.4626 67.4285 58.9712 70.7421C59.4797 74.0558 62.9047 74.4055 64.0966 71.6242C65.6065 68.096 64.4065 64.3611 61.7365 64.8617Z" fill="#484349"/>
<path d="M39.1364 64.6562C37.5947 64.9423 36.1644 66.9845 36.6332 69.9883C37.1021 72.992 40.2012 73.3099 41.274 70.7829C42.6408 67.5884 41.5521 64.2032 39.1364 64.6562Z" fill="#484349"/>
<path d="M55.2632 92.1051C53.5 90.499 50 89.4996 47.5263 91.3682" stroke="#B07FFF" stroke-width="2.16" stroke-linecap="round" stroke-linejoin="round"/>
<path d="M74.0775 82.9497C75.2536 84.0542 74.308 85.6117 72.1545 86.6686C69.9533 87.7493 66.0675 89.2274 61.6174 88.4248C54.7676 87.1931 56.7622 83.3867 66.8303 82.1789C68.658 81.9564 72.5041 81.4716 74.0775 82.9497Z" fill="#D0B4FF"/>
<path d="M46.0345 84.7978C46.4 86.1964 45.0491 87.2771 43.0466 87.4837C40.9964 87.6983 37.5636 87.6903 34.7108 85.4335C30.3164 81.9609 33.3917 79.2115 41.1633 81.6033C42.5698 82.0404 45.5498 82.9304 46.0424 84.7978L46.0345 84.7978Z" fill="#D0B4FF"/>
<path d="M56.5 20.5V7" stroke="#44358C" stroke-width="2" stroke-linecap="round"/>
<path d="M75.8927 22.1623L80.1069 9.33691" stroke="#44358C" stroke-width="2" stroke-linecap="round"/>
<path d="M95.5028 31.3483L104.711 21.4766" stroke="#44358C" stroke-width="2" stroke-linecap="round"/>
<path d="M91.0002 18.3598L95.4136 11" stroke="#44358C" stroke-width="2" stroke-linecap="round"/>
<path d="M67.9998 9.56082L68.5977 1" stroke="#44358C" stroke-width="2" stroke-linecap="round"/>
<path d="M46.826 10.3851L45 2" stroke="#44358C" stroke-width="2" stroke-linecap="round"/>
<defs>
<linearGradient id="paint0_linear_59817_15182" x1="73.2264" y1="67.6592" x2="62.3556" y2="67.6592" gradientUnits="userSpaceOnUse">
<stop stop-color="#C1C1C1"/>
<stop offset="0.06" stop-color="#C6C6C6"/>
<stop offset="0.43" stop-color="#E1E1E1"/>
<stop offset="0.75" stop-color="#F2F2F2"/>
<stop offset="1" stop-color="#F8F8F8"/>
</linearGradient>
<linearGradient id="paint1_linear_59817_15182" x1="50.0549" y1="67.2383" x2="41.2025" y2="67.2383" gradientUnits="userSpaceOnUse">
<stop stop-color="#C1C1C1"/>
<stop offset="0.06" stop-color="#C6C6C6"/>
<stop offset="0.43" stop-color="#E1E1E1"/>
<stop offset="0.75" stop-color="#F2F2F2"/>
<stop offset="1" stop-color="#F8F8F8"/>
</linearGradient>
</defs>
</svg>
