<svg width="165" height="148" viewBox="0 0 165 148" fill="none" xmlns="http://www.w3.org/2000/svg">
<path d="M59.0802 136.784C50.943 109.098 52.4528 81.0153 59.9384 60.2829C68.5842 36.3243 86.0505 33.7417 96.3253 37.3097C107.49 41.1876 113.672 52.8291 115.007 85.8388C116.342 118.856 126.967 122.726 125.084 130.959C123.2 139.183 107.125 136.045 100.6 130.228C100.6 130.228 103.676 149.276 90.4687 147.933C79.1927 146.788 75.0685 136.823 75.0685 136.823C75.0685 136.823 65.3023 158.001 59.0722 136.792L59.0802 136.784Z" fill="#DBC5FF"/>
<path opacity="0.25" d="M78.0246 53.054C77.9451 57.7822 74.7109 61.517 72.3826 65.3472C67.877 72.7374 66.9949 81.1766 68.0279 89.6396C69.212 99.3025 73.9401 108.775 73.8606 118.525C73.813 124.191 71.6118 130.318 65.5645 131.875C63.3951 132.431 61.5516 132.082 60.0974 131.16C54.1295 105.167 55.0434 80.5568 62.378 61.3184C65.1752 53.9838 70.102 47.5868 74.1626 43.8838C76.777 45.7989 78.0723 50.1059 78.0246 53.054Z" fill="#F6F1FF"/>
<path d="M118.726 130.268C120.935 127.272 119.243 123.545 117.789 120.621C111.567 108.081 110.581 95.518 110.073 81.715C109.691 71.4163 110.025 58.7576 103.334 50.2151C100.124 46.1227 95.6895 43.1746 90.9931 41.029C86.3682 38.9232 82.252 38.4464 77.6907 38.3908C84.3737 35.2758 91.2315 35.5301 96.3331 37.2942C107.498 41.1721 113.68 52.8136 115.015 85.8233C116.35 118.841 126.975 122.711 125.091 130.943C123.748 136.808 115.198 136.895 108.038 134.352C111.932 134.082 116.438 133.351 118.726 130.26L118.726 130.268Z" fill="#D0B4FF"/>
<path d="M92.5355 143.055C97.2001 140.973 98.7497 137.198 100.879 133.082C101.142 138.343 100.442 148.935 90.4774 147.926C86.6631 147.537 83.6672 146.138 81.3707 144.461C85.1612 144.747 88.9199 144.676 92.5355 143.063L92.5355 143.055Z" fill="#D0B4FF"/>
<path d="M62.4809 140.662C65.5165 142.474 69.9824 142.648 72.9385 140.622C69.8235 145.366 63.9669 151.326 59.5884 138.302C60.4466 139.216 61.4002 140.018 62.473 140.662L62.4809 140.662Z" fill="#D0B4FF"/>
<path d="M99.2819 63.0246C97.5495 57.5415 91.2162 56.6277 88.2283 58.8845C82.8009 62.9849 80.8302 75.5403 87.6085 79.5056C94.3868 83.4709 103.152 75.2542 99.2819 63.0246Z" fill="#F8F8F8"/>
<path d="M76.1961 63.0401C74.6227 58.0656 68.8853 57.2392 66.1756 59.2894C61.2567 63.0083 59.4688 74.3877 65.6114 77.9795C71.754 81.5713 79.7005 74.1334 76.1961 63.0401Z" fill="#F8F8F8"/>
<path opacity="0.5" d="M98.5179 70.0097C98.3749 65.1703 94.7195 58.6144 89.3556 58.2489C92.5898 56.898 97.7391 58.1615 99.2808 63.0247C101.808 71.0109 98.9391 77.2886 94.7672 79.5772C97.1829 77.082 98.6291 73.7286 98.5258 70.0097L98.5179 70.0097Z" fill="url(#paint0_linear_59817_15183)"/>
<path opacity="0.5" d="M68.2025 58.4C71.1029 57.7723 74.949 59.0993 76.1966 63.0408C78.5647 70.5184 75.7119 76.3352 71.7228 78.2265C76.594 72.1395 75.7914 61.7852 68.2025 58.4Z" fill="url(#paint1_linear_59817_15183)"/>
<path d="M88.7365 65.8613C87.036 66.1791 85.4626 68.428 85.9712 71.7416C86.4797 75.0553 89.9047 75.405 91.0966 72.6237C92.6065 69.0955 91.4065 65.3606 88.7365 65.8613Z" fill="#484349"/>
<path d="M66.1364 65.6557C64.5947 65.9418 63.1644 67.984 63.6332 70.9878C64.1021 73.9916 67.2012 74.3094 68.274 71.7824C69.6408 68.588 68.5521 65.2028 66.1364 65.6557Z" fill="#484349"/>
<path d="M82.2632 93.1046C80.5 91.4985 77 90.4992 74.5263 92.3677" stroke="#B07FFF" stroke-width="2.16" stroke-linecap="round" stroke-linejoin="round"/>
<path d="M101.078 83.9492C102.254 85.0537 101.308 86.6113 99.1545 87.6681C96.9533 88.7489 93.0675 90.2269 88.6174 89.4243C81.7676 88.1926 83.7622 84.3862 93.8303 83.1784C95.658 82.9559 99.5041 82.4711 101.078 83.9492Z" fill="#D0B4FF"/>
<path d="M73.0345 85.7973C73.4 87.1959 72.0491 88.2766 70.0466 88.4833C67.9964 88.6978 64.5636 88.6899 61.7108 86.4331C57.3164 82.9604 60.3917 80.211 68.1633 82.6029C69.5698 83.0399 72.5498 83.9299 73.0424 85.7973L73.0345 85.7973Z" fill="#D0B4FF"/>
<path d="M141.077 37.232C138.734 34.4932 135.377 36.0712 136.696 38.949C138.344 42.5462 142.756 44.7536 144.592 41.3402C146.429 37.9268 142.171 32.3054 136.983 30.6712C130.624 28.6683 122.852 35.4542 130.256 45.6736C136.409 54.1672 148.075 57.5483 153.812 56.7102C159.549 55.8721 161.156 51.0689 160.016 45.6116C159.103 41.2459 156.473 38.5739 155.364 37.5383" stroke="#44358C" stroke-width="2" stroke-linecap="round"/>
<path d="M53.8378 14.8341C50.0326 14.5942 48.756 18.3051 51.9118 19.4249C55.8566 20.8247 60.783 19.1029 59.5457 15.194C58.3084 11.2851 50.9047 10.3738 45.8413 13.107C39.6355 16.4567 39.0584 27.3555 52.2698 29.2676C63.25 30.8567 74.4129 24.4945 78.0043 19.5231C81.5957 14.5517 79.135 9.79229 74.1529 6.63649C70.1672 4.11186 66.2013 4.13881 64.5979 4.21759" stroke="#44358C" stroke-width="2" stroke-linecap="round"/>
<path d="M11.1761 65.2678C8.21846 65.6412 7.78186 68.6783 10.3696 69.0758C13.6044 69.5728 17.1356 67.5285 15.6125 64.7077C14.0894 61.887 8.26979 62.2721 4.78158 65.1132C0.506444 68.5953 1.66042 77.0502 12.087 76.5826C20.7527 76.1939 28.3935 69.6718 30.4232 65.3275C32.4528 60.9831 29.8655 57.6885 25.5768 55.9949C22.1458 54.6401 19.1039 55.242 17.884 55.5374" stroke="#44358C" stroke-width="2" stroke-linecap="round"/>
<defs>
<linearGradient id="paint0_linear_59817_15183" x1="100.226" y1="68.6588" x2="89.3556" y2="68.6588" gradientUnits="userSpaceOnUse">
<stop stop-color="#C1C1C1"/>
<stop offset="0.06" stop-color="#C6C6C6"/>
<stop offset="0.43" stop-color="#E1E1E1"/>
<stop offset="0.75" stop-color="#F2F2F2"/>
<stop offset="1" stop-color="#F8F8F8"/>
</linearGradient>
<linearGradient id="paint1_linear_59817_15183" x1="77.0549" y1="68.2378" x2="68.2025" y2="68.2378" gradientUnits="userSpaceOnUse">
<stop stop-color="#C1C1C1"/>
<stop offset="0.06" stop-color="#C6C6C6"/>
<stop offset="0.43" stop-color="#E1E1E1"/>
<stop offset="0.75" stop-color="#F2F2F2"/>
<stop offset="1" stop-color="#F8F8F8"/>
</linearGradient>
</defs>
</svg>
