<svg width="112" height="112" viewBox="0 0 112 112" fill="none" xmlns="http://www.w3.org/2000/svg">
<path fill-rule="evenodd" clip-rule="evenodd" d="M90.0915 46.6215C86.1422 42.6709 80.0802 40.3446 72.2951 41.547C64.5864 42.7376 59.8166 47.187 56.8349 51.4614C55.3408 53.6033 54.3042 55.6913 53.5825 57.2893C53.3545 57.7941 53.1797 58.1995 53.0222 58.5646C52.9139 58.8157 52.8138 59.0477 52.7103 59.28C52.599 59.5297 52.4859 59.7734 52.3768 59.9706C52.3228 60.0683 52.2516 60.1881 52.1639 60.3033C52.1005 60.3867 51.9181 60.6207 51.6061 60.7732C51.1384 61.002 50.6915 60.9193 50.5088 60.8771C50.2843 60.8253 50.0736 60.7382 49.9072 60.6616C49.5719 60.5073 49.169 60.2772 48.7719 60.0498C48.7469 60.0355 48.7217 60.0211 48.6964 60.0066C47.8756 59.5364 46.8823 58.9675 45.7424 58.493C43.3932 57.5152 40.6507 57.0307 37.9368 58.6235C36.1488 59.6729 34.976 61.8341 34.3072 64.5802C33.6481 67.2869 33.5438 70.3055 33.6768 72.6815C33.7766 74.4646 32.4187 75.9441 30.7603 76.193C27.9974 76.6077 24.3513 77.9197 22.477 80.8989C21.0224 83.2111 20.9927 85.8007 22.0403 88.3162C23.1001 90.8607 25.2599 93.2934 28.0834 95.069C29.3613 95.8725 31.3539 96.4957 34.1225 96.9267C36.8666 97.3539 40.2528 97.5755 44.2306 97.6538C51.3619 97.7942 60.2596 97.4732 70.5507 97.102C71.7477 97.0588 72.9636 97.0149 74.1977 96.971C86.0772 96.5485 93.8144 96.0197 98.7039 94.4568C101.111 93.6873 102.7 92.7034 103.747 91.4634C104.785 90.2328 105.398 88.6207 105.61 86.384C105.841 83.9468 105.242 82.1635 104.26 80.8179C103.257 79.444 101.789 78.4371 100.161 77.7084C96.8782 76.2389 93.2765 76.0457 92.7302 76.0457C92.424 76.0457 91.9616 75.9599 91.5938 75.5674C91.2472 75.1974 91.1851 74.7648 91.1788 74.518C91.1673 74.0696 91.3268 73.6091 91.4414 73.3047C91.6196 72.8317 91.911 72.2005 92.2344 71.4999C92.3734 71.199 92.5182 70.8853 92.6625 70.5658C93.6695 68.3366 94.8909 65.3308 95.2962 61.9606C95.9783 56.2895 94.0641 50.5954 90.0915 46.6215ZM91.9479 44.7656C96.5078 49.3269 98.6777 55.8282 97.9024 62.2741C97.4479 66.0529 96.0899 69.355 95.0548 71.6464C94.8743 72.046 94.7094 72.4029 94.5618 72.7224C94.426 73.0165 94.3048 73.2788 94.1996 73.5135C95.8713 73.6832 98.6164 74.1411 101.233 75.3125C103.121 76.1574 105.022 77.4091 106.38 79.2705C107.759 81.1601 108.512 83.5888 108.224 86.6318C107.977 89.2311 107.232 91.4038 105.753 93.1564C104.282 94.8995 102.194 96.097 99.5031 96.9571C94.1968 98.6533 86.0563 99.1759 74.291 99.5944C73.0553 99.6383 71.8365 99.6823 70.6354 99.7256C60.3663 100.096 51.3888 100.42 44.1789 100.278C40.1497 100.199 36.6306 99.9737 33.7187 99.5204C30.8314 99.0709 28.4175 98.3799 26.6861 97.2911C23.4909 95.2819 20.9218 92.458 19.6171 89.3254C18.3003 86.1637 18.2706 82.6557 20.2551 79.5011C22.7382 75.5541 27.331 74.0533 30.3706 73.5971C30.7979 73.5329 31.074 73.1509 31.0559 72.8282C30.9139 70.292 31.017 66.997 31.7568 63.9591C32.487 60.9606 33.9048 57.9463 36.6081 56.3596C40.3428 54.1677 44.0489 54.9448 46.7511 56.0696C48.0469 56.6089 49.1647 57.2495 49.975 57.7138C50.0093 57.7335 50.043 57.7528 50.0762 57.7718C50.2021 57.8439 50.3162 57.909 50.4199 57.9674C50.4682 57.8565 50.522 57.732 50.5802 57.5976C50.7553 57.1928 50.9695 56.6974 51.1902 56.2088C51.9463 54.5346 53.0592 52.2859 54.6819 49.9596C57.9339 45.2978 63.2668 40.2853 71.8944 38.9528C80.4457 37.632 87.3647 40.1809 91.9479 44.7656Z" fill="#44358C"/>
<path fill-rule="evenodd" clip-rule="evenodd" d="M64.0583 104.885C57.0301 105.123 50.4055 105.331 46.6821 105.194C45.9577 105.167 45.3921 104.559 45.4188 103.834C45.4455 103.11 46.0543 102.544 46.7787 102.571C50.3859 102.704 56.896 102.501 63.9693 102.261C64.51 102.243 65.0539 102.224 65.5997 102.206C72.1588 101.982 79.003 101.748 84.1978 101.749C84.9227 101.749 85.5102 102.336 85.5102 103.061C85.5101 103.786 84.9225 104.374 84.1976 104.374C79.0504 104.373 72.2512 104.605 65.6762 104.829C65.135 104.848 64.5954 104.866 64.0583 104.885Z" fill="#44358C"/>
<path fill-rule="evenodd" clip-rule="evenodd" d="M83.2548 88.0848C85.9465 80.0096 79.8338 74.5218 74.1789 75.2999C71.9565 75.6056 69.9784 76.9854 68.6705 78.8413C67.3541 80.7091 66.8306 82.8915 67.2741 84.6844C67.4482 85.3881 67.0188 86.0996 66.3152 86.2737C65.6115 86.4478 64.9 86.0184 64.7259 85.3148C64.0563 82.6077 64.8862 79.6542 66.5248 77.3291C68.1719 74.9921 70.7504 73.1218 73.8211 72.6994C81.3989 71.6568 89.0534 78.9899 85.7451 88.9149C84.573 92.4314 81.7106 94.2718 78.0639 95.1624C74.4667 96.041 69.883 96.0609 64.8221 95.8106C60.9213 95.6178 57.6666 95.7407 55.1803 95.9121C54.0283 95.9915 53.0423 96.0813 52.223 96.1558C52.1567 96.1619 52.0915 96.1678 52.0274 96.1736C51.2003 96.2487 50.4875 96.3122 50 96.3122C49.2751 96.3122 48.6875 95.7246 48.6875 94.9997C48.6875 94.2749 49.2751 93.6872 50 93.6872C50.3396 93.6872 50.9099 93.6393 51.7901 93.5594C51.8545 93.5535 51.9203 93.5475 51.9873 93.5414C52.8057 93.4669 53.818 93.3748 54.9997 93.2933C57.5607 93.1167 60.9224 92.9896 64.9517 93.1888C70.0039 93.4386 74.2489 93.392 77.4411 92.6124C80.5838 91.8448 82.4714 90.4353 83.2548 88.0848Z" fill="#44358C"/>
<path fill-rule="evenodd" clip-rule="evenodd" d="M30.0109 4.97146C30.2454 6.14483 29.7981 7.4886 28.6397 8.29569C22.4355 12.6183 18.9146 19.1829 18.8055 25.9208C18.6968 32.63 21.9697 39.6662 29.6697 44.9638C30.7651 45.7175 31.2346 46.9705 31.0107 48.1099C30.7752 49.3085 29.7776 50.2857 28.3164 50.3087C21.3975 50.4176 11.1231 48.1779 5.65122 39.0739C1.38815 31.9812 0.946491 25.2932 2.52914 19.7224C4.09979 14.1939 7.64251 9.83583 11.2565 7.28773C16.3002 3.73151 22.5179 2.77115 27.1654 2.69286C28.7391 2.66636 29.7646 3.73979 30.0109 4.97146ZM27.3426 5.33352C27.3244 5.32718 27.2831 5.31625 27.2096 5.31749C22.8057 5.39167 17.1982 6.31025 12.7691 9.43309C9.60198 11.6661 6.44655 15.5389 5.05422 20.4398C3.67389 25.2984 4.00446 31.2386 7.9011 37.7216C12.6707 45.6571 21.7673 47.7864 28.2751 47.684C28.3429 47.683 28.3806 47.6722 28.3961 47.6665C28.4044 47.6635 28.409 47.661 28.411 47.6598L28.4139 47.658L28.415 47.6568C28.4157 47.6559 28.4173 47.6538 28.4193 47.6501C28.4235 47.6427 28.4303 47.6278 28.435 47.6037C28.4545 47.5043 28.4261 47.2945 28.1818 47.1264C19.8272 41.3784 16.0566 33.5478 16.1808 25.8783C16.3046 18.2376 20.2928 10.9119 27.1391 6.1419C27.4055 5.95634 27.4753 5.67868 27.4368 5.48609C27.4187 5.39551 27.3842 5.35907 27.3741 5.3504C27.3689 5.34591 27.3604 5.33973 27.3426 5.33352Z" fill="#44358C"/>
</svg>
