<svg width="174" height="127" viewBox="0 0 174 127" fill="none" xmlns="http://www.w3.org/2000/svg">
<path d="M61.0804 115.784C52.9432 88.0986 54.4531 60.0158 61.9386 39.2834C70.5844 15.3248 88.0508 12.7422 98.3255 16.3102C109.49 20.1881 115.673 31.8296 117.008 64.8393C118.343 97.8569 128.967 101.727 127.084 109.959C125.201 118.184 109.125 115.045 102.601 109.228C102.601 109.228 105.676 128.276 92.469 126.933C81.1929 125.789 77.0687 115.824 77.0687 115.824C77.0687 115.824 67.3025 137.001 61.0725 115.792L61.0804 115.784Z" fill="#DBC5FF"/>
<path opacity="0.25" d="M80.0249 32.0545C79.9454 36.7827 76.7112 40.5175 74.3828 44.3477C69.8772 51.7379 68.9951 60.1771 70.0282 68.6401C71.2122 78.303 75.9404 87.7752 75.8609 97.5255C75.8132 103.191 73.612 109.318 67.5648 110.876C65.3954 111.432 63.5518 111.082 62.0976 110.16C56.1298 84.1675 57.0436 59.5573 64.3782 40.3188C67.1754 32.9842 72.1022 26.5873 76.1629 22.8843C78.7773 24.7994 80.0725 29.1064 80.0249 32.0545Z" fill="#F6F1FF"/>
<path d="M120.726 109.268C122.935 106.273 121.243 102.546 119.789 99.6214C113.567 87.0819 112.581 74.5185 112.073 60.7155C111.691 50.4168 112.025 37.7581 105.334 29.2156C102.124 25.1232 97.6895 22.1751 92.9931 20.0295C88.3682 17.9237 84.252 17.4469 79.6907 17.3913C86.3737 14.2763 93.2315 14.5305 98.3331 16.2947C109.498 20.1725 115.68 31.8141 117.015 64.8238C118.35 97.8414 128.975 101.711 127.091 109.944C125.748 115.808 117.198 115.896 110.038 113.353C113.932 113.083 118.438 112.352 120.726 109.26L120.726 109.268Z" fill="#D0B4FF"/>
<path d="M94.5355 122.055C99.2001 119.973 100.75 116.199 102.879 112.083C103.142 117.343 102.442 127.936 92.4774 126.927C88.6631 126.537 85.6672 125.139 83.3707 123.462C87.1612 123.748 90.9199 123.676 94.5355 122.063L94.5355 122.055Z" fill="#D0B4FF"/>
<path d="M64.4809 119.662C67.5165 121.474 71.9824 121.649 74.9385 119.623C71.8235 124.367 65.9669 130.327 61.5884 117.302C62.4466 118.216 63.4002 119.019 64.473 119.662L64.4809 119.662Z" fill="#D0B4FF"/>
<path d="M101.282 42.0251C99.5493 36.542 93.216 35.6282 90.2281 37.885C84.8006 41.9853 82.8299 54.5408 89.6083 58.5061C96.3866 62.4714 105.152 54.2547 101.282 42.0251Z" fill="#F8F8F8"/>
<path d="M78.1961 42.0406C76.6227 37.0661 70.8853 36.2397 68.1756 38.2898C63.2567 42.0088 61.4688 53.3881 67.6114 56.98C73.754 60.5718 81.7005 53.1339 78.1961 42.0406Z" fill="#F8F8F8"/>
<path opacity="0.5" d="M100.518 49.0101C100.375 44.1707 96.7192 37.6149 91.3554 37.2494C94.5896 35.8985 99.7389 37.162 101.281 42.0252C103.807 50.0114 100.939 56.2891 96.7669 58.5777C99.1826 56.0825 100.629 52.7291 100.526 49.0101L100.518 49.0101Z" fill="url(#paint0_linear_59817_15181)"/>
<path opacity="0.5" d="M70.2025 37.4005C73.1029 36.7728 76.949 38.0998 78.1966 42.0413C80.5647 49.5189 77.7119 55.3357 73.7228 57.227C78.594 51.14 77.7914 40.7857 70.2025 37.4005Z" fill="url(#paint1_linear_59817_15181)"/>
<path d="M90.7363 44.8617C89.0357 45.1796 87.4623 47.4285 87.9709 50.7421C88.4795 54.0558 91.9044 54.4055 93.0964 51.6242C94.6062 48.096 93.4063 44.3611 90.7363 44.8617Z" fill="#484349"/>
<path d="M68.1361 44.6562C66.5945 44.9423 65.1641 46.9845 65.633 49.9883C66.1018 52.992 69.2009 53.3099 70.2737 50.7829C71.6405 47.5884 70.5518 44.2032 68.1361 44.6562Z" fill="#484349"/>
<path d="M84.2632 72.1051C82.5 70.499 79 69.4996 76.5263 71.3682" stroke="#B07FFF" stroke-width="2.16" stroke-linecap="round" stroke-linejoin="round"/>
<path d="M103.078 62.9497C104.254 64.0542 103.308 65.6117 101.154 66.6686C98.9533 67.7493 95.0675 69.2274 90.6174 68.4248C83.7676 67.1931 85.7622 63.3867 95.8303 62.1789C97.658 61.9564 101.504 61.4716 103.078 62.9497Z" fill="#D0B4FF"/>
<path d="M75.0345 64.7978C75.4 66.1964 74.0491 67.2771 72.0466 67.4837C69.9964 67.6983 66.5636 67.6903 63.7108 65.4335C59.3164 61.9609 62.3917 59.2115 70.1633 61.6033C71.5698 62.0404 74.5498 62.9304 75.0424 64.7978L75.0345 64.7978Z" fill="#D0B4FF"/>
<path d="M22 11C24.1667 13.3333 29.2 20.2 32 29" stroke="#44358C" stroke-width="2" stroke-linecap="round"/>
<path d="M127 35C127.928 31.4715 130.745 22.9024 134.59 16.8537C138.436 10.8049 145.133 5.76423 148 4" stroke="#44358C" stroke-width="2" stroke-linecap="round"/>
<path d="M136 35C139 28.5 144.665 19.7 150.5 14.5C156.335 9.3 164.742 5 167 4" stroke="#44358C" stroke-width="2" stroke-linecap="round"/>
<path d="M157 22L173 10" stroke="#44358C" stroke-width="2" stroke-linecap="round"/>
<path d="M1.5 1C6.83333 5.83333 16.5 13.5 20.5 20.5C24.5 27.5 25.8333 31.8333 26.5 33.5" stroke="#44358C" stroke-width="2" stroke-linecap="round"/>
<defs>
<linearGradient id="paint0_linear_59817_15181" x1="102.226" y1="47.6592" x2="91.3554" y2="47.6592" gradientUnits="userSpaceOnUse">
<stop stop-color="#C1C1C1"/>
<stop offset="0.06" stop-color="#C6C6C6"/>
<stop offset="0.43" stop-color="#E1E1E1"/>
<stop offset="0.75" stop-color="#F2F2F2"/>
<stop offset="1" stop-color="#F8F8F8"/>
</linearGradient>
<linearGradient id="paint1_linear_59817_15181" x1="79.0549" y1="47.2383" x2="70.2025" y2="47.2383" gradientUnits="userSpaceOnUse">
<stop stop-color="#C1C1C1"/>
<stop offset="0.06" stop-color="#C6C6C6"/>
<stop offset="0.43" stop-color="#E1E1E1"/>
<stop offset="0.75" stop-color="#F2F2F2"/>
<stop offset="1" stop-color="#F8F8F8"/>
</linearGradient>
</defs>
</svg>
