<svg width="116" height="116" viewBox="0 0 116 116" fill="none" xmlns="http://www.w3.org/2000/svg">
<path fill-rule="evenodd" clip-rule="evenodd" d="M58 0.6875C58.7249 0.6875 59.3125 1.27513 59.3125 2L59.3125 14.5714C59.3125 15.2963 58.7249 15.8839 58 15.8839C57.2751 15.8839 56.6875 15.2963 56.6875 14.5714L56.6875 2C56.6875 1.27513 57.2751 0.6875 58 0.6875Z" fill="#44358C"/>
<path fill-rule="evenodd" clip-rule="evenodd" d="M58 100.116C58.7249 100.116 59.3125 100.704 59.3125 101.429L59.3125 114C59.3125 114.725 58.7249 115.313 58 115.313C57.2751 115.313 56.6875 114.725 56.6875 114L56.6875 101.429C56.6875 100.704 57.2751 100.116 58 100.116Z" fill="#44358C"/>
<path fill-rule="evenodd" clip-rule="evenodd" d="M100.116 58C100.116 57.2751 100.704 56.6875 101.428 56.6875L114 56.6875C114.725 56.6875 115.312 57.2751 115.312 58C115.312 58.7249 114.725 59.3125 114 59.3125L101.428 59.3125C100.704 59.3125 100.116 58.7249 100.116 58Z" fill="#44358C"/>
<path fill-rule="evenodd" clip-rule="evenodd" d="M0.6875 58C0.6875 57.2751 1.27513 56.6875 2 56.6875L14.5714 56.6875C15.2963 56.6875 15.8839 57.2751 15.8839 58C15.8839 58.7249 15.2963 59.3125 14.5714 59.3125L2 59.3125C1.27513 59.3125 0.6875 58.7249 0.6875 58Z" fill="#44358C"/>
<path fill-rule="evenodd" clip-rule="evenodd" d="M17.0728 17.0709C17.5858 16.5588 18.4168 16.5596 18.9289 17.0726L27.8098 25.9704C28.3219 26.4835 28.3211 27.3145 27.808 27.8266C27.295 28.3386 26.4639 28.3379 25.9519 27.8248L17.071 18.927C16.5589 18.414 16.5597 17.5829 17.0728 17.0709Z" fill="#44358C"/>
<path fill-rule="evenodd" clip-rule="evenodd" d="M87.9299 87.9283C88.443 87.4162 89.274 87.417 89.7861 87.93L98.667 96.8278C99.179 97.3409 99.1783 98.1719 98.6652 98.684C98.1522 99.1961 97.3211 99.1953 96.809 98.6822L87.9282 89.7844C87.4161 89.2714 87.4169 88.4403 87.9299 87.9283Z" fill="#44358C"/>
<path fill-rule="evenodd" clip-rule="evenodd" d="M87.9217 27.7373C87.4133 27.2207 87.42 26.3897 87.9366 25.8812L96.8972 17.0637C97.4138 16.5552 98.2448 16.5619 98.7533 17.0786C99.2617 17.5953 99.255 18.4263 98.7383 18.9347L89.7778 27.7523C89.2611 28.2607 88.4301 28.254 87.9217 27.7373Z" fill="#44358C"/>
<path fill-rule="evenodd" clip-rule="evenodd" d="M17.0645 98.5948C16.5561 98.0781 16.5628 97.2471 17.0794 96.7387L26.04 87.9211C26.5566 87.4127 27.3877 87.4193 27.8961 87.936C28.4045 88.4527 28.3978 89.2837 27.8812 89.7921L18.9206 98.6097C18.4039 99.1181 17.5729 99.1114 17.0645 98.5948Z" fill="#44358C"/>
<path fill-rule="evenodd" clip-rule="evenodd" d="M62.1632 29.7511C62.0992 29.7696 62.0172 29.8123 61.9346 29.9372L42.0346 60.0083C41.8421 60.2992 42.0506 60.6873 42.3994 60.6873H52.0448C53.87 60.6873 55.2901 62.2739 55.0885 64.088L52.6373 86.1494C52.6211 86.2952 52.6556 86.3803 52.6926 86.4362C52.7369 86.503 52.8138 86.5681 52.9183 86.6073C53.0227 86.6465 53.1235 86.6481 53.2008 86.627C53.2655 86.6093 53.3475 86.568 53.4312 86.4476L75.0099 55.4282C75.2117 55.1381 75.0042 54.7408 74.6508 54.7408H63.3878C61.56 54.7408 60.1392 53.1501 60.3448 51.3339L62.7341 30.2279C62.751 30.079 62.7155 29.9937 62.6784 29.9384C62.6337 29.8716 62.5555 29.8063 62.4489 29.7675C62.3423 29.7287 62.2403 29.7286 62.1632 29.7511ZM59.7455 28.4886C61.5214 25.805 65.7045 27.3256 65.3425 30.5232L62.9531 51.6291C62.9237 51.8886 63.1267 52.1158 63.3878 52.1158H74.6508C77.1243 52.1158 78.5774 54.8967 77.1648 56.9272L55.5861 87.9466C53.7722 90.5541 49.6775 89.0165 50.0283 85.8595L52.4796 63.7981C52.5084 63.5389 52.3055 63.3123 52.0448 63.3123H42.3994C39.9581 63.3123 38.4982 60.5956 39.8455 58.5597L59.7455 28.4886Z" fill="#44358C"/>
</svg>
