<svg width="112" height="113" viewBox="0 0 112 113" fill="none" xmlns="http://www.w3.org/2000/svg">
<path fill-rule="evenodd" clip-rule="evenodd" d="M96.9792 19.9231C94.4908 20.0733 91.2318 20.5932 88.9783 21.0323C88.2668 21.1709 87.5776 20.7065 87.439 19.995C87.3004 19.2835 87.7648 18.5943 88.4763 18.4557C90.7759 18.0077 94.1645 17.4632 96.8211 17.3029C98.1107 17.2251 99.387 17.2254 100.285 17.4468C100.681 17.5443 101.365 17.7655 101.765 18.3845C102.288 19.1948 101.969 20.0176 101.649 20.4853C101.568 20.6037 101.349 21.0558 100.999 21.9584C100.67 22.805 100.269 23.9266 99.813 25.2651C98.9015 27.9398 97.7844 31.4357 96.6057 35.2349C94.2489 42.8308 91.6561 51.604 89.988 57.3649C89.7864 58.0612 89.0585 58.4622 88.3622 58.2606C87.666 58.059 87.2649 57.3311 87.4666 56.6349C89.1375 50.8642 91.7352 42.0739 94.0986 34.457C95.2798 30.6497 96.4052 27.127 97.3283 24.4184C97.7894 23.0652 98.2038 21.9041 98.552 21.0078C98.7058 20.6118 98.8584 20.2357 99.0063 19.9053C98.501 19.8691 97.8175 19.8726 96.9792 19.9231ZM99.8015 20.0423C99.801 20.0425 99.7943 20.0398 99.7827 20.0335C99.7963 20.0388 99.802 20.042 99.8015 20.0423Z" fill="#44358C"/>
<path fill-rule="evenodd" clip-rule="evenodd" d="M22.522 53.4166C22.5315 53.4745 22.5423 53.5375 22.5543 53.6057C22.6254 54.0092 22.7332 54.5497 22.8692 55.1863C23.1408 56.4571 23.5176 58.0754 23.9193 59.675C24.3217 61.2777 24.7443 62.843 25.1073 64.0141C25.1894 64.279 25.2667 64.518 25.3384 64.729C25.7147 64.455 26.1507 64.1121 26.6208 63.741L26.6726 63.7001C27.2366 63.2549 27.8461 62.7738 28.3733 62.4085C28.6439 62.221 28.93 62.0377 29.203 61.9005C29.34 61.8316 29.501 61.7603 29.6749 61.708C29.8361 61.6595 30.0924 61.601 30.3903 61.6334C30.813 61.6794 31.0869 61.9059 31.2116 62.0303C31.3438 62.1621 31.427 62.2964 31.4732 62.3786C31.5671 62.5459 31.6303 62.7214 31.6726 62.8523C31.762 63.1293 31.844 63.4841 31.921 63.871C32.0775 64.6585 32.2463 65.7531 32.421 67.0326C32.7715 69.5995 33.1588 73.0083 33.5298 76.4139C33.692 77.902 33.8507 79.3874 34.0023 80.8049C34.1988 82.6429 34.3831 84.3668 34.5466 85.8347C34.6639 86.8879 34.7695 87.7992 34.86 88.5172C34.9647 88.4492 35.0745 88.3772 35.1892 88.3012C36.3156 87.5547 37.7946 86.5097 39.3071 85.4406L39.3477 85.4119C40.8356 84.3601 42.3519 83.2882 43.5435 82.4957C44.1415 82.0979 44.6836 81.7531 45.1112 81.5133C45.3204 81.3959 45.5392 81.2826 45.7423 81.2018C45.8415 81.1623 45.9788 81.1135 46.1342 81.0836C46.2427 81.0626 46.5923 81 46.9795 81.1616C47.2581 81.2778 47.4296 81.4633 47.4726 81.5097L47.475 81.5123C47.5451 81.588 47.6009 81.6626 47.6391 81.7163C47.7174 81.8265 47.7944 81.9531 47.8648 82.0753C48.009 82.3254 48.1853 82.6618 48.3839 83.0571C48.7838 83.853 49.3112 84.9621 49.9202 86.2676C50.685 87.9073 51.5896 89.8813 52.5464 91.9691C53.1131 93.2059 53.6982 94.4826 54.2834 95.7534C55.5456 98.4946 56.8097 101.212 57.9051 103.473C57.8836 103.354 57.8618 103.233 57.8397 103.111C57.1066 99.0634 56.0191 93.6885 54.8699 88.3167C53.7208 82.9456 52.5129 77.5908 51.5401 73.5849C51.053 71.5794 50.6282 69.9256 50.301 68.7806C50.2685 68.6666 50.2371 68.5587 50.2071 68.4568C50.068 68.5503 49.9187 68.6524 49.7598 68.7623C49.0527 69.2516 48.2087 69.8604 47.3204 70.5012C47.0406 70.7031 46.7563 70.9082 46.4705 71.1137C45.2922 71.9611 44.0881 72.8159 43.1263 73.4336C42.6504 73.7393 42.1964 74.0113 41.8165 74.1964C41.6315 74.2865 41.4135 74.3813 41.1911 74.4407C41.0796 74.4705 40.9239 74.5034 40.7449 74.507C40.5752 74.5104 40.282 74.4898 39.9792 74.3162C39.6793 74.1442 39.5265 73.9019 39.4796 73.8257C39.413 73.7173 39.3681 73.6147 39.3399 73.5444C39.2824 73.4008 39.2369 73.2448 39.2005 73.1051C39.1255 72.8173 39.0491 72.441 38.9717 72.0103C38.8156 71.1407 38.6362 69.9392 38.4421 68.532C38.0985 66.0405 37.7013 62.8475 37.2964 59.5924C37.2433 59.1653 37.19 58.7371 37.1367 58.3093C36.6762 54.6125 36.2135 50.9438 35.8116 48.1953C35.63 46.954 35.4635 45.9191 35.3178 45.1609C34.964 45.3504 34.548 45.5824 34.0824 45.8497C32.6634 46.6647 30.8417 47.7746 29.0396 48.9196C27.2363 50.0654 25.4697 51.2354 24.1574 52.1702C23.4979 52.64 22.9742 53.0354 22.6226 53.3307C22.5861 53.3614 22.5526 53.39 22.522 53.4166ZM51.2274 67.8341C51.227 67.8347 51.2174 67.8391 51.1997 67.8453C51.219 67.8365 51.2278 67.8334 51.2274 67.8341ZM35.6804 42.1143C35.7619 42.0922 35.9931 42.031 36.2669 42.0575C36.7244 42.1019 37.0102 42.3589 37.1254 42.4794C37.2537 42.6135 37.3337 42.749 37.3773 42.8298C37.467 42.9961 37.5293 43.1729 37.5726 43.3092C37.6639 43.5975 37.7513 43.9725 37.8358 44.3895C38.0074 45.2365 38.1988 46.4189 38.4017 47.8061C38.8085 50.5875 39.2746 54.2851 39.7344 57.9758C39.7878 58.4041 39.841 58.8323 39.8941 59.2591C40.2995 62.5181 40.6943 65.6915 41.0353 68.1642C41.2139 69.4596 41.3757 70.5472 41.5147 71.3474C41.5809 71.3059 41.6496 71.2623 41.7208 71.2166C42.6163 70.6414 43.7671 69.8255 44.951 68.9742C45.2269 68.7758 45.5046 68.5754 45.7805 68.3764C46.6742 67.7317 47.5488 67.1007 48.2793 66.5953C48.7567 66.265 49.1952 65.9724 49.5518 65.7578C49.7283 65.6515 49.9076 65.5504 50.0747 65.4713L50.0791 65.4692C50.1867 65.4182 50.4932 65.273 50.8469 65.2635C51.2006 65.2541 51.4659 65.3854 51.6124 65.4806C51.7595 65.5762 51.8592 65.6813 51.9151 65.7462C52.0258 65.8748 52.0987 66.0041 52.1379 66.078C52.2232 66.2385 52.2979 66.425 52.3614 66.5977C52.4937 66.9574 52.6478 67.4546 52.8174 68.0481C53.1592 69.2445 53.5939 70.939 54.0834 72.9547C55.0637 76.9913 56.2771 82.3711 57.4293 87.7572C58.5815 93.1425 59.6753 98.5474 60.4153 102.633C60.7847 104.672 61.0694 106.401 61.2283 107.64C61.307 108.253 61.3597 108.783 61.3717 109.181C61.3774 109.371 61.3764 109.594 61.3455 109.803C61.3309 109.901 61.2991 110.074 61.2151 110.26C61.1449 110.416 60.9171 110.847 60.3729 111.02C59.9953 111.14 59.6658 111.069 59.4672 110.996C59.273 110.923 59.129 110.822 59.0425 110.754C58.8701 110.619 58.7325 110.458 58.6373 110.338C58.4359 110.084 58.2187 109.744 57.9986 109.371C57.5501 108.611 56.9849 107.532 56.3517 106.262C55.0808 103.713 53.4845 100.29 51.9072 96.864C51.3169 95.582 50.7295 94.3004 50.162 93.062C49.2085 90.9814 48.311 89.0228 47.5494 87.39C46.9419 86.0876 46.4281 85.0079 46.0465 84.2485C46.0144 84.1845 45.9834 84.1233 45.9537 84.0649C45.6789 84.2341 45.3534 84.4441 44.9841 84.6898C43.8238 85.4615 42.3318 86.5162 40.8249 87.5814L40.8093 87.5924C39.3086 88.6532 37.7929 89.7245 36.6261 90.4977C36.0473 90.8813 35.5233 91.2123 35.1168 91.4346C34.9223 91.541 34.7002 91.653 34.4873 91.7267C34.3889 91.7608 34.2111 91.8162 33.9987 91.8276C33.8369 91.8362 33.2611 91.8397 32.8442 91.3228C32.6935 91.136 32.6259 90.9451 32.61 90.9L32.6085 90.896C32.5812 90.8193 32.5615 90.747 32.548 90.6932C32.5204 90.583 32.4958 90.4577 32.4737 90.3333C32.4288 90.0795 32.3792 89.7415 32.3261 89.3431C32.2192 88.5419 32.0898 87.435 31.9449 86.1341C31.7812 84.6643 31.5955 82.9272 31.3981 81.0814C31.2465 79.6635 31.0881 78.1814 30.9275 76.7069C30.5564 73.3011 30.1725 69.9244 29.8274 67.3969C29.6901 66.3912 29.5609 65.5352 29.4433 64.8717C29.0783 65.1435 28.6716 65.4645 28.243 65.8028L28.2343 65.8097C27.6559 66.2662 27.0315 66.7589 26.5029 67.119C26.2417 67.2969 25.9564 67.4755 25.681 67.603C25.5437 67.6666 25.3673 67.7371 25.1695 67.7796C24.9882 67.8185 24.6605 67.8626 24.2964 67.7357C23.9527 67.6159 23.7456 67.3912 23.667 67.3007C23.5669 67.1854 23.4918 67.0678 23.4393 66.9781C23.3331 66.7962 23.2379 66.5855 23.1545 66.3818C22.984 65.9655 22.798 65.417 22.6077 64.8028C22.2242 63.5656 21.7882 61.9477 21.3808 60.3252C20.9727 58.6997 20.5886 57.0507 20.3096 55.7453C20.1704 55.0937 20.0554 54.5188 19.9765 54.0713C19.9372 53.8484 19.9049 53.6462 19.8832 53.4764C19.8661 53.3431 19.8398 53.1215 19.8535 52.9184C19.8788 52.5437 20.0479 52.273 20.1102 52.1772C20.1951 52.0464 20.291 51.9342 20.3706 51.8482C20.5321 51.6735 20.735 51.4906 20.9472 51.3124C21.3786 50.9501 21.9686 50.5074 22.6475 50.0238C24.0121 49.0518 25.8213 47.8544 27.6449 46.6957C29.4697 45.5363 31.326 44.4048 32.7882 43.5651C33.5169 43.1466 34.1626 42.792 34.6635 42.5413C34.9115 42.4173 35.1457 42.3077 35.3475 42.2276C35.4473 42.188 35.5621 42.1463 35.6804 42.1143ZM46.7081 83.6459C46.7078 83.6461 46.7064 83.6466 46.7039 83.6474C46.7072 83.6462 46.7085 83.6458 46.7081 83.6459Z" fill="#44358C"/>
<path fill-rule="evenodd" clip-rule="evenodd" d="M68.0906 4.29067C68.0719 4.34636 68.0519 4.40717 68.0305 4.47314C67.9046 4.86293 67.7469 5.39093 67.5692 6.01706C67.2145 7.26704 66.7901 8.8734 66.3964 10.4751C66.0019 12.0798 65.6428 13.6613 65.4153 14.8666C65.3636 15.1409 65.3198 15.3899 65.2843 15.6111C65.7438 15.5477 66.2879 15.4518 66.8754 15.3473L66.9403 15.3357C67.646 15.2101 68.409 15.0744 69.0452 15.0019C69.3718 14.9646 69.7102 14.9384 70.0158 14.9467C70.1692 14.9508 70.345 14.9642 70.5234 15.0005C70.6888 15.0342 70.9429 15.1043 71.191 15.2743C71.5424 15.5151 71.6776 15.8442 71.7291 16.0118C71.7838 16.1899 71.7944 16.3471 71.7967 16.4412C71.8013 16.6325 71.775 16.8168 71.7511 16.9521C71.7005 17.2386 71.6071 17.5902 71.494 17.968C71.2639 18.7368 70.901 19.7825 70.4568 20.994C69.5657 23.4248 68.3133 26.6158 67.048 29.7963C66.4951 31.1861 65.9406 32.5719 65.4113 33.8944C64.7252 35.6091 64.0816 37.2173 63.5394 38.5899C63.1494 39.5773 62.8157 40.4333 62.5595 41.1105C62.6834 41.1002 62.8137 41.0886 62.9502 41.0759C64.293 40.951 66.0865 40.7298 67.9209 40.5031L67.9701 40.497C69.7748 40.274 71.614 40.0467 73.036 39.912C73.7498 39.8444 74.3895 39.797 74.8792 39.7879C75.1188 39.7835 75.3652 39.7871 75.5826 39.8121C75.6889 39.8243 75.8333 39.8464 75.9849 39.8937C76.091 39.9269 76.4291 40.0376 76.695 40.3634C76.8858 40.5972 76.9502 40.8411 76.9663 40.9022L76.9672 40.9057C76.9936 41.0053 77.0079 41.0972 77.0165 41.1625C77.0339 41.2965 77.0427 41.4444 77.0477 41.5855C77.0579 41.8743 77.0561 42.2544 77.0465 42.6972C77.0271 43.5888 76.9738 44.8172 76.9005 46.2575C76.8085 48.0665 76.6835 50.2366 76.5513 52.5319C76.473 53.8916 76.3922 55.2953 76.3141 56.6939C76.1461 59.7049 75.991 62.6958 75.8998 65.2073C75.935 65.0974 75.9704 64.9862 76.0062 64.8739C77.252 60.9556 78.8061 55.6981 80.3043 50.4141C81.8023 45.1309 83.2408 39.834 84.2558 35.8387C84.764 33.8385 85.1626 32.178 85.4094 31.0126C85.4343 30.895 85.4575 30.7834 85.4789 30.678C85.3129 30.6946 85.134 30.7138 84.9431 30.7355C84.0904 30.8321 83.0612 30.9694 81.9778 31.1139C81.6365 31.1595 81.2897 31.2057 80.9415 31.2516C79.5055 31.441 78.0433 31.6247 76.9056 31.7141C76.3427 31.7583 75.8146 31.7832 75.3924 31.7665C75.1869 31.7584 74.9497 31.7387 74.7252 31.6857C74.6125 31.659 74.4593 31.6141 74.2994 31.5323C74.1475 31.4546 73.8987 31.2975 73.7131 31.0015C73.5296 30.7088 73.5082 30.424 73.5026 30.335C73.4945 30.2084 73.5028 30.097 73.5108 30.0218C73.5272 29.8683 73.5599 29.7094 73.5931 29.569C73.6615 29.2797 73.77 28.9117 73.9032 28.495C74.172 27.6539 74.5756 26.5089 75.0625 25.1755C75.9245 22.8145 77.0672 19.8093 78.2322 16.7455C78.385 16.3435 78.5383 15.9404 78.6914 15.5376C80.0138 12.0579 81.3213 8.60177 82.252 5.98626C82.6733 4.80235 83.011 3.80847 83.237 3.06988C82.8364 3.06938 82.3611 3.07699 81.8255 3.09231C80.1925 3.139 78.0663 3.2552 75.9409 3.41162C73.8142 3.56814 71.7085 3.76345 70.1137 3.96641C69.3122 4.06842 68.6654 4.16918 68.2174 4.26306C68.1716 4.27264 68.1294 4.28186 68.0906 4.29067ZM86.6706 30.6118C86.6698 30.6122 86.6591 30.6115 86.6407 30.6086C86.6621 30.61 86.6714 30.6115 86.6706 30.6118ZM65.1755 16.587C65.1755 16.5871 65.1754 16.5859 65.1753 16.5833L65.1755 16.587ZM84.9851 0.558611C85.0676 0.577834 85.3008 0.633468 85.5304 0.786916C85.9133 1.04279 86.0447 1.40424 86.0897 1.56397C86.1399 1.74223 86.1471 1.89897 86.1477 1.99052C86.1491 2.1791 86.1215 2.36417 86.0959 2.50478C86.0418 2.8021 85.9436 3.17407 85.8232 3.58199C85.5785 4.41046 85.1945 5.54428 84.7247 6.86427C83.7829 9.51099 82.4651 12.9941 81.1448 16.4682C80.9915 16.8716 80.8382 17.2748 80.6854 17.6766C79.5191 20.7439 78.3834 23.7306 77.5279 26.0738C77.0787 27.304 76.7122 28.3422 76.4605 29.1147C76.538 29.1094 76.6188 29.1035 76.7027 29.0969C77.7615 29.0137 79.1583 28.8392 80.6009 28.649C80.9371 28.6046 81.2759 28.5594 81.6125 28.5145C82.7024 28.3691 83.7692 28.2268 84.6502 28.1269C85.2258 28.0617 85.7497 28.0113 86.1649 27.9909C86.3705 27.9807 86.5762 27.9765 86.761 27.9858L86.7658 27.9861C86.8848 27.9921 87.2243 28.0092 87.5417 28.1689C87.8587 28.3285 88.0311 28.5701 88.1154 28.7226C88.2001 28.876 88.2387 29.0155 88.2576 29.0988C88.295 29.2639 88.2989 29.412 88.2989 29.4955C88.2991 29.677 88.2779 29.8766 88.2531 30.0589C88.2016 30.4387 88.1051 30.9503 87.9772 31.5542C87.7193 32.7716 87.3105 34.4725 86.7997 36.4828C85.7769 40.5087 84.3316 45.83 82.8295 51.128C81.3275 56.4253 79.765 61.7121 78.5074 65.6672C77.8797 67.6413 77.3223 69.3016 76.8831 70.4701C76.6658 71.0482 76.4649 71.54 76.2891 71.8973C76.2054 72.0674 76.1003 72.2636 75.9755 72.4329C75.9167 72.5127 75.8078 72.6501 75.6465 72.7746C75.5118 72.8787 75.1071 73.1529 74.5431 73.0472C74.1521 72.9739 73.8941 72.7547 73.7538 72.596C73.6164 72.4406 73.5369 72.2837 73.4925 72.183C73.4041 71.9823 73.358 71.776 73.3302 71.6251C73.2715 71.3058 73.2387 70.9036 73.2189 70.4705C73.1786 69.5878 73.1845 68.3682 73.2198 66.9475C73.2907 64.0965 73.4831 60.3199 73.6934 56.5503C73.7721 55.1395 73.8533 53.7304 73.9317 52.3688C74.0635 50.0814 74.1875 47.9282 74.2791 46.1267C74.3522 44.6899 74.4038 43.4937 74.4223 42.6428C74.4239 42.57 74.4252 42.5002 74.4263 42.4336C74.1052 42.4527 73.7207 42.4838 73.2809 42.5255C71.8966 42.6566 70.0873 42.8802 68.2599 43.106L68.2402 43.1085C66.4202 43.3334 64.5818 43.5605 63.1907 43.6899C62.5005 43.754 61.8832 43.7979 61.4203 43.8015C61.1988 43.8032 60.95 43.7968 60.7271 43.7609C60.624 43.7443 60.4407 43.7088 60.2474 43.6179C60.0991 43.5482 59.5911 43.2785 59.4655 42.6279C59.4202 42.3929 59.4497 42.1934 59.4567 42.1462L59.4573 42.142C59.469 42.0617 59.4854 41.9888 59.4987 41.935C59.5258 41.8249 59.5626 41.7029 59.6013 41.5827C59.6803 41.3375 59.7946 41.0159 59.934 40.6393C60.2144 39.8818 60.6179 38.8439 61.0984 37.6275C61.6412 36.2532 62.2897 34.6326 62.9788 32.9106C63.5081 31.5878 64.0615 30.205 64.6093 28.8279C65.8747 25.6472 67.1151 22.4861 67.9926 20.0925C68.3427 19.1376 68.6296 18.3193 68.8363 17.6774C68.3876 17.7442 67.8791 17.8347 67.3433 17.93L67.3325 17.9319C66.6088 18.0606 65.8272 18.1996 65.1922 18.2668C64.8784 18.3 64.5426 18.3225 64.2395 18.3045C64.0883 18.2955 63.8992 18.2741 63.7042 18.2178C63.5253 18.166 63.2152 18.0493 62.9534 17.7649C62.7067 17.497 62.6293 17.2016 62.6025 17.0851C62.5682 16.9366 62.557 16.7977 62.5527 16.694C62.544 16.4837 62.5585 16.253 62.5802 16.0339C62.6244 15.5862 62.7168 15.0143 62.8361 14.3823C63.0764 13.1092 63.4482 11.4753 63.8475 9.85078C64.2476 8.22329 64.6799 6.58659 65.0442 5.30269C65.226 4.66187 65.3934 4.10022 65.533 3.66803C65.6026 3.45287 65.6686 3.25922 65.7288 3.09922C65.776 2.97355 65.8564 2.76588 65.9633 2.59347C66.1607 2.27498 66.4367 2.11599 66.537 2.06067C66.6735 1.98536 66.8109 1.9317 66.9215 1.89341C67.1461 1.81564 67.4109 1.75038 67.6817 1.69365C68.232 1.57834 68.9598 1.46722 69.785 1.3622C71.4437 1.15111 73.6001 0.951789 75.7509 0.793491C77.9032 0.635094 80.0703 0.516287 81.7531 0.468171C82.5919 0.444189 83.3275 0.437238 83.8869 0.453428C84.1638 0.461442 84.4219 0.475728 84.6377 0.500712C84.7444 0.513063 84.8655 0.530759 84.9851 0.558611ZM75.2885 42.4213C75.2882 42.4213 75.2867 42.4211 75.2841 42.4206C75.2874 42.421 75.2888 42.4213 75.2885 42.4213Z" fill="#44358C"/>
<path fill-rule="evenodd" clip-rule="evenodd" d="M27.6259 37.588C28.0375 38.1847 27.8874 39.002 27.2906 39.4136C25.2721 40.8058 22.1135 43.0201 19.2024 45.1351C16.2738 47.2629 13.6996 49.2165 12.7234 50.1518C12.7158 50.1683 12.6525 50.2851 12.614 50.6078C12.5652 51.0174 12.5764 51.5915 12.6639 52.3299C12.8383 53.8005 13.2866 55.6987 13.8974 57.782C15.1152 61.9353 16.9176 66.6198 18.2075 69.6642C18.4903 70.3317 18.1784 71.102 17.511 71.3848C16.8436 71.6676 16.0733 71.3557 15.7905 70.6883C14.4768 67.5876 12.6341 62.8029 11.3785 58.5206C10.7526 56.3861 10.2571 54.3248 10.0572 52.639C9.95764 51.7993 9.92412 50.9959 10.0075 50.2969C10.0865 49.6342 10.2952 48.8474 10.8801 48.2826C12.0023 47.1991 14.7647 45.1147 17.6595 43.0114C20.5921 40.8807 23.7689 38.6537 25.8003 37.2527C26.397 36.8411 27.2144 36.9912 27.6259 37.588Z" fill="#44358C"/>
</svg>
