<svg width="64" height="64" viewBox="0 0 64 64" fill="none" xmlns="http://www.w3.org/2000/svg">
<path fill-rule="evenodd" clip-rule="evenodd" d="M40.0226 59.9098C41.3359 60.0693 42.3866 59.2642 42.5362 58.0321C42.6987 56.6946 41.7764 55.5516 40.5697 55.4051C39.3629 55.2585 38.1939 56.1476 38.0315 57.485C37.8819 58.7172 38.7094 59.7503 40.0226 59.9098ZM39.8418 61.3989C41.9081 61.6498 43.7676 60.3351 44.0253 58.2129C44.283 56.0907 42.8168 54.167 40.7505 53.916C38.6842 53.6651 36.8002 55.182 36.5425 57.3042C36.2848 59.4264 37.7755 61.1479 39.8418 61.3989Z" fill="#44358C"/>
<path fill-rule="evenodd" clip-rule="evenodd" d="M28.214 38.6995C29.0038 38.1997 29.1946 37.3209 28.7441 36.6091C28.2368 35.8076 27.2384 35.6108 26.5393 36.0533C25.8402 36.4957 25.5906 37.4823 26.0978 38.2838C26.5483 38.9956 27.4242 39.1994 28.214 38.6995ZM29.0162 39.967C30.4469 39.0616 30.9415 37.2763 30.0116 35.8069C29.0816 34.3375 27.1679 33.8803 25.7371 34.7858C24.3064 35.6913 23.9004 37.6165 24.8303 39.0859C25.7603 40.5554 27.5854 40.8725 29.0162 39.967Z" fill="#44358C"/>
<path fill-rule="evenodd" clip-rule="evenodd" d="M44.5652 17.4693C41.781 18.3498 39.4065 19.7621 38.1917 20.8519C38.1759 20.866 38.1653 20.8838 38.162 20.9137C38.1583 20.9473 38.1651 20.9957 38.1952 21.046L40.6252 25.1157C40.6704 25.1915 40.9087 25.3736 41.4068 25.4443C41.8833 25.5119 42.2806 25.4289 42.4383 25.3292C43.2746 24.8007 44.4393 24.181 46.0327 23.4916C48.6589 22.3555 51.0695 22.7076 52.6841 23.9313C54.2894 25.1478 55.0466 27.1989 54.3569 29.2194C54.0477 30.1252 53.4614 31.0009 52.744 31.8478C52.023 32.6989 51.1354 33.5601 50.1831 34.4313C49.6277 34.9394 49.0515 35.4503 48.4676 35.968C47.0219 37.2499 45.5287 38.5739 44.1865 40.0014C42.7697 41.5083 41.8042 43.6115 41.2553 45.5594C40.9824 46.5275 40.8182 47.4373 40.7506 48.1878C40.6807 48.9644 40.7219 49.4904 40.7982 49.7362C40.8358 49.8573 41.0322 50.0852 41.6318 50.3097C42.1804 50.515 42.8663 50.6415 43.4868 50.7162C43.536 50.7221 43.607 50.7108 43.6946 50.6089C43.7892 50.4988 43.8534 50.3297 43.8501 50.1638C43.8365 49.4733 43.9195 48.5844 44.2075 47.4787C44.6473 45.79 45.7629 44.2518 47.368 42.747C48.9747 41.2407 51.1268 39.7175 53.7276 38.0706C56.2344 36.4833 57.8686 34.784 58.9377 33.0164C60.0073 31.2479 60.5348 29.3724 60.7745 27.3985C60.9297 26.1201 60.8382 24.2456 59.8194 22.3737C58.8083 20.5161 56.8416 18.5822 53.1042 17.2375C50.4309 16.2756 47.3501 16.5886 44.5652 17.4693ZM44.1129 16.0392C47.0645 15.1057 50.5104 14.7101 53.612 15.8261C57.6422 17.2761 59.9249 19.4298 61.1369 21.6566C62.341 23.8691 62.4461 26.0758 62.2635 27.5793C62.0052 29.7063 61.4273 31.7986 60.2212 33.7927C59.0145 35.7877 57.2026 37.6456 54.5301 39.3379C51.9515 40.9707 49.8954 42.4336 48.3939 43.8413C46.8908 45.2505 45.9983 46.5542 45.6591 47.8567C45.4031 48.8396 45.3391 49.5912 45.3498 50.1342C45.3603 50.6657 45.1694 51.1941 44.8323 51.5865C44.4881 51.987 43.9509 52.2829 43.3076 52.2054C42.6413 52.1253 41.8187 51.9812 41.106 51.7145C40.4442 51.4668 39.6264 51.021 39.3656 50.1809C39.1995 49.6457 39.1823 48.8786 39.2567 48.0532C39.3334 47.2017 39.5161 46.2006 39.8115 45.1525C40.399 43.0679 41.4551 40.7167 43.0937 38.9739C44.4856 37.4936 46.0611 36.0965 47.5253 34.7982C48.0965 34.2917 48.6507 33.8002 49.1706 33.3246C50.1096 32.4655 50.9411 31.6555 51.5994 30.8783C52.2613 30.097 52.7145 29.3874 52.9373 28.7348C53.4004 27.3781 52.9127 25.9866 51.7782 25.1268C50.653 24.2741 48.8289 23.9163 46.6283 24.8683C45.088 25.5347 43.9954 26.1196 43.2397 26.5972C42.6607 26.963 41.8525 27.0226 41.196 26.9294C40.561 26.8393 39.7388 26.5571 39.3373 25.8847L36.9073 21.815C36.5283 21.1803 36.5623 20.2985 37.19 19.7353C38.589 18.4804 41.1607 16.9728 44.1129 16.0392Z" fill="#44358C"/>
<path fill-rule="evenodd" clip-rule="evenodd" d="M9.5582 9.84933C8.27241 11.7859 7.49743 13.8556 7.26531 15.1771C7.26245 15.1934 7.26394 15.2092 7.27828 15.2315C7.295 15.2576 7.32963 15.2904 7.38462 15.3103L10.4821 16.432C10.5087 16.4416 10.5983 16.4589 10.7709 16.4207C10.9371 16.384 11.1333 16.3055 11.3332 16.1891C11.7645 15.9382 12.0376 15.6196 12.1036 15.4415C12.364 14.7392 12.7425 13.8785 13.2808 12.8379C14.3822 10.7089 16.1713 9.74037 17.8795 9.72118C19.5457 9.70247 21.1525 10.6071 21.7291 12.1803C22.0051 12.9333 22.0851 13.8059 22.0684 14.7164C22.0516 15.6323 21.9351 16.6381 21.7842 17.6784C21.6957 18.288 21.5959 18.9084 21.495 19.5359C21.2459 21.085 20.9897 22.6779 20.8794 24.2619C20.7646 25.9102 21.2309 27.7087 21.8824 29.2061C22.2057 29.9493 22.5665 30.5992 22.9049 31.0989C23.258 31.6203 23.5422 31.9116 23.6932 32.0116C23.7141 32.0254 23.8666 32.0871 24.2886 31.9607C24.6722 31.8458 25.112 31.6239 25.5255 31.3754C25.5604 31.3545 25.6115 31.3063 25.6176 31.1615C25.6242 31.0064 25.5676 30.8198 25.4603 30.6804C25.1405 30.2649 24.8008 29.7207 24.4744 29.0097C23.8668 27.6859 23.7801 26.1125 24.0183 24.3256C24.2569 22.5365 24.8319 20.4593 25.6233 18.0809C26.3796 15.8081 26.5309 13.9185 26.298 12.2794C26.065 10.6392 25.4411 9.20497 24.5838 7.85034C24.0349 6.98303 23.033 5.87253 21.4613 5.23144C19.9046 4.59649 17.7062 4.3878 14.6871 5.45475C12.5817 6.19883 10.8451 7.91118 9.5582 9.84933ZM8.30857 9.01963C9.6924 6.93542 11.6588 4.93408 14.1873 4.04047C17.4997 2.86985 20.0819 3.04883 22.0278 3.84253C23.9586 4.63008 25.1811 5.9892 25.8513 7.04818C26.791 8.53305 27.513 10.1672 27.7831 12.0684C28.0533 13.9707 27.8648 16.0956 27.0466 18.5545C26.2635 20.9079 25.7247 22.8777 25.5052 24.5239C25.2854 26.1724 25.3965 27.4228 25.8377 28.384C26.1202 28.9994 26.4027 29.4455 26.649 29.7655C26.9671 30.1788 27.1381 30.7104 27.1163 31.2249C27.0941 31.7499 26.861 32.323 26.2979 32.6613C25.8408 32.9359 25.2773 33.2304 24.7189 33.3977C24.1988 33.5535 23.4704 33.6629 22.8652 33.2624C22.4615 32.9951 22.0434 32.5019 21.6628 31.9399C21.2676 31.3562 20.8634 30.6239 20.5069 29.8045C19.7987 28.1769 19.2457 26.129 19.383 24.1577C19.4983 22.5019 19.7717 20.8015 20.0247 19.2282C20.1229 18.6173 20.2181 18.0255 20.2997 17.463C20.4481 16.4404 20.5536 15.5089 20.5686 14.6888C20.5838 13.8633 20.5057 13.2011 20.3207 12.6965C20.0036 11.8312 19.0542 11.2081 17.8963 11.2211C16.7805 11.2336 15.4774 11.8563 14.6131 13.5271C14.0973 14.5242 13.7452 15.3286 13.51 15.963C13.273 16.6021 12.6657 17.1493 12.0876 17.4856C11.7828 17.663 11.442 17.8085 11.0949 17.8853C10.7543 17.9607 10.3544 17.9811 9.97134 17.8423L6.87388 16.7207C6.18052 16.4696 5.63993 15.7602 5.78792 14.9176C6.06033 13.3668 6.92367 11.1054 8.30857 9.01963Z" fill="#44358C"/>
<path fill-rule="evenodd" clip-rule="evenodd" d="M21.7487 54.3842C21.3374 54.4334 20.9641 54.1398 20.915 53.7285L20.4834 50.1165C20.4343 49.7053 20.7279 49.332 21.1391 49.2829C21.5504 49.2337 21.9237 49.5273 21.9728 49.9386L22.4044 53.5505C22.4535 53.9618 22.16 54.3351 21.7487 54.3842Z" fill="#44358C"/>
<path fill-rule="evenodd" clip-rule="evenodd" d="M12.4985 55.7025C12.1665 55.4549 12.098 54.985 12.3456 54.6529L16.6713 48.8514C16.9189 48.5193 17.3888 48.4508 17.7209 48.6984C18.0529 48.946 18.1214 49.4159 17.8738 49.748L13.5481 55.5495C13.3005 55.8816 12.8306 55.9501 12.4985 55.7025Z" fill="#44358C"/>
<path fill-rule="evenodd" clip-rule="evenodd" d="M41.2353 1.71395C41.6142 1.88132 41.7857 2.32415 41.6184 2.70304L38.2433 10.3437C38.076 10.7226 37.6331 10.894 37.2542 10.7267C36.8753 10.5593 36.7039 10.1165 36.8712 9.73758L40.2463 2.09696C40.4136 1.71806 40.8565 1.54659 41.2353 1.71395Z" fill="#44358C"/>
<path fill-rule="evenodd" clip-rule="evenodd" d="M6.42917 49.1647C6.16013 48.8498 6.19735 48.3764 6.5123 48.1073L10.6713 44.5546C10.9863 44.2855 11.4597 44.3228 11.7287 44.6377C11.9977 44.9526 11.9605 45.4261 11.6456 45.6951L7.48657 49.2479C7.17162 49.5169 6.69821 49.4797 6.42917 49.1647Z" fill="#44358C"/>
<path fill-rule="evenodd" clip-rule="evenodd" d="M49.7239 7.49602C50.0564 7.74309 50.1256 8.21289 49.8785 8.54535L46.1127 13.6127C45.8656 13.9452 45.3958 14.0144 45.0633 13.7673C44.7309 13.5203 44.6616 13.0505 44.9087 12.718L48.6746 7.65063C48.9217 7.31817 49.3915 7.24895 49.7239 7.49602Z" fill="#44358C"/>
<path fill-rule="evenodd" clip-rule="evenodd" d="M1.65435 38.9906C1.60973 38.5788 1.9074 38.2088 2.31921 38.1642L7.75725 37.5751C8.16906 37.5304 8.53906 37.8281 8.58367 38.2399C8.62828 38.6517 8.33062 39.0217 7.91881 39.0663L2.48076 39.6555C2.06896 39.7001 1.69896 39.4024 1.65435 38.9906Z" fill="#44358C"/>
<path fill-rule="evenodd" clip-rule="evenodd" d="M7.01769 42.8235C6.82339 42.4577 6.96242 42.0037 7.32823 41.8094L8.66978 41.0968C9.03559 40.9025 9.48965 41.0415 9.68396 41.4073C9.87827 41.7731 9.73924 42.2272 9.37343 42.4215L8.03188 43.1341C7.66607 43.3284 7.212 43.1893 7.01769 42.8235Z" fill="#44358C"/>
<path fill-rule="evenodd" clip-rule="evenodd" d="M12.3376 49.6152C12.0211 49.348 11.981 48.8749 12.2481 48.5583L13.2278 47.3974C13.495 47.0808 13.9681 47.0408 14.2847 47.3079C14.6013 47.575 14.6413 48.0482 14.3742 48.3648L13.3945 49.5257C13.1274 49.8423 12.6542 49.8823 12.3376 49.6152Z" fill="#44358C"/>
<path fill-rule="evenodd" clip-rule="evenodd" d="M42.9758 8.51892C43.344 8.70879 43.4885 9.16115 43.2986 9.52928L42.4949 11.0876C42.305 11.4557 41.8526 11.6002 41.4845 11.4103C41.1164 11.2204 40.9719 10.7681 41.1617 10.3999L41.9655 8.84167C42.1554 8.47354 42.6077 8.32904 42.9758 8.51892Z" fill="#44358C"/>
</svg>
