<svg width="204" height="145" viewBox="0 0 204 145" fill="none" xmlns="http://www.w3.org/2000/svg">
<g clip-path="url(#clip0_57891_3065)">
<path d="M201.576 82.5959C201.426 72.1187 194.15 63.686 184.702 60.89C188.008 54.7187 188.674 47.2635 186.628 40.5464C183.584 30.5569 173.526 24.191 163.177 24.2984C161.942 24.3118 160.724 24.4594 159.503 24.6339L155.69 25.1953C153.755 19.9568 150.759 15.3177 146.836 11.2556C144.709 9.05464 142.075 7.09745 139.293 5.80011C133.418 3.06004 131.134 2.71557 124.68 2.14072C118.826 1.61731 111.691 4.19633 106.759 7.14889C104.552 8.47084 102.543 10.012 100.698 11.7254C95.5338 8.189 89.8336 5.30578 83.9675 3.77581C80.9302 2.98399 77.6217 2.41137 74.488 2.75807C67.4608 3.53648 67.936 3.60358 61.5588 6.3772C59.3307 7.34573 57.5263 9.19332 55.7264 10.7792C52.3147 13.7832 49.3514 19.5318 48.4346 23.9069C48.3831 24.1485 48.3338 24.3923 48.2867 24.6361C48.1791 24.6361 48.0715 24.6339 47.9639 24.6361C44.6733 24.2827 42.6918 25.0119 39.4775 25.6404C34.5169 26.6135 30.3925 29.7763 26.6917 32.9883C20.7248 38.1665 17.8354 47.7131 18.4115 55.4032C18.4541 57.7809 18.8396 60.058 19.5614 62.2344C10.3106 65.3323 3.40441 74.2884 3.55011 84.4569C3.70254 95.0414 11.1287 103.537 20.718 106.243C20.6194 107.142 20.5679 108.053 20.5813 108.974C20.7674 121.872 31.4147 131.671 43.9538 131.671C48.4884 131.671 51.7768 130.26 55.3991 127.866C55.8138 128.817 56.289 129.743 56.8337 130.631C58.0755 132.168 59.3151 133.704 60.5546 135.241C63.5269 138.062 66.9946 139.987 70.9531 141.016C73.8738 141.985 77.1151 142.296 80.1838 142.126C86.0252 141.802 89.7529 140.58 94.942 137.927C98.0623 136.33 100.727 133.588 102.671 130.452C103.328 131.298 104.036 132.112 104.803 132.89C106.789 134.91 109.156 136.565 111.561 138.041C115.891 140.699 120.366 141.24 125.292 141.562C129.948 141.866 134.868 139.791 138.874 137.733C141.432 136.42 143.85 134.331 145.708 132.071C146.903 130.499 148.1 128.927 149.295 127.354C149.532 126.938 149.754 126.515 149.965 126.093C154.146 129.488 159.498 131.503 165.176 131.503C177.72 131.503 189.066 120.409 188.885 107.789C188.865 106.364 188.706 104.982 188.434 103.642C196.206 99.8057 201.706 91.684 201.576 82.5981V82.5959Z" fill="#EBDFFF"/>
<path d="M50.4682 23.567C53.8843 14.8279 62.1354 8.70799 71.0119 6.28331C81.5135 3.4135 92.5127 6.39738 100.499 13.6625C102.416 15.4049 105.274 12.5687 103.348 10.8195C94.3239 2.6105 82.2263 -0.648509 70.3372 2.30406C59.8401 4.90992 50.5422 12.3696 46.5814 22.5C45.6355 24.9203 49.5335 25.9581 50.4682 23.5692V23.567Z" fill="#E5D6FF"/>
<path d="M103.958 12.5238C110.707 4.00605 122.408 2.71319 132.325 5.55168C143.176 8.65634 152.261 17.1047 153.978 28.5101C154.363 31.0668 158.246 29.9774 157.862 27.4409C154.406 4.46236 122.04 -8.77721 103.967 6.66783C102.911 7.56926 101.967 8.59371 101.107 9.68079C99.513 11.6917 102.344 14.557 103.956 12.5238H103.958Z" fill="#E5D6FF"/>
<path d="M52.4181 22.52C41.5489 20.7015 30.3413 24.7054 22.8388 32.7243C19.2434 36.5671 16.6567 41.3851 15.6659 46.5588C14.5743 52.2537 15.6256 57.9575 18.0599 63.1648C19.1582 65.5134 22.6326 63.469 21.5387 61.136C17.3672 52.2179 19.3129 42.3828 25.9703 35.2675C32.3026 28.5012 42.1407 24.862 51.3467 26.4009C53.8886 26.8259 54.978 22.9517 52.4181 22.5223V22.52Z" fill="#E5D6FF"/>
<path d="M19.2615 60.2078C8.80923 64.4912 -0.260027 73.2885 0.00671588 85.2755C0.264493 96.8978 9.55566 105.371 19.934 108.959C22.3974 109.811 23.4442 105.926 21.0054 105.08C12.2522 102.051 4.40909 95.0391 4.037 85.2732C3.65594 75.2412 11.6425 67.6429 20.3352 64.0841C22.7045 63.1134 21.6689 59.2213 19.2638 60.2055L19.2615 60.2078Z" fill="#E5D6FF"/>
<path d="M155.932 25.9266C164.865 24.7121 174.057 27.933 179.35 35.4062C184.261 42.338 184.77 51.4596 180.834 58.9506C179.628 61.2456 183.107 63.2788 184.313 60.9794C188.986 52.0882 188.459 41.3225 182.62 33.0799C176.272 24.1193 165.49 20.6031 154.861 22.048C153.769 22.1957 153.191 23.5735 153.453 24.5219C153.774 25.6828 154.845 26.0743 155.932 25.9266Z" fill="#E5D6FF"/>
<path d="M182.683 62.1467C191.694 64.9741 199.179 72.058 199.923 81.8238C200.577 90.3974 195.619 98.5125 187.671 101.85C186.66 102.275 185.942 103.163 186.263 104.324C186.525 105.277 187.727 106.153 188.742 105.728C198.385 101.68 204.612 92.368 203.953 81.8238C203.229 70.2238 194.469 61.63 183.755 58.2682C181.269 57.4875 180.213 61.3706 182.683 62.1467Z" fill="#E5D6FF"/>
<path d="M20.3036 100.642C18.2212 105.885 17.5644 111.629 19.0797 117.112C20.4224 121.963 23.574 126.041 27.6424 128.935C37.4693 135.93 50.7705 133.516 60.3845 127.506C62.5812 126.133 60.5593 122.652 58.3514 124.035C49.8403 129.356 38.8075 131.497 29.9781 125.667C26.5709 123.417 24.1209 119.928 22.9665 116.043C21.5521 111.274 22.3882 106.25 24.1904 101.709C25.1475 99.2957 21.2495 98.2579 20.3036 100.64V100.642Z" fill="#E5D6FF"/>
<path d="M53.2047 130.51C57.6094 138.569 66.0308 143.651 75.053 144.768C85.9939 146.121 96.4821 141.479 104.135 133.83C105.973 131.993 103.124 129.148 101.286 130.987C94.5006 137.766 85.5367 141.772 75.8465 140.84C67.9406 140.079 60.5009 135.46 56.6836 128.481C55.4396 126.204 51.9584 128.233 53.2047 130.512V130.51Z" fill="#E5D6FF"/>
<path d="M101.593 133.937C109.472 141.902 120.402 146.248 131.569 143.747C143.086 141.168 151.285 131.671 155.616 121.176C156.035 120.16 155.17 118.966 154.208 118.702C153.052 118.384 152.146 119.094 151.729 120.107C147.883 129.43 140.575 137.469 130.497 139.869C120.814 142.175 111.205 137.927 104.442 131.092C102.615 129.244 99.7659 132.089 101.593 133.935V133.937Z" fill="#E5D6FF"/>
<path d="M148.3 130.141C159.537 134.977 172.574 134.357 181.791 125.71C190.036 117.975 191.795 105.8 186.586 95.9047C185.378 93.6075 181.899 95.6408 183.107 97.9335C187.478 106.236 185.828 116.011 179.209 122.608C171.565 130.224 159.867 130.767 150.338 126.667C147.978 125.652 145.922 129.114 148.305 130.139L148.3 130.141Z" fill="#E5D6FF"/>
<path d="M99.2978 12.5438C101.073 15.2347 102.214 17.9144 102.651 21.1264C102.799 22.2135 104.18 22.7906 105.13 22.5311C106.294 22.2112 106.686 21.142 106.538 20.0572C106.061 16.5477 104.72 13.4587 102.779 10.5151C101.358 8.35878 97.8655 10.3719 99.3001 12.5438H99.2978Z" fill="#E5D6FF"/>
<path d="M94.936 82.5864C94.9853 88.1024 90.5448 92.6117 85.0172 92.6587C79.4895 92.7057 74.9706 88.2746 74.9213 82.7609C74.8742 77.245 79.3147 72.7334 84.8423 72.6864C90.3699 72.6394 94.8866 77.0705 94.936 82.5864Z" fill="#F2F4F4"/>
<path d="M93.501 82.2216C93.5368 86.3105 90.244 89.6545 86.1442 89.6903C82.0445 89.7261 78.6934 86.4402 78.6575 82.3491C78.6217 78.2603 81.9189 74.914 86.0165 74.8783C90.114 74.8402 93.4651 78.1283 93.5032 82.2194L93.501 82.2216Z" fill="#181919"/>
<path d="M83.3141 79.1125C83.3253 80.383 82.3031 81.4208 81.0277 81.432C79.7545 81.4432 78.7144 80.4232 78.7032 79.1527C78.692 77.8822 79.7141 76.8421 80.9873 76.8287C82.2628 76.8175 83.3029 77.8397 83.3141 79.1125Z" fill="#F2F4F4"/>
<path d="M138.173 82.1773C138.22 87.6821 133.791 92.178 128.276 92.225C122.762 92.2764 118.257 87.8543 118.207 82.3518C118.158 76.847 122.59 72.3489 128.102 72.3041C133.616 72.2549 138.123 76.6748 138.173 82.1773Z" fill="#F2F4F4"/>
<path d="M136.739 81.7455C136.774 85.8321 133.479 89.1806 129.377 89.2164C125.282 89.2522 121.931 85.9641 121.893 81.8753C121.857 77.7842 125.152 74.4402 129.247 74.4021C133.347 74.3664 136.703 77.6522 136.739 81.7455Z" fill="#181919"/>
<path d="M126.75 78.6811C126.759 79.9516 125.734 80.9894 124.461 81.0029C123.19 81.014 122.148 79.9918 122.139 78.7213C122.128 77.4486 123.152 76.4085 124.423 76.3995C125.696 76.3861 126.738 77.4083 126.75 78.6811Z" fill="#F2F4F4"/>
<path d="M72.6687 93.0215C72.393 96.2917 67.8338 98.5911 62.4854 98.1527C57.1394 97.7143 53.0284 94.7036 53.3041 91.4334C53.5821 88.1609 58.1413 85.8638 63.4897 86.3022C68.838 86.7406 72.9489 89.7491 72.671 93.0237L72.6687 93.0215Z" fill="#DFCBFF"/>
<path d="M157.526 87.2905C158.772 90.2922 156.107 93.889 151.573 95.3273C147.036 96.7633 142.351 95.4905 141.105 92.4865C139.858 89.487 142.521 85.8858 147.063 84.4497C151.595 83.016 156.282 84.2909 157.528 87.2905H157.526Z" fill="#DFCBFF"/>
<path d="M111.477 106.022C111.452 106.022 111.43 106.022 111.405 106.019C104.674 105.538 98.2627 104.187 98.2 104.174C97.6687 104.062 97.3303 103.541 97.4423 103.011C97.5544 102.481 98.0767 102.143 98.6079 102.255C98.6707 102.268 104.954 103.59 111.546 104.062C112.086 104.1 112.494 104.57 112.456 105.111C112.418 105.628 111.988 106.022 111.477 106.022Z" fill="#2E3030"/>
</g>
<defs>
<clipPath id="clip0_57891_3065">
<rect width="204" height="145" fill="white"/>
</clipPath>
</defs>
</svg>
