<svg width="25" height="24" viewBox="0 0 25 24" fill="none" xmlns="http://www.w3.org/2000/svg">
<path d="M22.1997 7.98V17C22.1997 18.1 21.2997 19 20.1997 19H6.19971L2.19971 23V5C2.19971 3.9 3.09971 3 4.19971 3H14.2997C14.2397 3.32 14.1997 3.66 14.1997 4C14.1997 4.34 14.2397 4.68 14.2997 5H4.19971V17H20.1997V8.9C20.9397 8.75 21.6197 8.42 22.1997 7.98ZM16.1997 4C16.1997 5.66 17.5397 7 19.1997 7C20.8597 7 22.1997 5.66 22.1997 4C22.1997 2.34 20.8597 1 19.1997 1C17.5397 1 16.1997 2.34 16.1997 4Z" fill="#97989C"/>
</svg>
