<svg width="25" height="24" viewBox="0 0 25 24" fill="none" xmlns="http://www.w3.org/2000/svg">
<path d="M21.3999 8.5C19.9499 8.5 19.1399 9.94 19.4699 11.01L15.9199 14.57C15.6199 14.48 15.1799 14.48 14.8799 14.57L12.3299 12.02C12.6699 10.95 11.8599 9.5 10.3999 9.5C8.9499 9.5 8.1299 10.94 8.4699 12.02L3.9099 16.57C2.8399 16.24 1.3999 17.05 1.3999 18.5C1.3999 19.6 2.2999 20.5 3.3999 20.5C4.8499 20.5 5.6599 19.06 5.3299 17.99L9.8799 13.43C10.1799 13.52 10.6199 13.52 10.9199 13.43L13.4699 15.98C13.1299 17.05 13.9399 18.5 15.3999 18.5C16.8499 18.5 17.6699 17.06 17.3299 15.98L20.8899 12.43C21.9599 12.76 23.3999 11.95 23.3999 10.5C23.3999 9.4 22.4999 8.5 21.3999 8.5Z" fill="#97989C"/>
<path d="M15.3999 9.5L16.3399 7.43L18.3999 6.5L16.3399 5.57L15.3999 3.5L14.4799 5.57L12.3999 6.5L14.4799 7.43L15.3999 9.5Z" fill="#97989C"/>
<path d="M3.8999 11.5L4.3999 9.5L6.3999 9L4.3999 8.5L3.8999 6.5L3.3999 8.5L1.3999 9L3.3999 9.5L3.8999 11.5Z" fill="#97989C"/>
</svg>
