<svg width="25" height="24" viewBox="0 0 25 24" fill="none" xmlns="http://www.w3.org/2000/svg">
<path d="M12.6001 12C11.5001 12 10.5584 11.6083 9.7751 10.825C8.99176 10.0417 8.6001 9.1 8.6001 8C8.6001 6.9 8.99176 5.95833 9.7751 5.175C10.5584 4.39167 11.5001 4 12.6001 4C13.7001 4 14.6418 4.39167 15.4251 5.175C16.2084 5.95833 16.6001 6.9 16.6001 8C16.6001 9.1 16.2084 10.0417 15.4251 10.825C14.6418 11.6083 13.7001 12 12.6001 12ZM4.6001 20V17.2C4.6001 16.6333 4.74593 16.1125 5.0376 15.6375C5.32926 15.1625 5.71676 14.8 6.2001 14.55C7.23343 14.0333 8.28343 13.6458 9.3501 13.3875C10.4168 13.1292 11.5001 13 12.6001 13C13.7001 13 14.7834 13.1292 15.8501 13.3875C16.9168 13.6458 17.9668 14.0333 19.0001 14.55C19.4834 14.8 19.8709 15.1625 20.1626 15.6375C20.4543 16.1125 20.6001 16.6333 20.6001 17.2V20H4.6001ZM6.6001 18H18.6001V17.2C18.6001 17.0167 18.5543 16.85 18.4626 16.7C18.3709 16.55 18.2501 16.4333 18.1001 16.35C17.2001 15.9 16.2918 15.5625 15.3751 15.3375C14.4584 15.1125 13.5334 15 12.6001 15C11.6668 15 10.7418 15.1125 9.8251 15.3375C8.90843 15.5625 8.0001 15.9 7.1001 16.35C6.9501 16.4333 6.82926 16.55 6.7376 16.7C6.64593 16.85 6.6001 17.0167 6.6001 17.2V18ZM12.6001 10C13.1501 10 13.6209 9.80417 14.0126 9.4125C14.4043 9.02083 14.6001 8.55 14.6001 8C14.6001 7.45 14.4043 6.97917 14.0126 6.5875C13.6209 6.19583 13.1501 6 12.6001 6C12.0501 6 11.5793 6.19583 11.1876 6.5875C10.7959 6.97917 10.6001 7.45 10.6001 8C10.6001 8.55 10.7959 9.02083 11.1876 9.4125C11.5793 9.80417 12.0501 10 12.6001 10Z" fill="#97989C"/>
</svg>
