<svg width="32" height="32" viewBox="0 0 32 32" fill="none" xmlns="http://www.w3.org/2000/svg">
<path fill-rule="evenodd" clip-rule="evenodd" d="M14.1965 2.04959C14.6744 1.59117 15.323 1.33331 16 1.33331C16.6771 1.33331 17.3257 1.59117 17.8036 2.04959L19.8588 4.02106C19.9527 4.11111 20.0864 4.15341 20.2187 4.13294L23.0889 3.69772C23.7574 3.59539 24.4402 3.75365 24.9878 4.13431C25.5339 4.51632 25.9009 5.09071 26.0076 5.73058L26.4613 8.48382C26.4826 8.61071 26.5651 8.71985 26.6846 8.77852L29.2733 10.0433C29.8763 10.338 30.3329 10.851 30.542 11.4676C30.7511 12.0843 30.6956 12.7569 30.3884 13.3341L29.0699 15.8185C29.0087 15.9331 29.0087 16.0668 29.0699 16.1814L30.3884 18.6659C30.6956 19.243 30.7511 19.9156 30.542 20.5323C30.3329 21.149 29.8763 21.662 29.2733 21.9567L26.6846 23.2214C26.5651 23.2801 26.4826 23.3893 26.4613 23.5161L26.0076 26.2694C25.9009 26.9093 25.5339 27.4836 24.9878 27.8657C24.4402 28.2463 23.7574 28.4046 23.0889 28.3022L20.2187 27.867C20.0864 27.8466 19.9527 27.8888 19.8588 27.9789L17.8036 29.9504C17.3257 30.4088 16.6771 30.6666 16 30.6666C15.323 30.6666 14.6744 30.4088 14.1965 29.9504L12.1412 27.9789C12.0474 27.8888 11.9137 27.8466 11.7814 27.867L8.91113 28.3022C8.24264 28.4046 7.55992 28.2463 7.01232 27.8657C6.46614 27.4836 6.09918 26.9093 5.99251 26.2694L5.53878 23.5161C5.51745 23.3893 5.43495 23.2801 5.31547 23.2214L2.72683 21.9567C2.12376 21.662 1.66719 21.149 1.45811 20.5323C1.24902 19.9156 1.3045 19.243 1.61172 18.6659L2.93022 16.1814C2.99138 16.0668 2.99138 15.9331 2.93022 15.8185L1.61172 13.3341C1.3045 12.7569 1.24902 12.0843 1.45811 11.4676C1.66719 10.851 2.12376 10.338 2.72683 10.0433L5.31547 8.77852C5.43495 8.71985 5.51745 8.61071 5.53878 8.48382L5.99251 5.73058C6.09918 5.09071 6.46614 4.51632 7.01232 4.13431C7.55992 3.75365 8.24264 3.59539 8.91113 3.69772L11.7814 4.13294C11.9137 4.15341 12.0474 4.11111 12.1412 4.02106L14.1965 2.04959ZM10.268 16.7231L13.5863 19.9075C14.0031 20.3072 14.6787 20.3072 15.0954 19.9075L21.732 13.5401C22.1488 13.1403 22.1488 12.4923 21.732 12.0925C21.3167 11.6941 20.6397 11.6941 20.2244 12.0925L14.3402 17.7368L11.7757 15.2769C11.3604 14.8771 10.6834 14.8771 10.268 15.2769C9.85129 15.6753 9.85129 16.3247 10.268 16.7231Z" fill="white"/>
</svg>
