<svg width="32" height="32" viewBox="0 0 32 32" fill="none" xmlns="http://www.w3.org/2000/svg">
<g clip-path="url(#clip0_59084_1264)">
<path d="M31.8628 8.897C31.2626 5.44209 28.7272 2.74314 25.3175 2.07329C21.7862 1.37981 18.2746 2.92071 16.4629 5.95764C16.3247 6.18833 16.0061 6.73362 16.0001 6.72536C15.994 6.73362 15.6754 6.18827 15.5373 5.95764C13.7255 2.92071 10.2139 1.37981 6.68265 2.07329C3.27323 2.74314 0.737524 5.44214 0.13727 8.897C-0.333782 11.6071 0.442939 14.169 1.92428 16.4253C3.10105 18.2184 4.41376 19.9577 5.88574 21.5133C8.90761 24.7081 12.4537 27.3134 15.9997 30.091C19.546 27.3134 23.0921 24.7081 26.1136 21.5133C27.5855 19.9577 28.8983 18.2181 30.075 16.4253C31.5567 14.169 32.3338 11.6075 31.8628 8.897ZM7.07433 6.11518C6.29364 6.12522 5.52449 6.48505 4.96299 7.10214C4.3746 7.74935 4.08906 8.5781 4.1597 9.43592C4.19703 9.89154 3.85801 10.2909 3.40306 10.3281C3.37974 10.3299 3.35715 10.331 3.33451 10.331C2.90832 10.331 2.54628 10.0035 2.51078 9.57113C2.40422 8.27023 2.85195 6.96473 3.73921 5.98885C4.60743 5.03383 5.81537 4.47666 7.05274 4.4605C7.50549 4.4501 7.88436 4.81998 7.89079 5.2767C7.89628 5.7338 7.53142 6.10906 7.07433 6.11518Z" fill="white"/>
</g>
<defs>
<clipPath id="clip0_59084_1264">
<rect width="32" height="32" fill="white"/>
</clipPath>
</defs>
</svg>
