<svg width="32" height="32" viewBox="0 0 32 32" fill="none" xmlns="http://www.w3.org/2000/svg">
<g clip-path="url(#clip0_59082_2699)">
<path d="M17.5067 25.3157C19.0779 26.4096 21.0243 27.3453 23.1338 27.3453C26.7493 27.3453 29.8755 24.6497 31.4739 22.9687C32.1753 22.2396 32.1753 21.0978 31.4739 20.3682C31.0172 19.8925 30.4301 19.3216 29.745 18.7823C29.2394 20.0512 28.5272 21.1294 27.6246 22.0493C25.4825 24.174 22.5031 24.9825 19.9151 25.2206C19.6325 25.2521 19.3606 25.2679 19.0888 25.2842H18.855L17.474 25.3" fill="white"/>
<path d="M18.6158 23.0637C18.3766 23.3333 18.1102 23.5552 17.822 23.7297C20.1708 23.7455 24.0527 23.3649 26.4993 20.9232C27.4018 20.019 28.0216 18.9409 28.4293 17.7992C29.2232 15.706 29.3536 13.4383 29.3047 11.9317C29.2721 10.9166 28.4782 10.1082 27.4616 10.0924C26.3525 10.0604 24.8301 10.124 23.2643 10.473C23.3568 11.0596 23.4057 11.6778 23.4057 12.2965C23.4057 13.597 23.1828 14.8497 22.8185 16.0072C21.8507 19.0991 19.9152 21.6207 18.6158 23.0637Z" fill="white"/>
<path d="M14.5219 25.2999L13.429 25.2836C13.3529 25.2999 13.2714 25.2836 13.1898 25.2836C12.9071 25.2678 12.6353 25.2521 12.3526 25.2205C9.76461 24.9824 6.80148 24.174 4.65939 22.0487C3.74053 21.1293 2.99568 19.9718 2.47376 18.5919C1.69633 19.2106 1.02754 19.8446 0.52195 20.3682C-0.173983 21.0972 -0.173983 22.239 0.52195 22.9686C2.1258 24.6497 5.24655 27.3453 8.86207 27.3453C10.9716 27.3453 12.9234 26.4096 14.4946 25.3157" fill="white"/>
<path d="M5.78474 20.9232C8.23133 23.3649 12.1133 23.7455 14.462 23.7297C14.1738 23.5552 13.9074 23.3333 13.6682 23.0637C12.3688 21.6207 10.4333 19.0991 9.46551 16.023C9.10128 14.8497 8.87835 13.597 8.87835 12.2965C8.87835 11.6778 8.92726 11.0596 9.01971 10.473C7.45389 10.124 5.93155 10.0604 4.82247 10.0924C3.80578 10.1082 3.01196 10.9166 2.97937 11.9317C2.93039 13.3904 3.06087 15.5951 3.78946 17.6404C4.21892 18.83 4.84962 19.9875 5.78474 20.9232Z" fill="white"/>
<path d="M17.4415 21.9981C19.116 20.1398 21.8235 16.4922 21.8235 12.2966C21.8235 8.10044 19.116 4.45339 17.4415 2.59509C16.713 1.78609 15.5712 1.78609 14.8426 2.59509C13.1681 4.45339 10.4606 8.10044 10.4606 12.2966C10.4606 16.4922 13.1681 20.1398 14.8426 21.9981C15.5712 22.8055 16.713 22.8055 17.4415 21.9981Z" fill="white"/>
</g>
<defs>
<clipPath id="clip0_59082_2699">
<rect width="32" height="32" fill="white"/>
</clipPath>
</defs>
</svg>
