<svg width="32" height="32" viewBox="0 0 32 32" fill="none" xmlns="http://www.w3.org/2000/svg">
<path fill-rule="evenodd" clip-rule="evenodd" d="M15.9999 0.363647C10.5818 0.363647 6.18176 4.76365 6.18176 10.1818C6.18176 13.3702 7.70467 16.2066 10.0683 17.9927C10.0712 17.9956 10.0756 17.9986 10.0785 18.0015C10.1512 18.0553 10.2021 18.1338 10.2196 18.2211L10.8203 21.1636C11.1999 23.0255 12.8378 24.3636 14.7389 24.3636H17.261C19.1621 24.3636 20.7999 23.0255 21.1796 21.1636C21.3992 20.0902 21.6407 18.9062 21.7861 18.2371C21.7876 18.2327 21.789 18.2269 21.7905 18.2226C21.8079 18.1367 21.8559 18.0596 21.9272 18.0073C21.9316 18.0044 21.9359 18.0015 21.9403 17.9986C24.2967 16.2036 25.8181 13.3687 25.8181 10.1818C25.8181 4.76365 21.4181 0.363647 15.9999 0.363647ZM12.0261 8.43201C12.6909 6.89601 14.2196 5.81819 15.9999 5.81819C16.6021 5.81819 17.0909 5.32947 17.0909 4.72728C17.0909 4.1251 16.6021 3.63637 15.9999 3.63637C13.3236 3.63637 11.0225 5.25528 10.0232 7.56801C9.78467 8.12074 10.0392 8.76219 10.5919 9.00219C11.1447 9.24074 11.7876 8.98474 12.0261 8.43201Z" fill="white"/>
<path fill-rule="evenodd" clip-rule="evenodd" d="M13.0909 28.0001H18.9091C19.5113 28.0001 20 27.5113 20 26.9091C20 26.307 19.5113 25.8182 18.9091 25.8182H13.0909C12.4887 25.8182 12 26.307 12 26.9091C12 27.5113 12.4887 28.0001 13.0909 28.0001Z" fill="white"/>
<path fill-rule="evenodd" clip-rule="evenodd" d="M13.8181 31.6364H18.1817C18.7839 31.6364 19.2726 31.1477 19.2726 30.5455C19.2726 29.9433 18.7839 29.4546 18.1817 29.4546H13.8181C13.2159 29.4546 12.7272 29.9433 12.7272 30.5455C12.7272 31.1477 13.2159 31.6364 13.8181 31.6364Z" fill="white"/>
</svg>
