<svg width="32" height="32" viewBox="0 0 32 32" fill="none" xmlns="http://www.w3.org/2000/svg">
<path d="M24.4974 12.4181V8.44356C24.4974 3.78954 20.6896 0 16.0001 0C11.3165 0 7.50287 3.78954 7.50287 8.44356V12.4181C5.54238 12.5809 4 14.2258 4 16.2131V20.9515C4 27.0427 8.98302 32 15.113 32H16.887C23.017 32 28 27.0427 28 20.9515V16.2131C28 14.2257 26.4579 12.5809 24.4974 12.4181ZM11.1809 8.44356C11.4451 2.09831 20.5554 2.09975 20.8194 8.44356V12.4016H11.1809L11.1809 8.44356ZM14.6556 22.6417C12.6725 21.3561 13.64 18.2136 16.0002 18.2345C18.3604 18.2148 19.3293 21.3545 17.3449 22.6417C17.1923 22.7427 17.0963 22.9224 17.0963 23.1076V25.0782C17.0596 26.5126 14.9423 26.5154 14.9042 25.0782V23.1076C14.9042 22.9224 14.8081 22.7427 14.6556 22.6417Z" fill="#97989C"/>
</svg>
