<svg width="32" height="32" viewBox="0 0 32 32" fill="none" xmlns="http://www.w3.org/2000/svg">
<g clip-path="url(#clip0_59084_1350)">
<path d="M31.9688 15.5321C31.9688 12.8461 30.0295 10.6042 27.477 10.1339C27.5576 6.18632 23.7181 3.13236 19.7814 4.30407C18.5895 1.78101 16.0345 0 13.006 0C8.97136 0 5.67157 3.20871 5.52561 7.20838C2.34241 7.90127 0.0313721 10.7298 0.0313721 14.035C0.0313721 17.8875 3.16523 21.0213 7.01769 21.0213H26.4796C29.5061 21.0213 31.9688 18.5586 31.9688 15.5321Z" fill="white"/>
<path d="M21.9357 22.6238C21.4428 22.3773 20.8432 22.577 20.5967 23.0701L18.6006 27.0623C18.2665 27.7305 18.759 28.5069 19.4925 28.5069C19.8586 28.5069 20.2111 28.3047 20.386 27.955L22.3821 23.9628C22.6285 23.4698 22.4287 22.8703 21.9357 22.6238Z" fill="white"/>
<path d="M12.9533 22.6238C12.4604 22.3773 11.8607 22.577 11.6143 23.0701L9.61819 27.0623C9.28409 27.7305 9.77663 28.5069 10.5101 28.5069C10.8762 28.5069 11.2287 28.3047 11.4036 27.955L13.3997 23.9628C13.6461 23.4698 13.4463 22.8703 12.9533 22.6238Z" fill="white"/>
<path d="M15.9474 26.1169C15.4544 25.8705 14.8549 26.0703 14.6084 26.5633L12.6123 30.5555C12.2782 31.2237 12.7708 32.0001 13.5043 32.0001C13.8704 32.0001 14.2229 31.7978 14.3977 31.4482L16.3938 27.456C16.6403 26.9629 16.4405 26.3634 15.9474 26.1169Z" fill="white"/>
<path d="M24.9298 26.1169C24.4369 25.8705 23.8373 26.0703 23.5908 26.5633L21.5948 30.5555C21.2607 31.2237 21.7532 32.0001 22.4867 32.0001C22.8528 32.0001 23.2053 31.7978 23.3801 31.4482L25.3762 27.456C25.6227 26.9629 25.4229 26.3634 24.9298 26.1169Z" fill="white"/>
<path d="M6.965 26.1169C6.47203 25.8705 5.87245 26.0703 5.626 26.5633L3.62991 30.5555C3.29581 31.2237 3.78835 32.0001 4.52185 32.0001C4.88794 32.0001 5.24044 31.7978 5.41529 31.4482L7.41138 27.456C7.65783 26.9629 7.45803 26.3634 6.965 26.1169Z" fill="white"/>
</g>
<defs>
<clipPath id="clip0_59084_1350">
<rect width="32" height="32" fill="white"/>
</clipPath>
</defs>
</svg>
