<svg width="32" height="32" viewBox="0 0 32 32" fill="none" xmlns="http://www.w3.org/2000/svg">
<g clip-path="url(#clip0_59082_2715)">
<g clip-path="url(#clip1_59082_2715)">
<path d="M3.33325 28C2.22925 28 1.33325 28.896 1.33325 30C1.33325 31.104 2.22925 32 3.33325 32C4.43725 32 5.33325 31.104 5.33325 30C5.33325 28.896 4.43725 28 3.33325 28Z" fill="white"/>
<path d="M9.33331 24C7.86 24 6.66663 25.1933 6.66663 26.6667C6.66663 28.1401 7.85994 29.3334 9.33331 29.3334C10.8066 29.3334 12 28.1401 12 26.6667C12 25.1933 10.8067 24 9.33331 24Z" fill="white"/>
<path d="M21.3333 0C18.192 0 15.2733 1.35469 13.24 3.73469C11.9333 3.03469 10.48 2.66669 9 2.66669C4.03731 2.66669 0 6.704 0 11.6667C0 16.6294 4.03731 20.6667 9 20.6667H9.07731C9.88531 22.6813 11.804 24 14 24C16.032 24 17.876 22.8253 18.7653 21.0213C19.604 21.228 20.464 21.3333 21.3333 21.3333C27.2146 21.3333 32 16.548 32 10.6666C32 4.78525 27.2147 0 21.3333 0Z" fill="white"/>
</g>
</g>
<defs>
<clipPath id="clip0_59082_2715">
<rect width="32" height="32" fill="white"/>
</clipPath>
<clipPath id="clip1_59082_2715">
<rect width="32" height="32" fill="white"/>
</clipPath>
</defs>
</svg>
