<svg width="32" height="32" viewBox="0 0 32 32" fill="none" xmlns="http://www.w3.org/2000/svg">
<path d="M12 21.9998C11.0667 21.9998 10.2778 21.6776 9.63333 21.0332C8.98889 20.3887 8.66667 19.5998 8.66667 18.6665C8.66667 17.7332 8.98889 16.9443 9.63333 16.2998C10.2778 15.6554 11.0667 15.3332 12 15.3332C12.9333 15.3332 13.7222 15.6554 14.3667 16.2998C15.0111 16.9443 15.3333 17.7332 15.3333 18.6665C15.3333 19.5998 15.0111 20.3887 14.3667 21.0332C13.7222 21.6776 12.9333 21.9998 12 21.9998ZM6.66667 29.3332C5.93333 29.3332 5.30556 29.0721 4.78333 28.5498C4.26111 28.0276 4 27.3998 4 26.6665V7.99984C4 7.2665 4.26111 6.63873 4.78333 6.1165C5.30556 5.59428 5.93333 5.33317 6.66667 5.33317H8V2.6665H10.6667V5.33317H21.3333V2.6665H24V5.33317H25.3333C26.0667 5.33317 26.6944 5.59428 27.2167 6.1165C27.7389 6.63873 28 7.2665 28 7.99984V26.6665C28 27.3998 27.7389 28.0276 27.2167 28.5498C26.6944 29.0721 26.0667 29.3332 25.3333 29.3332H6.66667ZM6.66667 26.6665H25.3333V13.3332H6.66667V26.6665Z" fill="#C1C3C8"/>
</svg>
