<svg width="14" height="15" viewBox="0 0 14 15" fill="none" xmlns="http://www.w3.org/2000/svg">
<path d="M7.00016 10.8335C7.18905 10.8335 7.34739 10.7696 7.47516 10.6418C7.60294 10.5141 7.66683 10.3557 7.66683 10.1668C7.66683 9.97794 7.60294 9.81961 7.47516 9.69183C7.34739 9.56405 7.18905 9.50016 7.00016 9.50016C6.81127 9.50016 6.65294 9.56405 6.52516 9.69183C6.39739 9.81961 6.3335 9.97794 6.3335 10.1668C6.3335 10.3557 6.39739 10.5141 6.52516 10.6418C6.65294 10.7696 6.81127 10.8335 7.00016 10.8335ZM6.3335 8.16683H7.66683V4.16683H6.3335V8.16683ZM7.00016 14.1668C6.07794 14.1668 5.21127 13.9918 4.40016 13.6418C3.58905 13.2918 2.8835 12.8168 2.2835 12.2168C1.6835 11.6168 1.2085 10.9113 0.858496 10.1002C0.508496 9.28905 0.333496 8.42239 0.333496 7.50016C0.333496 6.57794 0.508496 5.71127 0.858496 4.90016C1.2085 4.08905 1.6835 3.3835 2.2835 2.7835C2.8835 2.1835 3.58905 1.7085 4.40016 1.3585C5.21127 1.0085 6.07794 0.833496 7.00016 0.833496C7.92239 0.833496 8.78905 1.0085 9.60016 1.3585C10.4113 1.7085 11.1168 2.1835 11.7168 2.7835C12.3168 3.3835 12.7918 4.08905 13.1418 4.90016C13.4918 5.71127 13.6668 6.57794 13.6668 7.50016C13.6668 8.42239 13.4918 9.28905 13.1418 10.1002C12.7918 10.9113 12.3168 11.6168 11.7168 12.2168C11.1168 12.8168 10.4113 13.2918 9.60016 13.6418C8.78905 13.9918 7.92239 14.1668 7.00016 14.1668Z" fill="#E5423A"/>
</svg>
