<svg width="16" height="16" viewBox="0 0 16 16" fill="none" xmlns="http://www.w3.org/2000/svg">
<g clip-path="url(#clip0_57880_17073)">
<path d="M12.6665 5.99984L13.4998 4.1665L15.3332 3.33317L13.4998 2.49984L12.6665 0.666504L11.8332 2.49984L9.99984 3.33317L11.8332 4.1665L12.6665 5.99984Z" fill="#FC4940"/>
<path d="M12.6665 9.99984L11.8332 11.8332L9.99984 12.6665L11.8332 13.4998L12.6665 15.3332L13.4998 13.4998L15.3332 12.6665L13.4998 11.8332L12.6665 9.99984Z" fill="#FC4940"/>
<path d="M7.6665 6.33317L5.99984 2.6665L4.33317 6.33317L0.666504 7.99984L4.33317 9.6665L5.99984 13.3332L7.6665 9.6665L11.3332 7.99984L7.6665 6.33317ZM6.65984 8.65984L5.99984 10.1132L5.33984 8.65984L3.8865 7.99984L5.33984 7.33984L5.99984 5.8865L6.65984 7.33984L8.11317 7.99984L6.65984 8.65984Z" fill="#FC4940"/>
</g>
<defs>
<clipPath id="clip0_57880_17073">
<rect width="16" height="16" fill="white"/>
</clipPath>
</defs>
</svg>
