<svg width="146" height="146" viewBox="0 0 146 146" fill="none" xmlns="http://www.w3.org/2000/svg">
<g clip-path="url(#clip0_57880_17275)">
<path d="M72.3187 0.499997C111.075 0.499995 145.5 19.4951 145.5 59.5357C145.5 99.5764 111.075 145.5 72.3187 145.5C33.5628 145.5 12.671 120.125 2.14493 73C-8.38114 25.875 33.5628 0.499999 72.3187 0.499997Z" fill="#7B60FF"/>
<path d="M100.945 115.874C108.497 90.1643 107.096 64.0858 100.149 44.8331C92.1247 22.5845 75.9144 20.1862 66.3786 23.4922C56.0167 27.0933 50.2789 37.904 49.0399 68.5576C47.8009 99.2187 37.9406 102.812 39.6884 110.457C41.4363 118.095 56.3559 115.18 62.4108 109.778C62.4108 109.778 59.5567 127.467 71.8139 126.22C82.2791 125.157 86.1067 115.903 86.1067 115.903C86.1067 115.903 95.1706 135.569 100.953 115.874H100.945Z" fill="#DBC5FF"/>
<path opacity="0.25" d="M83.3635 38.1183C83.4372 42.509 86.4389 45.9772 88.5997 49.5341C92.7814 56.3968 93.6 64.2336 92.6412 72.0926C91.5424 81.0658 87.1542 89.862 87.228 98.9164C87.2722 104.178 89.3151 109.867 94.9275 111.314C96.9409 111.83 98.6519 111.506 100.001 110.649C105.54 86.5118 104.692 63.6581 97.8849 45.7927C95.2889 38.9816 90.7164 33.0413 86.9477 29.6025C84.5214 31.381 83.3192 35.3805 83.3635 38.1183Z" fill="#F6F1FF"/>
<path d="M45.5885 109.823C43.5382 107.041 45.1091 103.58 46.4587 100.864C52.2334 89.2198 53.1479 77.5532 53.6199 64.7353C53.9739 55.1717 53.6641 43.4165 59.8739 35.4837C62.8534 31.6834 66.9686 28.9456 71.3272 26.9532C75.6195 24.9977 79.4397 24.5549 83.673 24.5033C77.4706 21.6106 71.106 21.8467 66.3712 23.4849C56.0094 27.086 50.2716 37.8967 49.0326 68.5504C47.7936 99.2114 37.9332 102.805 39.6811 110.45C40.9275 115.896 48.863 115.977 55.5079 113.616C51.8941 113.365 47.7125 112.686 45.5885 109.815V109.823Z" fill="#D0B4FF"/>
<path d="M69.8966 121.696C65.5675 119.763 64.1294 116.258 62.1529 112.435C61.9095 117.32 62.5585 127.157 71.8067 126.22C75.3467 125.858 78.1271 124.559 80.2585 123.002C76.7406 123.268 73.2522 123.201 69.8966 121.703V121.696Z" fill="#D0B4FF"/>
<path d="M97.7885 119.475C94.9713 121.157 90.8265 121.32 88.083 119.438C90.974 123.843 96.4094 129.378 100.473 117.283C99.6765 118.132 98.7915 118.877 97.7959 119.475H97.7885Z" fill="#D0B4FF"/>
<path d="M63.6356 47.3791C65.2434 42.2874 71.1213 41.4387 73.8943 43.5345C78.9314 47.3422 80.7604 59.0015 74.4695 62.6838C68.1786 66.3661 60.044 58.7358 63.6356 47.3791Z" fill="#F8F8F8"/>
<path d="M85.0595 47.3942C86.5197 42.7747 91.8445 42.0073 94.3594 43.9111C98.9245 47.3646 100.584 57.9318 94.883 61.2673C89.1821 64.6027 81.8071 57.6957 85.0595 47.3942Z" fill="#F8F8F8"/>
<path opacity="0.5" d="M64.3434 53.8655C64.4761 49.3715 67.8686 43.2835 72.8468 42.9441C69.8451 41.6896 65.0661 42.8629 63.6354 47.3791C61.2901 54.7953 63.9525 60.6249 67.8244 62.7502C65.5824 60.4331 64.2401 57.319 64.336 53.8655H64.3434Z" fill="url(#paint0_linear_57880_17275)"/>
<path opacity="0.5" d="M92.4791 43.0843C89.7872 42.5013 86.2177 43.7336 85.0598 47.3938C82.8621 54.3377 85.5097 59.7394 89.2119 61.4956C84.6911 55.8431 85.4359 46.2278 92.4791 43.0843Z" fill="url(#paint1_linear_57880_17275)"/>
<path d="M70.7166 49.0597C72.2949 49.3549 73.7551 51.4432 73.2831 54.5204C72.8111 57.5975 69.6325 57.9222 68.5263 55.3395C67.125 52.0631 68.2386 48.5948 70.7166 49.0597Z" fill="#484349"/>
<path d="M91.101 49.0556C92.5318 49.3213 93.8593 51.2178 93.4241 54.0071C92.989 56.7965 90.1128 57.0917 89.1171 54.7451C87.8486 51.7786 88.859 48.635 91.101 49.0556Z" fill="#484349"/>
<path d="M80.6123 68.7865C80.6123 68.7865 83.2231 76.8521 85.3544 68.6021" stroke="#B07FFF" stroke-width="2.16" stroke-linecap="round" stroke-linejoin="round"/>
<path d="M61.9688 66.8089C60.8773 67.8347 61.7549 69.281 63.7535 70.2625C65.7964 71.266 69.4028 72.6386 73.5328 71.8933C79.89 70.7495 78.0389 67.2148 68.6948 66.0931C66.9985 65.8865 63.429 65.4364 61.9688 66.8089Z" fill="#D0B4FF"/>
<path d="M87.9949 68.5285C87.6556 69.8273 88.9094 70.8308 90.7679 71.0227C92.6706 71.2219 95.8566 71.2146 98.5043 69.1188C102.583 65.8941 99.7285 63.3408 92.5158 65.562C91.2104 65.9679 88.4448 66.7944 87.9875 68.5285H87.9949Z" fill="#D0B4FF"/>
<path d="M112.598 52.1927C108.692 54.9872 102.5 57.2986 99.8924 58.1051L104.419 78.9035C105.378 78.0503 114.208 71.0567 117.636 66.5319C121.921 60.8759 123.173 57.4448 122.38 50.4893C121.587 43.5338 117.481 48.6996 112.598 52.1927Z" fill="#E2D0FF"/>
<path d="M39.3279 48.8248C43.2345 51.6193 49.4261 53.9308 52.0336 54.7372L50.2131 77.4275C49.2541 76.5743 37.7177 67.6888 34.2899 63.164C30.0053 57.508 28.7532 54.077 29.546 47.1214C30.3388 40.1659 34.4446 45.3317 39.3279 48.8248Z" fill="#D0B4FF"/>
</g>
<defs>
<linearGradient id="paint0_linear_57880_17275" x1="62.7578" y1="52.611" x2="72.8468" y2="52.611" gradientUnits="userSpaceOnUse">
<stop stop-color="#C1C1C1"/>
<stop offset="0.06" stop-color="#C6C6C6"/>
<stop offset="0.43" stop-color="#E1E1E1"/>
<stop offset="0.75" stop-color="#F2F2F2"/>
<stop offset="1" stop-color="#F8F8F8"/>
</linearGradient>
<linearGradient id="paint1_linear_57880_17275" x1="84.2633" y1="52.2198" x2="92.4791" y2="52.2198" gradientUnits="userSpaceOnUse">
<stop stop-color="#C1C1C1"/>
<stop offset="0.06" stop-color="#C6C6C6"/>
<stop offset="0.43" stop-color="#E1E1E1"/>
<stop offset="0.75" stop-color="#F2F2F2"/>
<stop offset="1" stop-color="#F8F8F8"/>
</linearGradient>
<clipPath id="clip0_57880_17275">
<rect width="145" height="145" fill="white" transform="translate(0.5 0.5)"/>
</clipPath>
</defs>
</svg>
