<svg width="146" height="146" viewBox="0 0 146 146" fill="none" xmlns="http://www.w3.org/2000/svg">
<g clip-path="url(#clip0_57880_17234)">
<path d="M72.3187 0.499997C111.075 0.499995 145.5 19.4951 145.5 59.5357C145.5 99.5764 111.075 145.5 72.3187 145.5C33.5628 145.5 12.671 120.125 2.14493 73C-8.38114 25.875 33.5628 0.499999 72.3187 0.499997Z" fill="#7B60FF"/>
<path d="M49.5074 116.484C41.5155 89.293 42.9984 61.7116 50.3503 41.3495C58.8417 17.8187 75.9961 15.2822 86.0875 18.7865C97.0529 22.5951 103.125 34.0288 104.436 66.449C105.747 98.877 116.182 102.678 114.332 110.763C112.483 118.841 96.6939 115.758 90.2863 110.045C90.2863 110.045 93.3067 128.753 80.3355 127.434C69.2608 126.31 65.2102 116.523 65.2102 116.523C65.2102 116.523 55.6184 137.322 49.4996 116.492L49.5074 116.484Z" fill="#DBC5FF"/>
<path opacity="0.25" d="M68.1135 34.2496C68.0355 38.8934 64.859 42.5615 62.5722 46.3233C58.1471 53.5816 57.2807 61.87 58.2953 70.1819C59.4582 79.6723 64.1019 88.9753 64.0239 98.5515C63.9771 104.116 61.8152 110.134 55.8759 111.663C53.7453 112.21 51.9346 111.866 50.5064 110.961C44.6451 85.432 45.5427 61.2613 52.7463 42.3664C55.4935 35.1628 60.3323 28.8801 64.3205 25.2432C66.8882 27.1241 68.1603 31.3541 68.1135 34.2496Z" fill="#F6F1FF"/>
<path d="M108.088 110.085C110.258 107.143 108.595 103.482 107.167 100.61C101.056 88.2947 100.088 75.9556 99.5889 62.3991C99.2143 52.2844 99.5421 39.8517 92.9706 31.4618C89.8176 27.4424 85.4626 24.5469 80.8501 22.4397C76.3078 20.3715 72.2651 19.9032 67.7853 19.8486C74.3489 16.7892 81.0842 17.0389 86.0948 18.7715C97.0602 22.5802 103.132 34.0139 104.443 66.4341C105.754 98.8621 116.189 102.663 114.34 110.748C113.021 116.508 104.623 116.594 97.5909 114.097C101.415 113.831 105.84 113.113 108.088 110.077L108.088 110.085Z" fill="#D0B4FF"/>
<path d="M82.3649 122.643C86.9462 120.599 88.4681 116.891 90.5597 112.849C90.8173 118.015 90.1305 128.419 80.3435 127.428C76.5974 127.045 73.655 125.672 71.3995 124.025C75.1223 124.306 78.8138 124.236 82.3649 122.651L82.3649 122.643Z" fill="#D0B4FF"/>
<path d="M52.8473 120.294C55.8287 122.073 60.2149 122.245 63.1182 120.255C60.0588 124.914 54.3068 130.767 50.0065 117.976C50.8494 118.873 51.7859 119.661 52.8395 120.294L52.8473 120.294Z" fill="#D0B4FF"/>
<path d="M88.9907 44.0425C87.2893 38.6573 81.0691 37.7598 78.1346 39.9763C72.8041 44.0034 70.8685 56.3347 77.5258 60.2291C84.1831 64.1236 92.7916 56.0537 88.9907 44.0425Z" fill="#F8F8F8"/>
<path d="M66.3174 44.0575C64.7721 39.1718 59.1372 38.3602 56.4758 40.3737C51.6448 44.0263 49.8888 55.2024 55.9217 58.7301C61.9546 62.2578 69.7592 54.9527 66.3174 44.0575Z" fill="#F8F8F8"/>
<path opacity="0.5" d="M88.2404 50.9024C88.0999 46.1494 84.5098 39.7106 79.2417 39.3516C82.4181 38.0248 87.4755 39.2658 88.9896 44.0422C91.4714 51.8858 88.654 58.0514 84.5566 60.2991C86.9292 57.8485 88.3496 54.5549 88.2482 50.9024L88.2404 50.9024Z" fill="url(#paint0_linear_57880_17234)"/>
<path opacity="0.5" d="M58.4666 39.5004C61.3152 38.8839 65.0926 40.1872 66.318 44.0583C68.6437 51.4024 65.8419 57.1153 61.924 58.9728C66.7082 52.9945 65.9199 42.8252 58.4666 39.5004Z" fill="url(#paint1_linear_57880_17234)"/>
<path d="M78.6337 46.8282C76.9636 47.1404 75.4183 49.3491 75.9177 52.6036C76.4172 55.8581 79.781 56.2015 80.9517 53.4699C82.4346 50.0047 81.2561 46.3365 78.6337 46.8282Z" fill="#484349"/>
<path d="M56.4372 46.6262C54.9231 46.9071 53.5183 48.9129 53.9787 51.863C54.4392 54.8132 57.483 55.1253 58.5366 52.6435C59.879 49.5061 58.8098 46.1813 56.4372 46.6262Z" fill="#484349"/>
<path d="M71.5 67.5C71.5 67.5 67 73.5 64 67.5" stroke="#B07FFF" stroke-width="2.16" stroke-linecap="round" stroke-linejoin="round"/>
<path d="M90.7546 64.5934C91.9097 65.6783 90.9809 67.208 88.8659 68.246C86.704 69.3074 82.8876 70.759 78.517 69.9708C71.7895 68.7611 73.7484 65.0227 83.6368 63.8364C85.4319 63.6179 89.2093 63.1418 90.7546 64.5934Z" fill="#D0B4FF"/>
<path d="M63.2123 66.4088C63.5713 67.7824 62.2446 68.8438 60.2778 69.0467C58.2642 69.2575 54.8926 69.2496 52.0908 67.0331C47.7749 63.6225 50.7953 60.9222 58.4281 63.2713C59.8095 63.7006 62.7362 64.5747 63.2201 66.4088L63.2123 66.4088Z" fill="#D0B4FF"/>
</g>
<defs>
<linearGradient id="paint0_linear_57880_17234" x1="89.9183" y1="49.5756" x2="79.2417" y2="49.5756" gradientUnits="userSpaceOnUse">
<stop stop-color="#C1C1C1"/>
<stop offset="0.06" stop-color="#C6C6C6"/>
<stop offset="0.43" stop-color="#E1E1E1"/>
<stop offset="0.75" stop-color="#F2F2F2"/>
<stop offset="1" stop-color="#F8F8F8"/>
</linearGradient>
<linearGradient id="paint1_linear_57880_17234" x1="67.1609" y1="49.1625" x2="58.4666" y2="49.1625" gradientUnits="userSpaceOnUse">
<stop stop-color="#C1C1C1"/>
<stop offset="0.06" stop-color="#C6C6C6"/>
<stop offset="0.43" stop-color="#E1E1E1"/>
<stop offset="0.75" stop-color="#F2F2F2"/>
<stop offset="1" stop-color="#F8F8F8"/>
</linearGradient>
<clipPath id="clip0_57880_17234">
<rect width="145" height="145" fill="white" transform="translate(0.5 0.5)"/>
</clipPath>
</defs>
</svg>
