<svg width="32" height="32" viewBox="0 0 32 32" fill="none" xmlns="http://www.w3.org/2000/svg">
<path d="M14.6668 24.0002C14.6668 25.4668 13.4668 26.6668 12.0002 26.6668C10.5335 26.6668 9.3335 25.4668 9.3335 24.0002C9.3335 22.5335 10.5335 21.3335 12.0002 21.3335C13.4668 21.3335 14.6668 22.5335 14.6668 24.0002ZM12.0002 13.3335C10.5335 13.3335 9.3335 14.5335 9.3335 16.0002C9.3335 17.4668 10.5335 18.6668 12.0002 18.6668C13.4668 18.6668 14.6668 17.4668 14.6668 16.0002C14.6668 14.5335 13.4668 13.3335 12.0002 13.3335ZM12.0002 5.3335C10.5335 5.3335 9.3335 6.5335 9.3335 8.00016C9.3335 9.46683 10.5335 10.6668 12.0002 10.6668C13.4668 10.6668 14.6668 9.46683 14.6668 8.00016C14.6668 6.5335 13.4668 5.3335 12.0002 5.3335ZM20.0002 10.6668C21.4668 10.6668 22.6668 9.46683 22.6668 8.00016C22.6668 6.5335 21.4668 5.3335 20.0002 5.3335C18.5335 5.3335 17.3335 6.5335 17.3335 8.00016C17.3335 9.46683 18.5335 10.6668 20.0002 10.6668ZM20.0002 13.3335C18.5335 13.3335 17.3335 14.5335 17.3335 16.0002C17.3335 17.4668 18.5335 18.6668 20.0002 18.6668C21.4668 18.6668 22.6668 17.4668 22.6668 16.0002C22.6668 14.5335 21.4668 13.3335 20.0002 13.3335ZM20.0002 21.3335C18.5335 21.3335 17.3335 22.5335 17.3335 24.0002C17.3335 25.4668 18.5335 26.6668 20.0002 26.6668C21.4668 26.6668 22.6668 25.4668 22.6668 24.0002C22.6668 22.5335 21.4668 21.3335 20.0002 21.3335Z" fill="#7153FF"/>
</svg>
