<svg width="32" height="32" viewBox="0 0 32 32" fill="none" xmlns="http://www.w3.org/2000/svg">
<path d="M14.6665 9.33317H17.3332V11.9998H14.6665V9.33317ZM14.6665 14.6665H17.3332V22.6665H14.6665V14.6665ZM15.9998 2.6665C8.63984 2.6665 2.6665 8.63984 2.6665 15.9998C2.6665 23.3598 8.63984 29.3332 15.9998 29.3332C23.3598 29.3332 29.3332 23.3598 29.3332 15.9998C29.3332 8.63984 23.3598 2.6665 15.9998 2.6665ZM15.9998 26.6665C10.1198 26.6665 5.33317 21.8798 5.33317 15.9998C5.33317 10.1198 10.1198 5.33317 15.9998 5.33317C21.8798 5.33317 26.6665 10.1198 26.6665 15.9998C26.6665 21.8798 21.8798 26.6665 15.9998 26.6665Z" fill="#C1C3C8"/>
</svg>
