<svg width="65" height="64" viewBox="0 0 65 64" fill="none" xmlns="http://www.w3.org/2000/svg">
<path fill-rule="evenodd" clip-rule="evenodd" d="M58.7737 6.44843C59.0666 6.15554 59.5415 6.15554 59.8344 6.44843L64.6074 11.2214C64.9003 11.5143 64.9003 11.9892 64.6074 12.2821C64.3145 12.575 63.8396 12.575 63.5467 12.2821L60.0662 8.80158C60.1093 13.0816 60.1268 16.0419 57.4095 20.1178C56.7265 21.1422 55.8929 22.089 55.0775 23.015C54.9755 23.1308 54.8738 23.2464 54.7727 23.3617C53.8494 24.4147 52.957 25.4712 52.2306 26.6916C52.0395 27.0127 51.859 27.3466 51.6925 27.6961C53.0551 28.7856 54.4583 30.1903 55.8979 31.9498C57.8824 34.3753 58.7727 36.6401 58.8746 38.5406C58.9764 40.4395 58.2826 41.9943 57.0941 42.8432C55.8893 43.7037 54.302 43.7428 52.8912 42.835C51.5025 41.9415 50.3333 40.1754 49.6944 37.4919C48.752 33.5338 48.9979 30.5798 49.8601 28.1949C47.5664 26.5897 45.5167 26.0404 43.7371 26.1393C40.7586 26.3047 38.2477 28.2994 36.3501 30.9085C35.4474 32.1498 34.5901 34.162 33.9409 36.5041C33.8812 36.7194 33.8234 36.937 33.7676 37.1565C35.0449 38.2054 36.1842 39.4326 37.1331 40.7166C38.815 42.9926 39.9568 45.5267 40.1654 47.6704C40.27 48.746 40.145 49.7847 39.6669 50.6414C39.1754 51.5222 38.3538 52.1319 37.2368 52.394C36.1442 52.6504 35.1607 52.5755 34.3155 52.1666C33.4759 51.7604 32.8537 51.0638 32.4051 50.2222C31.5227 48.5664 31.234 46.2066 31.3055 43.7385C31.3618 41.7958 31.6436 39.7211 32.0842 37.7491C31.3883 37.2416 30.659 36.7984 29.907 36.4395C27.5888 35.3332 25.0884 35.0397 22.6433 36.0753C19.8778 37.2467 17.7417 39.9182 16.3621 43.0297C19.4829 45.1192 21.1635 48.5646 21.5677 51.5832C21.8244 53.5009 21.5847 55.3732 20.7474 56.6708C20.3206 57.3322 19.7294 57.8548 18.97 58.123C18.2117 58.3908 17.3551 58.3803 16.4385 58.0983C14.705 57.5649 13.7511 55.8672 13.3394 53.9167C12.9207 51.9334 13.0036 49.4685 13.5263 46.9797C13.7561 45.8849 14.0754 44.7681 14.4837 43.6713C14.0226 43.441 13.5328 43.2433 13.0138 43.0836C11.6071 42.6507 10.348 42.7336 9.21101 43.191C8.06065 43.6537 6.99199 44.5182 6.02105 45.7131C4.07095 48.1128 2.61352 51.7245 1.73081 55.5512C1.63771 55.9548 1.23504 56.2066 0.831422 56.1135C0.427807 56.0204 0.176087 55.6177 0.269189 55.2141C1.1774 51.2768 2.70411 47.4164 4.85695 44.7671C5.93748 43.4374 7.19998 42.3831 8.65117 41.7993C10.1158 41.2102 11.7286 41.1186 13.455 41.6499C14.0191 41.8235 14.5526 42.0353 15.0558 42.2798C16.548 38.9781 18.8846 36.0384 22.0583 34.6941C24.9854 33.4543 27.9413 33.8394 30.553 35.0858C31.2142 35.4013 31.8554 35.7727 32.4718 36.1888C32.4796 36.1603 32.4875 36.1318 32.4954 36.1034C33.1658 33.6848 34.0824 31.4764 35.137 30.0263C37.1542 27.2526 40.0261 24.8431 43.6539 24.6416C45.7719 24.5239 48.0505 25.1634 50.4654 26.7918C50.6153 26.494 50.7745 26.2052 50.9417 25.9243C51.7445 24.5756 52.7178 23.43 53.6448 22.3728C53.7474 22.2558 53.8492 22.1401 53.9501 22.0254C54.7748 21.0882 55.5381 20.2208 56.1614 19.2857C58.6223 15.5945 58.6026 13.0712 58.5645 8.77903L55.0614 12.2821C54.7685 12.575 54.2937 12.575 54.0008 12.2821C53.7079 11.9892 53.7079 11.5143 54.0008 11.2214L58.7737 6.44843ZM15.7908 44.4617C15.4599 45.3889 15.1934 46.3395 14.9942 47.2879C14.5013 49.6354 14.4428 51.8818 14.807 53.6069C15.1782 55.3649 15.9314 56.3728 16.8796 56.6646C17.5534 56.8719 18.0736 56.8488 18.4706 56.7086C18.8666 56.5687 19.2092 56.2881 19.487 55.8575C20.059 54.9711 20.3116 53.5047 20.0809 51.7823C19.7328 49.1819 18.3261 46.2875 15.7908 44.4617ZM33.3925 38.8115C33.0608 40.4722 32.8513 42.1805 32.8049 43.7819C32.7358 46.1655 33.0315 48.2081 33.7288 49.5166C34.0702 50.1571 34.4868 50.5831 34.9688 50.8163C35.4451 51.0467 36.0659 51.128 36.8941 50.9336C37.6388 50.7589 38.0895 50.39 38.357 49.9105C38.638 49.407 38.7588 48.7037 38.6724 47.8157C38.4989 46.0321 37.5113 43.7524 35.9267 41.6081C35.1882 40.6087 34.3327 39.6562 33.3925 38.8115ZM51.1167 29.1621C50.4832 31.1906 50.3397 33.7262 51.1536 37.1445C51.738 39.5992 52.7488 40.9597 53.7029 41.5736C54.6348 42.1733 55.5529 42.1007 56.2223 41.6225C56.908 41.1327 57.4572 40.122 57.3767 38.6208C57.2963 37.1212 56.5791 35.1512 54.737 32.8997C53.4762 31.3587 52.2684 30.1282 51.1167 29.1621Z" fill="#44358C"/>
<path fill-rule="evenodd" clip-rule="evenodd" d="M4.19153 29.6236C4.3012 29.2242 4.71391 28.9893 5.11334 29.099L11.9189 30.9676C12.3184 31.0772 12.5533 31.4899 12.4436 31.8894C12.3339 32.2888 11.9212 32.5237 11.5218 32.414L4.71619 30.5454C4.31676 30.4358 4.08186 30.0231 4.19153 29.6236Z" fill="#44358C"/>
<path fill-rule="evenodd" clip-rule="evenodd" d="M8.27843 12.4555C8.63301 12.2414 9.09403 12.3552 9.30814 12.7098L16.5654 24.7288C16.7796 25.0834 16.6657 25.5444 16.3111 25.7585C15.9565 25.9726 15.4955 25.8587 15.2814 25.5042L8.02407 13.4852C7.80996 13.1306 7.92384 12.6696 8.27843 12.4555Z" fill="#44358C"/>
<path fill-rule="evenodd" clip-rule="evenodd" d="M24.3253 6.40232C24.7185 6.27199 25.1428 6.48508 25.2732 6.87826L28.612 16.9515C28.7423 17.3447 28.5293 17.7691 28.1361 17.8994C27.7429 18.0297 27.3185 17.8166 27.1882 17.4235L23.8493 7.3502C23.719 6.95702 23.9321 6.53264 24.3253 6.40232Z" fill="#44358C"/>
<path fill-rule="evenodd" clip-rule="evenodd" d="M45.6845 5.27907C46.0827 5.39313 46.313 5.8084 46.1989 6.2066L43.2767 16.4085C43.1627 16.8067 42.7474 17.0371 42.3492 16.923C41.951 16.8089 41.7206 16.3937 41.8347 15.9955L44.7569 5.79355C44.871 5.39535 45.2863 5.16501 45.6845 5.27907Z" fill="#44358C"/>
<path fill-rule="evenodd" clip-rule="evenodd" d="M35.1372 12.1337C35.5493 12.0917 35.9174 12.3918 35.9593 12.8039L36.2576 15.7359C36.2995 16.148 35.9994 16.516 35.5873 16.558C35.1752 16.5999 34.8072 16.2998 34.7653 15.8877L34.467 12.9557C34.4251 12.5436 34.7251 12.1756 35.1372 12.1337Z" fill="#44358C"/>
<path fill-rule="evenodd" clip-rule="evenodd" d="M19.2966 16.6434C19.6634 16.451 20.1167 16.5925 20.3091 16.9593L21.6778 19.5693C21.8702 19.9362 21.7287 20.3895 21.3619 20.5819C20.9951 20.7742 20.5417 20.6328 20.3494 20.266L18.9807 17.6559C18.7883 17.2891 18.9297 16.8358 19.2966 16.6434Z" fill="#44358C"/>
</svg>
