<svg width="64" height="64" viewBox="0 0 64 64" fill="none" xmlns="http://www.w3.org/2000/svg">
<path fill-rule="evenodd" clip-rule="evenodd" d="M34.2969 10.9084C33.4464 13.3124 32.1459 16.3257 30.1005 18.1587C28.0184 20.0246 25.0929 20.7366 22.2048 20.4453C19.3119 20.1535 16.3814 18.8505 14.2396 16.5822C13.7321 16.0446 13.2972 15.5632 12.9251 15.1342C13.012 15.5764 13.0986 16.0503 13.1765 16.5436C13.4951 18.5589 13.6913 21.009 13.1212 23.0059C12.0027 26.9237 9.30167 28.9578 6.93339 30.047C6.00412 30.4744 5.12126 30.7592 4.39983 30.9586C4.82127 31.1723 5.3061 31.4365 5.83255 31.7645C7.67237 32.911 10.0025 34.8262 11.9958 38.0984C14.0564 41.4811 13.9359 45.1295 13.3899 47.8844C13.1376 49.157 12.791 50.2572 12.5142 51.0723C12.5347 51.0621 12.5555 51.0517 12.5765 51.0413C13.48 50.5909 14.7397 49.9705 16.2201 49.3614C19.163 48.1506 23.0616 46.9482 26.8599 47.2524C30.8558 47.5724 33.7428 50.7905 35.6614 53.7043C36.6364 55.1849 37.4008 56.6483 37.9604 57.7337C37.9914 57.7939 38.0217 57.8527 38.0513 57.91C38.2024 58.2035 38.3347 58.4602 38.4508 58.6783C38.5357 58.2848 38.6375 57.7695 38.7724 57.0865C39.0222 55.8225 39.3853 53.9844 39.9645 51.2818C40.7607 47.5664 42.6157 45.3002 45.1165 44.0703C47.569 42.8641 50.5472 42.7022 53.5284 42.9602C54.0201 43.0027 54.4303 43.0366 54.7695 43.0586C54.6276 42.9245 54.4687 42.7767 54.2922 42.6125C53.9514 42.2956 53.5449 41.9175 53.0681 41.4587C52.0289 40.4588 50.7315 39.1431 49.2724 37.4283C47.7587 35.6494 47.3464 33.7238 47.596 31.8621C47.8412 30.0333 48.7187 28.2978 49.7232 26.8164C50.6881 25.3935 51.8027 24.1585 52.6798 23.2461C51.9549 23.3961 51.0828 23.5429 50.1048 23.6221C47.23 23.8548 43.4209 23.5038 39.7003 20.9369C36.107 18.4577 34.9544 14.7777 34.6106 11.7891C34.5524 11.2827 34.517 10.7935 34.4969 10.3306C34.4326 10.5201 34.366 10.7131 34.2969 10.9084ZM55.4785 43.8021C55.4784 43.802 55.4778 43.8009 55.4767 43.7989C55.4781 43.8012 55.4786 43.8023 55.4785 43.8021ZM55.7872 43.0664C55.7931 43.0645 55.7961 43.0639 55.7958 43.0641C55.7956 43.0643 55.7932 43.065 55.7885 43.0661C55.7881 43.0662 55.7876 43.0663 55.7872 43.0664ZM38.2366 59.4897C38.2366 59.4896 38.2372 59.4884 38.2384 59.4863C38.2372 59.4888 38.2366 59.4899 38.2366 59.4897ZM34.4842 5.97547C34.5549 5.89185 34.8978 5.51836 35.4126 5.69241C35.6739 5.78078 35.8124 5.97095 35.8758 6.0868C35.9391 6.20248 35.9681 6.31532 35.9833 6.38917C36.0142 6.53928 36.0224 6.70723 36.0249 6.8543C36.029 7.09736 36.0179 7.41813 36.0055 7.77369C36.0026 7.85887 35.9995 7.94605 35.9966 8.03463C35.9657 8.97936 35.9418 10.2354 36.1008 11.6177C36.4192 14.3856 37.4578 17.5673 40.5522 19.7022C43.9053 22.0157 47.3379 22.3412 49.9838 22.127C51.3083 22.0197 52.4307 21.7774 53.2462 21.5813C53.3855 21.5478 53.5213 21.5143 53.6496 21.4826C53.8822 21.4251 54.09 21.3738 54.2488 21.34C54.37 21.3142 54.5128 21.2872 54.6431 21.2805C54.7046 21.2773 54.815 21.2753 54.9381 21.3052C55.0521 21.3328 55.324 21.4259 55.4727 21.7276C55.5818 21.949 55.5542 22.1526 55.5328 22.2474C55.51 22.3489 55.4719 22.4273 55.4485 22.471C55.4009 22.5602 55.342 22.6375 55.3001 22.6896C55.2107 22.8007 55.0878 22.9319 54.9569 23.0674C54.8373 23.1912 54.6946 23.3351 54.538 23.493L54.4777 23.5538C54.2959 23.7373 54.0937 23.9417 53.8763 24.1663C53.0046 25.0666 51.9017 26.2766 50.9647 27.6583C50.0232 29.0466 49.2843 30.5579 49.0827 32.0614C48.8855 33.5321 49.1961 35.0241 50.4148 36.4563C51.8339 38.124 53.0951 39.403 54.1082 40.3779C54.5226 40.7767 54.9099 41.1375 55.2521 41.4565C55.7208 41.8932 56.1051 42.2512 56.3589 42.5202C56.4757 42.6439 56.5861 42.7703 56.6758 42.8951C56.7576 43.009 56.8651 43.1793 56.9124 43.3869C56.9691 43.6356 56.9376 43.9532 56.702 44.2112C56.5126 44.4186 56.2713 44.4937 56.1292 44.5269C55.8356 44.5954 55.4485 44.5941 55.043 44.576C54.6129 44.5569 54.0639 44.5121 53.3991 44.4546C50.5165 44.2052 47.866 44.3896 45.7786 45.4163C43.7394 46.4192 42.1434 48.2725 41.4312 51.5961C40.8675 54.2265 40.4992 56.0869 40.2437 57.3776C40.0724 58.2428 39.9518 58.852 39.857 59.2655C39.796 59.5313 39.7375 59.7554 39.6737 59.9341C39.6168 60.0937 39.5214 60.3216 39.3315 60.4972C39.083 60.727 38.7947 60.7658 38.578 60.7448C38.455 60.7329 38.3033 60.6914 38.2462 60.6757C38.2374 60.6733 38.2309 60.6716 38.227 60.6706C38.028 60.6201 37.892 60.5081 37.8261 60.448C37.7499 60.3785 37.6866 60.3022 37.6369 60.2366C37.5372 60.1048 37.4368 59.9412 37.3395 59.7708C37.1657 59.4668 36.9561 59.0597 36.7197 58.6006C36.6893 58.5416 36.6584 58.4817 36.6272 58.4211C36.0695 57.3395 35.3362 55.9378 34.4086 54.5292C32.5222 51.6645 29.9845 49.0074 26.7401 48.7476C23.298 48.4719 19.6648 49.5661 16.7908 50.7486C15.3626 51.3362 14.1426 51.9366 13.2458 52.3837C13.1827 52.4151 13.121 52.4459 13.0606 52.4761C12.6973 52.6574 12.3837 52.814 12.1451 52.9239C12.0079 52.987 11.8716 53.046 11.7529 53.0863C11.6953 53.1058 11.616 53.13 11.5286 53.1437L11.526 53.1441C11.4735 53.1524 11.2501 53.1876 11.0161 53.0689C10.6936 52.9053 10.6129 52.6045 10.5928 52.4837C10.5713 52.3541 10.5834 52.2404 10.5917 52.1796C10.6096 52.0487 10.6495 51.9066 10.6866 51.7857C10.742 51.605 10.8244 51.3685 10.9168 51.103C10.9521 51.0017 10.9888 50.8963 11.0261 50.7881C11.3049 49.9788 11.6643 48.8752 11.9185 47.5927C12.4288 45.0181 12.4989 41.8075 10.7148 38.8788C8.86348 35.8397 6.71594 34.0824 5.03926 33.0376C4.19884 32.5139 3.4722 32.1663 2.94326 31.9212C2.89649 31.8995 2.85007 31.8781 2.80438 31.857C2.60285 31.7641 2.41572 31.6778 2.2775 31.605C2.19492 31.5615 2.08778 31.5014 1.99308 31.4265C1.94552 31.3889 1.87324 31.3261 1.80778 31.2359C1.74256 31.146 1.64999 30.9812 1.64999 30.7571C1.64999 30.4032 1.87518 30.1989 1.95284 30.1364C2.04633 30.0613 2.14133 30.0173 2.19378 29.9948C2.30612 29.9466 2.43783 29.9086 2.55055 29.8785C2.67361 29.8456 2.84038 29.8054 3.02504 29.7609C3.17205 29.7255 3.33041 29.6873 3.48706 29.6479C4.24221 29.458 5.24683 29.1717 6.3066 28.6843C8.41833 27.713 10.7173 25.9618 11.6788 22.5941C12.1534 20.9318 12.0082 18.7592 11.6949 16.7778C11.5405 15.8008 11.35 14.8971 11.1886 14.1573C11.1659 14.0532 11.1434 13.9508 11.1214 13.8506C10.9942 13.2721 10.8837 12.7694 10.8538 12.4758C10.8417 12.3562 10.822 12.2743 10.8105 12.2326C10.7976 12.2035 10.771 12.1421 10.7532 12.0752C10.7498 12.0623 10.7443 12.0404 10.7394 12.0131L10.7393 12.013C10.7362 11.9955 10.7246 11.9312 10.728 11.8485C10.7295 11.8103 10.7356 11.7162 10.7789 11.6054C10.823 11.4926 10.9459 11.2701 11.2291 11.1706C11.4996 11.0757 11.723 11.1626 11.8123 11.207C11.9077 11.2546 11.9702 11.3114 11.9963 11.3363C12.0519 11.3895 12.0865 11.4394 12.0966 11.4541C12.1118 11.4761 12.1229 11.4948 12.1295 11.5062C12.1429 11.5293 12.1528 11.5492 12.1586 11.5611C12.1736 11.5923 12.1897 11.6302 12.2059 11.6745C12.2235 11.7089 12.2508 11.7598 12.2906 11.8281C12.5608 12.2911 13.3455 13.4503 15.3303 15.5524C17.2036 17.5364 19.7898 18.6941 22.3554 18.9529C24.9257 19.2121 27.4002 18.5644 29.0995 17.0416C30.8355 15.4858 32.0353 12.8038 32.8828 10.4081C33.1743 9.58392 33.4141 8.82501 33.6211 8.16986C33.7132 7.8787 33.7987 7.60803 33.8794 7.36123C34.0054 6.97591 34.1268 6.62703 34.2428 6.37543C34.2973 6.25717 34.3756 6.10406 34.4842 5.97547ZM12.1788 11.6176C12.1789 11.6177 12.1799 11.62 12.1816 11.6242C12.1796 11.6197 12.1787 11.6176 12.1788 11.6176Z" fill="#44358C"/>
<path fill-rule="evenodd" clip-rule="evenodd" d="M48.3305 5.2112C47.9127 5.66973 47.3106 6.11161 46.4191 6.42992C45.3065 6.82719 44.1659 6.62978 43.2541 6.28814C42.338 5.94486 41.5615 5.42303 41.1089 5.03087C40.7958 4.75962 40.7619 4.28596 41.0332 3.97291C41.3044 3.65986 41.7781 3.62598 42.0911 3.89722C42.4259 4.18732 43.0509 4.61015 43.7805 4.88352C44.5144 5.15854 45.2636 5.24977 45.9147 5.01727C46.846 4.68475 47.2653 4.21077 47.4967 3.83474C47.6143 3.64375 47.6905 3.46729 47.7679 3.28794C47.7725 3.27733 47.7771 3.26671 47.7817 3.25608C47.818 3.17209 47.869 3.05415 47.9288 2.9506C47.9785 2.86452 48.1051 2.65669 48.3513 2.53364C48.4961 2.46121 48.717 2.40874 48.9596 2.49302C49.1794 2.56938 49.3027 2.71961 49.3592 2.80407C49.4592 2.95355 49.4926 3.11309 49.5037 3.16633L49.504 3.16797C49.5303 3.29344 49.5479 3.46079 49.5628 3.602C49.5644 3.61808 49.5661 3.63382 49.5677 3.64913C49.6045 3.9951 49.6532 4.40849 49.7778 4.8152C49.9021 5.22139 50.0869 5.56766 50.3596 5.8109C50.6171 6.04065 51.0135 6.23315 51.6787 6.23315C53.2734 6.23315 54.2192 6.0433 54.7622 5.87367C55.0318 5.78943 55.2108 5.70749 55.3296 5.64809C55.3607 5.63256 55.3887 5.61802 55.4165 5.60352L55.427 5.59808C55.4503 5.58592 55.4781 5.5714 55.5031 5.55891C55.5301 5.5454 55.5758 5.52305 55.6277 5.50339C55.6684 5.48798 55.783 5.44594 55.9307 5.44594C56.0613 5.44594 56.2257 5.48074 56.3776 5.5923C56.5258 5.70104 56.6026 5.83904 56.6404 5.94291C56.7043 6.11844 56.6847 6.26957 56.68 6.30567L56.6798 6.30685C56.6673 6.40381 56.6378 6.4842 56.6286 6.50933L56.6281 6.51061C56.6026 6.58035 56.566 6.6612 56.5349 6.72869C56.5089 6.78519 56.4813 6.84384 56.4516 6.90697C56.3976 7.02186 56.3366 7.1516 56.2651 7.31026C56.0507 7.78627 55.7959 8.40815 55.6347 9.05293C55.4703 9.71009 55.4234 10.313 55.5484 10.7843C55.66 11.2053 55.9161 11.5649 56.5134 11.7931C57.2049 12.0573 57.7755 12.2697 58.2391 12.4421C58.8582 12.6725 59.2862 12.8317 59.5558 12.9486C59.6794 13.0022 59.8017 13.0601 59.9074 13.1246C59.9959 13.1785 60.1673 13.2918 60.2827 13.4907C60.4396 13.7612 60.4212 14.053 60.3171 14.2775C60.2472 14.4281 60.1435 14.5376 60.0944 14.5871C60.0949 14.5875 60.0715 14.6166 60.0237 14.6937C59.9678 14.7841 59.8963 14.911 59.8157 15.071C59.6545 15.3904 59.4665 15.8219 59.2981 16.3222C58.9571 17.3357 58.7208 18.5609 58.8893 19.6881C59.028 20.6168 59.6465 21.2817 60.3502 21.7544C60.8967 22.1215 61.3365 22.2903 61.6429 22.4079C61.7606 22.453 61.8585 22.4907 61.9353 22.529C62.3058 22.7142 62.456 23.1647 62.2708 23.5352C62.0856 23.9057 61.6351 24.056 61.2646 23.8707C61.3314 23.9041 60.3399 23.5545 59.5138 22.9996C58.6352 22.4094 57.6323 21.4262 57.4057 19.9098C57.1882 18.4541 57.497 16.9714 57.8764 15.8439C58.0683 15.2737 58.2842 14.7765 58.4764 14.3954C58.5153 14.3183 58.5537 14.245 58.5911 14.1763C58.382 14.0956 58.1192 13.9979 57.7886 13.8751C57.3287 13.7042 56.7377 13.4846 55.9779 13.1943C54.9216 12.7907 54.3313 12.0471 54.0985 11.1688C53.8789 10.3408 53.9896 9.44823 54.1795 8.68892C54.2876 8.25688 54.428 7.84242 54.5709 7.47225C53.8808 7.6213 52.9475 7.73315 51.6787 7.73315C50.6904 7.73315 49.9254 7.43363 49.3611 6.93028C48.8119 6.44042 48.5144 5.81251 48.3435 5.25436C48.3391 5.23996 48.3347 5.22557 48.3305 5.2112ZM48.0359 3.47533C48.0361 3.47653 48.0364 3.47775 48.0366 3.47901C48.0322 3.46332 48.0327 3.46012 48.0359 3.47533ZM59.1261 14.405C59.1368 14.4116 59.1346 14.4114 59.1241 14.4038C59.1248 14.4042 59.1255 14.4047 59.1261 14.405ZM59.0268 13.5334C59.0312 13.5282 59.0338 13.5255 59.0341 13.5254C59.0344 13.5253 59.0321 13.5279 59.0268 13.5334ZM49.2252 3.70536C49.2262 3.70363 49.227 3.70208 49.2278 3.7007C49.2332 3.69142 49.2326 3.69441 49.2252 3.70536Z" fill="#44358C"/>
<path fill-rule="evenodd" clip-rule="evenodd" d="M33.3809 25.5403C33.677 24.6024 34.6803 24.1027 35.6039 24.4106L38.4351 25.3543C39.3827 25.6702 39.8853 26.7198 39.502 27.6602C38.2833 30.6508 36.4742 34.7121 34.6584 37.9974C33.7528 39.6359 32.8291 41.1118 31.9611 42.1685C31.5285 42.6952 31.0862 43.1472 30.6433 43.4622C30.213 43.7683 29.682 44.0159 29.107 43.9441C28.1763 43.8277 27.4399 43.1216 26.8775 42.3368C26.294 41.5228 25.7784 40.457 25.3317 39.3186C24.4355 37.0353 23.7604 34.3138 23.3766 32.3465C23.2477 31.6853 23.5174 31.0243 24.0427 30.6303L25.5876 29.4716C26.5676 28.7366 27.9793 29.2075 28.3244 30.3812C28.6749 31.5733 29.197 33.3166 29.6675 34.7591C29.784 35.1166 29.8965 35.4527 30.0017 35.7556C30.3141 34.9063 30.7018 33.7794 31.1087 32.5629C31.9714 29.9833 32.9107 27.0298 33.3809 25.5403ZM29.4431 37.1206C29.4432 37.1205 29.4438 37.1195 29.4451 37.1175C29.4438 37.1197 29.4431 37.1207 29.4431 37.1206ZM35.1296 25.8336C34.9913 25.7875 34.8522 25.8624 34.8113 25.9919C34.3406 27.4832 33.3981 30.4466 32.5312 33.0387C32.0982 34.3335 31.6816 35.5429 31.351 36.4315C31.1865 36.8736 31.0385 37.2493 30.9176 37.5198C30.8586 37.6517 30.7965 37.7803 30.7343 37.8844C30.7051 37.9332 30.6589 38.0059 30.5963 38.0755C30.5652 38.1102 30.511 38.1657 30.4335 38.2174C30.3616 38.2654 30.2101 38.3499 30 38.3499C29.7516 38.3499 29.5801 38.234 29.5093 38.1792C29.4289 38.1167 29.3725 38.0499 29.3393 38.007C29.2713 37.9194 29.2163 37.8219 29.1749 37.7421C29.0883 37.575 28.9951 37.3555 28.9006 37.1135C28.7091 36.6226 28.4794 35.9542 28.2414 35.2242C27.7639 33.76 27.2368 31.9997 26.8853 30.8043C26.835 30.6331 26.6291 30.5655 26.4876 30.6716L24.9427 31.8303C24.8637 31.8896 24.8333 31.9793 24.8489 32.0593C25.223 33.9774 25.8771 36.6026 26.728 38.7706C27.1547 39.8578 27.617 40.7937 28.0967 41.463C28.5973 42.1615 29.0093 42.4202 29.293 42.4556C29.3234 42.4594 29.4708 42.4555 29.7738 42.2399C30.0641 42.0334 30.4099 41.6938 30.802 41.2165C31.5834 40.2651 32.4552 38.8827 33.3456 37.2718C35.1216 34.0586 36.9055 30.0572 38.113 27.0941C38.1628 26.9718 38.1017 26.8243 37.9607 26.7773L35.1296 25.8336Z" fill="#44358C"/>
<path fill-rule="evenodd" clip-rule="evenodd" d="M7.88711 43.6993C8.05314 44.0788 7.88009 44.521 7.50061 44.6871L1.10061 47.4871C0.721124 47.6531 0.278901 47.48 0.112876 47.1006C-0.0531484 46.7211 0.119895 46.2789 0.49938 46.1128L6.89938 43.3128C7.27886 43.1468 7.72109 43.3198 7.88711 43.6993Z" fill="#44358C"/>
<path fill-rule="evenodd" clip-rule="evenodd" d="M26.5581 52.0532C26.9705 52.0919 27.2734 52.4576 27.2347 52.87L26.7467 58.0699C26.708 58.4823 26.3423 58.7852 25.9299 58.7465C25.5175 58.7078 25.2146 58.3421 25.2533 57.9297L25.7413 52.7298C25.78 52.3174 26.1457 52.0144 26.5581 52.0532Z" fill="#44358C"/>
<path fill-rule="evenodd" clip-rule="evenodd" d="M25.6862 60.2632C26.0988 60.2992 26.4041 60.663 26.3681 61.0756L26.2026 62.9706C26.1665 63.3833 25.8028 63.6886 25.3901 63.6525C24.9775 63.6165 24.6722 63.2527 24.7083 62.8401L24.8738 60.9451C24.9098 60.5324 25.2736 60.2271 25.6862 60.2632Z" fill="#44358C"/>
<path fill-rule="evenodd" clip-rule="evenodd" d="M29.2259 56.8782C29.6385 56.9142 29.9438 57.278 29.9078 57.6906L29.7423 59.5856C29.7062 59.9983 29.3425 60.3036 28.9298 60.2675C28.5172 60.2315 28.2119 59.8677 28.248 59.4551L28.4135 57.5601C28.4495 57.1474 28.8133 56.8421 29.2259 56.8782Z" fill="#44358C"/>
<path fill-rule="evenodd" clip-rule="evenodd" d="M8.6 45.9499C8.84853 46.2813 8.78137 46.7514 8.45 46.9999L5.25 49.3999C4.91863 49.6485 4.44853 49.5813 4.2 49.2499C3.95147 48.9186 4.01863 48.4485 4.35 48.1999L7.55 45.7999C7.88137 45.5514 8.35147 45.6186 8.6 45.9499Z" fill="#44358C"/>
</svg>
