<svg width="64" height="64" viewBox="0 0 64 64" fill="none" xmlns="http://www.w3.org/2000/svg">
<path fill-rule="evenodd" clip-rule="evenodd" d="M24.9891 17.6993C28.7986 16.1387 32.5319 15.8583 37.2398 16.0396C43.5658 16.2833 47.5874 19.4167 49.7567 23.499C51.9029 27.5378 52.2216 32.4673 51.2869 36.384C50.3426 40.3412 47.5569 44.4583 43.6923 47.4641C39.8188 50.4768 34.8011 52.4197 29.3582 51.9289C23.7851 51.4264 20.6212 47.8794 19.2415 43.8874C17.882 39.9538 18.2074 35.4651 19.7055 32.8434C23.8695 25.5564 33.5491 22.7287 40.2943 27.4686C43.8957 29.9993 43.8407 34.4968 42.1377 38.1921C40.4326 41.8921 36.9087 45.222 32.9179 45.5976C30.9772 45.7803 29.4021 45.4422 28.2065 44.7095C27.0069 43.9744 26.2489 42.8777 25.8905 41.6589C25.184 39.2561 26.0185 36.3621 28.0275 34.593C29.9085 32.9366 32.1158 32.3248 33.8147 32.7685C34.676 32.9934 35.4203 33.4993 35.8536 34.291C36.286 35.0812 36.3549 36.0574 36.0615 37.1254C35.9518 37.5248 35.539 37.7596 35.1396 37.6499C34.7402 37.5402 34.5054 37.1274 34.6151 36.728C34.8315 35.9404 34.7408 35.3823 34.5377 35.0111C34.3354 34.6414 33.9683 34.3589 33.4357 34.2198C32.3469 33.9355 30.6368 34.2939 29.0188 35.7187C27.4324 37.1157 26.7931 39.4114 27.3296 41.2357C27.5927 42.1305 28.1355 42.9067 28.9903 43.4306C29.8491 43.9569 31.082 44.2638 32.7773 44.1042C36.0586 43.7954 39.208 40.9653 40.7754 37.5643C42.3449 34.1587 42.1615 30.614 39.4319 28.6959C33.5151 24.5381 24.8 26.9514 21.0079 33.5876C19.7683 35.757 19.4093 39.7809 20.6592 43.3975C21.889 46.9557 24.6283 49.9964 29.4929 50.435C34.4875 50.8853 39.1374 49.1065 42.7713 46.2801C46.4141 43.4469 48.9756 39.6074 49.8279 36.0358C50.6898 32.4238 50.3839 27.8758 48.4321 24.2029C46.5034 20.5734 42.9534 17.7608 37.182 17.5385C32.5634 17.3606 29.0787 17.645 25.5578 19.0873C22.0222 20.5357 18.3818 23.18 13.5187 27.8531C13.22 28.1401 12.7452 28.1306 12.4582 27.8319C12.1712 27.5332 12.1807 27.0585 12.4794 26.7715C17.3921 22.0507 21.1944 19.2539 24.9891 17.6993Z" fill="#44358C"/>
<path fill-rule="evenodd" clip-rule="evenodd" d="M45.4813 5.48381C45.8903 5.41824 46.275 5.69664 46.3405 6.10563L47.1753 11.3126C47.2409 11.7216 46.9625 12.1063 46.5535 12.1719C46.1445 12.2374 45.7598 11.959 45.6942 11.5501L44.8594 6.34308C44.7939 5.93409 45.0723 5.54938 45.4813 5.48381Z" fill="#44358C"/>
<path fill-rule="evenodd" clip-rule="evenodd" d="M19.4863 61.549C19.0743 61.5065 18.7747 61.138 18.8172 60.726L19.3585 55.4804C19.4011 55.0683 19.7695 54.7688 20.1816 54.8113C20.5936 54.8538 20.8931 55.2223 20.8506 55.6343L20.3093 60.8799C20.2668 61.292 19.8983 61.5915 19.4863 61.549Z" fill="#44358C"/>
<path fill-rule="evenodd" clip-rule="evenodd" d="M56.1911 3.02327C56.4734 3.32635 56.4566 3.80092 56.1535 4.08327C53.5272 6.52999 52.3474 8.1951 50.7107 11.8716C50.5423 12.2501 50.099 12.4203 49.7205 12.2518C49.3421 12.0833 49.1719 11.64 49.3404 11.2616C51.0517 7.41745 52.3444 5.5818 55.1311 2.98574C55.4341 2.70339 55.9087 2.7202 56.1911 3.02327Z" fill="#44358C"/>
<path fill-rule="evenodd" clip-rule="evenodd" d="M8.50439 61.1536C8.31011 60.7878 8.44917 60.3337 8.81499 60.1394C11.9851 58.4558 13.5556 57.1528 16.0881 54.0252C16.3488 53.7032 16.821 53.6536 17.1429 53.9142C17.4649 54.1749 17.5145 54.6471 17.2539 54.9691C14.606 58.2393 12.8822 59.6779 9.51855 61.4642C9.15273 61.6585 8.69867 61.5194 8.50439 61.1536Z" fill="#44358C"/>
<path fill-rule="evenodd" clip-rule="evenodd" d="M63.4968 13.1223C63.554 13.5325 63.2678 13.9115 62.8576 13.9687C60.3491 14.3187 58.9098 14.6542 56.2095 15.5364C55.8158 15.665 55.3923 15.4501 55.2637 15.0564C55.1351 14.6627 55.35 14.2392 55.7437 14.1106C58.5206 13.2034 60.0464 12.8464 62.6503 12.4831C63.0606 12.4259 63.4395 12.7121 63.4968 13.1223Z" fill="#44358C"/>
<path fill-rule="evenodd" clip-rule="evenodd" d="M4.06115 49.5078C4.11205 49.0968 4.48655 48.8048 4.89762 48.8557C7.41123 49.1669 8.88825 49.2153 11.7249 49.0621C12.1385 49.0397 12.4919 49.3569 12.5143 49.7705C12.5366 50.1841 12.2194 50.5375 11.8058 50.5599C8.88873 50.7175 7.32255 50.6674 4.7133 50.3443C4.30223 50.2934 4.01025 49.9189 4.06115 49.5078Z" fill="#44358C"/>
<path fill-rule="evenodd" clip-rule="evenodd" d="M59.8383 8.36513C60.0371 8.72849 59.9038 9.18425 59.5404 9.3831C58.0751 10.185 57.3052 10.7513 55.9453 12.0535C55.6461 12.34 55.1714 12.3297 54.8849 12.0306C54.5984 11.7314 54.6087 11.2566 54.9079 10.9701C56.3542 9.58511 57.2294 8.93786 58.8203 8.06725C59.1837 7.8684 59.6395 8.00177 59.8383 8.36513Z" fill="#44358C"/>
<path fill-rule="evenodd" clip-rule="evenodd" d="M6.30598 54.8498C6.23529 54.4416 6.50884 54.0535 6.91698 53.9828C8.56284 53.6977 9.47451 53.4107 11.1824 52.6181C11.5581 52.4437 12.004 52.6069 12.1784 52.9826C12.3528 53.3584 12.1896 53.8043 11.8138 53.9787C9.99739 54.8217 8.95991 55.1513 7.17297 55.4608C6.76483 55.5315 6.37667 55.2579 6.30598 54.8498Z" fill="#44358C"/>
<path fill-rule="evenodd" clip-rule="evenodd" d="M7.59999 14.5001C8.31796 14.5001 8.89999 13.9181 8.89999 13.2001C8.89999 12.4822 8.31796 11.9001 7.59999 11.9001C6.88202 11.9001 6.29999 12.4822 6.29999 13.2001C6.29999 13.9181 6.88202 14.5001 7.59999 14.5001ZM7.59999 16.0001C9.14639 16.0001 10.4 14.7465 10.4 13.2001C10.4 11.6537 9.14639 10.4001 7.59999 10.4001C6.05359 10.4001 4.79999 11.6537 4.79999 13.2001C4.79999 14.7465 6.05359 16.0001 7.59999 16.0001Z" fill="#44358C"/>
<path fill-rule="evenodd" clip-rule="evenodd" d="M18 10.5C18.2761 10.5 18.5 10.2761 18.5 10C18.5 9.72386 18.2761 9.5 18 9.5C17.7239 9.5 17.5 9.72386 17.5 10C17.5 10.2761 17.7239 10.5 18 10.5ZM18 12C19.1046 12 20 11.1046 20 10C20 8.89543 19.1046 8 18 8C16.8954 8 16 8.89543 16 10C16 11.1046 16.8954 12 18 12Z" fill="#44358C"/>
<path fill-rule="evenodd" clip-rule="evenodd" d="M59.6 53.7002C59.8761 53.7002 60.1 53.4763 60.1 53.2002C60.1 52.9241 59.8761 52.7002 59.6 52.7002C59.3238 52.7002 59.1 52.9241 59.1 53.2002C59.1 53.4763 59.3238 53.7002 59.6 53.7002ZM59.6 55.2002C60.7045 55.2002 61.6 54.3048 61.6 53.2002C61.6 52.0956 60.7045 51.2002 59.6 51.2002C58.4954 51.2002 57.6 52.0956 57.6 53.2002C57.6 54.3048 58.4954 55.2002 59.6 55.2002Z" fill="#44358C"/>
</svg>
