<svg width="64" height="65" viewBox="0 0 64 65" fill="none" xmlns="http://www.w3.org/2000/svg">
<path fill-rule="evenodd" clip-rule="evenodd" d="M27.4617 55.9696C24.3177 56.0381 21.1904 56.2731 19.2761 56.4685C18.864 56.5105 18.4959 56.2106 18.4538 55.7985C18.4118 55.3864 18.7117 55.0183 19.1238 54.9762C21.0716 54.7774 24.2393 54.5394 27.429 54.47C30.5951 54.401 33.8676 54.4951 35.9786 54.9923C36.6087 55.1408 37.0848 55.2757 37.3982 55.4076C37.5367 55.466 37.7407 55.5619 37.8964 55.7226C37.981 55.81 38.1057 55.972 38.1376 56.2093C38.1728 56.4709 38.0781 56.6886 37.9659 56.8317C37.7909 57.0549 37.5372 57.1481 37.4367 57.1839C37.2931 57.235 37.1279 57.2754 36.9617 57.3094C36.6265 57.378 36.191 57.4395 35.7085 57.501C35.4482 57.5342 35.1711 57.568 34.8816 57.6033C32.9591 57.8375 30.4857 58.1388 28.7298 58.7905C28.595 58.8406 28.4651 58.8886 28.3401 58.9349C28.1045 59.0221 27.8863 59.1029 27.6857 59.178C27.8202 59.1939 27.9631 59.21 28.1148 59.2264C29.358 59.3606 31.1328 59.5075 33.5505 59.7049C37.4547 60.0237 39.8592 60.6929 41.2793 61.4575C42.6439 62.1921 43.3738 63.2036 43.0943 64.2022C42.9826 64.6011 42.5688 64.8339 42.1699 64.7222C41.771 64.6106 41.5382 64.1967 41.6498 63.7978C41.6481 63.8039 41.6475 63.8069 41.6471 63.8068C41.6429 63.8064 41.685 63.3794 40.5683 62.7782C39.4137 62.1566 37.2482 61.5119 33.4284 61.2C31.0185 61.0032 29.221 60.8545 27.9538 60.7177C27.3207 60.6494 26.8062 60.5826 26.4071 60.5119C26.0329 60.4457 25.6792 60.3636 25.4245 60.2336C25.3066 60.1734 25.0805 60.0403 24.9527 59.7757C24.7881 59.4348 24.8855 59.1082 25.02 58.9058C25.1325 58.7363 25.285 58.622 25.3895 58.5521C25.5065 58.4741 25.6399 58.4024 25.7761 58.3364C26.2333 58.1147 26.9533 57.8485 27.8151 57.5297C27.943 57.4824 28.0741 57.4339 28.2078 57.3843C29.9375 56.7423 32.2588 56.4148 34.0874 56.1885C32.2507 55.9643 29.8759 55.917 27.4617 55.9696ZM36.9646 55.7578C36.9652 55.758 36.9597 55.7609 36.9467 55.7659C36.9576 55.7602 36.9641 55.7577 36.9646 55.7578ZM26.2012 59.8151C26.2011 59.8151 26.2026 59.8138 26.2059 59.8113C26.203 59.8139 26.2013 59.8151 26.2012 59.8151Z" fill="#44358C"/>
<path fill-rule="evenodd" clip-rule="evenodd" d="M34.1974 26.9027C34.8391 27.4482 35.0946 28.3635 35.0137 29.4503C34.8642 31.4601 34.2686 34.014 33.0599 36.2013C32.9677 36.3682 32.8716 36.5334 32.7715 36.6965C32.7939 36.7437 32.8165 36.7899 32.8395 36.8354C33.1203 37.391 33.4379 37.7961 33.8138 38.0929C34.1881 38.3885 34.6557 38.6049 35.2772 38.7334C35.7804 38.8375 36.5283 38.7247 37.4031 38.3595C37.4082 38.3574 37.4132 38.3552 37.4183 38.3531C37.5205 35.5278 38.1362 33.7233 38.9553 32.6457C39.5233 31.8983 40.2092 31.4802 40.8888 31.3801C41.5432 31.2837 42.2403 31.4928 42.6146 32.0532C43.289 33.0629 43.2663 34.1844 42.8771 35.1972C42.4957 36.1894 41.7537 37.1185 40.8938 37.8888C40.2902 38.4294 39.6069 38.9114 38.9035 39.2977C38.9065 40.0402 38.944 40.8626 39.024 41.7724C39.367 45.6746 39.676 48.3015 39.9216 49.9964C40.0445 50.8444 40.1507 51.4535 40.2363 51.8693C40.2791 52.0776 40.3156 52.2317 40.345 52.34C40.3723 52.4404 40.3872 52.4778 40.3868 52.4779C40.3867 52.478 40.386 52.4764 40.3846 52.4736C40.5649 52.8465 40.4088 53.2949 40.0359 53.4753C39.663 53.6556 39.2145 53.4994 39.0342 53.1265C38.9391 52.9299 38.8534 52.5915 38.7671 52.1716C38.6736 51.7172 38.5625 51.077 38.4371 50.2115C38.1861 48.4796 37.8743 45.823 37.5297 41.9037C37.4691 41.2144 37.4313 40.566 37.4142 39.9566C36.5843 40.233 35.729 40.3586 34.9734 40.2024C34.1624 40.0346 33.4704 39.733 32.8842 39.2701C32.4542 38.9306 32.1004 38.5194 31.802 38.046C30.6606 39.3989 29.161 40.4472 27.2378 40.7982C26.1322 40.9999 25.1373 40.6254 24.2993 39.9819C23.4259 43.6957 22.2825 47.5575 21.5171 50.0569C21.3958 50.4529 20.9765 50.6757 20.5804 50.5544C20.1843 50.4331 19.9616 50.0137 20.0829 49.6177C20.9124 46.9088 22.1737 42.6376 23.0525 38.7093C22.1371 37.5166 21.4398 35.9715 21.0345 34.4831C20.6075 32.915 20.4638 31.2585 20.8629 30.075C21.0687 29.4645 21.4505 28.8957 22.0968 28.6102C22.7382 28.3269 23.4736 28.3966 24.2294 28.698C24.8698 28.9534 25.1893 29.5508 25.3507 30.1199C25.5161 30.7032 25.5666 31.4234 25.5494 32.2049C25.5147 33.7767 25.199 35.7983 24.7552 37.9314C24.7293 38.0559 24.7029 38.1808 24.6761 38.3062C25.4481 39.1205 26.232 39.4569 26.9685 39.3226C28.7013 39.0064 30.055 37.9607 31.0821 36.5318C30.6299 35.2867 30.3135 33.7353 29.9812 31.9025C29.509 29.2984 30.5374 27.3466 31.9595 26.6805C32.6712 26.3471 33.5345 26.3392 34.1974 26.9027ZM32.1099 34.7645C31.8846 33.8931 31.6791 32.859 31.4571 31.6348C31.0698 29.4986 31.958 28.3376 32.5957 28.0389C32.9138 27.8899 33.1163 27.9524 33.2259 28.0456C33.3566 28.1567 33.5803 28.5 33.5178 29.339C33.3971 30.9625 32.9551 32.9689 32.1099 34.7645ZM23.4875 36.6194C23.8133 34.9109 24.0233 33.3719 24.0497 32.1718C24.0656 31.4516 24.0137 30.9032 23.9076 30.5292C23.7975 30.141 23.6765 30.0924 23.6737 30.0913C23.1344 29.8762 22.8447 29.9196 22.7029 29.9823C22.566 30.0428 22.4063 30.1922 22.2842 30.5542C22.0275 31.3157 22.0822 32.6214 22.4818 34.089C22.7196 34.962 23.0648 35.8381 23.4875 36.6194ZM38.9723 37.4946C39.2937 37.2734 39.6039 37.0304 39.8929 36.7715C40.6449 36.098 41.2089 35.3563 41.4769 34.659C41.7352 33.987 41.7077 33.4037 41.3744 32.897C41.3691 32.8943 41.3002 32.8357 41.1075 32.8641C40.8917 32.8959 40.531 33.0514 40.1495 33.5533C39.6487 34.2122 39.1508 35.4267 38.9723 37.4946Z" fill="#44358C"/>
<path fill-rule="evenodd" clip-rule="evenodd" d="M61.4137 23.9692C61.6518 24.3082 61.5699 24.776 61.231 25.014L49.3043 33.3894C48.9653 33.6274 48.4975 33.5456 48.2595 33.2066C48.0214 32.8676 48.1032 32.3999 48.4422 32.1618L60.3689 23.7865C60.7079 23.5484 61.1757 23.6302 61.4137 23.9692Z" fill="#44358C"/>
<path fill-rule="evenodd" clip-rule="evenodd" d="M1.74746 24.0303C1.95167 23.6699 2.40936 23.5433 2.76973 23.7475L14.7697 30.5475C15.1301 30.7517 15.2567 31.2094 15.0525 31.5698C14.8483 31.9302 14.3906 32.0568 14.0302 31.8525L2.03021 25.0525C1.66984 24.8483 1.54324 24.3906 1.74746 24.0303Z" fill="#44358C"/>
<path fill-rule="evenodd" clip-rule="evenodd" d="M13.2797 8.12204C13.6543 7.94517 14.1013 8.10542 14.2782 8.47997L21.0782 22.88C21.255 23.2545 21.0948 23.7015 20.7202 23.8784C20.3457 24.0553 19.8987 23.895 19.7218 23.5205L12.9218 9.12048C12.7449 8.74593 12.9052 8.29891 13.2797 8.12204Z" fill="#44358C"/>
<path fill-rule="evenodd" clip-rule="evenodd" d="M27.0634 8.06262C27.4707 7.98717 27.862 8.25619 27.9374 8.66347L29.6859 18.1029C29.7614 18.5102 29.4924 18.9015 29.0851 18.977C28.6778 19.0524 28.2865 18.7834 28.211 18.3761L26.4625 8.93667C26.3871 8.52939 26.6561 8.13806 27.0634 8.06262Z" fill="#44358C"/>
<path fill-rule="evenodd" clip-rule="evenodd" d="M40.1737 2.47052C40.5767 2.56646 40.8255 2.97089 40.7296 3.37384L36.7296 20.1738C36.6337 20.5768 36.2292 20.8257 35.8263 20.7297C35.4233 20.6338 35.1744 20.2294 35.2704 19.8264L39.2704 3.02641C39.3663 2.62346 39.7708 2.37458 40.1737 2.47052Z" fill="#44358C"/>
<path fill-rule="evenodd" clip-rule="evenodd" d="M48.0244 8.48426C48.8569 7.99886 49.895 7.99818 50.6547 8.11291C51.747 8.27788 52.3642 9.1187 52.6082 10.0859C52.8478 11.0358 52.7742 12.2197 52.4585 13.4435C52.3105 14.0174 51.863 14.8963 51.3094 15.8667C50.7383 16.8675 50.0015 18.0542 49.21 19.2803C47.6262 21.7339 45.8056 24.3739 44.6116 26.0568C44.372 26.3946 43.9038 26.4742 43.566 26.2346C43.2281 25.9949 43.1486 25.5267 43.3882 25.1889C44.5735 23.5182 46.3811 20.897 47.9497 18.4669C48.7345 17.2511 49.4548 16.0902 50.0065 15.1234C50.5755 14.1261 50.9162 13.4172 51.0061 13.0688C51.2851 11.987 51.3107 11.0749 51.1538 10.4528C51.0012 9.84793 50.7263 9.64073 50.4307 9.59609C49.8025 9.50123 49.1762 9.54901 48.78 9.78007C48.6014 9.88421 48.467 10.0258 48.3816 10.2323C48.2923 10.4481 48.236 10.7861 48.311 11.3069C48.3492 11.5718 48.4401 11.6813 48.4997 11.7313C48.5679 11.7886 48.6758 11.8341 48.8348 11.8417C48.9961 11.8494 49.1725 11.8149 49.3203 11.753C49.4413 11.7023 49.4955 11.6544 49.5101 11.6415C49.5139 11.6382 49.515 11.6372 49.5139 11.6392C49.5488 11.581 49.5839 11.4526 49.5669 11.2331C49.5505 11.0211 49.4917 10.8126 49.4447 10.6883C49.2981 10.3009 49.4933 9.86803 49.8807 9.72144C50.2681 9.57485 50.701 9.77007 50.8476 10.1575C50.9328 10.3825 51.0326 10.7323 51.0624 11.1172C51.0913 11.4899 51.0622 11.9961 50.7806 12.4427C50.5682 12.7796 50.218 13.0033 49.8997 13.1366C49.5647 13.2769 49.1667 13.3592 48.7633 13.34C48.3576 13.3206 47.9105 13.1954 47.5349 12.8799C47.1505 12.557 46.9086 12.0915 46.8264 11.5208C46.724 10.8104 46.7772 10.1867 46.9955 9.65899C47.2176 9.12202 47.5887 8.73835 48.0244 8.48426Z" fill="#44358C"/>
</svg>
