<svg width="64" height="64" viewBox="0 0 64 64" fill="none" xmlns="http://www.w3.org/2000/svg">
<path fill-rule="evenodd" clip-rule="evenodd" d="M16.8728 50.0781C17.2304 50.0781 17.5204 50.368 17.5204 50.7257V53.8809C17.5204 54.2386 17.2304 54.5285 16.8728 54.5285C16.5152 54.5285 16.2252 54.2386 16.2252 53.8809V50.7257C16.2252 50.368 16.5152 50.0781 16.8728 50.0781Z" fill="#44358C"/>
<path fill-rule="evenodd" clip-rule="evenodd" d="M16.8728 56.1223C17.2304 56.1223 17.5204 56.4122 17.5204 56.7699V59.9251C17.5204 60.2827 17.2304 60.5727 16.8728 60.5727C16.5152 60.5727 16.2252 60.2827 16.2252 59.9251V56.7699C16.2252 56.4122 16.5152 56.1223 16.8728 56.1223Z" fill="#44358C"/>
<path fill-rule="evenodd" clip-rule="evenodd" d="M57.2699 18.9954C57.6276 18.9954 57.9175 19.2853 57.9175 19.6429V21.1129C57.9175 21.4705 57.6276 21.7604 57.2699 21.7604C56.9123 21.7604 56.6224 21.4705 56.6224 21.1129V19.6429C56.6224 19.2853 56.9123 18.9954 57.2699 18.9954Z" fill="#44358C"/>
<path fill-rule="evenodd" clip-rule="evenodd" d="M25.8347 0C26.1924 0 26.4823 0.289925 26.4823 0.647565V1.93385C26.4823 2.29149 26.1924 2.58142 25.8347 2.58142C25.4771 2.58142 25.1872 2.29149 25.1872 1.93385V0.647565C25.1872 0.289925 25.4771 0 25.8347 0Z" fill="#44358C"/>
<path fill-rule="evenodd" clip-rule="evenodd" d="M21.2346 55.0531C21.2346 55.4107 20.9447 55.7006 20.587 55.7006H18.2321C17.8745 55.7006 17.5845 55.4107 17.5845 55.0531C17.5845 54.6954 17.8745 54.4055 18.2321 54.4055H20.587C20.9447 54.4055 21.2346 54.6954 21.2346 55.0531Z" fill="#44358C"/>
<path fill-rule="evenodd" clip-rule="evenodd" d="M60.5002 22.545C60.5002 22.9027 60.2102 23.1926 59.8526 23.1926H58.7555C58.3979 23.1926 58.1079 22.9027 58.1079 22.545C58.1079 22.1874 58.3979 21.8975 58.7555 21.8975H59.8526C60.2102 21.8975 60.5002 22.1874 60.5002 22.545Z" fill="#44358C"/>
<path fill-rule="evenodd" clip-rule="evenodd" d="M28.742 3.18687C28.742 3.54451 28.4521 3.83444 28.0945 3.83444H27.1344C26.7768 3.83444 26.4869 3.54451 26.4869 3.18687C26.4869 2.82923 26.7768 2.53931 27.1344 2.53931H28.0945C28.4521 2.53931 28.742 2.82923 28.742 3.18687Z" fill="#44358C"/>
<path fill-rule="evenodd" clip-rule="evenodd" d="M16.0111 55.0531C16.0111 55.4107 15.7212 55.7006 15.3635 55.7006H13.0086C12.651 55.7006 12.361 55.4107 12.361 55.0531C12.361 54.6954 12.651 54.4055 13.0086 54.4055H15.3635C15.7212 54.4055 16.0111 54.6954 16.0111 55.0531Z" fill="#44358C"/>
<path fill-rule="evenodd" clip-rule="evenodd" d="M56.1974 22.545C56.1974 22.9027 55.9075 23.1926 55.5498 23.1926H54.4527C54.0951 23.1926 53.8052 22.9027 53.8052 22.545C53.8052 22.1874 54.0951 21.8975 54.4527 21.8975H55.5498C55.9075 21.8975 56.1974 22.1874 56.1974 22.545Z" fill="#44358C"/>
<path fill-rule="evenodd" clip-rule="evenodd" d="M24.9772 3.18687C24.9772 3.54451 24.6873 3.83444 24.3296 3.83444H23.3696C23.012 3.83444 22.7221 3.54451 22.7221 3.18687C22.7221 2.82923 23.012 2.53931 23.3696 2.53931H24.3296C24.6873 2.53931 24.9772 2.82923 24.9772 3.18687Z" fill="#44358C"/>
<path fill-rule="evenodd" clip-rule="evenodd" d="M57.2699 22.9751C57.6276 22.9751 57.9175 23.265 57.9175 23.6227V25.6466C57.9175 26.0042 57.6276 26.2942 57.2699 26.2942C56.9123 26.2942 56.6224 26.0042 56.6224 25.6466V23.6227C56.6224 23.265 56.9123 22.9751 57.2699 22.9751Z" fill="#44358C"/>
<path fill-rule="evenodd" clip-rule="evenodd" d="M25.8347 3.48242C26.1924 3.48242 26.4823 3.77235 26.4823 4.12999V5.90102C26.4823 6.25866 26.1924 6.54859 25.8347 6.54859C25.4771 6.54859 25.1872 6.25866 25.1872 5.90102V4.12999C25.1872 3.77235 25.4771 3.48242 25.8347 3.48242Z" fill="#44358C"/>
<path fill-rule="evenodd" clip-rule="evenodd" d="M37.7279 15.821C37.594 15.9367 37.4182 16.0953 37.2127 16.2857C36.793 16.6747 36.2649 17.1825 35.7492 17.6959C35.2323 18.2104 34.7358 18.7228 34.376 19.1225C34.3542 19.1468 34.333 19.1705 34.3124 19.1936C34.4491 19.249 34.6003 19.3079 34.7611 19.3703L34.7907 19.3818C35.0861 19.4964 35.4116 19.6227 35.675 19.7442C35.8104 19.8067 35.953 19.8785 36.0767 19.9581C36.1388 19.9981 36.2109 20.0494 36.2797 20.1128C36.3428 20.171 36.4408 20.2734 36.5091 20.4231C36.6095 20.6432 36.5787 20.8423 36.5548 20.938C36.5295 21.0393 36.4892 21.1166 36.4643 21.16C36.4136 21.2484 36.3525 21.3221 36.3097 21.3708C36.218 21.4751 36.0959 21.5919 35.965 21.7098C35.6972 21.9509 35.3161 22.265 34.8688 22.621C33.9707 23.3358 32.7612 24.2542 31.5509 25.1644C31.0213 25.5626 30.4926 25.9586 29.9882 26.3364C29.3345 26.8258 28.7218 27.2847 28.201 27.6784C27.9264 27.8859 27.68 28.0734 27.4689 28.236C27.9963 28.4901 28.6897 28.8024 29.4012 29.1227L29.4232 29.1326C30.1596 29.464 30.9129 29.8031 31.4868 30.0812C31.7746 30.2207 32.0334 30.3525 32.2272 30.4653C32.3215 30.5201 32.4216 30.5825 32.507 30.6487C32.5486 30.6808 32.6073 30.7295 32.6636 30.7931C32.7017 30.8361 32.8325 30.9865 32.8662 31.2214C32.8905 31.3908 32.8505 31.5272 32.8409 31.5597L32.8403 31.5618C32.8246 31.6156 32.8057 31.6613 32.7924 31.6914C32.7651 31.7535 32.7315 31.8169 32.7 31.8732C32.6352 31.9891 32.5453 32.1358 32.4397 32.3017C32.2265 32.6365 31.9235 33.0902 31.5654 33.6179C31.1155 34.2808 30.5699 35.0732 29.9932 35.9107C29.6518 36.4064 29.2996 36.918 28.9498 37.4279C28.4641 38.136 27.9827 38.8417 27.5388 39.5019C28.7662 38.4147 30.2174 37.0932 31.6592 35.7563C33.4392 34.1057 35.1992 32.4367 36.4996 31.1622C37.1169 30.5573 37.6254 30.0463 37.9821 29.6702C37.9794 29.669 37.9768 29.6677 37.9741 29.6665C37.6292 29.507 37.2083 29.3224 36.7634 29.1273C36.6228 29.0657 36.4799 29.003 36.3361 28.9397C35.7469 28.6801 35.1447 28.4106 34.6871 28.1798C34.4613 28.0659 34.2479 27.9501 34.083 27.841C34.0032 27.7882 33.9076 27.7194 33.8235 27.6369C33.7813 27.5955 33.7236 27.533 33.6721 27.4501C33.6235 27.3718 33.5491 27.2251 33.5456 27.0284C33.5421 26.8317 33.6156 26.6877 33.6379 26.6449C33.6701 26.5831 33.7052 26.5342 33.7287 26.5035C33.7766 26.4407 33.8313 26.3822 33.8781 26.3348C33.9752 26.2364 34.1048 26.1189 34.252 25.9913C34.5498 25.733 34.968 25.3915 35.4592 24.9995C36.3293 24.3053 37.4538 23.4322 38.599 22.5431C38.7493 22.4264 38.9 22.3095 39.0505 22.1926C40.3514 21.1822 41.6394 20.1787 42.5913 19.4062C42.9301 19.1312 43.2212 18.8897 43.4526 18.6901C43.3488 18.6289 43.2347 18.563 43.1116 18.4931C42.4823 18.1355 41.6491 17.6901 40.8061 17.2597C39.9625 16.8289 39.1195 16.4184 38.4699 16.1288C38.1631 15.9921 37.9114 15.8876 37.7279 15.821ZM38.6205 29.9933C38.6405 30.0069 38.6364 30.0064 38.6191 29.9924C38.6195 29.9927 38.62 29.993 38.6205 29.9933ZM25.499 42.7732C25.499 42.7731 25.4994 42.7718 25.5003 42.7694C25.4995 42.7721 25.499 42.7735 25.499 42.7732ZM33.7719 18.9415C33.7719 18.9415 33.7725 18.942 33.7738 18.9429L33.7719 18.9415ZM45.0946 17.9936C45.1242 18.0224 45.2183 18.1143 45.2838 18.2536C45.3952 18.4905 45.353 18.7043 45.3283 18.7941C45.3008 18.894 45.2591 18.97 45.2344 19.0115C45.1833 19.0971 45.1219 19.1702 45.0775 19.2202C44.9825 19.3272 44.8543 19.4501 44.7138 19.5776C44.4272 19.8376 44.0182 20.18 43.5365 20.5709C42.5699 21.3554 41.2688 22.369 39.9705 23.3773C39.8198 23.4944 39.669 23.6114 39.5188 23.728C38.3719 24.6184 37.2564 25.4845 36.3948 26.172C36.0432 26.4526 35.7382 26.7001 35.4928 26.9052C35.8944 27.1023 36.4074 27.332 36.9407 27.5669C37.0781 27.6274 37.2168 27.6882 37.3549 27.7488C37.8032 27.9454 38.2438 28.1387 38.6035 28.3049C38.8382 28.4134 39.0528 28.517 39.2201 28.6075C39.3027 28.6522 39.3873 28.701 39.4618 28.7515L39.4654 28.7539C39.5114 28.785 39.6607 28.8859 39.7635 29.0491C39.871 29.2198 39.8842 29.3879 39.8805 29.4869C39.8767 29.5863 39.8546 29.6649 39.8397 29.7099C39.8101 29.7989 39.77 29.8686 39.7482 29.9045C39.7005 29.9834 39.6407 30.0612 39.5881 30.1262C39.4773 30.263 39.3198 30.4378 39.1319 30.6374C38.7524 31.0406 38.2051 31.591 37.5495 32.2335C36.2363 33.5206 34.4656 35.1996 32.6791 36.8562C30.893 38.5125 29.0854 40.1516 27.6986 41.358C27.0067 41.9599 26.4114 42.4612 25.973 42.8043C25.7566 42.9736 25.5622 43.1173 25.4062 43.2164C25.3327 43.263 25.2376 43.3194 25.1372 43.3603C25.0901 43.3795 25.0008 43.4127 24.8888 43.425C24.7956 43.4352 24.5213 43.4487 24.28 43.2331C24.1129 43.0838 24.0522 42.9033 24.0307 42.7866C24.0097 42.6727 24.017 42.5758 24.0245 42.5175C24.0395 42.4014 24.0747 42.298 24.1005 42.23C24.1556 42.0844 24.2399 41.9164 24.3327 41.7463C24.5227 41.3978 24.8072 40.934 25.1467 40.4044C25.8288 39.3406 26.7689 37.9556 27.7129 36.5794C28.0666 36.0637 28.4206 35.5495 28.7626 35.0529C29.3367 34.2192 29.8767 33.4349 30.3242 32.7756C30.6523 32.2922 30.9259 31.8827 31.1238 31.575C31.0362 31.5306 30.9389 31.4825 30.8326 31.431C30.2779 31.1622 29.5398 30.83 28.7914 30.4931L28.7855 30.4905C28.0424 30.156 27.2884 29.8166 26.7268 29.5433C26.4488 29.408 26.1988 29.2796 26.0157 29.1705C25.929 29.1189 25.8264 29.0535 25.7393 28.9795C25.6995 28.9457 25.6245 28.8785 25.5594 28.7809C25.5106 28.7079 25.3406 28.4277 25.4714 28.0732C25.5184 27.9456 25.5911 27.8583 25.6071 27.839L25.6086 27.8372C25.6364 27.8035 25.6637 27.7753 25.6831 27.7561C25.7229 27.7165 25.7684 27.6758 25.8118 27.6383C25.9009 27.5614 26.0204 27.4644 26.1603 27.3538C26.4422 27.1309 26.8348 26.8308 27.2965 26.4818C27.8181 26.0875 28.437 25.624 29.0942 25.1318C29.5988 24.7539 30.126 24.3591 30.6493 23.9656C31.8597 23.0553 33.0544 22.1479 33.9348 21.4473C34.1839 21.2491 34.4043 21.0702 34.5908 20.9143C34.4735 20.8677 34.3485 20.8192 34.2187 20.7688L34.2184 20.7687L34.2157 20.7676C33.9132 20.6502 33.5794 20.5207 33.3169 20.397C33.1872 20.3359 33.0449 20.2625 32.9228 20.1782C32.8619 20.1362 32.7843 20.0768 32.7119 19.9984C32.6461 19.9272 32.5326 19.7849 32.4894 19.5745C32.4481 19.3729 32.4971 19.209 32.5169 19.1486C32.5425 19.0705 32.5755 19.005 32.6005 18.9597C32.6511 18.8678 32.7151 18.7765 32.7755 18.6961C32.8995 18.5309 33.0697 18.3316 33.2611 18.1191C33.6473 17.6899 34.1658 17.1556 34.691 16.6328C35.2174 16.1087 35.7585 15.5884 36.193 15.1856C36.4098 14.9847 36.6039 14.8094 36.7583 14.6764C36.8351 14.6102 36.9069 14.5503 36.9694 14.5014C37.0155 14.4654 37.1057 14.3954 37.2027 14.3464C37.3905 14.2516 37.5674 14.257 37.6256 14.2595C37.7077 14.2631 37.7822 14.2765 37.8378 14.2886C37.9509 14.3131 38.074 14.3521 38.1925 14.394C38.4343 14.4795 38.7413 14.6075 39.0806 14.7588C39.7636 15.0632 40.6324 15.4868 41.4883 15.9238C42.3448 16.3612 43.1987 16.8174 43.8526 17.1889C44.1783 17.3739 44.4628 17.5428 44.6757 17.6804C44.7808 17.7483 44.8801 17.8162 44.9619 17.8795C45.0022 17.9108 45.0494 17.9496 45.0946 17.9936ZM35.1917 20.3702C35.1918 20.3702 35.1912 20.371 35.1898 20.3727C35.191 20.3711 35.1917 20.3703 35.1917 20.3702Z" fill="#44358C"/>
<path fill-rule="evenodd" clip-rule="evenodd" d="M56.8309 36.5988C56.6552 36.6195 56.4206 36.6521 56.1437 36.6944C55.578 36.7809 54.8559 36.9049 54.1411 37.0404C53.4245 37.1763 52.7259 37.3217 52.2039 37.4507C52.1722 37.4586 52.1413 37.4663 52.1114 37.4739C52.1934 37.5965 52.2855 37.73 52.3836 37.8719L52.4016 37.898C52.5818 38.1586 52.7804 38.4458 52.9302 38.6942C53.0072 38.8219 53.085 38.9614 53.1427 39.0967C53.1716 39.1647 53.2025 39.2476 53.2239 39.3386C53.2435 39.4222 53.2671 39.562 53.2397 39.7242C53.1993 39.9628 53.0621 40.1103 52.9886 40.176C52.9108 40.2457 52.834 40.2871 52.7891 40.309C52.6976 40.3537 52.6056 40.3805 52.5428 40.3968C52.4084 40.4317 52.2418 40.4598 52.0673 40.4839C51.7103 40.5332 51.2186 40.5794 50.6487 40.6231C49.5042 40.7107 47.9877 40.7922 46.4751 40.8664C45.8133 40.8989 45.1535 40.93 44.524 40.9596C43.7083 40.998 42.9436 41.034 42.2917 41.0676C41.9479 41.0853 41.6387 41.1022 41.3728 41.1183C41.6667 41.6247 42.0654 42.2722 42.4746 42.9365L42.4873 42.9571C42.9108 43.6446 43.3441 44.348 43.6631 44.9002C43.8231 45.1772 43.9632 45.4315 44.0604 45.6336C44.1077 45.732 44.1555 45.8398 44.1891 45.9424C44.2055 45.9924 44.2267 46.0657 44.2377 46.1499C44.2451 46.2068 44.269 46.4047 44.165 46.6181C44.0901 46.772 43.9804 46.8623 43.9543 46.8839L43.9526 46.8853C43.9094 46.921 43.8681 46.9482 43.8402 46.9657C43.7828 47.0018 43.7193 47.0354 43.6617 47.0643C43.5431 47.1239 43.3864 47.1948 43.2058 47.2729C42.8415 47.4304 42.3361 47.6359 41.7435 47.8718C40.9991 48.168 40.103 48.5177 39.1557 48.8873C38.595 49.1061 38.0163 49.3319 37.4407 49.5577C36.6413 49.8713 35.8468 50.1853 35.1089 50.4826C36.735 50.2715 38.6777 49.992 40.6213 49.6944C43.0209 49.327 45.4142 48.9331 47.2057 48.6079C48.0561 48.4536 48.7637 48.3159 49.27 48.2048C49.2685 48.2023 49.267 48.1998 49.2655 48.1972C49.0694 47.8717 48.8246 47.4827 48.5659 47.0716C48.4841 46.9417 48.401 46.8096 48.3176 46.6765C47.9754 46.131 47.6282 45.5701 47.379 45.1222C47.256 44.9012 47.1443 44.6856 47.0691 44.5028C47.0326 44.4143 46.9921 44.3038 46.9688 44.1883C46.9571 44.1303 46.9444 44.0462 46.9483 43.9487C46.952 43.8566 46.9728 43.6934 47.0802 43.5287C47.1877 43.3639 47.3294 43.2859 47.3718 43.263C47.4332 43.23 47.4897 43.2092 47.5263 43.1969C47.6012 43.1718 47.6794 43.1541 47.7447 43.1411C47.8802 43.1142 48.0535 43.0896 48.2469 43.0666C48.6384 43.0199 49.1762 42.9719 49.8026 42.9231C50.9124 42.8367 52.3331 42.745 53.7799 42.6517C53.9698 42.6395 54.1601 42.6272 54.3503 42.6149C55.9941 42.5086 57.6233 42.4007 58.8446 42.2955C59.2794 42.258 59.6559 42.2214 59.9594 42.186C59.9078 42.0771 59.8504 41.9586 59.7877 41.8316C59.4675 41.1826 59.0277 40.3463 58.5715 39.517C58.115 38.687 57.6475 37.8742 57.2723 37.27C57.0952 36.9847 56.9454 36.757 56.8309 36.5988ZM49.6171 48.8305C49.626 48.853 49.6229 48.8503 49.6165 48.8289C49.6167 48.8295 49.6169 48.83 49.6171 48.8305ZM31.5849 52.0458C31.585 52.0457 31.586 52.0448 31.5881 52.0433C31.5859 52.0451 31.5847 52.046 31.5849 52.0458ZM51.8053 36.9619C51.8054 36.9619 51.8057 36.9627 51.8061 36.9642L51.8053 36.9619ZM61.7094 42.5309C61.7177 42.5714 61.744 42.7003 61.7201 42.8523C61.6794 43.1109 61.5245 43.2642 61.4536 43.3246C61.3747 43.3919 61.2976 43.4314 61.2539 43.4518C61.1636 43.494 61.0718 43.5202 61.007 43.5366C60.8682 43.5718 60.6932 43.6017 60.5054 43.6284C60.1222 43.6827 59.5915 43.7366 58.9735 43.7899C57.7332 43.8968 56.0874 44.0057 54.4471 44.1118C54.2566 44.1241 54.0662 44.1364 53.8764 44.1486C52.4274 44.2421 51.0181 44.333 49.9192 44.4186C49.4707 44.4535 49.0793 44.4872 48.7611 44.5193C48.9829 44.9078 49.2786 45.3858 49.5883 45.8795C49.668 46.0066 49.7487 46.1349 49.829 46.2624C50.0898 46.6768 50.3461 47.084 50.5505 47.4234C50.6839 47.645 50.8034 47.8511 50.891 48.0199C50.9343 48.1033 50.977 48.1911 51.0103 48.2747L51.0119 48.2787C51.0326 48.3303 51.0995 48.4975 51.093 48.6903C51.0862 48.8919 51.0029 49.0385 50.9442 49.1184C50.8853 49.1985 50.8229 49.2512 50.7853 49.28C50.7108 49.3371 50.6386 49.3722 50.6004 49.3898C50.5166 49.4283 50.4235 49.4592 50.3435 49.4834C50.175 49.5345 49.9465 49.5908 49.6791 49.6506C49.1387 49.7714 48.3767 49.9199 47.4736 50.0838C45.6643 50.4123 43.2566 50.8084 40.8483 51.1771C38.4404 51.5458 36.0245 51.8882 34.1996 52.1086C33.2892 52.2186 32.5152 52.2995 31.9598 52.3374C31.6857 52.3562 31.4441 52.366 31.2594 52.3605C31.1724 52.3579 31.062 52.3512 30.9559 52.3287C30.9062 52.3182 30.8136 52.2955 30.7141 52.2429C30.6311 52.199 30.3966 52.0563 30.3178 51.7424C30.2633 51.525 30.3143 51.3416 30.362 51.2329C30.4086 51.1269 30.469 51.0508 30.5079 51.0067C30.5855 50.919 30.6726 50.8532 30.7321 50.8113C30.8595 50.7218 31.0235 50.6301 31.1957 50.5413C31.5486 50.3594 32.0444 50.1352 32.6226 49.8874C33.784 49.3896 35.3394 48.7707 36.8929 48.1613C37.4751 47.9329 38.0567 47.706 38.6184 47.4868C39.5614 47.1189 40.4485 46.7727 41.1889 46.4781C41.7317 46.2621 42.1879 46.0767 42.5244 45.9331C42.4768 45.8471 42.4232 45.7527 42.3641 45.6504C42.0559 45.1167 41.6314 44.4275 41.2009 43.7287L41.1975 43.7232C40.7701 43.0294 40.3365 42.3254 40.025 41.784C39.8708 41.516 39.7359 41.2695 39.6455 41.0764C39.6028 40.985 39.5545 40.8734 39.5239 40.7633C39.5099 40.7129 39.4856 40.6152 39.4864 40.4979C39.4871 40.4101 39.5036 40.0828 39.8107 39.8627C39.9212 39.7835 40.0304 39.752 40.0545 39.745L40.0568 39.7444C40.0987 39.7321 40.1371 39.7241 40.1639 39.719C40.2191 39.7086 40.2796 39.7004 40.3366 39.6938C40.4535 39.6801 40.6068 39.6669 40.7847 39.6538C41.143 39.6275 41.6365 39.5994 42.2145 39.5696C42.8675 39.5359 43.6397 39.4996 44.46 39.461C45.0897 39.4313 45.7476 39.4004 46.4016 39.3683C47.9143 39.294 49.4123 39.2133 50.5342 39.1274C50.8515 39.1031 51.1343 39.0787 51.3763 39.0544C51.3053 38.9499 51.2291 38.8397 51.1499 38.7251L51.1497 38.7248L51.148 38.7224C50.9635 38.4556 50.7599 38.161 50.6121 37.9114C50.539 37.788 50.4624 37.6474 50.4086 37.5091C50.3818 37.4402 50.3509 37.3475 50.335 37.242C50.3205 37.1461 50.3063 36.9646 50.3887 36.7662C50.4676 36.5762 50.6001 36.468 50.6504 36.4291C50.7154 36.3788 50.7795 36.3431 50.8256 36.3197C50.9191 36.272 51.0232 36.2323 51.1183 36.1996C51.3137 36.1326 51.5664 36.0631 51.8441 35.9945C52.4046 35.856 53.1336 35.7047 53.8616 35.5667C54.5915 35.4283 55.3313 35.3012 55.917 35.2117C56.2092 35.167 56.4682 35.1308 56.6706 35.1074C56.7713 35.0957 56.8643 35.0864 56.9436 35.081C57.0019 35.077 57.1159 35.0698 57.2237 35.0836C57.4323 35.1105 57.5757 35.2142 57.6224 35.249C57.6884 35.298 57.7426 35.3509 57.7818 35.3921C57.8616 35.4759 57.9416 35.5772 58.0162 35.6784C58.1684 35.8849 58.3506 36.1631 58.5466 36.4787C58.9411 37.1139 59.4226 37.952 59.8858 38.794C60.3493 39.6367 60.8001 40.4935 61.1329 41.1679C61.2986 41.5038 61.4394 41.8032 61.5384 42.0366C61.5873 42.1518 61.6314 42.2637 61.6635 42.362C61.6793 42.4105 61.6967 42.4691 61.7094 42.5309ZM52.1789 38.9412C52.179 38.9413 52.178 38.9416 52.1759 38.9422C52.1778 38.9415 52.1789 38.9412 52.1789 38.9412Z" fill="#44358C"/>
<path fill-rule="evenodd" clip-rule="evenodd" d="M6.76601 14.0172C6.72325 14.1889 6.67095 14.4198 6.6128 14.6939C6.494 15.2537 6.35504 15.973 6.22947 16.6897C6.10358 17.4081 5.99305 18.113 5.92941 18.647C5.92555 18.6795 5.92188 18.711 5.91842 18.7417C6.06209 18.7083 6.21951 18.6693 6.38687 18.6276L6.41771 18.6199C6.72516 18.5433 7.06398 18.459 7.34925 18.4065C7.49594 18.3795 7.6539 18.356 7.80085 18.3498C7.87465 18.3467 7.96314 18.3471 8.05585 18.3592C8.14099 18.3704 8.28013 18.3976 8.42216 18.4806C8.63109 18.6026 8.7207 18.7831 8.75625 18.875C8.79392 18.9724 8.80559 19.0588 8.81026 19.1087C8.81976 19.21 8.81233 19.3055 8.80542 19.37C8.79061 19.5081 8.75805 19.6739 8.719 19.8457C8.63913 20.1971 8.50874 20.6734 8.34835 21.2221C8.02627 22.3238 7.56711 23.7714 7.10257 25.2128C6.89931 25.8434 6.6954 26.4718 6.50087 27.0712C6.2488 27.8479 6.01249 28.576 5.81377 29.1978C5.70898 29.5257 5.61562 29.821 5.53676 30.0755C6.11432 29.9792 6.86093 29.8348 7.62692 29.6865L7.65068 29.6819C8.44342 29.5284 9.25449 29.3714 9.88374 29.2679C10.1994 29.216 10.4868 29.1747 10.7102 29.1551C10.8189 29.1455 10.9367 29.1389 11.0446 29.1437C11.0971 29.146 11.1731 29.152 11.2558 29.1715C11.3117 29.1847 11.5053 29.2322 11.6682 29.4048C11.7857 29.5292 11.8315 29.6637 11.8425 29.6958L11.8432 29.6979C11.8613 29.7509 11.8722 29.7991 11.8788 29.8314C11.8922 29.8979 11.9013 29.9691 11.908 30.0332C11.9219 30.1653 11.9329 30.3369 11.9422 30.5334C11.9609 30.9299 11.9748 31.4753 11.9862 32.113C12.0006 32.914 12.0113 33.8759 12.0227 34.8927C12.0294 35.4946 12.0364 36.1156 12.0444 36.7339C12.0556 37.5926 12.0688 38.4468 12.0865 39.2421C12.4631 37.6462 12.8875 35.7299 13.2953 33.8065C13.7987 31.4317 14.2752 29.0534 14.6034 27.2625C14.7592 26.4124 14.8803 25.7017 14.9551 25.1888C14.9522 25.1893 14.9493 25.1898 14.9464 25.1903C14.5727 25.2588 14.1223 25.3505 13.6463 25.4474C13.4959 25.4781 13.3429 25.5092 13.189 25.5403C12.5578 25.6678 11.9104 25.7946 11.4034 25.8697C11.1532 25.9067 10.912 25.9351 10.7144 25.9409C10.6188 25.9438 10.501 25.9427 10.3848 25.9237C10.3264 25.9142 10.2432 25.8964 10.1533 25.8583C10.0685 25.8223 9.92314 25.7453 9.80696 25.5866C9.69073 25.4278 9.66777 25.2678 9.66137 25.22C9.65212 25.1509 9.65262 25.0907 9.65407 25.0521C9.65704 24.9732 9.66808 24.8938 9.67899 24.8281C9.70163 24.6917 9.73984 24.521 9.78655 24.3319C9.88108 23.9492 10.0261 23.4291 10.2016 22.8257C10.5125 21.7569 10.9284 20.3954 11.3519 19.0088C11.4075 18.8268 11.4632 18.6443 11.5188 18.4621C11.9997 16.8866 12.474 15.3243 12.8067 14.1444C12.9252 13.7244 13.0238 13.3593 13.0979 13.0627C12.9778 13.0726 12.8466 13.0845 12.7057 13.0983C11.9854 13.1687 11.0477 13.2849 10.1108 13.419C9.17306 13.5531 8.24751 13.7034 7.54975 13.8411C7.2203 13.9062 6.95435 13.9659 6.76601 14.0172ZM15.663 25.0849C15.6872 25.0845 15.6836 25.0865 15.6613 25.085C15.6619 25.085 15.6625 25.085 15.663 25.0849ZM12.3048 43.0911C12.3047 43.0909 12.3043 43.0897 12.3036 43.0872C12.3045 43.0899 12.3049 43.0913 12.3048 43.0911ZM5.33138 18.8473C5.3314 18.8473 5.33221 18.8473 5.33375 18.8473L5.33138 18.8473ZM14.0384 11.5473C14.0792 11.5538 14.2091 11.5746 14.3429 11.6507C14.5704 11.7801 14.6592 11.9792 14.6907 12.0668C14.7258 12.1643 14.7356 12.2504 14.7393 12.2986C14.7469 12.3979 14.7389 12.4931 14.7314 12.5595C14.7154 12.7018 14.6815 12.8761 14.6401 13.0612C14.5557 13.4389 14.4188 13.9544 14.2504 14.5515C13.9126 15.7496 13.4334 17.3279 12.9535 18.9C12.8978 19.0826 12.842 19.2651 12.7865 19.4469C12.3623 20.8356 11.9498 22.1863 11.6419 23.2446C11.5163 23.6766 11.4096 24.0547 11.3273 24.3637C11.7691 24.2934 12.3207 24.1854 12.8919 24.07C13.039 24.0403 13.1875 24.0101 13.3352 23.98C13.8149 23.8823 14.2864 23.7863 14.6761 23.7149C14.9305 23.6683 15.1655 23.6292 15.3544 23.6068C15.4477 23.5958 15.5449 23.5869 15.6349 23.5852L15.6393 23.5851C15.6948 23.584 15.8749 23.5804 16.053 23.6546C16.2392 23.7321 16.3469 23.8618 16.4009 23.945C16.4551 24.0283 16.4823 24.1053 16.496 24.1507C16.5232 24.2405 16.5305 24.3205 16.5335 24.3624C16.5399 24.4544 16.5359 24.5524 16.5304 24.6359C16.5187 24.8115 16.4907 25.0452 16.4522 25.3165C16.3744 25.8648 16.2443 26.63 16.0789 27.5329C15.7474 29.3416 15.2679 31.7342 14.7626 34.1175C14.2575 36.5005 13.7249 38.8817 13.2868 40.6669C13.0682 41.5575 12.8706 42.3102 12.71 42.8433C12.6308 43.1063 12.5547 43.3358 12.4843 43.5067C12.4512 43.5871 12.4059 43.6881 12.3475 43.7794C12.3201 43.8222 12.2662 43.9008 12.1818 43.9754C12.1114 44.0375 11.8951 44.2066 11.5736 44.1694C11.351 44.1437 11.1974 44.0312 11.1126 43.9482C11.0298 43.8672 10.9799 43.7838 10.9525 43.7318C10.8977 43.6283 10.867 43.5236 10.8488 43.4531C10.81 43.3023 10.7821 43.1165 10.7598 42.924C10.7143 42.5297 10.6795 41.9866 10.6518 41.3582C10.5961 40.0958 10.5662 38.4221 10.5445 36.7534C10.5364 36.1281 10.5294 35.5039 10.5227 34.9009C10.5114 33.8887 10.5007 32.9366 10.4864 32.1399C10.476 31.5557 10.4637 31.0634 10.448 30.6979C10.3508 30.7121 10.2436 30.7289 10.127 30.7481C9.51879 30.848 8.72419 31.0019 7.91837 31.1579L7.91207 31.1592C7.11197 31.3141 6.30022 31.4712 5.68376 31.5715C5.37858 31.6211 5.10031 31.6603 4.88777 31.6767C4.78717 31.6844 4.66567 31.6901 4.55183 31.6799C4.49978 31.6752 4.39983 31.6635 4.29033 31.6213C4.20838 31.5897 3.90801 31.4587 3.81052 31.0936C3.77544 30.9623 3.78449 30.849 3.78649 30.824L3.78667 30.8216C3.79001 30.7781 3.79608 30.7393 3.8008 30.7124C3.8105 30.6572 3.82425 30.5977 3.83814 30.542C3.86662 30.4278 3.90839 30.2797 3.95898 30.1086C4.06087 29.7641 4.20877 29.2925 4.38496 28.7412C4.58401 28.1184 4.82266 27.383 5.07613 26.6019C5.27072 26.0023 5.47404 25.3758 5.67489 24.7526C6.13946 23.3112 6.5929 21.8811 6.90862 20.8012C6.99793 20.4957 7.07495 20.2224 7.13759 19.9875C7.01479 20.017 6.88476 20.0494 6.74961 20.0831L6.74926 20.0832L6.74643 20.0839C6.43163 20.1622 6.08412 20.2488 5.79836 20.2989C5.65715 20.3238 5.49859 20.3458 5.35023 20.3473C5.27623 20.348 5.17858 20.3442 5.07425 20.3218C4.97944 20.3016 4.80463 20.2508 4.64809 20.1036C4.49815 19.9627 4.44373 19.8006 4.42513 19.7398C4.40105 19.6612 4.39025 19.5886 4.38455 19.5372C4.37296 19.4329 4.3726 19.3214 4.37562 19.2209C4.38184 19.0145 4.40611 18.7535 4.43995 18.4695C4.50828 17.8962 4.62407 17.1608 4.75198 16.4308C4.88018 15.6991 5.02247 14.9621 5.14548 14.3825C5.20684 14.0933 5.26447 13.8383 5.31399 13.6406C5.33861 13.5422 5.36276 13.4519 5.38567 13.3759C5.40253 13.3199 5.43601 13.2107 5.48704 13.1148C5.58579 12.9291 5.73347 12.8315 5.78253 12.8001C5.85168 12.7557 5.92034 12.7237 5.97266 12.7015C6.07924 12.6564 6.20232 12.6173 6.32331 12.5833C6.57024 12.5138 6.89482 12.4415 7.2593 12.3695C7.99296 12.2247 8.94707 12.0702 9.89838 11.9341C10.8505 11.7979 11.8112 11.6786 12.5597 11.6054C12.9324 11.5689 13.2623 11.5429 13.5156 11.5327C13.6406 11.5277 13.7609 11.5258 13.8642 11.5305C13.9152 11.5329 13.9761 11.5373 14.0384 11.5473ZM7.31512 19.1966C7.31515 19.1966 7.31511 19.1976 7.31495 19.1997C7.31502 19.1977 7.3151 19.1966 7.31512 19.1966Z" fill="#44358C"/>
</svg>
