<svg width="64" height="64" viewBox="0 0 64 64" fill="none" xmlns="http://www.w3.org/2000/svg">
<path fill-rule="evenodd" clip-rule="evenodd" d="M24.3118 24.8587C24.7843 24.876 25.2829 24.9226 25.6626 25.0491C26.2041 25.2294 26.5447 25.7095 26.761 26.023C26.8279 26.1199 26.8912 26.2148 26.9538 26.3084C27.1376 26.5835 27.3141 26.8478 27.5499 27.1198C28.1186 27.7757 29.013 28.4406 30.9014 28.4406C32.9117 28.4406 33.8845 27.8329 34.4872 27.2518C34.7476 27.0007 34.9433 26.7525 35.1476 26.4933C35.2021 26.4242 35.2572 26.3543 35.3144 26.2834C35.5456 25.9962 35.8896 25.5794 36.3975 25.4103C37.5986 25.0103 39.1428 25.0105 40.1926 25.0106L40.2502 25.0107C40.8581 25.0107 41.4393 25.0818 42.0419 25.4335C42.614 25.7674 43.1384 26.3159 43.7414 27.1148C44.2027 27.726 44.5592 28.6262 44.8291 29.6251C45.1039 30.6416 45.3071 31.83 45.4264 33.0704C45.6639 35.5379 45.5779 38.3011 45.0031 40.4063C43.5103 45.8746 38.7688 48.4758 35.4251 49.5893C33.9977 50.0646 32.8969 49.965 32.1363 49.3975C31.4016 48.8493 31.184 48.0097 31.184 47.4329V40.5295C31.184 40.1719 31.2933 39.7907 31.5531 39.477C31.6356 39.3775 31.7096 39.2913 31.7764 39.2135C31.9915 38.9629 32.132 38.7993 32.2383 38.5586C32.3547 38.2951 32.4399 37.8844 32.2839 37.1051C32.2453 36.9124 32.1205 36.7397 31.8748 36.603C31.6202 36.4613 31.2655 36.3805 30.8836 36.3978C30.0842 36.4341 29.5196 36.8434 29.4196 37.4426C29.2611 38.3929 29.656 38.9673 30.031 39.2794C30.4201 39.6031 30.8761 40.1533 30.8761 40.886V47.0717C30.8761 48.1965 30.6974 49.067 30.1931 49.6428C29.6553 50.2568 28.9175 50.3501 28.3183 50.3501C27.9127 50.3501 27.1337 50.1769 26.2219 49.8561C25.2777 49.5239 24.108 49.0043 22.903 48.249C20.4942 46.7392 17.9043 44.2602 16.7524 40.4245C14.9377 34.3814 17.1229 28.7526 17.8848 27.2309C18.3094 26.3829 18.8728 25.8328 19.3938 25.4934C19.8845 25.1737 20.3879 25.0107 20.7252 25.0107C20.7249 25.0107 20.7251 25.0107 20.7252 25.0107C20.7278 25.0106 20.7444 25.0101 20.7821 25.008C20.8205 25.0057 20.8703 25.0023 20.9319 24.9978C21.0063 24.9924 21.0917 24.9858 21.1889 24.9784C21.2548 24.9733 21.3261 24.9678 21.403 24.962C21.7781 24.9336 22.2616 24.8991 22.7702 24.876C23.277 24.8529 23.8196 24.8408 24.3118 24.8587ZM21.3287 26.4721C21.0622 26.4927 20.8294 26.5107 20.7252 26.5107C20.7366 26.5107 20.7329 26.5116 20.716 26.5161C20.6618 26.5306 20.4724 26.581 20.2125 26.7503C19.9018 26.9527 19.5249 27.3057 19.2261 27.9025C18.5412 29.2703 16.5327 34.4777 18.1891 39.9931C19.2066 43.3815 21.4981 45.5981 23.6996 46.978C24.7997 47.6675 25.8672 48.1412 26.7197 48.4411C27.6045 48.7524 28.1815 48.8501 28.3183 48.8501C28.8038 48.8501 28.9699 48.7628 29.0648 48.6544C29.1932 48.5078 29.3761 48.1141 29.3761 47.0717V40.886C29.3761 40.8006 29.3115 40.632 29.0717 40.4325C28.3627 39.8426 27.6786 38.7627 27.9401 37.1957C28.2017 35.6277 29.6259 34.9534 30.8155 34.8993C31.4281 34.8715 32.0679 34.9938 32.6042 35.2923C33.1496 35.5958 33.6125 36.1004 33.7547 36.8107C33.9541 37.8069 33.8831 38.5472 33.6104 39.1647C33.4049 39.6301 33.0814 40.0023 32.846 40.2731C32.7953 40.3315 32.7487 40.3851 32.7083 40.4339C32.702 40.4415 32.684 40.47 32.684 40.5295V47.4329C32.684 47.6988 32.7918 48.0151 33.0333 48.1953C33.249 48.3562 33.7753 48.5577 34.9512 48.1661C38.1158 47.1123 42.2606 44.7566 43.5561 40.0113C44.0661 38.1433 44.1608 35.578 43.9333 33.2141C43.8202 32.0387 43.6295 30.9355 43.3811 30.0164C43.1279 29.0797 42.8321 28.4 42.5442 28.0185C41.9749 27.2643 41.5956 26.9098 41.2858 26.729C41.0065 26.566 40.7276 26.5107 40.2502 26.5107C39.1299 26.5107 37.8176 26.5184 36.8714 26.8334C36.8369 26.8449 36.742 26.902 36.4827 27.2241C36.4423 27.2742 36.3987 27.3298 36.3517 27.3895C36.1435 27.6543 35.8702 28.002 35.5284 28.3316C34.6334 29.1945 33.282 29.9406 30.9014 29.9406C28.5577 29.9406 27.2566 29.0712 26.4166 28.1024C26.1124 27.7516 25.8637 27.3786 25.6722 27.0914C25.6192 27.0119 25.5706 26.939 25.5264 26.8749C25.4149 26.7133 25.333 26.6078 25.2638 26.5374C25.2168 26.4895 25.1912 26.4743 25.1855 26.4712C25.022 26.4175 24.7082 26.3742 24.257 26.3577C23.8228 26.3419 23.3258 26.3523 22.8383 26.3744C22.3525 26.3965 21.8869 26.4297 21.5163 26.4577C21.4527 26.4625 21.3899 26.4674 21.3287 26.4721Z" fill="#44358C"/>
<path fill-rule="evenodd" clip-rule="evenodd" d="M29.3056 11.3815C31.6764 11.0424 34.3417 11.3166 36.5223 12.7204C40.2707 15.1335 42.0865 19.6247 42.3466 22.3282C42.3862 22.7405 42.0841 23.1069 41.6718 23.1466C41.2595 23.1862 40.8931 22.8841 40.8534 22.4718C40.6261 20.1079 38.9831 16.0885 35.7103 13.9816C33.9216 12.8301 31.6515 12.5613 29.518 12.8664C27.3716 13.1733 25.5005 14.0411 24.524 14.9949C24.2277 15.2843 23.7529 15.2787 23.4635 14.9824C23.174 14.6861 23.1796 14.2112 23.476 13.9218C24.7451 12.6822 26.9475 11.7187 29.3056 11.3815Z" fill="#44358C"/>
<path fill-rule="evenodd" clip-rule="evenodd" d="M32.6921 16.2872C31.4207 15.7634 29.8697 15.8135 28.0632 16.6982C26.6717 17.3795 25.5494 18.6253 24.706 19.9667C23.8657 21.3034 23.3437 22.6694 23.1249 23.4943C23.0187 23.8947 22.6081 24.1332 22.2077 24.027C21.8074 23.9208 21.5689 23.5101 21.6751 23.1098C21.9303 22.1472 22.5106 20.6405 23.4362 19.1684C24.3587 17.7009 25.666 16.2018 27.4035 15.351C29.508 14.3205 31.5127 14.1791 33.2634 14.9002C34.9992 15.6152 36.3606 17.1267 37.3025 19.156C38.7565 22.2887 39.15 24.6958 39.15 25.6001C39.15 26.0143 38.8142 26.3501 38.4 26.3501C37.9858 26.3501 37.65 26.0143 37.65 25.6001C37.65 24.9724 37.3324 22.7833 35.9419 19.7875C35.1061 17.9867 33.9785 16.817 32.6921 16.2872Z" fill="#44358C"/>
<path fill-rule="evenodd" clip-rule="evenodd" d="M22.941 17.0807C23.2279 17.3795 23.2182 17.8543 22.9194 18.1411C22.6057 18.4423 22.108 18.9628 21.6542 19.5265C21.1816 20.1133 20.8301 20.6583 20.7158 21.0238C20.5923 21.4192 20.1716 21.6395 19.7763 21.516C19.3809 21.3924 19.1606 20.9718 19.2841 20.5764C19.4899 19.9179 20.005 19.1829 20.4858 18.5857C20.9853 17.9654 21.5276 17.3979 21.8806 17.0591C22.1794 16.7722 22.6542 16.7819 22.941 17.0807Z" fill="#44358C"/>
<path fill-rule="evenodd" clip-rule="evenodd" d="M31.6397 57.2881C47.3354 60.233 59.3959 46.8608 56.4566 32.4816C54.9204 24.9662 52.0402 18.6044 47.8707 14.1441C43.7333 9.71814 38.2725 7.1001 31.3631 7.1001C17.5221 7.1001 6.29999 18.3283 6.29999 32.1812C6.29999 39.1551 8.6094 44.6126 12.8358 48.7209C17.0982 52.8642 23.428 55.7473 31.6397 57.2881ZM31.3631 58.7623C48.1398 61.9101 61.0719 47.5703 57.9263 32.1812C54.7806 16.7921 46.0335 5.6001 31.3631 5.6001C16.6927 5.6001 4.79999 17.5009 4.79999 32.1812C4.79999 46.8616 14.5864 55.6146 31.3631 58.7623Z" fill="#44358C"/>
<path fill-rule="evenodd" clip-rule="evenodd" d="M61.9276 40.8527C62.3403 40.8871 62.6471 41.2496 62.6127 41.6624C62.4404 43.7296 61.3171 46.5313 60.0263 49.0342C58.7297 51.5483 57.1858 53.91 56.0683 55.0948C56.0306 55.1348 55.9921 55.1757 55.9528 55.2174C53.7799 57.5243 49.2466 62.3371 39.9302 63.1473C39.5176 63.1831 39.154 62.8777 39.1181 62.465C39.0822 62.0524 39.3876 61.6888 39.8003 61.6529C48.5477 60.8923 52.7559 56.424 54.8584 54.1916C54.8987 54.1488 54.9383 54.1068 54.9771 54.0656C55.9533 53.0306 57.4215 50.8125 58.6932 48.3467C59.9707 45.8696 60.9718 43.2912 61.1179 41.5378C61.1523 41.125 61.5148 40.8183 61.9276 40.8527Z" fill="#44358C"/>
<path fill-rule="evenodd" clip-rule="evenodd" d="M5.99999 7.3001C7.15979 7.3001 8.09999 6.3599 8.09999 5.2001C8.09999 4.0403 7.15979 3.1001 5.99999 3.1001C4.8402 3.1001 3.89999 4.0403 3.89999 5.2001C3.89999 6.3599 4.8402 7.3001 5.99999 7.3001ZM5.99999 8.8001C7.98822 8.8001 9.59999 7.18832 9.59999 5.2001C9.59999 3.21187 7.98822 1.6001 5.99999 1.6001C4.01177 1.6001 2.39999 3.21187 2.39999 5.2001C2.39999 7.18832 4.01177 8.8001 5.99999 8.8001Z" fill="#44358C"/>
</svg>
